<?xml version="1.0" encoding="UTF-8"?>
<svg enable-background="new 0 0 155.629 322.499" viewBox="0 0 155.629 322.499" xmlns="http://www.w3.org/2000/svg">
 <path d="m24.377 0.25h106.63v2.958h-106.63z" stroke="#000" stroke-linecap="round" stroke-linejoin="round" strokeMiterlimit="2.6131" strokeWidth=".5"/>
 <path d="m130.58 4.649h-105.86s1.369 5.597 9.021 10.963c0 0-0.456 1.94 2.056 3.539s3.654 1.371 3.654 1.371h76.394s1.143 0.228 3.654-1.371 2.056-3.539 2.056-3.539c7.65-5.366 9.02-10.963 9.02-10.963z" stroke="#000" stroke-linecap="round" stroke-linejoin="round" strokeMiterlimit="2.6131" strokeWidth=".5"/>
 <path d="m77.902,13.883c1.079.057 1.949-1.828 2.409-3.825 .378-1.566.548-3.135.602-3.718h-6.157c.054.583.224,2.152.602,3.718 .46,1.997 1.33,3.882 2.41,3.825h.134z" fill="#fff"/>
 <path d="m68.211,10.036c.682,1.993 1.772,3.898 2.865,3.845h.136c.857.036 1.461-1.144 1.773-2.705 .316-1.538.368-3.342.368-4.321 0-.218-.002-.394-.005-.519h-6.154c.125.603.47,2.152 1.017,3.7z" fill="#fff"/>
 <path d="m60.935,10.016c.907,1.993 2.219,3.913 3.324,3.867l.136-.003c.554.003.918-.419 1.175-1.204 .245-.771.329-1.828.329-2.859 0-1.513-.175-2.971-.243-3.478h-6.146c.199.619.714,2.149 1.425,3.677z" fill="#fff"/>
 <path d="m53.531,9.999c1.127,1.991 2.665,3.926 3.782,3.882h.135c.418-.008.657-.213.854-.649 .188-.433.27-1.077.27-1.793 0-1.961-.578-4.445-.741-5.102h-6.134c.274.632.957,2.147 1.834,3.662z" fill="#fff"/>
 <path d="m46.059,9.984c1.353,1.991 3.117,3.938 4.242,3.897h.136c.623-.003.86-.539.878-1.572 .003-2.02-1.117-5.256-1.378-5.971h-6.117c.353.643 1.2,2.144 2.239,3.646z" fill="#fff"/>
 <path d="m38.549,9.97c1.578,1.994 3.567,3.948 4.701,3.911h.136c.519-.012.677-.319.706-1.063 .01-1.938-1.74-5.748-2.091-6.48h-6.093c.431.651 1.442,2.141 2.641,3.632z" fill="#fff"/>
 <path d="m31.016,9.961c1.804,1.991 4.018,3.956 5.161,3.92h.136c.449-.023.547-.198.58-.743 .018-1.81-2.42-6.077-2.852-6.801h-6.066c.509.659 1.681,2.141 3.041,3.624z" fill="#fff"/>
 <path d="m84.636,13.881c1.092.053 2.184-1.852 2.866-3.845 .546-1.548.892-3.096 1.017-3.699h-6.157c-.003.125-.005.301-.005.519 0,.981.051,2.783.368,4.321 .311,1.562.916,2.74 1.776,2.705h.135v-.001z" fill="#fff"/>
 <path d="m89.812,9.818c0,1.031.083,2.088.329,2.859 .257.782.62,1.206 1.177,1.205h.136c1.104.047 2.417-1.873 3.323-3.866 .712-1.528 1.229-3.059 1.428-3.677h-6.146c-.07.507-.247,1.966-.247,3.479z" fill="#fff"/>
 <path d="m97.14,11.438c-.003.716.078,1.362.268,1.793 .197.436.437.642.856.649h.134c1.117.044 2.654-1.89 3.783-3.883 .877-1.516 1.562-3.03 1.836-3.661h-6.135c-.16.656-.744,3.141-.742,5.102z" fill="#fff"/>
 <path d="m104.396,12.308c.019,1.036.252,1.573.88,1.575h.135c1.125.04 2.89-1.907 4.242-3.9 1.038-1.502 1.888-3.002 2.239-3.644h-6.114c-.256.713-1.386,3.95-1.382,5.969z" fill="#fff"/>
 <path d="m111.62,12.819c.027.743.184,1.051.707,1.063h.135c1.135.037 3.124-1.92 4.7-3.911 1.2-1.491 2.213-2.982 2.644-3.633h-6.093c-.345.735-2.105,4.542-2.093,6.481z" fill="#fff"/>
 <path d="m118.816,13.14c.033.546.129.718.584.742h.135c1.143.036 3.359-1.928 5.16-3.921 1.36-1.482 2.533-2.964 3.044-3.623h-6.064c-.423.728-2.876,4.991-2.859,6.802z" fill="#fff"/>
 <path d="m76.216,16.832c-.398.228-.595.511-.592.774s.193.547.592.776c.392.224.958.369 1.589.369s1.197-.146 1.59-.369c.397-.229.594-.512.591-.776s-.193-.546-.591-.774c-.393-.225-.962-.372-1.59-.372s-1.198.147-1.589.372z" fill="#fff"/>
 <path d="m71.133,16.461c-1.199,0-1.974.562-1.976,1.052 0,.017.002.039.006.068 .028.548 1.044,1.184 2.286,1.172 1.193-.002 1.972-.566 1.974-1.056 0-.028 0-.049-.004-.065-.027-.549-1.044-1.185-2.286-1.171" fill="#fff"/>
 <path d="m64.46,16.461c-1.115,0-1.777.503-1.778.957 0,.043.005.09.015.139 .104.576 1.19,1.208 2.396,1.196 1.111-.002 1.774-.509 1.779-.958-.002-.049-.006-.094-.016-.14-.102-.572-1.19-1.207-2.396-1.194" fill="#fff"/>
 <path d="m57.789,16.461c-1.038,0-1.595.448-1.598.862 0,.062.012.133.04.211 .182.603 1.334,1.23 2.505,1.219 1.03-.002 1.594-.454 1.596-.863-.002-.067-.012-.137-.037-.212-.183-.6-1.337-1.23-2.506-1.217" fill="#fff"/>
 <path d="m51.117,16.46c-.958.004-1.424.395-1.424.767 0,.083.019.178.07.286 .266.627 1.479,1.25 2.617,1.239 .955-.004 1.423-.396 1.426-.765-.003-.086-.021-.181-.071-.288-.267-.627-1.479-1.249-2.618-1.237" fill="#fff"/>
 <path d="m44.447,16.46c-.886.008-1.268.345-1.268.67 0,.103.031.224.114.367 .356.648 1.626,1.268 2.73,1.256 .876-.006 1.262-.349 1.264-.672 0-.104-.031-.224-.112-.363-.353-.649-1.624-1.267-2.728-1.258" fill="#fff"/>
 <path d="m40.621,17.732c-.449-.667-1.774-1.28-2.847-1.272-.808.01-1.118.299-1.12.579 0,.114.047.264.169.44 .448.668 1.772,1.282 2.846,1.273 .802-.008 1.114-.302 1.116-.58 0-.115-.043-.264-.164-.44" fill="#fff"/>
 <path d="m84.442,16.461c-1.241-.012-2.26.623-2.287,1.177-.004.022-.006.042-.006.059 .002.491.777,1.054 1.978,1.056 1.241.012 2.258-.623 2.285-1.169 .002-.022.004-.043.004-.071-.004-.49-.78-1.05-1.974-1.052" fill="#fff"/>
 <path d="m91.114,16.462c-1.206-.014-2.293.619-2.396,1.198-.012.047-.016.091-.018.134 .004.451.666.958 1.783.958 1.204.014 2.292-.619 2.393-1.192 .012-.047.016-.095.016-.142-.002-.454-.664-.956-1.778-.956" fill="#fff"/>
 <path d="m97.786,16.461c-1.17-.012-2.322.615-2.506,1.219-.027.077-.04.146-.04.209 .003.412.562.863 1.6.863 1.168.012 2.322-.615 2.505-1.219 .026-.075.035-.146.038-.211-.003-.414-.565-.861-1.597-.861" fill="#fff"/>
 <path d="m104.458,16.461c-1.138-.011-2.351.612-2.619,1.24-.05.106-.071.203-.071.286 .002.369.468.762 1.428.766 1.137.011 2.35-.612 2.616-1.238 .05-.106.069-.204.069-.29-.002-.371-.47-.76-1.423-.764" fill="#fff"/>
 <path d="m111.129,16.461c-1.104-.01-2.374.608-2.731,1.258-.081.14-.113.261-.113.361 .002.324.386.666 1.267.672 1.104.012 2.374-.608 2.73-1.257 .08-.14.112-.262.112-.366-.002-.325-.387-.663-1.265-.668" fill="#fff"/>
 <path d="m114.955,17.734c-.122.174-.168.324-.168.437 .002.281.311.572 1.12.582 1.07.01 2.397-.605 2.845-1.271 .12-.176.165-.326.165-.441-.001-.281-.314-.569-1.116-.579-1.071-.009-2.398.605-2.846,1.271" fill="#fff"/>
 <path d="m30.877,56.152c0,0 1.145.156.988,1.248s-1.299,1.215-1.299,1.215c-1.303,0-2.264-.838-2.264-2.021 0-1.846 1.065-2.793 2.39-2.793 2.006,0 3.321,1.146 3.343,2.95 .022,2.004-1.415,4.101-3.643,4.124-2.475.029-4.502-1.953-4.531-4.428-.03-2.748 2.174-5.004 4.922-5.035 3.055-.033 5.559,2.415 5.594,5.469 .038,3.393-2.682,6.177-6.075,6.215-3.771.043-6.863-2.979-6.905-6.75-.047-4.189 3.311-7.625 7.5-7.674 4.655-.053 8.473,3.68 8.525,8.335 .059,5.172-4.086,9.413-9.26,9.472-5.748.066-10.46-4.539-10.525-10.288-.072-6.386 5.045-11.622 11.432-11.694 7.095-.082 12.913,5.606 12.994,12.701 .09,7.885-6.229,14.35-14.113,14.439-8.76.099-15.943-6.922-16.042-15.683-.11-9.733 7.69-17.713 17.423-17.824 10.815-.123 19.684,8.545 19.807,19.36 .137,12.016-9.494,21.868-21.512,22.005-13.352.151-24.299-10.549-24.451-23.9-.169-14.836 11.721-26.999 26.555-27.168l.172-5.579c-17.82.203-32.104,14.813-31.9,32.635 .182,16.038 13.332,28.893 29.371,28.71 14.436-.164 26.004-11.999 25.84-26.434-.147-12.991-10.8-23.403-23.791-23.256-11.691.134-21.062,9.719-20.93,21.411 .119,10.523 8.747,18.957 19.27,18.838 9.472-.107 17.062-7.873 16.954-17.344-.098-8.523-7.087-15.355-15.609-15.258-7.671.087-13.819,6.377-13.731,14.048 .078,6.905 5.738,12.438 12.643,12.358 6.215-.07 11.193-5.165 11.123-11.378-.063-5.593-4.648-10.075-10.24-10.012-5.033.058-9.066,4.185-9.01,9.217 .051,4.53 3.765,8.161 8.295,8.109 4.077-.046 7.344-3.39 7.298-7.466-.042-3.668-3.05-6.609-6.72-6.568-3.301.037-5.948,2.746-5.911,6.048 .034,2.972 2.47,5.354 5.442,5.319 2.676-.029 4.402-2.548 4.375-4.955-.025-2.167-1.605-3.543-4.015-3.543-1.591,0-2.87,1.137-2.87,3.354 0,1.422 1.154,2.429 2.718,2.429 0,0 1.374-.146 1.562-1.459s-1.189-1.499-1.189-1.499z"/>
 <path d="m32.021 57.315a1.286 1.286 0 1 0 -2.572 0 1.286 1.286 0 1 0 2.572 0"/>
 <path d="m124.752,56.152c0,0-1.145.156-.988,1.248s1.299,1.215 1.299,1.215c1.303,0 2.264-.838 2.264-2.021 0-1.846-1.065-2.793-2.39-2.793-2.006,0-3.321,1.146-3.343,2.95-.022,2.004 1.415,4.101 3.643,4.124 2.475.029 4.502-1.953 4.531-4.428 .03-2.748-2.174-5.004-4.922-5.035-3.055-.033-5.559,2.415-5.594,5.469-.038,3.393 2.682,6.177 6.075,6.215 3.771.043 6.863-2.979 6.905-6.75 .047-4.189-3.311-7.625-7.5-7.674-4.655-.053-8.473,3.68-8.525,8.335-.059,5.172 4.086,9.413 9.26,9.472 5.748.066 10.46-4.539 10.525-10.288 .072-6.386-5.045-11.622-11.432-11.694-7.095-.082-12.913,5.606-12.994,12.701-.09,7.885 6.229,14.35 14.113,14.439 8.76.099 15.943-6.922 16.042-15.683 .11-9.733-7.69-17.713-17.423-17.824-10.815-.123-19.684,8.545-19.807,19.36-.137,12.016 9.494,21.868 21.512,22.005 13.352.151 24.299-10.549 24.451-23.9 .168-14.836-11.723-26.999-26.557-27.168l-.172-5.579c17.82.203 32.104,14.813 31.9,32.635-.182,16.038-13.332,28.893-29.371,28.71-14.436-.164-26.004-11.999-25.84-26.434 .147-12.991 10.8-23.403 23.791-23.256 11.691.134 21.062,9.719 20.93,21.411-.119,10.523-8.747,18.957-19.27,18.838-9.472-.107-17.062-7.873-16.954-17.344 .098-8.523 7.087-15.355 15.609-15.258 7.671.087 13.819,6.377 13.731,14.048-.078,6.905-5.738,12.438-12.643,12.358-6.215-.07-11.193-5.165-11.123-11.378 .063-5.593 4.648-10.075 10.24-10.012 5.033.058 9.066,4.185 9.01,9.217-.051,4.53-3.765,8.161-8.295,8.109-4.077-.046-7.344-3.39-7.298-7.466 .042-3.668 3.05-6.609 6.72-6.568 3.301.037 5.948,2.746 5.911,6.048-.034,2.972-2.47,5.354-5.442,5.319-2.676-.029-4.402-2.548-4.375-4.955 .025-2.167 1.605-3.543 4.015-3.543 1.591,0 2.87,1.137 2.87,3.354 0,1.422-1.154,2.429-2.718,2.429 0,0-1.374-.146-1.562-1.459s1.191-1.499 1.191-1.499z"/>
 <path d="m126.18 57.315a1.286 1.286 0 1 0 -2.572 0 1.286 1.286 0 1 0 2.572 0"/>
 <path d="m31.658 22.84h92.558v5.578h-92.558z"/>
 <path d="m90.645 71.215h-37.462s2.229-3.338 2.691-6.75h30.146l4.625 6.75z" stroke="#000" stroke-linecap="round" stroke-linejoin="round" strokeWidth=".5"/>
 <path d="m65.084 71.215h37.462s-2.229-3.338-2.691-6.75h-30.146l-4.625 6.75z" stroke="#000" stroke-linecap="round" stroke-linejoin="round" strokeWidth=".5"/>
 <path d="m37.772 31.632h40.167v6.167h-20s-12-0.333-20.167-6.167z" stroke="#000" stroke-linecap="round" stroke-linejoin="round" strokeMiterlimit="2.6131" strokeWidth=".5"/>
 <path d="m117.65 31.632h-40.167v6.167h20s12-0.333 20.167-6.167z" stroke="#000" stroke-linecap="round" stroke-linejoin="round" strokeMiterlimit="2.6131" strokeWidth=".5"/>
 <path d="m77.657 47.632h2.754c0.927-0.923-2.475-5.539-2.475-5.539h-0.23s-3.418 4.616-2.492 5.539h2.443z" stroke="#000" stroke-linecap="round" stroke-linejoin="round" strokeWidth=".5"/>
 <path d="m71.46 47.632h2.541c0.93-0.923-1.819-5.539-1.819-5.539h-0.212s-3.538 4.616-2.761 5.539h2.251z" stroke="#000" stroke-linecap="round" stroke-linejoin="round" strokeWidth=".5"/>
 <path d="m65.713 47.632h2.326c0.936-0.923-1.16-5.539-1.16-5.539h-0.194s-3.657 4.616-3.031 5.539h2.059z" stroke="#000" stroke-linecap="round" stroke-linejoin="round" strokeWidth=".5"/>
 <path d="m60.409 47.632h2.109c0.941-0.923-0.503-5.539-0.503-5.539h-0.175s-3.777 4.616-3.3 5.539h1.869z" stroke="#000" stroke-linecap="round" stroke-linejoin="round" strokeWidth=".5"/>
 <path d="m55.437 47.632h1.896c0.946-0.923 0.154-5.539 0.154-5.539h-0.157s-3.897 4.616-3.57 5.539h1.677z" stroke="#000" stroke-linecap="round" stroke-linejoin="round" strokeWidth=".5"/>
 <path d="m53.401,42.093h-.14c0,0-.751.863-1.59,1.918 .521.775.997,1.584 1.432,2.419 .377-1.685.298-4.337.298-4.337z" stroke="#000" stroke-linecap="round" stroke-linejoin="round" strokeWidth=".5"/>
 <path d="m77.972 54.054h-2.756c-0.926 0.923 2.492 5.539 2.492 5.539h0.23s3.401-4.616 2.475-5.539h-2.441z" stroke="#000" stroke-linecap="round" stroke-linejoin="round" strokeWidth=".5"/>
 <path d="m71.75 54.054h-2.541c-0.777 0.923 2.761 5.539 2.761 5.539h0.212s2.749-4.616 1.819-5.539h-2.251z" stroke="#000" stroke-linecap="round" stroke-linejoin="round" strokeWidth=".5"/>
 <path d="m65.979 54.054h-2.327c-0.626 0.923 3.031 5.539 3.031 5.539h0.194s2.096-4.616 1.16-5.539h-2.058z" stroke="#000" stroke-linecap="round" stroke-linejoin="round" strokeWidth=".5"/>
 <path d="m60.649 54.054h-2.108c-0.478 0.923 3.3 5.539 3.3 5.539h0.175s1.444-4.616 0.503-5.539h-1.87z" stroke="#000" stroke-linecap="round" stroke-linejoin="round" strokeWidth=".5"/>
 <path d="m55.995,57.93c.72.934 1.334,1.663 1.334,1.663h.157c0,0 .792-4.616-.154-5.539h-1.678-.007c.087.523.163,1.052.219,1.587 .079.768.118,1.531.129,2.289z" stroke="#000" stroke-linecap="round" stroke-linejoin="round" strokeWidth=".5"/>
 <path d="m54.354,49.218c.41,1.089.744,2.216 1.006,3.375h31.205v-3.375h-32.211z" stroke="#000" stroke-linecap="round" stroke-linejoin="round" strokeWidth=".5"/>
 <path d="m84.234 47.632h-2.541c-0.93-0.923 1.819-5.539 1.819-5.539h0.212s3.538 4.616 2.761 5.539h-2.251z" stroke="#000" stroke-linecap="round" stroke-linejoin="round" strokeWidth=".5"/>
 <path d="m89.981 47.632h-2.326c-0.936-0.923 1.16-5.539 1.16-5.539h0.194s3.657 4.616 3.031 5.539h-2.059z" stroke="#000" stroke-linecap="round" stroke-linejoin="round" strokeWidth=".5"/>
 <path d="m95.285 47.632h-2.109c-0.941-0.923 0.503-5.539 0.503-5.539h0.175s3.777 4.616 3.3 5.539h-1.869z" stroke="#000" stroke-linecap="round" stroke-linejoin="round" strokeWidth=".5"/>
 <path d="m100.26 47.632h-1.896c-0.946-0.923-0.154-5.539-0.154-5.539h0.157s3.897 4.616 3.57 5.539h-1.677z" stroke="#000" stroke-linecap="round" stroke-linejoin="round" strokeWidth=".5"/>
 <path d="m102.293,42.093h.14c0,0 .751.863 1.59,1.918-.521.775-.997,1.584-1.432,2.419-.377-1.685-.298-4.337-.298-4.337z" stroke="#000" stroke-linecap="round" stroke-linejoin="round" strokeWidth=".5"/>
 <path d="m83.944 54.054h2.541c0.777 0.923-2.761 5.539-2.761 5.539h-0.212s-2.749-4.616-1.819-5.539h2.251z" stroke="#000" stroke-linecap="round" stroke-linejoin="round" strokeWidth=".5"/>
 <path d="m89.716 54.054h2.327c0.626 0.923-3.031 5.539-3.031 5.539h-0.194s-2.096-4.616-1.16-5.539h2.058z" stroke="#000" stroke-linecap="round" stroke-linejoin="round" strokeWidth=".5"/>
 <path d="m95.045 54.054h2.108c0.478 0.923-3.3 5.539-3.3 5.539h-0.175s-1.444-4.616-0.503-5.539h1.87z" stroke="#000" stroke-linecap="round" stroke-linejoin="round" strokeWidth=".5"/>
 <path d="m99.699,57.93c-.72.934-1.334,1.663-1.334,1.663h-.157c0,0-.792-4.616.154-5.539h1.678 .007c-.087.523-.163,1.052-.219,1.587-.079.768-.118,1.531-.129,2.289z" stroke="#000" stroke-linecap="round" stroke-linejoin="round" strokeWidth=".5"/>
 <path d="m101.341,49.218c-.41,1.089-.744,2.216-1.006,3.375h-31.205v-3.375h32.211z" stroke="#000" stroke-linecap="round" stroke-linejoin="round" strokeWidth=".5"/>
 <path d="m103.46 73.078h-51.189s-2.991 5.497-11.146 9.869v231.67l36.479-0.981h0.521l36.479 0.981v-231.67c-8.153-4.372-11.144-9.869-11.144-9.869z"/>
 <path d="m81.65 316.45-7.464-0.034-0.023-230.04s0.667-9 3.667-9h0.151c3 0 3.667 9 3.667 9l2e-3 230.07z" fill="#fff"/>
 <path d="m70.847 86.385 2e-3 230.07-6.682-0.034-0.021-230.04s0.597-9 3.282-9h0.136c2.686 0 3.283 9 3.283 9z" fill="#fff"/>
 <path d="m60.046 86.385 2e-3 230.07-5.898-0.034-0.02-230.04s0.527-9 2.898-9h0.12c2.372 0 2.898 9 2.898 9z" fill="#fff"/>
 <path d="m49.246 322.5-5.116-0.034-0.016-230.04s0.457-9 2.514-9h0.104c2.057 0 2.514 9 2.514 9v230.07z" fill="#fff"/>
 <path d="m85.02 86.385-2e-3 230.07 6.682-0.034 0.02-230.04s-0.597-9-3.282-9h-0.136c-2.686 0-3.282 9-3.282 9z" fill="#fff"/>
 <path d="m95.82 86.385-2e-3 230.07 5.898-0.034 0.02-230.04s-0.527-9-2.898-9h-0.12c-2.371 0-2.898 9-2.898 9z" fill="#fff"/>
 <path d="m106.62 322.5 5.116-0.034 0.016-230.04s-0.457-9-2.514-9h-0.104c-2.057 0-2.514 9-2.514 9v230.07z" fill="#fff"/>
</svg>
