<svg xmlns="http://www.w3.org/2000/svg" viewBox="0 0 120 180"><defs><style>.cls-1{fill:#c49ee7;}.cls-2{fill:#ac85d9;}.cls-3{fill:#9565cf;}.cls-4{fill:#7f48c7;}.cls-5{fill:#7035c0;}.cls-6{fill:#692abc;opacity:0.6;}.cls-7{fill:#380268;}.cls-8{fill:none;}.cls-11,.cls-9{fill:#f2e7f8;}.cls-10,.cls-12{fill:#fff;}.cls-11,.cls-12{fill-rule:evenodd;}</style></defs><g id="Layer_2" data-name="Layer 2"><g id="Layer_2-2" data-name="Layer 2"><path class="cls-1" d="M60,0A60,60,0,0,0,0,60V180H120V60A60,60,0,0,0,60,0Z"/><path class="cls-2" d="M120,100.29c-19.24-.76-39.33-1.17-60-1.17s-40.76.41-60,1.17V180H120Z"/><path class="cls-3" d="M0,104.61v63.13c19,1,39.1,1.49,60,1.49s41.05-.53,60-1.49V104.61c-19-1-39.1-1.49-60-1.49S19,103.64,0,104.61Z"/><path class="cls-4" d="M0,109.48v40.73c18.14,1.44,38.49,2.25,60,2.25s41.86-.81,60-2.25V109.48c-18.14-1.44-38.49-2.25-60-2.25S18.14,108,0,109.48Z"/><path class="cls-5" d="M0,115.44v17.45c14.69,2.72,36.12,4.43,60,4.43s45.31-1.71,60-4.43V115.44C105.31,112.72,83.88,111,60,111S14.69,112.72,0,115.44Z"/><ellipse class="cls-6" cx="60" cy="121.07" rx="44.55" ry="7.31"/><ellipse class="cls-7" cx="60" cy="119.91" rx="13.13" ry="2.15"/><path class="cls-8" d="M60,0A60,60,0,0,0,0,60V180H120V60A60,60,0,0,0,60,0Z"/><circle class="cls-9" cx="60" cy="94.54" r="11.57"/><ellipse class="cls-10" cx="60" cy="90.72" rx="10.92" ry="7.74"/><g id="Group-7"><path id="Fill-1" class="cls-11" d="M52,79.43c.79.29,3.46.55,8,.15s7.13-1.12,7.86-1.53c-.79-.29-3.46-.55-8-.15S52.72,79,52,79.43m8.08,1a42.11,42.11,0,0,1-6.11.15c-2.55-.16-2.94-.62-3-1.1a.77.77,0,0,1,.41-.74,7,7,0,0,1,2.33-.86A42.73,42.73,0,0,1,59.77,77a42.11,42.11,0,0,1,6.11-.15c2.55.16,2.94.62,3,1.1s-.26,1-2.74,1.6a42.73,42.73,0,0,1-6.05.91"/><path id="Fill-4" class="cls-12" d="M68.33,77.3c.2.34-.48.75-.48.75-.73.41-3.31,1.13-7.86,1.53s-7.21.14-8-.15c0,0-.74-.27-.6-.65a.77.77,0,0,0-.41.74c0,.48.43.94,3,1.1a42.11,42.11,0,0,0,6.11-.15,42.73,42.73,0,0,0,6.05-.91c2.48-.6,2.78-1.13,2.74-1.6a.76.76,0,0,0-.53-.66"/></g></g></g></svg>