 <svg
      width="68"
      height="73"
      viewBox="0 0 68 73"
      fill="none"
      xmlns="http://www.w3.org/2000/svg"
    >
      <path
        d="M34.1054 36.363C30.9216 35.6207 27.598 35.7298 24.4697 36.6795C21.3414 37.6293 18.518 39.386 16.2842 41.7731C14.0503 44.1602 12.4845 47.0934 11.7441 50.2778C11.0038 53.4621 11.1157 56.7853 12.0674 59.913C15.2511 60.654 18.5735 60.5439 21.7011 59.5938C24.8288 58.6436 27.6512 56.8868 29.8847 54.5001C32.1182 52.1134 33.6839 49.1807 34.4248 45.997C35.1656 42.8132 35.0558 39.4906 34.1054 36.363Z"
        stroke="black"
        stroke-width="2.281"
        stroke-miterlimit="10"
      />
      <path
        d="M34.1057 36.363C37.2894 37.1035 40.6111 36.9928 43.7385 36.0423C46.866 35.0917 49.6889 33.3348 51.9221 30.9479C54.1553 28.561 55.7205 25.6284 56.4612 22.4447C57.2018 19.261 57.0912 15.9385 56.1409 12.811C52.957 12.0696 49.634 12.1795 46.5061 13.1297C43.3782 14.0799 40.556 15.8369 38.3225 18.224C36.089 20.6111 34.5237 23.5442 33.7834 26.7284C33.0431 29.9125 33.1544 33.2354 34.1057 36.363Z"
        stroke="black"
        stroke-width="2.281"
        stroke-miterlimit="10"
      />
      <path
        d="M34.1055 36.3629C34.8466 33.179 34.7364 29.8561 33.7862 26.7282C32.8359 23.6003 31.0784 20.7777 28.6915 18.5441C26.3045 16.3104 23.3716 14.7445 20.1876 14.0037C17.0035 13.2629 13.6806 13.3734 10.5528 14.3239C9.81104 17.508 9.92111 20.8312 10.8711 23.9594C11.8212 27.0876 13.5778 29.9105 15.9649 32.1443C18.352 34.3781 21.2855 35.944 24.4698 36.6845C27.6541 37.425 30.9777 37.3141 34.1055 36.3629Z"
        stroke="black"
        stroke-width="2.281"
        stroke-miterlimit="10"
      />
      <path
        d="M34.1059 36.3631C33.3641 39.5468 33.4734 42.8698 34.4233 45.9978C35.3732 49.1258 37.1301 51.9485 39.517 54.1821C41.904 56.4157 44.8369 57.9815 48.0209 58.7219C51.205 59.4623 54.5281 59.3513 57.6557 58.4001C58.3972 55.2163 58.2874 51.8935 57.3373 48.7657C56.3873 45.6379 54.6305 42.8153 52.2436 40.5818C49.8567 38.3482 46.9236 36.7825 43.7397 36.0419C40.5558 35.3014 37.2335 35.4121 34.1059 36.3631Z"
        stroke="black"
        stroke-width="2.281"
        stroke-miterlimit="10"
      />
      <path
        d="M34.1056 36.363C31.8791 35.0781 29.2908 34.5638 26.7423 34.8997C24.1937 35.2357 21.8263 36.4032 20.0089 38.2212C18.1914 40.0391 17.0248 42.4059 16.6895 44.9546C16.3543 47.5032 16.8699 50.0913 18.1554 52.3174C19.4409 54.5435 21.4249 56.2833 23.7999 57.2669C26.1749 58.2505 28.8081 58.423 31.2911 57.7576C33.7741 57.0922 35.9684 55.6261 37.5333 53.5868C39.0982 51.5474 39.9463 49.0486 39.9464 46.478C39.9468 44.4275 39.4073 42.4132 38.3819 40.6375C37.3566 38.8619 35.8816 37.3876 34.1056 36.363Z"
        stroke="black"
        stroke-width="2.281"
        stroke-miterlimit="10"
      />
      <path
        d="M34.1055 36.363C36.332 37.6472 38.9196 38.1608 41.4678 37.8243C44.016 37.4878 46.3824 36.3199 48.1992 34.5017C50.0161 32.6836 51.1819 30.3167 51.5166 27.7683C51.8513 25.2198 51.3356 22.6322 50.0498 20.4065C48.764 18.1809 46.7802 16.4417 44.4053 15.4586C42.0304 14.4756 39.3977 14.3035 36.915 14.9693C34.4324 15.635 32.2383 17.1012 30.6738 19.1406C29.1094 21.1801 28.2615 23.6786 28.2617 26.249C28.262 28.2994 28.8024 30.3136 29.8281 32.089C30.8538 33.8644 32.3294 35.3385 34.1055 36.363Z"
        stroke="black"
        stroke-width="2.281"
        stroke-miterlimit="10"
      />
      <path
        d="M34.1055 36.363C33.0803 34.5875 31.6056 33.1131 29.8301 32.088C28.0545 31.063 26.0404 30.5233 23.9902 30.5233C21.94 30.5233 19.9259 31.063 18.1504 32.088C16.3748 33.1131 14.9002 34.5875 13.875 36.363C14.9 38.1388 16.3748 39.6134 18.1504 40.6387C19.926 41.6639 21.9399 42.2037 23.9902 42.2037C26.0406 42.2037 28.0545 41.6639 29.8301 40.6387C31.6057 39.6134 33.0805 38.1388 34.1055 36.363Z"
        stroke="black"
        stroke-width="2.281"
        stroke-miterlimit="10"
      />
      <path
        d="M34.1055 36.363C35.1301 38.1391 36.6034 39.614 38.3789 40.6395C40.1544 41.665 42.1693 42.2049 44.2197 42.2049C46.2701 42.2049 48.284 41.665 50.0596 40.6395C51.8351 39.614 53.3094 38.1391 54.334 36.363C53.3092 34.5873 51.8351 33.1126 50.0596 32.0873C48.2841 31.062 46.27 30.5222 44.2197 30.5222C42.1695 30.5222 40.1554 31.062 38.3799 32.0873C36.6044 33.1126 35.1303 34.5873 34.1055 36.363Z"
        stroke="black"
        stroke-width="2.281"
        stroke-miterlimit="10"
      />
      <path
        d="M34.1054 36.363C30.5555 34.314 26.4279 33.4936 22.3642 34.0291C18.3005 34.5646 14.5269 36.4259 11.6289 39.3245C8.73085 42.2231 6.87054 45.997 6.3359 50.0608C5.80125 54.1246 6.62215 58.2512 8.67183 61.8008C10.7215 65.3503 13.8859 68.1243 17.6728 69.6926C21.4597 71.261 25.658 71.5359 29.6171 70.4748C33.5763 69.4137 37.0742 67.076 39.5693 63.8241C42.0644 60.5721 43.4171 56.5878 43.417 52.489C43.4175 49.2201 42.5575 46.0087 40.9228 43.1778C39.2881 40.347 36.9369 37.9966 34.1054 36.363Z"
        stroke="black"
        stroke-width="2.281"
        stroke-miterlimit="10"
      />
      <path
        d="M34.1055 36.363C37.6553 38.4115 41.7814 39.2314 45.8447 38.6957C49.9081 38.16 53.6815 36.2985 56.5791 33.4C59.4767 30.5015 61.3366 26.7279 61.8711 22.6644C62.4055 18.6009 61.5838 14.4746 59.5342 10.9254C57.4846 7.37618 54.3218 4.60243 50.5352 3.03426C46.7485 1.46609 42.5506 1.19113 38.5918 2.25203C34.633 3.31294 31.1346 5.65044 28.6396 8.902C26.1447 12.1536 24.7921 16.1375 24.792 20.236C24.7918 23.5051 25.6523 26.7166 27.2871 29.5476C28.9219 32.3785 31.2739 34.7291 34.1055 36.363Z"
        stroke="black"
        stroke-width="2.281"
        stroke-miterlimit="10"
      />
      <path
        d="M34.1055 36.363C32.4715 33.5314 30.1201 31.1799 27.2891 29.545C24.458 27.9101 21.2467 27.0493 17.9775 27.0493C14.7083 27.0493 11.497 27.9101 8.66602 29.545C5.83498 31.1799 3.48357 33.5314 1.84961 36.363C3.48378 39.1943 5.83501 41.5455 8.66602 43.1803C11.497 44.815 14.7085 45.6756 17.9775 45.6756C21.2466 45.6756 24.4581 44.815 27.2891 43.1803C30.1201 41.5455 32.4713 39.1943 34.1055 36.363Z"
        stroke="black"
        stroke-width="2.281"
        stroke-miterlimit="10"
      />
      <path
        d="M34.1055 36.363C35.7392 39.1944 38.0891 41.5457 40.9199 43.1805C43.7507 44.8154 46.9625 45.6761 50.2314 45.6761C53.5004 45.6761 56.7112 44.8154 59.542 43.1805C62.3728 41.5457 64.7237 39.1944 66.3574 36.363C64.7239 33.5314 62.3728 31.1798 59.542 29.5448C56.7112 27.9098 53.5005 27.049 50.2314 27.049C46.9624 27.049 43.7507 27.9098 40.9199 29.5448C38.0891 31.1798 35.739 33.5314 34.1055 36.363Z"
        stroke="black"
        stroke-width="2.281"
        stroke-miterlimit="10"
      />
    </svg>