<svg xmlns="http://www.w3.org/2000/svg" xmlns:xlink="http://www.w3.org/1999/xlink" viewBox="0 0 120 181.23"><defs><style>.cls-1{fill:none;}.cls-2{fill:#40a7bf;}.cls-3{clip-path:url(#clip-path);}.cls-4{fill:#0a045a;}.cls-10,.cls-5{fill:#cfe6f9;}.cls-6,.cls-8{fill:#317691;}.cls-7{fill:#7fc5dd;}.cls-8{opacity:0.5;}.cls-9{fill:#fff;}.cls-10,.cls-9{fill-rule:evenodd;}</style><clipPath id="clip-path" transform="translate(0 0.58)"><path class="cls-1" d="M60,0A60,60,0,0,0,0,60V180H120V60A60,60,0,0,0,60,0Z"/></clipPath></defs><g id="Layer_2" data-name="Layer 2"><g id="Layer_2-2" data-name="Layer 2"><path class="cls-2" d="M60,0A60,60,0,0,0,0,60V180H120V60A60,60,0,0,0,60,0Z" transform="translate(0 0.58)"/><g class="cls-3"><rect class="cls-4" x="42.03" width="3.03" height="181.2"/><rect class="cls-4" x="76.97" width="2.8" height="181.2"/><path class="cls-5" d="M72.93-.58H60.38L42.46,1.93V-.58H40.22v181.2h2.24v-4l11.3,4H77V-.58Zm0,0V15L42.46,23.36V5.1L63.21-.58ZM42.46,130.54V112.28l30.47,2.8v20.55Zm30.47,8.66v20.55L42.46,152V133.72ZM42.46,109.1V90.85l30.47.1V111.5Zm0-21.43V69.41l30.47-2.59V87.37Zm0-21.44V48L72.93,42.7V63.24Zm0-21.43V26.54l30.47-8V39.12Zm0,128.61V155.15l30.47,8.18v17.3H63.51Z" transform="translate(0 0.58)"/><polygon class="cls-6" points="72.93 20.8 45.06 28.13 42.46 27.16 72.93 19.15 72.93 20.8"/><polygon class="cls-6" points="72.93 44.93 45.06 49.56 42.46 48.59 72.93 43.28 72.93 44.93"/><polygon class="cls-7" points="72.93 134.55 45.06 130.15 42.46 131.12 72.93 136.21 72.93 134.55"/><polygon class="cls-7" points="72.93 158.68 45.06 151.58 42.46 152.55 72.93 160.33 72.93 158.68"/><polygon class="cls-7" points="68.36 181.2 45.06 173.01 42.46 173.98 63.45 181.2 68.36 181.2"/><polygon class="cls-6" points="72.93 68.62 45.06 70.53 42.46 69.99 72.93 67.4 72.93 68.62"/><polygon class="cls-7" points="72.93 110.86 45.06 109.15 42.46 109.68 72.93 112.08 72.93 110.86"/><polygon class="cls-6" points="63.65 0 45.06 6.65 42.46 5.68 58.69 0 63.65 0"/><polygon class="cls-5" points="42.46 173.99 42.46 177.18 53.76 181.21 63.45 181.21 42.46 173.99"/><polygon class="cls-5" points="42.46 152.55 42.46 155.74 72.93 163.91 72.93 160.33 42.46 152.55"/><polygon class="cls-5" points="42.46 131.13 42.46 134.31 72.93 139.78 72.93 136.21 42.46 131.13"/><polygon class="cls-5" points="42.46 109.7 42.46 112.89 72.93 115.66 72.93 112.08 42.46 109.7"/><polygon class="cls-5" points="42.46 88.27 42.46 91.46 72.93 91.53 72.93 87.95 42.46 88.27"/><polygon class="cls-5" points="42.46 66.81 42.46 70 72.93 67.4 72.93 63.83 42.46 66.81"/><polygon class="cls-5" points="42.46 45.37 42.46 48.56 72.93 43.28 72.93 39.7 42.46 45.37"/><polygon class="cls-5" points="42.46 23.95 42.46 27.14 72.93 19.15 72.93 15.57 42.46 23.95"/><polygon class="cls-5" points="42.46 2.48 42.46 5.67 58.69 0 49.32 0 42.46 2.48"/><polygon class="cls-8" points="63.19 110.26 61.03 111.15 61.03 114.58 48.1 113.4 48.1 110.14 50.34 109.47 63.19 110.26"/><path id="Fill-15" class="cls-9" d="M46.53,98.87a10,10,0,1,0,10.68-9.19A10,10,0,0,0,46.53,98.87Z" transform="translate(0 0.58)"/><path class="cls-5" d="M63,100.31A9,9,0,0,1,46.9,96.79a10,10,0,1,0,17.8-2.66A8.94,8.94,0,0,1,63,100.31Z" transform="translate(0 0.58)"/><g id="Group-7"><g id="Group-2"><path id="Fill-1" class="cls-10" d="M46.6,89.2c.73.11,3.09-.11,7-1.23s6-2.17,6.56-2.65c-.73-.11-3.09.12-7,1.23S47.16,88.73,46.6,89.2Zm7.19-.48a38.76,38.76,0,0,1-5.29,1.17c-2.23.29-2.65,0-2.76-.44a.65.65,0,0,1,.23-.7,6.16,6.16,0,0,1,1.88-1.13A38.17,38.17,0,0,1,53,85.81a37.31,37.31,0,0,1,5.29-1.17c2.24-.3,2.65,0,2.77.43S61,86,58.89,86.91A37.67,37.67,0,0,1,53.79,88.72Z" transform="translate(0 0.58)"/><path id="Fill-4" class="cls-9" d="M60.44,84.6a.7.7,0,0,1,.57.47c.11.41-.06.91-2.12,1.84a37.67,37.67,0,0,1-5.1,1.81,38.76,38.76,0,0,1-5.29,1.17c-2.23.29-2.65,0-2.76-.44a.65.65,0,0,1,.23-.7c-.06.34.63.45.63.45.73.11,3.09-.11,7-1.23s6-2.17,6.56-2.65c0,0,.53-.46.3-.72" transform="translate(0 0.58)"/></g></g></g></g></g></svg>