<svg xmlns="http://www.w3.org/2000/svg" viewBox="0 0 120 180"><defs><style>.cls-1{fill:#52aa7e;}.cls-11,.cls-2,.cls-9{fill:#008577;}.cls-3{fill:#9857cf;}.cls-4{fill:#6d0ec1;}.cls-5{fill:#00373a;}.cls-6{fill:#380268;}.cls-7{fill:#005552;}.cls-8{fill:#92c66c;}.cls-9{opacity:0.6;}.cls-10{fill:#c6d874;}.cls-11{opacity:0.4;}.cls-12,.cls-13,.cls-14{fill:#fff;}.cls-12{fill-opacity:0.4;}.cls-12,.cls-13{fill-rule:evenodd;}.cls-15{fill:#e9edbb;}</style></defs><g id="Layer_2" data-name="Layer 2"><g id="Layer_2-2" data-name="Layer 2"><path class="cls-1" d="M60,0A60,60,0,0,0,0,60V180H120V60A60,60,0,0,0,60,0Z"/><rect class="cls-2" y="121.3" width="120" height="58.7"/><path class="cls-3" d="M38.25,97.4S36.31,85.74,52.83,85.08s25,0,28.23,8.53-4.48,12.41-9,13.67S39.4,112,38.25,97.4Z"/><path class="cls-4" d="M48.28,119.74s4.13-14.57,15.17-10.56,8.14,12.38,8.14,12.38-3,12.74-13.23,10.07S47.55,121.75,48.28,119.74Z"/><path class="cls-5" d="M51.18,140.09H68.75s8.88-.13,6.94,1.85S54,143.42,51.18,143.27c-3-.17-10.83-1.39-5.11-2.71A21,21,0,0,1,51.18,140.09Z"/><path class="cls-6" d="M54.37,132H65.59s5.67-.36,4.43,5.29-13.86,4.25-15.65,3.79-6.92-3.94-3.27-7.72A4.07,4.07,0,0,1,54.37,132Z"/><path class="cls-4" d="M60,89.61c-5.54,0-10-.82-10-1.83S54.46,86,60,86s10,.82,10,1.83S65.54,89.61,60,89.61Z"/><path class="cls-2" d="M38.25,97.4S36.31,85.74,52.83,85.08s25,0,28.23,8.53-4.48,12.41-9,13.67S39.4,112,38.25,97.4Z"/><path class="cls-7" d="M72.13,102.2c-4.42,1.34-31.08,5.13-33.62-8.54a9.86,9.86,0,0,0-.26,3.74c1.15,14.6,29.27,11.14,33.8,9.88,4.3-1.2,11.44-4.73,9.42-12.4C79.84,99,75.24,101.26,72.13,102.2Z"/><path class="cls-8" d="M48.28,119.74s4.13-14.57,15.17-10.56,8.14,12.38,8.14,12.38-3,12.74-13.23,10.07S47.55,121.75,48.28,119.74Z"/><path class="cls-9" d="M58.36,126.6c-6.18-1.62-8.83-4.9-9.81-7.68-.18.51-.27.82-.27.82-.73,2-.12,9.22,10.08,11.89s13.23-10.07,13.23-10.07a9,9,0,0,0,0-5C71.4,117.28,68.24,129.19,58.36,126.6Z"/><path class="cls-10" d="M54.37,132H65.59s5.67-.36,4.43,5.29-13.86,4.25-15.65,3.79-6.92-3.94-3.27-7.72A4.07,4.07,0,0,1,54.37,132Z"/><path class="cls-11" d="M70,134.75c-1.23,5.65-13.86,4.25-15.65,3.79a7.34,7.34,0,0,1-4.29-3.6c-1.36,3.17,2.62,5.83,4.29,6.25S68.79,143.05,70,137.4a5.53,5.53,0,0,0,0-2.72A.64.64,0,0,1,70,134.75Z"/><path class="cls-5" d="M60,89.61c-5.54,0-10-.82-10-1.83S54.46,86,60,86s10,.82,10,1.83S65.54,89.61,60,89.61Z"/><g id="Group-7"><path id="Fill-1" class="cls-12" d="M52.55,63.14c.72.26,3.17.5,7.34.14s6.54-1,7.2-1.41c-.72-.26-3.16-.51-7.34-.14s-6.54,1-7.2,1.41m7.41,1a39.38,39.38,0,0,1-5.61.14c-2.34-.15-2.69-.57-2.73-1a.71.71,0,0,1,.37-.68,6.59,6.59,0,0,1,2.14-.79,40.06,40.06,0,0,1,5.55-.84,41,41,0,0,1,5.61-.14c2.34.15,2.7.58,2.73,1s-.24.92-2.51,1.47a38.17,38.17,0,0,1-5.55.84"/><path id="Fill-4" class="cls-13" d="M67.54,61.18c.18.32-.45.69-.45.69-.66.38-3,1-7.2,1.41s-6.62.12-7.34-.14c0,0-.68-.26-.56-.6a.71.71,0,0,0-.37.68c0,.44.39.86,2.73,1A38,38,0,0,0,60,64.09a38.17,38.17,0,0,0,5.55-.84c2.27-.55,2.55-1,2.51-1.47,0-.21-.11-.42-.48-.6"/></g><circle class="cls-14" cx="60" cy="76.95" r="10.66"/><path class="cls-15" d="M66.87,78.44a9.65,9.65,0,0,1-16.63-5.78,10.66,10.66,0,1,0,19.24-.58A9.61,9.61,0,0,1,66.87,78.44Z"/></g></g></svg>