<?xml version="1.0" standalone="no"?>
<!DOCTYPE svg PUBLIC "-//W3C//DTD SVG 20010904//EN"
 "http://www.w3.org/TR/2001/REC-SVG-20010904/DTD/svg10.dtd">
<svg version="1.0" xmlns="http://www.w3.org/2000/svg"
 width="1792.000000pt" height="1792.000000pt" viewBox="0 0 1792.000000 1792.000000"
 preserveAspectRatio="xMidYMid meet">
<metadata>
Created by potrace 1.14, written by Peter Selinger 2001-2017
</metadata>
<g transform="translate(0.000000,1792.000000) scale(0.100000,-0.100000)"
fill="#000000" stroke="none">
<path d="M4745 12494 c-214 -30 -367 -74 -521 -152 -462 -233 -773 -725 -835
-1320 -15 -151 -7 -526 15 -647 38 -208 75 -323 166 -510 85 -177 166 -291
305 -430 185 -186 383 -299 628 -361 381 -97 828 -63 1142 86 288 137 551 408
699 721 275 579 239 1387 -85 1916 -103 168 -284 362 -427 456 -160 107 -359
188 -549 223 -84 16 -464 28 -538 18z m455 -279 c442 -78 764 -372 920 -842
75 -228 95 -380 87 -682 -4 -179 -10 -237 -31 -337 -93 -438 -322 -771 -646
-938 -177 -91 -343 -129 -570 -129 -225 -1 -390 34 -565 118 -340 164 -597
541 -675 995 -42 244 -38 533 11 779 68 339 252 654 487 831 253 190 625 268
982 205z"/>
<path d="M340 10760 l0 -1670 655 0 c668 0 768 4 942 40 477 99 819 395 976
847 80 228 117 478 117 783 0 589 -142 1006 -440 1294 -169 163 -344 258 -594
321 -201 51 -273 55 -992 55 l-664 0 0 -1670z m1298 1389 c218 -23 427 -87
573 -175 268 -161 420 -425 486 -846 25 -160 25 -576 0 -736 -64 -405 -203
-660 -450 -822 -109 -72 -207 -114 -356 -151 -202 -51 -298 -59 -783 -66
l-448 -6 0 1407 0 1406 440 0 c243 0 484 -5 538 -11z"/>
<path d="M8360 10760 l0 -1670 155 0 155 0 0 1670 0 1670 -155 0 -155 0 0
-1670z"/>
<path d="M9020 12295 l0 -135 580 0 580 0 0 -1535 0 -1535 160 0 160 0 0 1535
0 1535 583 2 582 3 3 133 3 132 -1326 0 -1325 0 0 -135z"/>
<path d="M14550 11390 l0 -1039 208 -3 c114 -2 441 -1 727 2 l520 5 3 1038 2
1037 -730 0 -730 0 0 -1040z m1340 952 c0 -4 -21 -28 -46 -52 -121 -118 -259
-340 -320 -515 -15 -44 -28 -81 -29 -82 -1 -2 -44 16 -96 38 -52 23 -146 55
-209 72 -112 30 -121 31 -338 32 l-222 0 0 258 0 257 630 0 c347 0 630 -4 630
-8z m40 -470 l0 -378 -36 -42 -36 -42 -78 73 c-42 40 -107 93 -143 118 -37 24
-67 49 -67 56 -1 42 104 274 172 380 39 60 168 213 180 213 4 0 8 -170 8 -378z
m-764 -146 c96 -24 275 -93 297 -115 6 -6 6 -36 -2 -86 -16 -107 -14 -317 4
-421 17 -96 54 -226 85 -300 19 -43 19 -46 3 -40 -10 3 -63 21 -118 40 -143
50 -263 69 -435 69 -130 1 -256 -14 -348 -39 l-22 -6 2 458 3 459 40 7 c22 3
119 5 215 3 147 -3 191 -7 276 -29z m499 -247 c33 -26 80 -68 104 -93 l44 -45
-37 -81 c-53 -117 -78 -231 -77 -364 0 -61 5 -133 11 -160 11 -49 7 -68 -10
-50 -15 16 -76 145 -103 219 -48 136 -62 226 -62 420 0 99 4 193 8 208 8 29 8
29 35 11 15 -9 54 -38 87 -65z m265 -622 l0 -339 -41 33 c-54 42 -68 65 -91
151 -14 52 -20 106 -20 188 -1 131 16 215 62 316 l30 67 30 -39 29 -39 1 -338z
m-673 -87 c114 -24 227 -62 315 -106 91 -46 97 -59 22 -48 -32 5 -115 9 -184
8 -169 -1 -282 -33 -438 -124 l-52 -31 -56 53 c-52 49 -184 214 -184 230 0 8
87 27 179 38 96 13 292 3 398 -20z m-595 -137 c14 -21 58 -73 98 -115 l72 -78
-101 0 -101 0 0 115 c0 63 2 115 4 115 2 0 15 -17 28 -37z m888 -94 c100 -15
167 -40 197 -71 l27 -28 -375 0 -374 1 39 21 c138 72 328 103 486 77z"/>
<path d="M16348 11923 c-2 -280 -2 -748 0 -1040 l2 -533 720 0 720 0 2 423 c2
232 2 700 0 1040 l-3 617 -719 0 -720 0 -2 -507z m1363 203 c0 -120 -2 -220
-3 -222 -2 -1 -46 4 -98 12 -236 35 -502 -2 -737 -102 -80 -35 -103 -37 -103
-10 0 7 -24 62 -54 122 -61 124 -146 248 -231 334 -37 39 -55 65 -51 75 5 13
79 15 641 13 l636 -3 0 -219z m-1200 -18 c63 -82 174 -285 194 -354 5 -18 -6
-30 -61 -69 -37 -27 -100 -77 -140 -112 l-74 -64 0 345 c0 190 2 346 5 346 2
0 36 -42 76 -92z m1147 -278 l52 -12 0 -321 c0 -354 -1 -360 -69 -532 -47
-118 -45 -117 -122 -103 -108 19 -359 14 -476 -10 -86 -18 -212 -56 -287 -87
-14 -6 -17 -5 -13 6 30 75 80 246 94 321 29 166 21 376 -23 579 -5 25 -1 28
88 67 97 43 243 86 344 102 77 12 344 6 412 -10z m-887 -375 c20 -171 -1 -356
-61 -537 -43 -128 -109 -254 -124 -237 -2 2 3 40 11 84 34 186 -15 426 -121
594 l-28 44 64 64 c34 36 99 92 143 125 l79 60 13 -48 c7 -27 18 -94 24 -149z
m-265 -370 c37 -138 20 -365 -34 -474 -40 -80 -42 -61 -41 311 l1 353 28 -60
c15 -33 36 -91 46 -130z m1206 -230 c-4 -37 -8 -40 -30 -26 -11 6 -10 15 4 45
20 41 32 33 26 -19z m-267 -66 c50 -6 92 -13 94 -15 6 -6 -102 -145 -163 -207
l-55 -58 -60 31 c-33 16 -100 42 -148 57 -77 23 -106 26 -233 27 -84 0 -161
-4 -183 -11 -29 -9 -37 -9 -34 0 16 51 306 154 495 176 111 12 185 12 287 0z
m258 -58 c8 -6 11 -52 9 -150 l-3 -141 -148 0 c-97 0 -151 4 -159 12 -8 8 4
27 50 77 33 36 85 101 116 145 54 76 56 78 89 73 19 -4 40 -10 46 -16z m-666
-200 c97 -20 203 -62 203 -80 0 -8 -111 -11 -350 -11 -337 0 -350 1 -341 18
20 38 62 55 185 77 102 19 198 17 303 -4z"/>
<path d="M13242 12273 c-38 -54 -121 -172 -184 -263 -137 -197 -455 -653 -658
-945 -81 -115 -220 -316 -310 -445 -90 -129 -194 -279 -232 -332 l-69 -98 3
-142 3 -143 752 -3 753 -2 2 -403 3 -402 133 -3 132 -3 0 406 0 405 245 0 245
0 0 125 0 125 -245 0 -245 0 0 1110 0 1110 -130 0 -129 0 -69 -97z m60 -1232
l-2 -891 -621 0 c-504 0 -620 2 -616 13 3 7 117 175 254 372 137 198 372 538
523 755 414 598 451 651 458 646 4 -2 6 -405 4 -895z"/>
<path d="M14550 8130 l0 -1840 710 0 710 0 0 1786 c0 1272 3 1791 11 1806 8
14 8 23 0 31 -6 6 -11 21 -11 34 l0 23 -710 0 -710 0 0 -1840z m360 1754 c0
-3 -28 -36 -61 -72 -34 -37 -86 -102 -117 -145 -37 -53 -59 -76 -69 -73 -8 3
-19 6 -24 6 -5 0 -9 64 -9 145 l0 145 140 0 c77 0 140 -3 140 -6z m840 -4 c0
-18 -46 -39 -130 -60 -112 -26 -266 -27 -375 -1 -79 19 -175 55 -175 66 0 3
153 5 340 5 215 0 340 -4 340 -10z m-694 -79 c159 -78 386 -105 565 -66 31 7
32 6 19 -10 -40 -48 -270 -132 -439 -160 -79 -14 -138 -16 -250 -12 -140 4
-181 11 -181 27 0 23 196 250 217 250 6 0 37 -13 69 -29z m788 -160 c-31 -83
-60 -151 -64 -151 -9 0 7 112 27 185 12 43 27 69 52 92 19 18 36 31 38 29 2
-2 -22 -72 -53 -155z m-134 -36 c-7 -33 -11 -116 -9 -199 l3 -141 -73 -195
c-40 -107 -76 -201 -81 -209 -28 -50 -24 298 5 429 29 132 102 318 142 362 24
26 26 17 13 -47z m-167 -82 c-90 -237 -115 -474 -76 -730 12 -84 14 -119 5
-137 -13 -30 -141 -84 -289 -123 -101 -26 -121 -28 -303 -28 -107 0 -208 3
-223 8 l-28 8 3 402 3 402 41 86 41 86 89 -14 c63 -11 132 -13 239 -10 174 7
307 32 434 82 47 18 87 34 88 34 1 1 -9 -29 -24 -66z m-123 -1010 c0 -5 -22
-64 -48 -133 l-47 -125 -78 -22 c-137 -39 -287 -56 -427 -49 -69 4 -140 9
-157 12 l-33 6 0 119 0 119 48 -8 c26 -4 124 -7 217 -7 186 0 275 14 420 64
88 31 105 35 105 24z m-149 -400 c-10 -27 -33 -88 -51 -138 -18 -49 -38 -96
-44 -102 -15 -17 -192 -43 -290 -43 -44 0 -119 5 -168 11 l-88 12 0 134 0 134
53 -8 c28 -4 129 -7 222 -6 143 1 186 5 270 26 55 13 103 25 107 26 4 0 -1
-20 -11 -46z m-455 -360 c52 -3 140 0 204 7 61 6 113 10 116 8 2 -3 -17 -62
-43 -131 l-47 -126 -55 -7 c-55 -7 -266 1 -328 12 l-33 6 0 125 0 126 48 -7
c26 -4 88 -9 138 -13z m38 -329 c83 -3 151 -6 153 -7 1 -2 -17 -55 -40 -118
l-43 -114 -94 3 c-52 1 -117 6 -145 10 l-50 7 -3 119 -3 119 38 -7 c21 -4 105
-10 187 -12z m-41 -320 c66 -6 77 -9 72 -23 -4 -9 -23 -59 -42 -111 -42 -111
-48 -121 -77 -115 -11 2 -47 7 -78 10 l-58 6 0 126 0 126 53 -6 c28 -3 87 -9
130 -13z m-52 -333 c5 -4 -94 -280 -125 -346 -2 -5 -5 75 -5 178 l-1 189 63
-7 c34 -4 65 -10 68 -14z"/>
<path d="M16386 9933 c-10 -61 -12 -68 -19 -80 -4 -6 0 -16 8 -23 13 -11 15
-164 15 -1239 -1 -674 -1 -1468 0 -1763 l0 -538 700 0 700 0 0 1840 0 1840
-699 0 -699 0 -6 -37z m809 -68 c-98 -47 -169 -60 -325 -60 -122 0 -156 4
-216 22 -39 12 -79 32 -89 43 l-18 20 349 -1 349 -1 -50 -23z m518 13 c-2 -5
-3 -65 -3 -134 l0 -126 -62 84 c-34 45 -84 107 -112 136 l-50 53 115 -3 c63
-2 113 -6 112 -10z m-238 -91 c42 -46 94 -109 116 -140 l40 -56 -38 -10 c-160
-42 -421 -40 -593 4 -161 41 -359 129 -339 150 4 3 26 1 50 -4 57 -14 251 -14
320 -1 95 18 187 52 262 95 39 24 80 43 89 44 9 1 51 -36 93 -82z m-828 -206
c48 -97 87 -212 108 -326 20 -103 32 -314 17 -300 -6 6 -45 101 -86 213 -62
164 -76 214 -76 260 -1 60 -16 193 -26 225 -4 13 -2 18 7 15 8 -2 33 -41 56
-87z m366 -82 c177 -38 449 -36 606 6 l51 13 20 -38 c18 -36 20 -62 20 -451 1
-349 -1 -414 -14 -421 -7 -4 -68 -13 -134 -20 -198 -20 -400 10 -599 88 -95
38 -124 58 -125 90 0 11 5 72 12 137 19 188 -15 437 -85 608 -14 34 -25 66
-25 69 0 4 41 -8 91 -27 50 -19 132 -43 182 -54z m8 -928 c134 -46 245 -64
404 -65 77 -1 173 3 213 7 l72 8 0 -114 c0 -134 15 -121 -158 -138 -130 -12
-278 1 -417 36 -148 37 -141 31 -196 178 -54 148 -63 139 82 88z m129 -353
c105 -24 381 -36 484 -20 38 6 72 10 75 8 3 -2 5 -63 3 -134 l-3 -130 -87 -12
c-100 -15 -336 -8 -426 12 l-59 13 -54 140 c-29 77 -53 143 -53 148 0 5 8 6
18 2 9 -4 55 -16 102 -27z m300 -373 c74 0 163 2 198 5 l63 5 0 -120 c0 -115
0 -119 -23 -128 -28 -12 -356 -22 -393 -13 -29 7 -34 18 -90 173 l-35 95 73
-8 c39 -5 133 -9 207 -9z m262 -426 c2 -61 1 -115 -2 -119 -9 -14 -161 -31
-244 -28 l-79 3 -12 35 c-7 19 -26 71 -43 116 l-29 81 146 1 c80 0 169 5 196
10 28 5 53 10 57 11 4 0 8 -49 10 -110z m0 -334 l0 -120 -64 -11 c-35 -7 -79
-12 -99 -13 l-37 -1 -40 108 c-22 59 -43 115 -47 125 -6 15 0 17 61 18 38 0
92 4 119 9 28 4 63 7 78 6 l29 -1 0 -120z m-1 -433 c0 -123 -1 -226 -3 -228
-4 -4 -142 364 -153 407 -6 26 -5 27 62 36 37 6 74 10 81 9 10 -1 13 -50 13
-224z"/>
<path d="M6530 8553 c-263 -14 -485 -78 -649 -187 -92 -61 -226 -204 -278
-297 -23 -41 -56 -117 -74 -169 -29 -85 -33 -110 -37 -235 -5 -174 10 -255 72
-380 53 -108 127 -192 228 -262 164 -113 209 -129 807 -278 273 -68 527 -135
565 -149 212 -80 374 -206 435 -337 73 -155 57 -359 -41 -511 -53 -84 -164
-178 -284 -240 -204 -106 -388 -139 -657 -119 -183 14 -301 37 -424 83 -129
49 -196 91 -289 183 -64 64 -90 97 -123 165 -52 108 -80 218 -88 348 l-6 102
-154 0 -153 0 0 -92 c0 -472 253 -818 706 -967 195 -64 340 -85 599 -85 234
-1 333 9 502 49 212 50 365 129 495 253 131 125 209 259 249 429 18 74 20 111
17 233 -4 130 -7 154 -35 233 -74 211 -213 358 -448 473 -149 72 -272 112
-595 190 -458 110 -661 164 -738 196 -250 104 -358 278 -332 535 30 293 220
480 565 555 38 8 132 13 255 13 169 -1 207 -4 284 -23 170 -43 322 -128 429
-241 106 -113 165 -239 188 -407 l12 -85 151 3 151 3 -3 85 c-17 438 -340 783
-840 895 -89 20 -360 50 -397 43 -5 -1 -35 -3 -65 -5z"/>
<path d="M12560 8550 c-446 -31 -758 -219 -916 -553 -56 -120 -76 -213 -77
-362 0 -156 16 -235 74 -352 84 -171 246 -302 479 -390 36 -14 289 -81 562
-149 273 -68 535 -139 581 -157 237 -94 389 -227 437 -384 25 -80 27 -213 5
-298 -60 -230 -303 -425 -618 -497 -110 -25 -364 -29 -517 -9 -215 29 -420
107 -539 205 -158 130 -245 318 -258 554 l-6 112 -155 0 -155 0 6 -142 c13
-342 139 -585 397 -767 96 -68 163 -101 286 -144 329 -115 808 -128 1161 -32
389 106 637 353 708 704 24 116 16 307 -15 406 -72 225 -217 384 -455 500
-160 78 -242 102 -737 224 -246 61 -482 122 -525 136 -118 40 -211 93 -279
160 -125 123 -159 280 -108 504 22 96 69 177 150 258 155 154 385 222 709 210
177 -7 278 -29 402 -87 176 -82 294 -193 369 -345 41 -83 60 -151 80 -287 l5
-38 149 0 c85 0 151 4 155 10 3 5 1 57 -5 115 -28 274 -147 482 -373 652 -240
181 -596 269 -977 243z"/>
<path d="M1833 8482 c-10 -6 -13 -294 -16 -1277 -4 -1359 -3 -1324 -53 -1479
-76 -235 -245 -339 -554 -340 -197 0 -326 40 -435 136 -128 113 -183 277 -201
600 l-7 118 -155 0 -155 0 6 -132 c25 -538 229 -850 622 -953 259 -67 625 -35
854 76 161 78 288 238 340 430 51 184 51 183 51 1552 l0 1277 -142 0 c-79 0
-148 -4 -155 -8z"/>
<path d="M2805 8478 c-3 -7 -4 -749 -3 -1648 l3 -1635 1148 -3 1147 -2 0 130
0 130 -990 0 -990 0 0 655 0 655 914 0 915 0 3 130 3 130 -917 0 -918 0 0 600
0 600 980 0 981 0 -3 133 -3 132 -1133 3 c-901 2 -1134 0 -1137 -10z"/>
<path d="M8433 7313 c3 -1161 3 -1179 24 -1271 88 -381 280 -639 586 -787 192
-92 381 -129 662 -129 420 1 698 94 928 313 180 171 284 378 334 661 17 98 18
182 18 1245 l0 1140 -152 3 -153 3 0 -1065 c0 -665 -4 -1103 -10 -1167 -49
-483 -278 -766 -685 -848 -271 -54 -567 -28 -769 68 -204 96 -335 249 -410
476 -62 191 -59 123 -65 1380 l-6 1150 -153 3 -153 3 4 -1178z"/>
<path d="M14572 5538 l3 -303 1588 -3 1587 -2 0 305 0 305 -1590 0 -1590 0 2
-302z"/>
</g>
</svg>
