<svg width="558" height="856" viewBox="0 0 558 856" fill="none" xmlns="http://www.w3.org/2000/svg">
<path fill-rule="evenodd" clip-rule="evenodd" d="M381.858 848.31H361.083V743.1C348.326 743.1 336.656 742.635 325.043 743.26C317.178 743.685 315.206 740.686 315.538 733.36C315.843 726.56 315.144 720.735 325.138 721.655C334.281 722.494 343.57 721.6 352.776 721.947C358.785 722.175 361.413 720.368 361.101 713.886C360.632 704.052 360.892 694.178 361.001 684.324C361.051 679.917 359.138 674.442 366.568 673.424C367.445 673.303 368.286 669.737 368.38 667.734C368.631 662.34 368.46 656.927 368.473 651.521C368.489 645.593 368.925 640.365 362.411 636.035C355.538 631.462 356.77 622.097 363.353 616.251C370.5 609.907 370.564 605.98 363.614 600.025C356.045 593.541 356.229 584.811 364.076 578.125C370.083 573.009 370.201 567.883 364.426 562.897C355.666 555.331 355.826 547.759 364.916 539.963C370.107 535.509 370.147 528.581 364.448 526.597C353.369 522.734 347.496 514.892 345.429 503.917C331.086 501.782 317.323 499.548 303.496 497.837C300.506 497.62 297.528 498.405 295.033 500.068C285.247 506.713 277.474 505.075 272.7 494.658C269.311 487.258 264.415 486.328 257.57 490.058C247.763 495.412 240.825 492.495 237.012 481.819C234.767 475.529 225.746 471.926 219.435 474.795C208.394 479.814 201.112 476.041 198.778 464.088C197.478 457.428 192.029 454.651 185.778 457.462C173.564 462.962 165.139 457.305 165.44 443.827C165.599 436.76 161.231 434.555 155.282 435.396C141.853 437.296 137.191 433.646 136.324 420.56C135.864 413.629 132.147 409.85 124.576 411.06C112.96 412.908 106.293 406.485 107.803 394.726C108.803 386.972 106.124 383.691 98.0123 384.615C86.4663 385.927 79.6752 378.028 83.1842 366.777C85.3463 359.844 83.6252 357.727 76.7242 357.077C65.9722 356.068 61.9332 349.716 64.4982 339.259C66.4672 331.237 63.2243 326.039 55.2183 324.386C45.2633 322.332 40.5562 314.356 44.8982 305.286C48.6522 297.441 46.9242 293.704 38.5062 291.86C28.1062 289.581 24.5232 280.629 29.8632 271.526C35.0932 262.611 33.0072 257.745 22.8832 256.037C11.1832 254.062 3.87421 247.178 1.40221 235.937C-1.01379 224.953 3.22321 216.056 12.3632 209.459C19.5552 204.268 19.1533 200.009 11.1423 195.045C2.24226 189.531 1.20921 180.013 8.71221 172.761C15.5322 166.168 14.8322 158.624 6.88524 153.071C-1.96076 146.89 -1.68679 136.394 7.47521 130.32C15.2332 125.179 15.9752 118.366 9.54723 111.239C2.66023 103.598 3.81323 95.33 12.5472 89.6841C19.7702 85.0131 20.2473 81.062 14.3093 75.2199C5.98125 67.0369 8.49823 55.9569 19.5862 51.9919C27.7642 49.0649 28.9332 45.241 23.9752 37.633C18.2552 28.856 21.2753 19.6019 31.3663 16.6259C39.2663 14.2939 40.9572 11.0769 36.1832 3.7529C29.8832 -5.91209 34.6262 -15.716 46.2012 -17.085C53.6962 -17.971 54.6732 -19.971 51.2192 -26.7C46.2412 -36.4 51.7272 -45.3 62.8602 -46C70.9832 -46.508 71.6192 -49.549 68.7982 -56.357C64.5502 -66.607 70.5132 -75.166 81.6982 -74.688C90.3522 -74.319 92.1112 -77.27 90.2652 -85.367C88.0982 -94.867 94.1122 -101.711 104.045 -101.154C113.095 -100.654 115.886 -103.965 114.995 -112.821C113.98 -122.911 121.208 -128.799 131.188 -127.099C140.467 -125.519 144.438 -129.699 142.418 -139.121C140.03 -150.266 143.391 -159.427 152.547 -165.883C161.729 -172.354 171.53 -172.216 181.192 -166.369C189.809 -161.153 194.334 -163.261 196.711 -173.561C198.844 -182.804 206.911 -187.216 215.597 -182.951C222.918 -179.351 226.216 -180.317 228.197 -188.751C230.374 -198.021 239.488 -201.531 247.716 -196.594C254.406 -192.58 258.183 -192.394 260.937 -200.866C264.173 -210.827 273.927 -213.51 282.268 -206.929C288.794 -201.777 292.168 -201.984 295.313 -210.45C299.248 -221.03 310.54 -222.55 318.185 -213.866C323.847 -207.431 326.985 -208.493 330.437 -215.855C335.237 -226.104 346.347 -226.989 353.49 -218.148C359.241 -211.026 362.756 -211.092 368.333 -218.423C374.91 -227.065 385.567 -226.986 391.066 -217.579C395.355 -210.24 398.966 -209.805 404.845 -215.797C412.502 -223.597 420.745 -222.153 426.754 -212.623C430.416 -206.823 436.977 -205.537 442.33 -209.579C451.823 -216.739 459.676 -215.279 464.608 -204.892C467.822 -198.115 471.699 -197.223 478.148 -200.726C487.482 -205.793 493.903 -203.084 498.51 -193.045C501.362 -186.838 508.326 -184.645 514.71 -187.955C524.258 -192.895 532.529 -189.155 534.929 -178.82C537.102 -169.462 548.343 -164.28 556.169 -169.113C565.794 -175.057 575.48 -175.236 584.826 -168.913C593.901 -162.772 596.975 -153.786 595.436 -143.113C594.012 -133.238 596.704 -130.252 606.568 -130.924C615.468 -131.524 622.168 -125.847 621.833 -116.648C621.533 -108.569 624.794 -106.175 632.376 -106.155C641.239 -106.13 646.398 -100.331 645.667 -91.2639C645.042 -83.5269 647.767 -80.4871 655.535 -79.8101C664.819 -79.0001 669.39 -72.3161 667.464 -62.9541C666.011 -55.8951 668.006 -53.29 675.287 -52.732C685.502 -51.949 690.597 -43.9499 686.814 -34.4419C683.733 -26.7019 686.031 -23.5969 693.505 -21.4629C702.568 -18.8769 705.778 -11.7631 701.988 -2.8511C699.117 3.8999 700.667 7.71603 707.303 10.539C716.921 14.63 719.278 20.9979 714.603 30.3569C711.185 37.1959 712.703 41.2739 719.696 44.4389C729.29 48.7879 731.482 57.0979 725.075 65.4089C720.628 71.1799 721.175 74.439 727.644 77.904C737.636 83.25 738.725 91.9229 730.599 100.451C725.793 105.493 726.577 108.811 732.099 112.529C742.071 119.243 742.299 127.484 733.144 135.729C727.844 140.499 728.072 145.883 733.757 150.39C743.097 157.79 742.838 166.867 733.096 173.655C725.539 178.919 725.824 184.228 733.905 188.728C744.212 194.467 749.562 204.987 747.62 215.705C745.569 227.034 736.613 235.118 724.742 236.753C722.255 237.097 719.918 238.531 717.513 239.465C718.569 242.034 719.113 245.008 720.77 247.106C728.111 256.413 724.703 266.8 713.09 269.751C705.802 271.604 702.465 277.931 704.943 285.195C708.71 296.237 706.415 301.209 696.163 305.234C688.701 308.168 685.606 313.679 687.838 321.634C691.158 333.454 687.967 338.668 675.716 341.053C668.475 342.464 665.961 347.39 666.366 354.053C667.1 366.053 664.666 369.303 653.166 371.673C646.025 373.141 642.437 377.135 643.934 385.079C645.971 395.887 639.089 402.857 628.134 401.655C626.481 401.488 624.81 401.656 623.223 402.148C621.636 402.64 620.164 403.447 618.895 404.52C617.626 405.593 616.586 406.911 615.837 408.394C615.087 409.878 614.645 411.497 614.534 413.155C613.602 424.242 609.321 427.7 597.822 427.512C590.435 427.39 585.4 430.371 584.472 438.72C583.31 449.153 576.95 453.071 566.319 450.606C558.714 448.843 551.95 453.776 550.968 461.806C549.584 473.112 540.044 477.992 530.11 472.474C523.129 468.596 515.102 471.944 513.154 479.547C510.054 491.661 501.377 495.136 491.008 488.422C484.4 484.141 477.84 486.185 474.692 493.502C469.998 504.415 461.72 506.243 451.927 498.902C449.803 497.348 447.195 496.601 444.57 496.796C429.17 498.934 413.835 501.486 397.623 504.038C394.823 514.674 389.066 523.451 377.123 527.338C375.902 527.738 375.25 537.103 377.423 539.438C386.69 549.418 387.009 553.88 377.066 563.726C372.539 568.205 372.705 572.996 377.429 577.42C386.907 586.3 386.807 592.064 377.449 600.92C372.564 605.543 372.249 610.345 377.818 615.1C386.808 622.771 386.67 630.426 378.218 638.277C376.123 640.325 374.791 643.027 374.444 645.936C373.832 652.589 373.839 659.284 374.463 665.936C374.843 669.495 377.286 672.836 378.797 676.272L381.921 675.712V721.833C394.449 721.833 406.41 722.433 418.282 721.646C428.159 720.997 426.753 727.028 427.082 733.12C427.446 739.951 426.247 743.798 417.912 743.28C406.287 742.56 394.584 743.099 381.847 743.099L381.858 848.31ZM147.114 -127.856C144.592 -124.074 141.265 -121.294 140.914 -118.177C139.288 -103.79 137.727 -101.944 123.961 -101.591C117.912 -101.436 114.624 -98.8911 115.382 -92.1861C116.682 -80.6331 112.361 -75.41 100.993 -75.094C94.3542 -74.909 92.0472 -72.4689 93.2192 -65.7019C94.9192 -55.9249 91.2082 -50.4531 81.4192 -48.6641C74.3082 -47.3641 72.4862 -44.5459 74.8042 -37.6189C77.6622 -29.0819 73.9472 -21.8511 65.2482 -20.1951C57.0212 -18.6311 56.5892 -15.2531 58.9982 -8.30106C61.6632 -0.610062 58.4862 5.86395 50.7982 8.56296C42.5452 11.463 41.8672 15.7079 45.7183 22.7629C49.6992 30.0529 47.3392 37.963 39.7902 41.071C30.7972 44.771 29.6092 50.2029 33.7562 58.1089C37.6002 65.4369 36.1293 71.5341 29.3013 76.3091C23.0463 80.6851 21.2392 85.3579 27.1742 91.7939C34.1302 99.3339 32.7222 107.663 24.1902 113.489C18.6902 117.244 17.1392 126.078 21.7972 131.153C28.6912 138.663 28.7972 145.324 21.5812 152.707C16.8492 157.548 18.2492 167.444 23.5502 171.786C31.6822 178.451 32.2732 184.398 25.6562 192.952C20.3712 199.784 21.9483 204.206 30.4133 205.698C41.2803 207.612 48.2772 214.098 51.0522 224.386C53.8522 234.786 50.4792 243.858 42.2612 250.874C35.0002 257.079 35.5772 262.436 44.1382 266.452C53.3562 270.775 55.9553 276.624 52.0303 285.505C48.9453 292.486 49.9623 296.571 58.1893 298.282C67.8713 300.293 71.5652 307.491 68.5892 316.945C65.8672 325.593 68.4102 329.833 77.0472 331.045C87.3772 332.496 92.0922 339.253 88.7652 349.279C86.3752 356.479 88.9942 358.16 95.5862 358.647C104.463 359.302 109.392 365.371 108.201 374.133C107.135 381.971 110.209 385.338 117.822 385.433C129.67 385.588 133.222 389.386 133.686 401.581C133.962 408.83 137.299 412.395 145.171 410.804C156.156 408.584 161.891 413.344 162.53 424.838C162.96 432.56 167.052 435.268 174.399 434.138C184.199 432.63 188.523 435.371 191.33 444.68C193.604 452.222 198.763 454.841 206.123 452.187C214.986 448.994 222.078 452.316 224.916 460.987C227.943 470.257 234.136 472.7 243.216 468.213C251.404 464.165 259.001 467.042 262.626 475.563C266.226 484.023 269.584 485.181 277.091 480.563C285.733 475.247 292.443 477.263 297.813 486.001C299.367 488.529 302.492 491.179 305.272 491.68C316.512 493.741 327.848 495.235 339.238 496.158C341.969 496.369 346.196 494.025 347.602 491.614C352.98 482.387 359.967 476.453 371.09 476.497C382.49 476.541 389.999 482.214 395.271 492.08C396.461 494.306 400.464 496.603 402.894 496.335C416.126 494.879 429.309 492.828 442.419 490.474C445.231 489.748 447.666 487.99 449.239 485.549C454.939 476.357 461.168 474.586 470.594 480.164C471.982 480.971 473.521 481.486 475.115 481.678C476.71 481.869 478.326 481.733 479.866 481.276C481.406 480.82 482.836 480.054 484.069 479.025C485.301 477.996 486.311 476.726 487.035 475.293C492.207 465.256 496.528 463.534 506.8 467.416C512.955 469.742 522.3 465.716 524.664 459.716C528.864 449.048 532.305 447.21 543.374 449.716C550.686 451.373 557.33 446.455 558.074 438.832C559.074 428.645 566.331 423.394 575.974 425.883C585.339 428.297 588.574 425.823 588.217 416.497C587.817 405.997 595.198 399.851 605.35 402.225C613.027 404.02 618.577 399.653 618.497 391.879C618.374 379.812 621.597 376.471 634.06 375.737C641.055 375.328 643.996 370.773 641.804 363.751C638.332 352.639 644.088 345.114 655.98 345.217C663.837 345.285 666.924 340.939 664.356 333.437C661.022 323.701 665.163 316.623 675.321 314.697C683.964 313.056 686.827 307.221 682.802 299.437C678.102 290.337 681.483 282.12 691.116 279.244C700.387 276.478 702.953 271.776 699.739 262.977C696.828 255.009 698.398 248.926 705.984 244.284C708.752 242.591 710.532 239.284 712.809 236.651C711.792 235.574 710.709 234.562 709.565 233.621C700.145 227.506 695.491 218.875 697.157 207.729C698.814 196.635 705.557 189.703 716.457 186.544C722.966 184.66 724.193 178.21 719.512 172.634C711.599 163.207 712.012 159.434 720.791 150.14C725.206 145.464 725.801 140.507 719.931 135.802C711.146 128.756 710.985 121.961 718.977 113.502C722.955 109.288 723.76 105.891 717.909 102.274C707.734 95.9849 706.862 89.674 714.368 79.591C717.812 74.966 717.449 72.138 711.868 69.458C700.939 64.206 699.094 57.043 705.878 47.384C710.159 41.291 709.025 37.9451 701.758 35.9651C690.891 33.0041 687.125 23.7959 693.518 14.8479C698.203 8.29488 697.027 5.47009 689.405 3.97409C678.18 1.77409 674.22 -6.19504 679.564 -16.333C682.9 -22.658 681.526 -25.4519 674.536 -26.6089C663.902 -28.3669 659.555 -34.8631 662.964 -44.8731C665.493 -52.2971 663.231 -53.7369 656.189 -53.6499C644.906 -53.5119 639.178 -61.4192 642.915 -71.9742C645.587 -79.5161 642.969 -80.945 636.043 -80.345C623.866 -79.286 617.891 -85.8011 620.543 -97.4451C622.205 -104.745 620.098 -106.645 612.889 -105.387C600.996 -103.321 595.621 -108.536 595.512 -120.322C595.479 -123.806 593.161 -127.272 591.541 -131.696C579.341 -121.923 568.304 -119.122 556.899 -126.446C546.439 -133.164 543.035 -143.131 545.906 -155.446C547.24 -161.165 536.45 -168.43 530.198 -166.42C516.811 -162.12 513.756 -163.662 508.489 -176.094C505.975 -182.027 501.542 -184.778 495.161 -180.823C484.053 -173.936 476.706 -176.16 472.492 -188.355C470.261 -194.814 467.23 -195.429 461.951 -191.889C451.424 -184.823 445.7 -186.147 439.562 -196.752C436.186 -202.589 430.143 -203.578 425.121 -199.12C416.821 -191.751 408.868 -192.45 402.971 -201.701C398.964 -207.987 395.039 -207.708 390.011 -203.286C382.264 -196.476 376.393 -196.34 369.25 -203.146C363.588 -208.546 358.2 -208.518 353.033 -202.974C346.594 -196.065 339.992 -196.074 332.916 -201.711C327.827 -205.77 323.583 -205.694 319.427 -200.025C313.161 -191.469 308.095 -190.814 298.384 -196.645C293.064 -199.838 289.223 -199.074 286.15 -193.297C280.582 -182.833 275.357 -181.481 264.544 -187.468C258.99 -190.544 255.986 -188.998 253.852 -183.195C249.821 -172.233 243.506 -169.661 233.193 -174.872C227.54 -177.729 224.634 -176.972 222.824 -170.503C219.648 -159.164 213.568 -156.17 203 -159.912C194.909 -162.778 190.732 -159.131 192.25 -150.528C194.32 -138.802 189.016 -127.393 178.92 -122.478C167.977 -117.141 157.926 -119.651 147.114 -127.856Z" fill="white"/>
<path fill-rule="evenodd" clip-rule="evenodd" d="M385.3 842.846C385.363 846.093 384.135 849.232 381.885 851.574C379.635 853.915 376.547 855.268 373.3 855.334H370.634C367.387 855.268 364.3 853.915 362.049 851.574C359.799 849.232 358.571 846.093 358.634 842.846V678.426C358.571 675.179 359.799 672.04 362.049 669.699C364.3 667.357 367.387 666.005 370.634 665.939H373.3C376.547 666.005 379.635 667.357 381.885 669.698C384.135 672.04 385.364 675.179 385.3 678.426V842.846Z" fill="white"/>
<path fill-rule="evenodd" clip-rule="evenodd" d="M322.893 745.969C318.833 745.969 315.538 740.598 315.538 733.969V731.3C315.538 724.673 318.838 719.3 322.893 719.3H419.739C423.8 719.3 427.094 724.673 427.094 731.3V733.966C427.094 740.595 423.8 745.966 419.739 745.966L322.893 745.969Z" fill="white"/>
</svg>
