<svg version="1.1" id="Layer_1" xmlns="http://www.w3.org/2000/svg" xmlns:xlink="http://www.w3.org/1999/xlink" x="0px" y="0px"
	 width="100%" viewBox="0 0 1024 1024" enable-background="new 0 0 1024 1024" xml:space="preserve">
<path fill="#E9EBEB" opacity="1.000000" stroke="none" 
	d="
M568.000000,1025.000000 
	C378.666656,1025.000000 189.833328,1025.000000 1.000000,1025.000000 
	C1.000000,683.666687 1.000000,342.333344 1.000000,1.000000 
	C342.333344,1.000000 683.666687,1.000000 1025.000000,1.000000 
	C1025.000000,342.333344 1025.000000,683.666687 1025.000000,1025.000000 
	C872.833313,1025.000000 720.666687,1025.000000 568.000000,1025.000000 
M197.917313,494.681915 
	C200.463104,512.318665 202.244614,530.106079 205.685852,547.566345 
	C221.301422,626.797119 256.387756,696.959351 306.241821,760.013733 
	C364.945282,834.260620 438.836609,890.101624 520.728027,936.132568 
	C522.195251,936.957336 524.986755,936.951538 526.414246,936.092834 
	C547.955017,923.136658 569.788452,910.603760 590.738342,896.740112 
	C657.015442,852.880615 714.921204,800.182007 761.276550,735.091736 
	C821.427612,650.629944 851.445984,556.396606 852.811279,453.209442 
	C853.891541,371.562561 853.014832,289.889740 852.992859,208.228455 
	C852.992676,207.442612 852.797119,206.656815 852.652283,205.565536 
	C846.360596,205.054886 840.237488,204.667175 834.138489,204.043579 
	C810.456543,201.622192 786.717651,199.621277 763.120667,196.539352 
	C729.131287,192.100128 695.453430,185.899628 662.266541,177.064911 
	C624.779663,167.085480 588.599731,153.980637 555.095337,134.183044 
	C544.393921,127.859650 534.012085,120.995300 523.288574,114.255569 
	C487.581421,140.562759 447.549255,158.536285 404.967712,171.330505 
	C346.982239,188.753052 287.586700,198.116516 227.379990,203.007050 
	C216.977966,203.851990 206.575790,204.694748 196.122345,205.542679 
	C196.062027,206.895309 195.980148,207.885651 195.979095,208.876068 
	C195.897308,285.371124 195.686691,361.866425 195.843658,438.360992 
	C195.881577,456.834167 197.136688,475.304840 197.917313,494.681915 
M170.779556,527.714355 
	C171.838013,527.243530 172.959671,526.877686 173.944519,526.284607 
	C179.747055,522.790405 181.602310,516.185852 178.470245,510.363190 
	C175.568024,504.967834 168.289108,502.746216 162.423035,505.465332 
	C157.238785,507.868469 154.780777,514.502625 156.896698,520.380981 
	C158.860550,525.836853 162.733841,528.052002 170.779556,527.714355 
M179.211212,246.575211 
	C176.692001,237.275467 163.183029,235.969421 158.256073,242.972855 
	C155.015488,247.579193 155.061035,254.028610 158.483124,258.344696 
	C161.467438,262.108643 167.275604,263.445587 172.114944,261.482513 
	C177.790482,259.180237 180.421906,254.131104 179.211212,246.575211 
M890.739380,508.945251 
	C883.367310,501.568024 872.614014,503.284332 869.944763,512.264343 
	C868.324951,517.713745 870.298462,523.522827 874.732178,526.355896 
	C878.954895,529.054199 885.173706,528.484497 889.135620,525.036438 
	C893.469299,521.264832 894.162231,515.912109 890.739380,508.945251 
M884.452148,238.968185 
	C882.967102,238.866135 881.477234,238.631882 879.997986,238.686279 
	C875.112671,238.865952 871.765869,241.506790 870.220215,245.938309 
	C868.591553,250.607758 869.182373,255.214676 872.725464,258.984528 
	C876.063477,262.536102 880.333862,263.012299 884.714600,261.648956 
	C889.563354,260.140015 892.592712,256.764679 893.120178,251.561844 
	C893.697144,245.870865 891.265381,242.161850 884.452148,238.968185 
M162.406265,421.165802 
	C167.835373,422.119080 171.286545,420.211884 171.854752,415.944275 
	C172.373657,412.047119 169.550400,408.405701 165.525253,408.830719 
	C163.273956,409.068451 160.411865,410.600525 159.245071,412.446808 
	C157.269333,415.573181 158.255096,418.853790 162.406265,421.165802 
M889.285889,356.169952 
	C886.201355,353.185333 882.769592,352.712921 879.530334,355.574646 
	C876.673767,358.098328 876.346313,361.449188 878.624329,364.560883 
	C880.762451,367.481567 883.971436,368.215973 887.061646,366.500702 
	C890.968018,364.332336 892.122192,360.935486 889.285889,356.169952 
M170.314178,364.789185 
	C172.974579,359.927948 171.599396,355.246307 167.051147,354.034180 
	C163.858917,353.183472 160.494064,353.776337 159.518417,356.994629 
	C158.786331,359.409546 159.115295,363.051849 160.537949,365.009766 
	C162.888245,368.244385 166.547791,367.915283 170.314178,364.789185 
M888.334839,326.890930 
	C891.352661,323.799927 891.975281,320.490448 888.671936,317.318359 
	C885.906372,314.662659 882.480347,314.545837 879.602173,316.899292 
	C876.885864,319.120392 876.319580,322.428955 878.339722,325.416046 
	C880.691467,328.893280 883.929626,329.995361 888.334839,326.890930 
M160.703705,443.738617 
	C163.830719,445.889648 167.333344,446.276703 169.576569,443.174652 
	C170.970963,441.246429 171.764801,437.503082 170.792572,435.632233 
	C169.817902,433.756561 166.289642,432.202515 163.924637,432.261871 
	C158.839691,432.389526 157.148270,437.937225 160.703705,443.738617 
M890.223328,441.417694 
	C891.428101,436.479706 889.815918,433.033508 885.773621,432.206482 
	C882.261169,431.487915 879.586060,432.841614 878.045776,436.055817 
	C876.443176,439.400024 877.425476,442.308838 880.426575,444.202881 
	C884.096313,446.518890 887.325989,445.475342 890.223328,441.417694 
M167.596161,328.195557 
	C171.311523,326.288147 173.225525,323.427582 171.300461,319.365906 
	C169.705994,316.001740 166.718399,314.700317 163.039581,315.788391 
	C159.201355,316.923584 157.767975,319.873566 158.672821,323.466583 
	C159.686707,327.492676 162.567993,329.392334 167.596161,328.195557 
M878.548096,418.904510 
	C882.480530,422.062561 886.448181,422.324219 889.149841,419.433411 
	C891.716187,416.687439 891.916504,413.175873 889.171631,411.031006 
	C887.203247,409.492859 883.423401,408.625549 881.187622,409.451355 
	C877.553345,410.793671 876.680908,414.465485 878.548096,418.904510 
z"/>
<path fill="#0C0A0B" opacity="1.000000" stroke="none" 
	d="
M197.874695,494.229279 
	C197.136688,475.304840 195.881577,456.834167 195.843658,438.360992 
	C195.686691,361.866425 195.897308,285.371124 195.979095,208.876068 
	C195.980148,207.885651 196.062027,206.895309 196.122345,205.542679 
	C206.575790,204.694748 216.977966,203.851990 227.379990,203.007050 
	C287.586700,198.116516 346.982239,188.753052 404.967712,171.330505 
	C447.549255,158.536285 487.581421,140.562759 523.288574,114.255569 
	C534.012085,120.995300 544.393921,127.859650 555.095337,134.183044 
	C588.599731,153.980637 624.779663,167.085480 662.266541,177.064911 
	C695.453430,185.899628 729.131287,192.100128 763.120667,196.539352 
	C786.717651,199.621277 810.456543,201.622192 834.138489,204.043579 
	C840.237488,204.667175 846.360596,205.054886 852.652283,205.565536 
	C852.797119,206.656815 852.992676,207.442612 852.992859,208.228455 
	C853.014832,289.889740 853.891541,371.562561 852.811279,453.209442 
	C851.445984,556.396606 821.427612,650.629944 761.276550,735.091736 
	C714.921204,800.182007 657.015442,852.880615 590.738342,896.740112 
	C569.788452,910.603760 547.955017,923.136658 526.414246,936.092834 
	C524.986755,936.951538 522.195251,936.957336 520.728027,936.132568 
	C438.836609,890.101624 364.945282,834.260620 306.241821,760.013733 
	C256.387756,696.959351 221.301422,626.797119 205.685852,547.566345 
	C202.244614,530.106079 200.463104,512.318665 197.874695,494.229279 
M388.795990,208.363464 
	C335.175934,222.232895 280.524170,229.893555 225.170029,234.937500 
	C225.170029,239.140182 225.191040,242.790207 225.166870,246.439957 
	C224.825867,297.927673 224.618210,349.416779 224.088562,400.902588 
	C223.671722,441.422974 224.195419,481.844421 230.960266,521.966309 
	C236.954819,557.519531 245.941757,592.233582 259.688324,625.579590 
	C285.823792,688.978210 324.873138,743.725464 373.016541,792.133118 
	C417.245178,836.604431 468.454102,871.904114 522.108032,903.859131 
	C523.145874,904.477173 525.300476,904.330322 526.355225,903.646973 
	C550.796814,887.812561 575.726440,872.651001 599.415894,855.752991 
	C648.640442,820.640198 692.420959,779.658264 728.768799,731.063110 
	C757.776306,692.281494 781.388000,650.622192 797.137146,604.655457 
	C815.728699,550.392456 824.350586,494.474365 824.410645,437.274933 
	C824.472717,378.122803 823.712952,318.969818 823.329712,259.817108 
	C823.277100,251.696014 823.322510,243.574280 823.322510,235.284668 
	C819.596008,234.829910 816.328796,234.349838 813.045410,234.042923 
	C772.219482,230.226593 731.700684,224.397675 691.568481,215.902267 
	C633.814026,203.676559 577.711121,186.879623 526.148376,157.185043 
	C524.642944,156.318054 521.711182,156.769119 519.974731,157.650467 
	C508.995087,163.223389 498.364441,169.511612 487.247986,174.781937 
	C455.981812,189.605225 422.996674,199.530975 388.795990,208.363464 
z"/>
<path fill="#100F0F" opacity="1.000000" stroke="none" 
	d="
M170.376251,527.786804 
	C162.733841,528.052002 158.860550,525.836853 156.896698,520.380981 
	C154.780777,514.502625 157.238785,507.868469 162.423035,505.465332 
	C168.289108,502.746216 175.568024,504.967834 178.470245,510.363190 
	C181.602310,516.185852 179.747055,522.790405 173.944519,526.284607 
	C172.959671,526.877686 171.838013,527.243530 170.376251,527.786804 
z"/>
<path fill="#0E0E0E" opacity="1.000000" stroke="none" 
	d="
M179.354431,246.945953 
	C180.421906,254.131104 177.790482,259.180237 172.114944,261.482513 
	C167.275604,263.445587 161.467438,262.108643 158.483124,258.344696 
	C155.061035,254.028610 155.015488,247.579193 158.256073,242.972855 
	C163.183029,235.969421 176.692001,237.275467 179.354431,246.945953 
z"/>
<path fill="#100F0F" opacity="1.000000" stroke="none" 
	d="
M890.936157,509.276733 
	C894.162231,515.912109 893.469299,521.264832 889.135620,525.036438 
	C885.173706,528.484497 878.954895,529.054199 874.732178,526.355896 
	C870.298462,523.522827 868.324951,517.713745 869.944763,512.264343 
	C872.614014,503.284332 883.367310,501.568024 890.936157,509.276733 
z"/>
<path fill="#0E0E0E" opacity="1.000000" stroke="none" 
	d="
M884.821655,239.055649 
	C891.265381,242.161850 893.697144,245.870865 893.120178,251.561844 
	C892.592712,256.764679 889.563354,260.140015 884.714600,261.648956 
	C880.333862,263.012299 876.063477,262.536102 872.725464,258.984528 
	C869.182373,255.214676 868.591553,250.607758 870.220215,245.938309 
	C871.765869,241.506790 875.112671,238.865952 879.997986,238.686279 
	C881.477234,238.631882 882.967102,238.866135 884.821655,239.055649 
z"/>
<path fill="#141615" opacity="1.000000" stroke="none" 
	d="
M162.042725,421.059326 
	C158.255096,418.853790 157.269333,415.573181 159.245071,412.446808 
	C160.411865,410.600525 163.273956,409.068451 165.525253,408.830719 
	C169.550400,408.405701 172.373657,412.047119 171.854752,415.944275 
	C171.286545,420.211884 167.835373,422.119080 162.042725,421.059326 
z"/>
<path fill="#121313" opacity="1.000000" stroke="none" 
	d="
M889.522949,356.481171 
	C892.122192,360.935486 890.968018,364.332336 887.061646,366.500702 
	C883.971436,368.215973 880.762451,367.481567 878.624329,364.560883 
	C876.346313,361.449188 876.673767,358.098328 879.530334,355.574646 
	C882.769592,352.712921 886.201355,353.185333 889.522949,356.481171 
z"/>
<path fill="#121313" opacity="1.000000" stroke="none" 
	d="
M170.017578,365.052917 
	C166.547791,367.915283 162.888245,368.244385 160.537949,365.009766 
	C159.115295,363.051849 158.786331,359.409546 159.518417,356.994629 
	C160.494064,353.776337 163.858917,353.183472 167.051147,354.034180 
	C171.599396,355.246307 172.974579,359.927948 170.017578,365.052917 
z"/>
<path fill="#141615" opacity="1.000000" stroke="none" 
	d="
M888.037842,327.124817 
	C883.929626,329.995361 880.691467,328.893280 878.339722,325.416046 
	C876.319580,322.428955 876.885864,319.120392 879.602173,316.899292 
	C882.480347,314.545837 885.906372,314.662659 888.671936,317.318359 
	C891.975281,320.490448 891.352661,323.799927 888.037842,327.124817 
z"/>
<path fill="#121313" opacity="1.000000" stroke="none" 
	d="
M160.438721,443.491516 
	C157.148270,437.937225 158.839691,432.389526 163.924637,432.261871 
	C166.289642,432.202515 169.817902,433.756561 170.792572,435.632233 
	C171.764801,437.503082 170.970963,441.246429 169.576569,443.174652 
	C167.333344,446.276703 163.830719,445.889648 160.438721,443.491516 
z"/>
<path fill="#121313" opacity="1.000000" stroke="none" 
	d="
M890.055725,441.759399 
	C887.325989,445.475342 884.096313,446.518890 880.426575,444.202881 
	C877.425476,442.308838 876.443176,439.400024 878.045776,436.055817 
	C879.586060,432.841614 882.261169,431.487915 885.773621,432.206482 
	C889.815918,433.033508 891.428101,436.479706 890.055725,441.759399 
z"/>
<path fill="#141615" opacity="1.000000" stroke="none" 
	d="
M167.240967,328.327759 
	C162.567993,329.392334 159.686707,327.492676 158.672821,323.466583 
	C157.767975,319.873566 159.201355,316.923584 163.039581,315.788391 
	C166.718399,314.700317 169.705994,316.001740 171.300461,319.365906 
	C173.225525,323.427582 171.311523,326.288147 167.240967,328.327759 
z"/>
<path fill="#121313" opacity="1.000000" stroke="none" 
	d="
M878.349609,418.596985 
	C876.680908,414.465485 877.553345,410.793671 881.187622,409.451355 
	C883.423401,408.625549 887.203247,409.492859 889.171631,411.031006 
	C891.916504,413.175873 891.716187,416.687439 889.149841,419.433411 
	C886.448181,422.324219 882.480530,422.062561 878.349609,418.596985 
z"/>
<path fill="#F9F9F9" opacity="1.000000" stroke="none" 
	d="
M389.190399,208.254517 
	C422.996674,199.530975 455.981812,189.605225 487.247986,174.781937 
	C498.364441,169.511612 508.995087,163.223389 519.974731,157.650467 
	C521.711182,156.769119 524.642944,156.318054 526.148376,157.185043 
	C577.711121,186.879623 633.814026,203.676559 691.568481,215.902267 
	C731.700684,224.397675 772.219482,230.226593 813.045410,234.042923 
	C816.328796,234.349838 819.596008,234.829910 823.322510,235.284668 
	C823.322510,243.574280 823.277100,251.696014 823.329712,259.817108 
	C823.712952,318.969818 824.472717,378.122803 824.410645,437.274933 
	C824.350586,494.474365 815.728699,550.392456 797.137146,604.655457 
	C781.388000,650.622192 757.776306,692.281494 728.768799,731.063110 
	C692.420959,779.658264 648.640442,820.640198 599.415894,855.752991 
	C575.726440,872.651001 550.796814,887.812561 526.355225,903.646973 
	C525.300476,904.330322 523.145874,904.477173 522.108032,903.859131 
	C468.454102,871.904114 417.245178,836.604431 373.016541,792.133118 
	C324.873138,743.725464 285.823792,688.978210 259.688324,625.579590 
	C245.941757,592.233582 236.954819,557.519531 230.960266,521.966309 
	C224.195419,481.844421 223.671722,441.422974 224.088562,400.902588 
	C224.618210,349.416779 224.825867,297.927673 225.166870,246.439957 
	C225.191040,242.790207 225.170029,239.140182 225.170029,234.937500 
	C280.524170,229.893555 335.175934,222.232895 389.190399,208.254517 
M716.146729,717.631775 
	C731.212219,697.858154 744.512634,676.937317 755.941467,654.885193 
	C788.227478,592.589355 803.989868,525.790222 805.565125,456.126129 
	C807.082642,389.013916 805.533142,321.832336 805.315308,254.681259 
	C805.311707,253.578339 805.107178,252.476089 804.990295,251.312683 
	C804.046021,251.163681 803.407471,251.050461 802.765381,250.963394 
	C776.545593,247.407776 750.154053,244.793579 724.151001,240.050217 
	C695.215820,234.771973 666.473694,228.194138 637.937683,221.026764 
	C598.934021,211.230179 561.351746,197.429535 526.224121,177.477402 
	C525.058289,176.815186 522.819092,177.168625 521.472595,177.837936 
	C511.497406,182.796127 501.802124,188.349060 491.681458,192.977173 
	C459.481415,207.702072 425.639587,217.614090 391.416687,226.293915 
	C354.276398,235.713684 316.656799,242.583588 278.601379,247.052826 
	C266.775818,248.441605 254.944199,249.778946 243.002472,251.152817 
	C243.002472,252.258896 243.004074,252.911026 243.002258,253.563156 
	C242.855637,306.051788 243.205673,358.547943 242.410751,411.026733 
	C241.727081,456.160706 244.169647,500.841309 253.615692,545.138977 
	C268.727997,616.008667 300.610107,678.569031 345.667694,734.791626 
	C380.827301,778.663635 422.212341,815.858704 468.351013,847.789307 
	C486.531799,860.371399 505.265320,872.154785 523.044495,883.840149 
	C597.834229,839.840942 664.108948,787.504333 716.146729,717.631775 
z"/>
<path fill="#0C0A0B" opacity="1.000000" stroke="none" 
	d="
M715.953979,717.931519 
	C664.108948,787.504333 597.834229,839.840942 523.044495,883.840149 
	C505.265320,872.154785 486.531799,860.371399 468.351013,847.789307 
	C422.212341,815.858704 380.827301,778.663635 345.667694,734.791626 
	C300.610107,678.569031 268.727997,616.008667 253.615692,545.138977 
	C244.169647,500.841309 241.727081,456.160706 242.410751,411.026733 
	C243.205673,358.547943 242.855637,306.051788 243.002258,253.563156 
	C243.004074,252.911026 243.002472,252.258896 243.002472,251.152817 
	C254.944199,249.778946 266.775818,248.441605 278.601379,247.052826 
	C316.656799,242.583588 354.276398,235.713684 391.416687,226.293915 
	C425.639587,217.614090 459.481415,207.702072 491.681458,192.977173 
	C501.802124,188.349060 511.497406,182.796127 521.472595,177.837936 
	C522.819092,177.168625 525.058289,176.815186 526.224121,177.477402 
	C561.351746,197.429535 598.934021,211.230179 637.937683,221.026764 
	C666.473694,228.194138 695.215820,234.771973 724.151001,240.050217 
	C750.154053,244.793579 776.545593,247.407776 802.765381,250.963394 
	C803.407471,251.050461 804.046021,251.163681 804.990295,251.312683 
	C805.107178,252.476089 805.311707,253.578339 805.315308,254.681259 
	C805.533142,321.832336 807.082642,389.013916 805.565125,456.126129 
	C803.989868,525.790222 788.227478,592.589355 755.941467,654.885193 
	C744.512634,676.937317 731.212219,697.858154 715.953979,717.931519 
M471.851562,598.238831 
	C469.514130,633.992126 465.265015,669.513123 458.805817,704.759827 
	C453.591248,733.214905 445.812805,760.799805 430.967865,785.963562 
	C430.165680,787.323364 429.699066,788.881165 429.029755,790.456055 
	C449.084259,796.840820 466.512909,807.320435 481.688141,820.983459 
	C496.822388,834.609619 510.804199,849.515747 525.220947,863.791138 
	C550.779419,833.006104 579.038635,804.108704 619.208191,790.145935 
	C618.812805,789.068665 618.684875,788.423218 618.365601,787.892883 
	C606.202393,767.689819 598.507812,745.767029 593.620850,722.821106 
	C585.314026,683.817139 579.765503,644.397644 577.430054,604.595276 
	C576.076965,581.535156 575.823181,558.410400 575.061218,534.899597 
	C581.637817,534.899597 587.442078,534.903931 593.246277,534.898804 
	C612.745544,534.881592 632.245422,534.933960 651.743469,534.770081 
	C655.003601,534.742676 656.692932,535.495483 657.772644,538.843079 
	C659.603760,544.520142 662.198242,549.946655 664.342224,555.528381 
	C666.050781,559.976746 669.040283,562.987793 673.384399,564.954163 
	C681.113770,568.452820 688.848633,571.968384 696.384583,575.857727 
	C705.181274,580.397766 713.767395,585.345764 722.519958,590.158081 
	C736.863831,547.883911 764.710754,516.288818 799.074524,488.755371 
	C789.174133,476.062347 779.747681,463.368164 769.673096,451.211121 
	C756.390015,435.182495 742.096375,419.928162 732.454651,401.232361 
	C728.762756,394.073456 725.635925,386.623138 722.492676,379.826996 
	C708.543457,387.384552 695.012939,395.694946 680.651917,402.160675 
	C670.640442,406.668152 663.238159,412.803772 658.676147,422.551025 
	C657.384521,425.310822 655.623352,426.193481 652.498718,426.172089 
	C628.167114,426.005585 603.833984,426.076996 579.501282,426.058929 
	C578.245117,426.057983 576.989136,425.911072 575.872253,425.840881 
	C575.872253,403.733795 575.872253,382.013153 575.872253,360.166656 
	C583.018188,362.311768 589.680969,364.311829 596.754761,366.435303 
	C603.419495,341.795868 613.129700,318.564545 625.985718,296.226410 
	C580.974060,274.941071 548.314148,241.341919 524.044983,197.830261 
	C500.460419,241.707321 466.796356,274.496490 423.763947,295.110992 
	C433.969055,319.340057 443.806122,342.695221 453.659851,366.090057 
	C459.311829,364.309387 465.949829,362.218079 472.733521,360.080841 
	C472.733521,382.214325 472.733521,403.974365 472.733521,426.074738 
	C471.191254,426.074738 469.898163,426.074402 468.605042,426.074799 
	C446.105591,426.081329 423.600555,425.811340 401.110168,426.266083 
	C394.511353,426.399475 390.225433,424.888336 387.402344,418.693268 
	C384.254517,411.785583 378.593719,407.723602 371.567474,404.458466 
	C359.672638,398.930939 348.368347,392.126038 336.858185,385.781219 
	C333.281586,383.809723 329.842102,381.589508 326.070099,379.320892 
	C323.845825,384.623169 322.035248,389.427032 319.853699,394.056030 
	C310.077179,414.800842 295.127777,431.818512 280.460999,449.111115 
	C269.628876,461.882538 259.615356,475.348297 249.048752,488.743469 
	C283.990967,516.318237 312.070465,547.907166 325.968994,589.440735 
	C343.036774,580.836243 359.887909,572.520752 376.517914,563.784302 
	C379.370575,562.285645 382.009735,559.361694 383.480652,556.455078 
	C386.978424,549.542969 389.717377,542.246826 392.740967,535.157349 
	C419.364044,535.157349 445.968750,535.157349 471.889709,535.157349 
	C471.889709,556.055298 471.889709,576.670593 471.851562,598.238831 
M765.816772,273.289215 
	C735.731140,278.932800 722.379639,303.194611 707.034363,325.728668 
	C740.471008,325.647583 769.620850,301.357452 771.458923,272.331635 
	C769.830017,272.594604 768.218079,272.854828 765.816772,273.289215 
M278.395874,278.961731 
	C283.933014,296.785675 294.333649,310.555054 311.471130,318.746735 
	C320.934784,323.270416 330.822357,325.791199 342.338013,325.916077 
	C334.123657,314.825165 326.962921,304.210419 318.826538,294.405304 
	C308.108185,281.488678 293.519348,275.139801 276.703766,271.939026 
	C277.273895,274.432953 277.704834,276.318054 278.395874,278.961731 
M656.694946,696.704346 
	C658.776794,711.845032 667.319458,722.653625 679.511108,731.398499 
	C687.079895,704.196228 678.183594,678.799561 657.147827,669.601196 
	C656.929565,678.671692 656.723083,687.253540 656.694946,696.704346 
M367.744293,725.655640 
	C368.169464,727.493896 368.594604,729.332214 369.067780,731.378113 
	C389.914062,716.593018 398.071381,695.330994 389.111145,670.063660 
	C369.679413,683.520935 362.318970,701.696472 367.744293,725.655640 
M754.284485,351.856384 
	C762.889526,346.497772 769.058777,338.941589 774.502930,330.253113 
	C743.663269,325.494110 730.004150,337.908966 718.649231,358.683411 
	C731.840454,360.391998 742.786987,358.354248 754.284485,351.856384 
M694.699402,287.318756 
	C695.013916,296.118652 695.328369,304.918549 695.673035,314.564575 
	C718.022888,299.241425 724.786865,280.105072 714.956604,256.731323 
	C705.036987,264.584167 696.789429,273.356201 694.699402,287.318756 
M280.664978,338.808258 
	C293.390289,354.884888 315.470337,363.521545 329.803040,358.028717 
	C312.202789,332.819092 296.144928,324.621094 274.945648,330.325134 
	C276.751587,333.032379 278.487885,335.635315 280.664978,338.808258 
M345.695068,268.844269 
	C341.840942,264.782227 337.986847,260.720154 333.940643,256.455658 
	C324.508698,277.417297 329.923309,300.605255 351.916901,313.408966 
	C356.572144,296.037445 354.820465,282.730927 345.695068,268.844269 
M332.675964,667.217285 
	C330.287292,672.268005 327.898651,677.318665 325.339081,682.730713 
	C352.736298,682.491150 369.082184,669.084961 367.618469,645.065674 
	C350.377014,649.127136 340.920105,655.016968 332.675964,667.217285 
M708.480164,681.103394 
	C712.848572,681.867920 717.216919,682.632446 721.795532,683.433777 
	C719.188660,663.721680 698.888123,645.531067 680.601624,645.872192 
	C682.297607,666.776367 688.985779,675.448730 708.480164,681.103394 
M633.851746,685.651917 
	C636.819031,688.073425 639.786255,690.494995 642.970886,693.093872 
	C648.739136,670.956299 642.000977,653.660522 623.123718,641.695618 
	C618.601196,658.200378 620.636780,672.894043 633.851746,685.651917 
M425.464325,642.100525 
	C424.911346,642.063477 424.184631,641.777649 423.830261,642.025146 
	C405.572021,654.773132 399.894989,670.564392 405.820282,692.625183 
	C412.952423,687.736572 419.175049,682.281006 423.173157,674.525330 
	C428.443390,664.301819 427.882629,653.677124 425.464325,642.100525 
M684.142578,304.342194 
	C683.367737,300.177155 682.592957,296.012146 681.781433,291.649628 
	C662.516052,304.251862 659.416565,320.475616 665.241211,343.483826 
	C678.578430,334.216553 686.716736,322.342926 684.142578,304.342194 
M336.243500,625.963501 
	C335.350983,627.407654 334.458466,628.851807 333.413361,630.542847 
	C360.821014,634.239380 367.337494,630.038269 384.686615,611.201843 
	C360.122040,604.519348 346.727325,610.562134 336.243500,625.963501 
M366.395233,294.133484 
	C365.699371,298.223663 364.800171,302.291260 364.343719,306.407990 
	C362.603516,322.103058 370.596924,337.095795 383.922424,343.338348 
	C384.468719,339.535461 385.016785,335.752930 385.554810,331.968994 
	C387.856781,315.779358 381.765076,303.055420 369.331909,293.029785 
	C368.845734,292.637726 367.559204,293.238159 366.395233,294.133484 
M694.202026,631.316895 
	C700.737976,631.316895 707.273926,631.316895 714.485474,631.316895 
	C703.559082,609.772827 685.474731,603.869690 663.601013,611.589539 
	C667.890686,615.684387 671.618835,620.383850 676.386536,623.485352 
	C681.532104,626.832642 687.650024,628.685242 694.202026,631.316895 
M632.041260,343.661407 
	C626.765808,353.139160 625.815063,363.324646 626.694580,374.125305 
	C650.010193,359.638367 657.539551,343.433044 649.498108,323.082520 
	C643.505249,330.083038 637.963989,336.555969 632.041260,343.661407 
M677.379395,361.187897 
	C694.948364,364.987854 711.895386,355.195465 716.822754,338.396637 
	C693.502197,337.258514 675.787415,344.595917 667.791260,358.887909 
	C670.745728,359.625519 673.633484,360.346436 677.379395,361.187897 
M379.769501,357.855194 
	C377.644073,355.771973 375.415894,353.782684 373.410126,351.589996 
	C361.858826,338.962311 347.002350,337.240662 330.992584,338.307892 
	C343.192871,362.774292 357.145081,366.193512 379.769501,357.855194 
M420.826508,355.837585 
	C417.635284,342.393127 409.303833,332.768066 398.230530,324.858765 
	C392.085876,346.128906 398.431183,359.441772 422.333069,374.478882 
	C421.848267,368.048157 421.419342,362.358887 420.826508,355.837585 
M411.918884,634.148438 
	C412.572235,634.596802 413.487701,635.573425 413.833435,635.401855 
	C415.300568,634.674011 416.551392,633.527161 417.965576,632.673035 
	C433.851318,623.078064 439.578186,606.183167 432.946320,588.393982 
	C418.140442,599.716064 408.317993,613.380554 411.918884,634.148438 
M622.742065,626.756226 
	C627.020081,629.835876 631.298035,632.915527 635.669983,636.062805 
	C641.194885,619.531616 632.367126,599.197754 615.117493,588.362671 
	C611.590271,602.177612 611.795715,615.153992 622.742065,626.756226 
M670.162842,645.429626 
	C668.629517,631.770935 659.068970,623.886963 649.256775,615.897034 
	C642.880676,641.346863 650.252380,652.316284 671.000916,662.874573 
	C670.749634,657.134216 670.512451,651.715881 670.162842,645.429626 
M401.032562,629.576294 
	C400.518158,625.063416 400.003754,620.550537 399.450256,615.694458 
	C381.350830,628.345581 374.244171,644.632263 378.852722,662.056763 
	C391.718018,655.353149 402.101532,646.978027 401.032562,629.576294 
M391.434387,600.369629 
	C406.094452,600.010803 422.094513,588.307800 424.784485,575.976074 
	C401.584045,575.012756 383.649384,584.452087 380.066895,599.716797 
	C383.559723,599.917664 387.013916,600.116333 391.434387,600.369629 
M637.033081,576.100220 
	C632.661011,576.100220 628.288940,576.100220 623.730835,576.100220 
	C633.964050,597.406616 649.552063,603.653442 668.519165,598.834167 
	C662.797791,586.621582 653.133972,579.476746 637.033081,576.100220 
M402.166626,392.339874 
	C407.888245,392.144836 413.609863,391.949829 419.908447,391.735138 
	C409.370514,375.039978 393.712189,365.504456 373.862579,371.965057 
	C380.662964,382.015625 388.366089,390.638000 402.166626,392.339874 
M635.480103,381.983429 
	C632.985107,384.933319 630.490051,387.883209 627.730408,391.145996 
	C649.173706,395.431122 666.848572,387.518250 673.587830,371.196747 
	C656.796997,368.324921 646.130188,371.241028 635.480103,381.983429 
M313.516510,609.566345 
	C309.288635,609.777283 305.716827,611.620911 305.002014,615.807434 
	C304.498962,618.753662 305.006012,622.525757 306.543823,625.012939 
	C308.820343,628.694885 313.039429,629.538269 317.162659,627.810974 
	C321.262146,626.093506 323.224243,622.670715 322.920868,618.272522 
	C322.557495,613.004883 319.264038,610.384216 313.516510,609.566345 
M269.722809,383.252808 
	C265.317657,390.148163 268.125092,398.072235 275.335266,398.991241 
	C279.836578,399.565002 283.215668,397.653503 285.060883,393.642090 
	C287.010315,389.404175 286.119995,385.364716 282.471893,382.429688 
	C278.470612,379.210449 274.242645,379.364075 269.722809,383.252808 
M779.196106,395.529938 
	C782.178711,390.333282 781.565369,385.388519 777.545654,382.223816 
	C773.920654,379.369904 769.153015,379.453430 765.693359,382.431396 
	C761.654358,385.908051 761.272644,391.419189 764.774109,395.701080 
	C768.350830,400.074890 773.394287,400.234619 779.196106,395.529938 
M725.679565,620.922302 
	C726.569275,625.141541 729.161743,627.564209 733.417114,628.166016 
	C737.458008,628.737427 741.207703,627.379822 742.541199,623.730652 
	C743.600830,620.830627 743.633850,616.815430 742.441589,614.009644 
	C740.741943,610.010071 736.614868,608.742981 732.284546,609.941223 
	C727.159119,611.359497 725.408875,615.205811 725.679565,620.922302 
M641.981995,270.051270 
	C643.139221,270.067780 644.315674,270.228058 645.450256,270.075592 
	C650.052795,269.457153 652.913391,266.276123 653.100891,261.705536 
	C653.303589,256.764648 650.380554,252.911072 645.680054,251.922394 
	C641.446350,251.031891 637.200073,253.270111 635.507202,257.284485 
	C633.427307,262.216614 635.317749,266.424927 641.981995,270.051270 
M411.841766,746.316650 
	C415.918121,739.586792 413.540527,732.125549 406.853638,730.907471 
	C402.461090,730.107239 398.820923,731.492126 396.869904,735.650635 
	C394.927673,739.790222 395.351532,743.755615 398.990967,746.966675 
	C402.392792,749.968079 406.611023,749.928772 411.841766,746.316650 
M650.456482,733.155334 
	C646.912415,729.998535 643.012329,729.582764 639.098572,732.182434 
	C635.579651,734.519897 633.735535,738.288208 635.588562,742.050415 
	C636.945740,744.805969 639.945740,747.969055 642.680176,748.487061 
	C645.408997,749.003967 649.551758,747.234009 651.580750,745.067444 
	C654.707581,741.728699 653.804077,737.383057 650.456482,733.155334 
M397.581085,255.080002 
	C394.638153,260.378662 395.061646,264.882019 398.807983,268.126801 
	C401.970642,270.866028 407.075806,271.034973 410.342834,268.508453 
	C413.667725,265.937164 414.810425,261.208252 413.064484,257.245148 
	C410.471741,251.360046 404.025940,250.176056 397.581085,255.080002 
z"/>
<path fill="#FAFAFA" opacity="1.000000" stroke="none" 
	d="
M471.870636,597.762329 
	C471.889709,576.670593 471.889709,556.055298 471.889709,535.157349 
	C445.968750,535.157349 419.364044,535.157349 392.740967,535.157349 
	C389.717377,542.246826 386.978424,549.542969 383.480652,556.455078 
	C382.009735,559.361694 379.370575,562.285645 376.517914,563.784302 
	C359.887909,572.520752 343.036774,580.836243 325.968994,589.440735 
	C312.070465,547.907166 283.990967,516.318237 249.048752,488.743469 
	C259.615356,475.348297 269.628876,461.882538 280.460999,449.111115 
	C295.127777,431.818512 310.077179,414.800842 319.853699,394.056030 
	C322.035248,389.427032 323.845825,384.623169 326.070099,379.320892 
	C329.842102,381.589508 333.281586,383.809723 336.858185,385.781219 
	C348.368347,392.126038 359.672638,398.930939 371.567474,404.458466 
	C378.593719,407.723602 384.254517,411.785583 387.402344,418.693268 
	C390.225433,424.888336 394.511353,426.399475 401.110168,426.266083 
	C423.600555,425.811340 446.105591,426.081329 468.605042,426.074799 
	C469.898163,426.074402 471.191254,426.074738 472.733521,426.074738 
	C472.733521,403.974365 472.733521,382.214325 472.733521,360.080841 
	C465.949829,362.218079 459.311829,364.309387 453.659851,366.090057 
	C443.806122,342.695221 433.969055,319.340057 423.763947,295.110992 
	C466.796356,274.496490 500.460419,241.707321 524.044983,197.830261 
	C548.314148,241.341919 580.974060,274.941071 625.985718,296.226410 
	C613.129700,318.564545 603.419495,341.795868 596.754761,366.435303 
	C589.680969,364.311829 583.018188,362.311768 575.872253,360.166656 
	C575.872253,382.013153 575.872253,403.733795 575.872253,425.840881 
	C576.989136,425.911072 578.245117,426.057983 579.501282,426.058929 
	C603.833984,426.076996 628.167114,426.005585 652.498718,426.172089 
	C655.623352,426.193481 657.384521,425.310822 658.676147,422.551025 
	C663.238159,412.803772 670.640442,406.668152 680.651917,402.160675 
	C695.012939,395.694946 708.543457,387.384552 722.492676,379.826996 
	C725.635925,386.623138 728.762756,394.073456 732.454651,401.232361 
	C742.096375,419.928162 756.390015,435.182495 769.673096,451.211121 
	C779.747681,463.368164 789.174133,476.062347 799.074524,488.755371 
	C764.710754,516.288818 736.863831,547.883911 722.519958,590.158081 
	C713.767395,585.345764 705.181274,580.397766 696.384583,575.857727 
	C688.848633,571.968384 681.113770,568.452820 673.384399,564.954163 
	C669.040283,562.987793 666.050781,559.976746 664.342224,555.528381 
	C662.198242,549.946655 659.603760,544.520142 657.772644,538.843079 
	C656.692932,535.495483 655.003601,534.742676 651.743469,534.770081 
	C632.245422,534.933960 612.745544,534.881592 593.246277,534.898804 
	C587.442078,534.903931 581.637817,534.899597 575.061218,534.899597 
	C575.823181,558.410400 576.076965,581.535156 577.430054,604.595276 
	C579.765503,644.397644 585.314026,683.817139 593.620850,722.821106 
	C598.507812,745.767029 606.202393,767.689819 618.365601,787.892883 
	C618.684875,788.423218 618.812805,789.068665 619.208191,790.145935 
	C579.038635,804.108704 550.779419,833.006104 525.220947,863.791138 
	C510.804199,849.515747 496.822388,834.609619 481.688141,820.983459 
	C466.512909,807.320435 449.084259,796.840820 429.029755,790.456055 
	C429.699066,788.881165 430.165680,787.323364 430.967865,785.963562 
	C445.812805,760.799805 453.591248,733.214905 458.805817,704.759827 
	C465.265015,669.513123 469.514130,633.992126 471.870636,597.762329 
M532.890808,762.178162 
	C532.833435,762.467773 532.904541,762.720337 533.931946,762.767822 
	C543.604065,753.601196 553.662292,744.956726 565.648682,739.478882 
	C554.516968,664.020264 554.407349,588.305664 553.986511,512.057922 
	C555.801086,512.057922 557.095154,512.056274 558.389221,512.058105 
	C599.215027,512.117004 640.043030,511.976990 680.864319,512.435059 
	C687.517578,512.509705 692.468872,512.071533 695.848389,505.592255 
	C697.319885,502.770996 700.148193,500.440277 702.818115,498.524719 
	C705.289490,496.751587 708.371704,495.829742 711.184937,494.533051 
	C711.463867,494.997437 711.742737,495.461823 712.021667,495.926208 
	C710.689331,497.553894 709.282837,499.126953 708.036987,500.818359 
	C701.340454,509.909149 694.789673,519.109619 687.970032,528.106567 
	C684.418152,532.792480 684.312988,537.845032 685.079590,542.697388 
	C693.904724,546.543396 702.373291,550.234070 711.154480,554.060913 
	C725.966248,525.652893 748.827576,503.978302 773.116821,482.868958 
	C752.045715,461.329376 731.252686,440.074036 710.136658,418.488556 
	C703.185669,421.787231 695.152527,425.599426 686.423889,429.741699 
	C689.311768,444.639771 703.312012,452.849579 710.051819,465.984833 
	C707.441772,465.446899 704.678467,464.933716 702.896484,463.330048 
	C698.709595,459.562134 695.095459,455.164825 691.021973,451.259674 
	C689.770447,450.059845 687.782898,448.949860 686.129761,448.946136 
	C644.304565,448.851562 602.479065,448.910187 560.653564,448.941528 
	C558.545044,448.943085 556.436523,448.941711 554.218262,448.941711 
	C554.218262,412.643494 554.218262,376.893860 554.218262,340.734131 
	C563.341003,340.734131 572.232910,340.734131 582.061523,340.734131 
	C578.415894,333.885406 579.394470,327.782013 582.601318,321.778625 
	C585.785095,315.818512 588.788513,309.762024 591.831970,303.824127 
	C586.494568,299.705200 581.308777,295.542267 575.920654,291.660156 
	C574.597961,290.707184 572.623474,290.319214 570.933289,290.276581 
	C564.673645,290.118683 558.407654,290.213745 551.354675,290.213745 
	C553.947998,284.720886 556.375183,279.580048 558.490479,275.099731 
	C546.769287,262.394104 535.334778,249.999268 524.282593,238.018875 
	C513.006531,250.275177 501.758057,262.501495 490.505371,274.732422 
	C492.481903,279.454254 494.619141,284.560089 497.025299,290.308380 
	C490.001862,290.308380 483.889221,290.283722 477.777069,290.328644 
	C476.513977,290.337891 474.929382,290.169281 474.043152,290.825562 
	C468.197693,295.154449 462.502686,299.686493 456.604034,304.272522 
	C457.144928,305.083008 457.701019,305.702423 458.019989,306.426300 
	C462.802917,317.280396 473.003815,326.649231 466.754852,340.920471 
	C476.435333,340.920471 485.499969,340.920471 494.261169,340.920471 
	C494.261169,377.193695 494.261169,412.915710 494.261169,448.504395 
	C493.392487,448.714661 493.071350,448.860413 492.750153,448.860504 
	C449.758423,448.873322 406.766541,448.842560 363.775299,448.987061 
	C361.864441,448.993469 359.563049,450.172546 358.127960,451.529327 
	C354.391815,455.061401 351.303345,459.305237 347.427521,462.652710 
	C345.187439,464.587402 341.922882,465.335999 339.119415,466.618408 
	C338.910797,466.207428 338.702209,465.796448 338.493591,465.385468 
	C344.911255,457.345581 351.550873,449.468933 357.639954,441.187469 
	C360.163116,437.755920 361.508270,433.458221 363.139801,430.071899 
	C353.876160,425.609344 345.679260,421.660675 338.546753,418.224762 
	C317.580872,439.739288 296.713989,461.152222 275.646484,482.771027 
	C299.762512,504.044281 322.947937,525.473206 337.458862,553.914185 
	C346.646240,550.003296 355.310455,546.315125 364.791626,542.279175 
	C363.248932,522.615234 347.840240,510.477844 336.677246,494.550903 
	C349.259552,496.196899 352.916779,506.973175 359.562805,512.755920 
	C404.900787,512.755920 449.738129,512.755920 494.590546,512.755920 
	C494.538452,588.744141 493.182434,664.465698 483.406708,738.442688 
	C494.434998,746.682800 504.838104,754.455688 515.221252,762.213684 
	C515.221252,761.714844 515.221191,761.051270 515.221252,760.387634 
	C515.228394,686.734375 515.248718,613.081116 515.232300,539.427856 
	C515.228699,523.269775 515.094543,507.111725 515.348572,490.234070 
	C516.601807,484.234833 516.416260,483.983582 510.399475,483.983978 
	C445.863068,483.988464 381.326660,483.998688 316.790253,484.007263 
	C315.051819,484.007507 313.313385,484.007263 311.574951,484.007263 
	C311.308289,484.584167 311.041656,485.161041 310.774994,485.737946 
	C312.893433,487.507568 315.011841,489.277191 316.683075,491.648071 
	C315.950836,492.311066 315.218567,492.974030 314.515167,493.610901 
	C309.687927,489.480591 304.957336,485.432983 299.918793,481.121857 
	C304.905853,476.850555 309.545441,472.876831 314.085663,468.988251 
	C318.338989,471.138885 500.809875,472.057281 515.032227,470.115112 
	C515.032227,421.444458 515.032227,372.737915 515.032227,323.374756 
	C505.149384,323.374756 495.516602,323.459290 485.888367,323.288483 
	C484.350403,323.261169 482.010437,322.498260 481.451935,321.374359 
	C479.341827,317.128387 477.813324,312.593414 475.817108,307.532715 
	C489.087952,307.532715 501.968567,307.532715 515.576660,307.532715 
	C513.529358,296.800018 519.294189,285.673553 509.901031,276.529510 
	C515.153381,271.651978 520.010193,267.141693 524.905640,262.595581 
	C529.116699,267.161407 533.699097,272.129883 538.381348,277.206665 
	C529.145508,286.246094 534.802917,297.176056 532.970459,307.466125 
	C546.830261,307.466125 559.877563,307.466125 573.412720,307.466125 
	C572.528625,309.360504 571.484009,310.760742 571.222290,312.294617 
	C569.394409,323.008942 562.630615,324.975525 552.996033,323.707306 
	C546.531982,322.856445 539.865234,323.545441 533.615112,323.545441 
	C533.615112,372.919495 533.615112,421.516815 533.615112,470.637909 
	C537.770447,470.637909 541.556213,470.636017 545.341980,470.638184 
	C591.658325,470.664734 637.975159,470.821960 684.290771,470.649750 
	C701.000977,470.587616 717.708191,469.730377 734.417603,469.266449 
	C734.870972,469.253845 735.425964,469.483093 735.778564,469.782318 
	C740.162170,473.502777 744.517090,477.257111 748.960693,481.072632 
	C746.344910,483.403229 744.294434,485.230103 742.098022,486.216187 
	C740.342651,485.368500 738.661621,484.140045 736.811279,483.778961 
	C734.913757,483.408630 732.850647,483.979370 730.860046,483.979919 
	C667.200623,483.998077 603.541138,483.996948 539.881714,483.998718 
	C537.770508,483.998779 535.659363,483.998718 532.811523,483.998718 
	C533.171875,486.818390 533.433716,488.867065 533.494202,491.843414 
	C533.462097,544.569275 533.435242,597.295105 533.386841,650.020935 
	C533.383545,653.670166 533.220947,657.319214 532.334290,660.985352 
	C530.944092,659.693237 529.366211,658.546875 528.216675,657.067688 
	C527.080872,655.606140 526.377869,653.808350 525.484924,652.158020 
	C525.106689,652.361267 524.728394,652.564453 524.350159,652.767639 
	C524.350159,699.989197 524.350159,747.210754 524.350159,794.998779 
	C527.472229,794.998779 530.241028,794.998779 533.306152,795.644897 
	C533.121033,797.135254 533.447876,799.023376 532.656067,800.042297 
	C530.152954,803.263489 527.231323,806.159424 524.328796,809.337463 
	C521.420654,806.145996 518.601501,803.314697 516.135986,800.203125 
	C515.282593,799.126221 514.797852,797.275085 515.007751,795.910217 
	C517.948364,776.785767 516.234070,771.932312 501.164093,759.641968 
	C496.801422,756.083984 492.058563,752.972839 487.354523,749.861755 
	C485.245911,748.467163 482.803528,747.577209 480.773193,746.585510 
	C475.454773,756.415222 470.495453,765.581238 465.363525,775.066223 
	C489.884277,789.272278 506.840851,811.518921 524.295593,833.467346 
	C541.695862,810.775085 558.693237,788.602112 583.577271,774.796143 
	C578.028137,764.946655 572.747437,755.573486 567.393738,746.070923 
	C553.759827,752.915283 542.875000,762.797363 532.509827,773.824890 
	C531.671692,772.736206 529.899231,771.282532 530.157288,770.622192 
	C531.266785,767.782593 527.999023,763.412659 533.001587,761.960205 
	C533.001587,761.960205 533.040710,761.947998 532.890808,762.178162 
z"/>
<path fill="#F9F9F9" opacity="1.000000" stroke="none" 
	d="
M766.211426,273.202148 
	C768.218079,272.854828 769.830017,272.594604 771.458923,272.331635 
	C769.620850,301.357452 740.471008,325.647583 707.034363,325.728668 
	C722.379639,303.194611 735.731140,278.932800 766.211426,273.202148 
z"/>
<path fill="#FAF9F9" opacity="1.000000" stroke="none" 
	d="
M278.265839,278.582428 
	C277.704834,276.318054 277.273895,274.432953 276.703766,271.939026 
	C293.519348,275.139801 308.108185,281.488678 318.826538,294.405304 
	C326.962921,304.210419 334.123657,314.825165 342.338013,325.916077 
	C330.822357,325.791199 320.934784,323.270416 311.471130,318.746735 
	C294.333649,310.555054 283.933014,296.785675 278.265839,278.582428 
z"/>
<path fill="#F8F8F8" opacity="1.000000" stroke="none" 
	d="
M656.605774,696.269897 
	C656.723083,687.253540 656.929565,678.671692 657.147827,669.601196 
	C678.183594,678.799561 687.079895,704.196228 679.511108,731.398499 
	C667.319458,722.653625 658.776794,711.845032 656.605774,696.269897 
z"/>
<path fill="#F9F9F9" opacity="1.000000" stroke="none" 
	d="
M367.637817,725.245361 
	C362.318970,701.696472 369.679413,683.520935 389.111145,670.063660 
	C398.071381,695.330994 389.914062,716.593018 369.067780,731.378113 
	C368.594604,729.332214 368.169464,727.493896 367.637817,725.245361 
z"/>
<path fill="#F9F9F9" opacity="1.000000" stroke="none" 
	d="
M753.955078,352.014343 
	C742.786987,358.354248 731.840454,360.391998 718.649231,358.683411 
	C730.004150,337.908966 743.663269,325.494110 774.502930,330.253113 
	C769.058777,338.941589 762.889526,346.497772 753.955078,352.014343 
z"/>
<path fill="#F7F7F7" opacity="1.000000" stroke="none" 
	d="
M694.764893,286.890503 
	C696.789429,273.356201 705.036987,264.584167 714.956604,256.731323 
	C724.786865,280.105072 718.022888,299.241425 695.673035,314.564575 
	C695.328369,304.918549 695.013916,296.118652 694.764893,286.890503 
z"/>
<path fill="#F9F9F9" opacity="1.000000" stroke="none" 
	d="
M280.444580,338.523254 
	C278.487885,335.635315 276.751587,333.032379 274.945648,330.325134 
	C296.144928,324.621094 312.202789,332.819092 329.803040,358.028717 
	C315.470337,363.521545 293.390289,354.884888 280.444580,338.523254 
z"/>
<path fill="#F8F8F7" opacity="1.000000" stroke="none" 
	d="
M345.910645,269.132263 
	C354.820465,282.730927 356.572144,296.037445 351.916901,313.408966 
	C329.923309,300.605255 324.508698,277.417297 333.940643,256.455658 
	C337.986847,260.720154 341.840942,264.782227 345.910645,269.132263 
z"/>
<path fill="#F8F8F8" opacity="1.000000" stroke="none" 
	d="
M332.863861,666.905762 
	C340.920105,655.016968 350.377014,649.127136 367.618469,645.065674 
	C369.082184,669.084961 352.736298,682.491150 325.339081,682.730713 
	C327.898651,677.318665 330.287292,672.268005 332.863861,666.905762 
z"/>
<path fill="#F8F8F8" opacity="1.000000" stroke="none" 
	d="
M708.072998,681.034546 
	C688.985779,675.448730 682.297607,666.776367 680.601624,645.872192 
	C698.888123,645.531067 719.188660,663.721680 721.795532,683.433777 
	C717.216919,682.632446 712.848572,681.867920 708.072998,681.034546 
z"/>
<path fill="#F7F7F7" opacity="1.000000" stroke="none" 
	d="
M633.594788,685.405273 
	C620.636780,672.894043 618.601196,658.200378 623.123718,641.695618 
	C642.000977,653.660522 648.739136,670.956299 642.970886,693.093872 
	C639.786255,690.494995 636.819031,688.073425 633.594788,685.405273 
z"/>
<path fill="#F9F9F9" opacity="1.000000" stroke="none" 
	d="
M425.619568,642.494263 
	C427.882629,653.677124 428.443390,664.301819 423.173157,674.525330 
	C419.175049,682.281006 412.952423,687.736572 405.820282,692.625183 
	C399.894989,670.564392 405.572021,654.773132 423.830261,642.025146 
	C424.184631,641.777649 424.911346,642.063477 425.619568,642.494263 
z"/>
<path fill="#F8F8F8" opacity="1.000000" stroke="none" 
	d="
M684.203735,304.776764 
	C686.716736,322.342926 678.578430,334.216553 665.241211,343.483826 
	C659.416565,320.475616 662.516052,304.251862 681.781433,291.649628 
	C682.592957,296.012146 683.367737,300.177155 684.203735,304.776764 
z"/>
<path fill="#F7F7F7" opacity="1.000000" stroke="none" 
	d="
M336.484375,625.675537 
	C346.727325,610.562134 360.122040,604.519348 384.686615,611.201843 
	C367.337494,630.038269 360.821014,634.239380 333.413361,630.542847 
	C334.458466,628.851807 335.350983,627.407654 336.484375,625.675537 
z"/>
<path fill="#F8F8F8" opacity="1.000000" stroke="none" 
	d="
M366.520416,293.754822 
	C367.559204,293.238159 368.845734,292.637726 369.331909,293.029785 
	C381.765076,303.055420 387.856781,315.779358 385.554810,331.968994 
	C385.016785,335.752930 384.468719,339.535461 383.922424,343.338348 
	C370.596924,337.095795 362.603516,322.103058 364.343719,306.407990 
	C364.800171,302.291260 365.699371,298.223663 366.520416,293.754822 
z"/>
<path fill="#F7F7F7" opacity="1.000000" stroke="none" 
	d="
M693.772888,631.253357 
	C687.650024,628.685242 681.532104,626.832642 676.386536,623.485352 
	C671.618835,620.383850 667.890686,615.684387 663.601013,611.589539 
	C685.474731,603.869690 703.559082,609.772827 714.485474,631.316895 
	C707.273926,631.316895 700.737976,631.316895 693.772888,631.253357 
z"/>
<path fill="#F7F7F7" opacity="1.000000" stroke="none" 
	d="
M632.232056,343.345154 
	C637.963989,336.555969 643.505249,330.083038 649.498108,323.082520 
	C657.539551,343.433044 650.010193,359.638367 626.694580,374.125305 
	C625.815063,363.324646 626.765808,353.139160 632.232056,343.345154 
z"/>
<path fill="#F7F7F7" opacity="1.000000" stroke="none" 
	d="
M676.950317,361.127625 
	C673.633484,360.346436 670.745728,359.625519 667.791260,358.887909 
	C675.787415,344.595917 693.502197,337.258514 716.822754,338.396637 
	C711.895386,355.195465 694.948364,364.987854 676.950317,361.127625 
z"/>
<path fill="#F8F8F8" opacity="1.000000" stroke="none" 
	d="
M379.761444,358.230682 
	C357.145081,366.193512 343.192871,362.774292 330.992584,338.307892 
	C347.002350,337.240662 361.858826,338.962311 373.410126,351.589996 
	C375.415894,353.782684 377.644073,355.771973 379.761444,358.230682 
z"/>
<path fill="#F7F7F7" opacity="1.000000" stroke="none" 
	d="
M420.908447,356.253601 
	C421.419342,362.358887 421.848267,368.048157 422.333069,374.478882 
	C398.431183,359.441772 392.085876,346.128906 398.230530,324.858765 
	C409.303833,332.768066 417.635284,342.393127 420.908447,356.253601 
z"/>
<path fill="#F7F7F7" opacity="1.000000" stroke="none" 
	d="
M411.875305,633.731140 
	C408.317993,613.380554 418.140442,599.716064 432.946411,588.394043 
	C439.578186,606.183167 433.851318,623.078064 417.965576,632.673035 
	C416.551392,633.527161 415.300568,634.674011 413.833435,635.401855 
	C413.487701,635.573425 412.572235,634.596802 411.875305,633.731140 
z"/>
<path fill="#F7F7F7" opacity="1.000000" stroke="none" 
	d="
M622.489624,626.504272 
	C611.795715,615.153992 611.590271,602.177612 615.117493,588.362671 
	C632.367126,599.197754 641.194885,619.531616 635.669983,636.062805 
	C631.298035,632.915527 627.020081,629.835876 622.489624,626.504272 
z"/>
<path fill="#F7F6F6" opacity="1.000000" stroke="none" 
	d="
M670.218994,645.863525 
	C670.512451,651.715881 670.749634,657.134216 671.000916,662.874573 
	C650.252380,652.316284 642.880676,641.346863 649.256775,615.897034 
	C659.068970,623.886963 668.629517,631.770935 670.218994,645.863525 
z"/>
<path fill="#F7F7F7" opacity="1.000000" stroke="none" 
	d="
M401.043976,630.048096 
	C402.101532,646.978027 391.718018,655.353149 378.852722,662.056763 
	C374.244171,644.632263 381.350830,628.345581 399.450256,615.694458 
	C400.003754,620.550537 400.518158,625.063416 401.043976,630.048096 
z"/>
<path fill="#F8F8F8" opacity="1.000000" stroke="none" 
	d="
M390.951233,600.342285 
	C387.013916,600.116333 383.559723,599.917664 380.066895,599.716797 
	C383.649384,584.452087 401.584045,575.012756 424.784485,575.976074 
	C422.094513,588.307800 406.094452,600.010803 390.951233,600.342285 
z"/>
<path fill="#F9F9F9" opacity="1.000000" stroke="none" 
	d="
M637.478149,576.156738 
	C653.133972,579.476746 662.797791,586.621582 668.519165,598.834167 
	C649.552063,603.653442 633.964050,597.406616 623.730835,576.100220 
	C628.288940,576.100220 632.661011,576.100220 637.478149,576.156738 
z"/>
<path fill="#F7F6F6" opacity="1.000000" stroke="none" 
	d="
M401.741089,392.287720 
	C388.366089,390.638000 380.662964,382.015625 373.862579,371.965057 
	C393.712189,365.504456 409.370514,375.039978 419.908447,391.735138 
	C413.609863,391.949829 407.888245,392.144836 401.741089,392.287720 
z"/>
<path fill="#F7F6F6" opacity="1.000000" stroke="none" 
	d="
M635.730713,381.730530 
	C646.130188,371.241028 656.796997,368.324921 673.587830,371.196747 
	C666.848572,387.518250 649.173706,395.431122 627.730408,391.145996 
	C630.490051,387.883209 632.985107,384.933319 635.730713,381.730530 
z"/>
<path fill="#F5F5F5" opacity="1.000000" stroke="none" 
	d="
M313.884705,609.597168 
	C319.264038,610.384216 322.557495,613.004883 322.920868,618.272522 
	C323.224243,622.670715 321.262146,626.093506 317.162659,627.810974 
	C313.039429,629.538269 308.820343,628.694885 306.543823,625.012939 
	C305.006012,622.525757 304.498962,618.753662 305.002014,615.807434 
	C305.716827,611.620911 309.288635,609.777283 313.884705,609.597168 
z"/>
<path fill="#F5F5F5" opacity="1.000000" stroke="none" 
	d="
M269.976379,382.971283 
	C274.242645,379.364075 278.470612,379.210449 282.471893,382.429688 
	C286.119995,385.364716 287.010315,389.404175 285.060883,393.642090 
	C283.215668,397.653503 279.836578,399.565002 275.335266,398.991241 
	C268.125092,398.072235 265.317657,390.148163 269.976379,382.971283 
z"/>
<path fill="#F5F5F5" opacity="1.000000" stroke="none" 
	d="
M778.950623,395.836151 
	C773.394287,400.234619 768.350830,400.074890 764.774109,395.701080 
	C761.272644,391.419189 761.654358,385.908051 765.693359,382.431396 
	C769.153015,379.453430 773.920654,379.369904 777.545654,382.223816 
	C781.565369,385.388519 782.178711,390.333282 778.950623,395.836151 
z"/>
<path fill="#F7F7F7" opacity="1.000000" stroke="none" 
	d="
M725.602051,620.554077 
	C725.408875,615.205811 727.159119,611.359497 732.284546,609.941223 
	C736.614868,608.742981 740.741943,610.010071 742.441589,614.009644 
	C743.633850,616.815430 743.600830,620.830627 742.541199,623.730652 
	C741.207703,627.379822 737.458008,628.737427 733.417114,628.166016 
	C729.161743,627.564209 726.569275,625.141541 725.602051,620.554077 
z"/>
<path fill="#F7F6F6" opacity="1.000000" stroke="none" 
	d="
M641.581482,269.983154 
	C635.317749,266.424927 633.427307,262.216614 635.507202,257.284485 
	C637.200073,253.270111 641.446350,251.031891 645.680054,251.922394 
	C650.380554,252.911072 653.303589,256.764648 653.100891,261.705536 
	C652.913391,266.276123 650.052795,269.457153 645.450256,270.075592 
	C644.315674,270.228058 643.139221,270.067780 641.581482,269.983154 
z"/>
<path fill="#F5F5F5" opacity="1.000000" stroke="none" 
	d="
M411.570435,746.604004 
	C406.611023,749.928772 402.392792,749.968079 398.990967,746.966675 
	C395.351532,743.755615 394.927673,739.790222 396.869904,735.650635 
	C398.820923,731.492126 402.461090,730.107239 406.853638,730.907471 
	C413.540527,732.125549 415.918121,739.586792 411.570435,746.604004 
z"/>
<path fill="#F5F5F5" opacity="1.000000" stroke="none" 
	d="
M650.724731,733.432312 
	C653.804077,737.383057 654.707581,741.728699 651.580750,745.067444 
	C649.551758,747.234009 645.408997,749.003967 642.680176,748.487061 
	C639.945740,747.969055 636.945740,744.805969 635.588562,742.050415 
	C633.735535,738.288208 635.579651,734.519897 639.098572,732.182434 
	C643.012329,729.582764 646.912415,729.998535 650.724731,733.432312 
z"/>
<path fill="#F7F6F6" opacity="1.000000" stroke="none" 
	d="
M397.831909,254.786621 
	C404.025940,250.176056 410.471741,251.360046 413.064484,257.245148 
	C414.810425,261.208252 413.667725,265.937164 410.342834,268.508453 
	C407.075806,271.034973 401.970642,270.866028 398.807983,268.126801 
	C395.061646,264.882019 394.638153,260.378662 397.831909,254.786621 
z"/>
<path fill="#0D0C0C" opacity="1.000000" stroke="none" 
	d="
M515.020508,490.953674 
	C515.094543,507.111725 515.228699,523.269775 515.232300,539.427856 
	C515.248718,613.081116 515.228394,686.734375 515.221252,760.387634 
	C515.221191,761.051270 515.221252,761.714844 515.221252,762.213684 
	C504.838104,754.455688 494.434998,746.682800 483.406708,738.442688 
	C493.182434,664.465698 494.538452,588.744141 494.590546,512.755920 
	C449.738129,512.755920 404.900787,512.755920 359.562805,512.755920 
	C352.916779,506.973175 349.259552,496.196899 336.677246,494.550903 
	C347.840240,510.477844 363.248932,522.615234 364.791626,542.279175 
	C355.310455,546.315125 346.646240,550.003296 337.458862,553.914185 
	C322.947937,525.473206 299.762512,504.044281 275.646484,482.771027 
	C296.713989,461.152222 317.580872,439.739288 338.546753,418.224762 
	C345.679260,421.660675 353.876160,425.609344 363.139801,430.071899 
	C361.508270,433.458221 360.163116,437.755920 357.639954,441.187469 
	C351.550873,449.468933 344.911255,457.345581 338.493591,465.385468 
	C338.702209,465.796448 338.910797,466.207428 339.119415,466.618408 
	C341.922882,465.335999 345.187439,464.587402 347.427521,462.652710 
	C351.303345,459.305237 354.391815,455.061401 358.127960,451.529327 
	C359.563049,450.172546 361.864441,448.993469 363.775299,448.987061 
	C406.766541,448.842560 449.758423,448.873322 492.750153,448.860504 
	C493.071350,448.860413 493.392487,448.714661 494.261169,448.504395 
	C494.261169,412.915710 494.261169,377.193695 494.261169,340.920471 
	C485.499969,340.920471 476.435333,340.920471 466.754852,340.920471 
	C473.003815,326.649231 462.802917,317.280396 458.019989,306.426300 
	C457.701019,305.702423 457.144928,305.083008 456.604034,304.272522 
	C462.502686,299.686493 468.197693,295.154449 474.043152,290.825562 
	C474.929382,290.169281 476.513977,290.337891 477.777069,290.328644 
	C483.889221,290.283722 490.001862,290.308380 497.025299,290.308380 
	C494.619141,284.560089 492.481903,279.454254 490.505371,274.732422 
	C501.758057,262.501495 513.006531,250.275177 524.282593,238.018875 
	C535.334778,249.999268 546.769287,262.394104 558.490479,275.099731 
	C556.375183,279.580048 553.947998,284.720886 551.354675,290.213745 
	C558.407654,290.213745 564.673645,290.118683 570.933289,290.276581 
	C572.623474,290.319214 574.597961,290.707184 575.920654,291.660156 
	C581.308777,295.542267 586.494568,299.705200 591.831970,303.824127 
	C588.788513,309.762024 585.785095,315.818512 582.601318,321.778625 
	C579.394470,327.782013 578.415894,333.885406 582.061523,340.734131 
	C572.232910,340.734131 563.341003,340.734131 554.218262,340.734131 
	C554.218262,376.893860 554.218262,412.643494 554.218262,448.941711 
	C556.436523,448.941711 558.545044,448.943085 560.653564,448.941528 
	C602.479065,448.910187 644.304565,448.851562 686.129761,448.946136 
	C687.782898,448.949860 689.770447,450.059845 691.021973,451.259674 
	C695.095459,455.164825 698.709595,459.562134 702.896484,463.330048 
	C704.678467,464.933716 707.441772,465.446899 710.051819,465.984833 
	C703.312012,452.849579 689.311768,444.639771 686.423889,429.741699 
	C695.152527,425.599426 703.185669,421.787231 710.136658,418.488556 
	C731.252686,440.074036 752.045715,461.329376 773.116821,482.868958 
	C748.827576,503.978302 725.966248,525.652893 711.154480,554.060913 
	C702.373291,550.234070 693.904724,546.543396 685.079590,542.697388 
	C684.312988,537.845032 684.418152,532.792480 687.970032,528.106567 
	C694.789673,519.109619 701.340454,509.909149 708.036987,500.818359 
	C709.282837,499.126953 710.689331,497.553894 712.021667,495.926208 
	C711.742737,495.461823 711.463867,494.997437 711.184937,494.533051 
	C708.371704,495.829742 705.289490,496.751587 702.818115,498.524719 
	C700.148193,500.440277 697.319885,502.770996 695.848389,505.592255 
	C692.468872,512.071533 687.517578,512.509705 680.864319,512.435059 
	C640.043030,511.976990 599.215027,512.117004 558.389221,512.058105 
	C557.095154,512.056274 555.801086,512.057922 553.986511,512.057922 
	C554.407349,588.305664 554.516968,664.020264 565.648682,739.478882 
	C553.662292,744.956726 543.604065,753.601196 533.573486,762.600281 
	C533.156921,762.271179 533.098816,762.109558 533.040710,761.947998 
	C533.040710,761.947998 533.001587,761.960205 533.214478,761.594849 
	C533.487854,739.769897 533.613220,718.310303 533.583252,696.850830 
	C533.566528,684.889771 533.291260,672.929199 533.132507,660.968384 
	C533.220947,657.319214 533.383545,653.670166 533.386841,650.020935 
	C533.435242,597.295105 533.462097,544.569275 534.082092,491.343964 
	C596.925354,490.816040 659.180725,490.761810 721.436035,490.811768 
	C726.012573,490.815460 730.588440,491.570953 735.164673,491.976929 
	C735.210999,492.437775 735.257324,492.898621 735.303650,493.359497 
	C737.617126,491.258636 739.930542,489.157806 742.244019,487.056946 
	C744.294434,485.230103 746.344910,483.403229 748.960693,481.072632 
	C744.517090,477.257111 740.162170,473.502777 735.778564,469.782318 
	C735.425964,469.483093 734.870972,469.253845 734.417603,469.266449 
	C717.708191,469.730377 701.000977,470.587616 684.290771,470.649750 
	C637.975159,470.821960 591.658325,470.664734 545.341980,470.638184 
	C541.556213,470.636017 537.770447,470.637909 533.615112,470.637909 
	C533.615112,421.516815 533.615112,372.919495 533.615112,323.545441 
	C539.865234,323.545441 546.531982,322.856445 552.996033,323.707306 
	C562.630615,324.975525 569.394409,323.008942 571.222290,312.294617 
	C571.484009,310.760742 572.528625,309.360504 573.412720,307.466125 
	C559.877563,307.466125 546.830261,307.466125 532.970459,307.466125 
	C534.802917,297.176056 529.145508,286.246094 538.381348,277.206665 
	C533.699097,272.129883 529.116699,267.161407 524.905640,262.595581 
	C520.010193,267.141693 515.153381,271.651978 509.901031,276.529510 
	C519.294189,285.673553 513.529358,296.800018 515.576660,307.532715 
	C501.968567,307.532715 489.087952,307.532715 475.817108,307.532715 
	C477.813324,312.593414 479.341827,317.128387 481.451935,321.374359 
	C482.010437,322.498260 484.350403,323.261169 485.888367,323.288483 
	C495.516602,323.459290 505.149384,323.374756 515.032227,323.374756 
	C515.032227,372.737915 515.032227,421.444458 515.032227,470.115112 
	C500.809875,472.057281 318.338989,471.138885 314.085663,468.988251 
	C309.545441,472.876831 304.905853,476.850555 299.918793,481.121857 
	C304.957336,485.432983 309.687927,489.480591 314.515167,493.610901 
	C315.218567,492.974030 315.950836,492.311066 317.367126,491.353394 
	C319.716309,490.997864 321.381439,490.883453 323.046600,490.883881 
	C387.037933,490.900604 451.029236,490.927856 515.020508,490.953674 
z"/>
<path fill="#0D0B0C" opacity="1.000000" stroke="none" 
	d="
M533.098633,774.045654 
	C542.875000,762.797363 553.759827,752.915283 567.393738,746.070923 
	C572.747437,755.573486 578.028137,764.946655 583.577271,774.796143 
	C558.693237,788.602112 541.695862,810.775085 524.295593,833.467346 
	C506.840851,811.518921 489.884277,789.272278 465.363525,775.066223 
	C470.495453,765.581238 475.454773,756.415222 480.773193,746.585510 
	C482.803528,747.577209 485.245911,748.467163 487.354523,749.861755 
	C492.058563,752.972839 496.801422,756.083984 501.164093,759.641968 
	C516.234070,771.932312 517.948364,776.785767 515.007751,795.910217 
	C514.797852,797.275085 515.282593,799.126221 516.135986,800.203125 
	C518.601501,803.314697 521.420654,806.145996 524.328796,809.337463 
	C527.231323,806.159424 530.152954,803.263489 532.656067,800.042297 
	C533.447876,799.023376 533.121033,797.135254 533.245239,794.860474 
	C533.155762,787.399231 533.127197,780.722412 533.098633,774.045654 
z"/>
<path fill="#DFE1E0" opacity="1.000000" stroke="none" 
	d="
M742.171021,486.636566 
	C739.930542,489.157806 737.617126,491.258636 735.303650,493.359497 
	C735.257324,492.898621 735.210999,492.437775 735.164673,491.976929 
	C730.588440,491.570953 726.012573,490.815460 721.436035,490.811768 
	C659.180725,490.761810 596.925354,490.816040 534.182739,490.880127 
	C533.433716,488.867065 533.171875,486.818390 532.811523,483.998718 
	C535.659363,483.998718 537.770508,483.998779 539.881714,483.998718 
	C603.541138,483.996948 667.200623,483.998077 730.860046,483.979919 
	C732.850647,483.979370 734.913757,483.408630 736.811279,483.778961 
	C738.661621,484.140045 740.342651,485.368500 742.171021,486.636566 
z"/>
<path fill="#E2E4E3" opacity="1.000000" stroke="none" 
	d="
M515.184570,490.593872 
	C451.029236,490.927856 387.037933,490.900604 323.046600,490.883881 
	C321.381439,490.883453 319.716309,490.997864 317.590698,491.052734 
	C315.011841,489.277191 312.893433,487.507568 310.774994,485.737946 
	C311.041656,485.161041 311.308289,484.584167 311.574951,484.007263 
	C313.313385,484.007263 315.051819,484.007507 316.790253,484.007263 
	C381.326660,483.998688 445.863068,483.988464 510.399475,483.983978 
	C516.416260,483.983582 516.601807,484.234833 515.184570,490.593872 
z"/>
<path fill="#E6E5E5" opacity="1.000000" stroke="none" 
	d="
M532.804199,773.935303 
	C533.127197,780.722412 533.155762,787.399231 533.097046,794.537354 
	C530.241028,794.998779 527.472229,794.998779 524.350159,794.998779 
	C524.350159,747.210754 524.350159,699.989197 524.350159,652.767639 
	C524.728394,652.564453 525.106689,652.361267 525.484924,652.158020 
	C526.377869,653.808350 527.080872,655.606140 528.216675,657.067688 
	C529.366211,658.546875 530.944092,659.693237 532.733398,660.976868 
	C533.291260,672.929199 533.566528,684.889771 533.583252,696.850830 
	C533.613220,718.310303 533.487854,739.769897 533.232178,761.604614 
	C527.999023,763.412659 531.266785,767.782593 530.157288,770.622192 
	C529.899231,771.282532 531.671692,772.736206 532.804199,773.935303 
z"/>
<path fill="#E6E5E5" opacity="1.000000" stroke="none" 
	d="
M532.965759,762.063110 
	C533.098816,762.109558 533.156921,762.271179 533.159546,762.684204 
	C532.904541,762.720337 532.833435,762.467773 532.965759,762.063110 
z"/>
</svg>