<svg version="1.1" id="Layer_1" xmlns="http://www.w3.org/2000/svg" xmlns:xlink="http://www.w3.org/1999/xlink" x="0px" y="0px"
	 width="100%" viewBox="0 0 1024 1024" enable-background="new 0 0 1024 1024" xml:space="preserve">
<path fill="#0E0C0E" opacity="1.000000" stroke="none" 
	d="
M7.000000,1025.000000 
	C7.000000,1025.000000 6.500000,1025.000000 5.981031,1024.729980 
	C1.166677,1024.042847 2.031640,1020.787476 2.031206,1018.098145 
	C2.010494,889.648865 2.001250,761.199646 1.999448,632.750366 
	C1.996495,422.166901 1.999505,211.583450 2.000000,1.000000 
	C342.930664,1.000000 683.861328,1.000000 1025.000000,1.000000 
	C1025.000000,341.694672 1025.000000,682.389404 1024.532959,1023.539673 
	C810.103821,1023.995422 596.141541,1023.992737 382.179291,1024.037354 
	C380.119476,1024.037720 378.059784,1024.665283 376.000000,1025.000000 
	C374.285248,1025.000000 372.570465,1025.000000 370.138611,1024.721436 
	C366.281036,1024.628662 363.140503,1024.814331 360.000000,1025.000000 
	C355.305176,1025.000000 350.610352,1025.000000 345.155334,1024.712646 
	C342.919434,1024.281006 341.443726,1024.010864 339.967957,1024.010742 
	C230.713211,1023.995117 121.458458,1023.996338 12.203726,1024.046265 
	C10.469005,1024.047119 8.734568,1024.668335 7.000000,1025.000000 
M924.828613,537.326843 
	C928.960266,508.171234 934.168091,479.119659 936.997559,449.838226 
	C942.728882,390.525299 942.569519,330.995026 939.168030,271.559601 
	C937.141785,236.154694 933.073364,200.867416 929.975159,165.522720 
	C928.830322,152.462463 928.959167,152.320023 916.849670,146.921356 
	C855.628296,119.627510 792.628174,97.235107 728.139404,79.043808 
	C669.128418,62.397720 609.449768,48.709801 548.674194,40.233570 
	C531.448914,37.831192 514.442810,35.132736 496.615845,37.565605 
	C438.970673,45.432491 382.183838,57.239109 325.933685,71.838211 
	C271.923615,85.855919 218.985367,103.246086 167.061981,123.639862 
	C145.080658,132.273361 123.489716,141.898911 101.686546,150.990112 
	C98.879814,152.160431 97.793892,153.876678 97.578613,156.941788 
	C96.843712,167.405136 95.892624,177.857407 94.806854,188.291306 
	C90.321640,231.392715 87.279419,274.568298 86.757774,317.927094 
	C85.951294,384.962067 87.188087,451.848419 99.007713,518.096924 
	C108.311874,570.246277 123.481316,620.643127 146.032013,668.580566 
	C192.466431,767.289124 257.478424,851.170837 345.336884,916.770447 
	C392.787445,952.199463 443.969727,979.824341 501.675903,994.386841 
	C507.028809,995.737610 513.057800,997.212341 518.218872,996.087524 
	C571.315857,984.515930 619.408752,961.434998 663.854736,930.636047 
	C714.441406,895.581970 758.667480,853.634705 796.993591,805.476746 
	C835.671082,756.877197 867.472290,704.183899 891.290466,646.761108 
	C905.863892,611.626465 916.888184,575.389038 924.828613,537.326843 
z"/>
<path fill="#222021" opacity="1.000000" stroke="none" 
	d="
M1.500000,1.000000 
	C1.999505,211.583450 1.996495,422.166901 1.999448,632.750366 
	C2.001250,761.199646 2.010494,889.648865 2.031206,1018.098145 
	C2.031640,1020.787476 1.166677,1024.042847 5.731031,1024.729980 
	C4.333333,1025.000000 2.666667,1025.000000 1.000000,1025.000000 
	C1.000000,683.666687 1.000000,342.333344 1.500000,1.000000 
z"/>
<path fill="#1E1C1E" opacity="1.000000" stroke="none" 
	d="
M376.466980,1025.000000 
	C378.059784,1024.665283 380.119476,1024.037720 382.179291,1024.037354 
	C596.141541,1023.992737 810.103821,1023.995422 1024.532959,1023.997620 
	C1024.833740,1024.333374 1024.684814,1024.943848 1024.498169,1024.955444 
	C1023.170959,1025.038818 1021.836121,1025.000000 1020.503662,1025.000000 
	C805.980408,1025.000000 591.457214,1025.000000 376.466980,1025.000000 
z"/>
<path fill="#1E1C1E" opacity="1.000000" stroke="none" 
	d="
M7.468657,1025.000000 
	C8.734568,1024.668335 10.469005,1024.047119 12.203726,1024.046265 
	C121.458458,1023.996338 230.713211,1023.995117 339.967957,1024.010742 
	C341.443726,1024.010864 342.919434,1024.281006 344.697571,1024.712646 
	C232.645767,1025.000000 120.291542,1025.000000 7.468657,1025.000000 
z"/>
<path fill="#1E1C1E" opacity="1.000000" stroke="none" 
	d="
M360.454102,1025.000000 
	C363.140503,1024.814331 366.281036,1024.628662 369.710754,1024.721436 
	C366.969391,1025.000000 363.938812,1025.000000 360.454102,1025.000000 
z"/>
<path fill="#FAFAFA" opacity="1.000000" stroke="none" 
	d="
M924.754883,537.745300 
	C916.888184,575.389038 905.863892,611.626465 891.290466,646.761108 
	C867.472290,704.183899 835.671082,756.877197 796.993591,805.476746 
	C758.667480,853.634705 714.441406,895.581970 663.854736,930.636047 
	C619.408752,961.434998 571.315857,984.515930 518.218872,996.087524 
	C513.057800,997.212341 507.028809,995.737610 501.675903,994.386841 
	C443.969727,979.824341 392.787445,952.199463 345.336884,916.770447 
	C257.478424,851.170837 192.466431,767.289124 146.032013,668.580566 
	C123.481316,620.643127 108.311874,570.246277 99.007713,518.096924 
	C87.188087,451.848419 85.951294,384.962067 86.757774,317.927094 
	C87.279419,274.568298 90.321640,231.392715 94.806854,188.291306 
	C95.892624,177.857407 96.843712,167.405136 97.578613,156.941788 
	C97.793892,153.876678 98.879814,152.160431 101.686546,150.990112 
	C123.489716,141.898911 145.080658,132.273361 167.061981,123.639862 
	C218.985367,103.246086 271.923615,85.855919 325.933685,71.838211 
	C382.183838,57.239109 438.970673,45.432491 496.615845,37.565605 
	C514.442810,35.132736 531.448914,37.831192 548.674194,40.233570 
	C609.449768,48.709801 669.128418,62.397720 728.139404,79.043808 
	C792.628174,97.235107 855.628296,119.627510 916.849670,146.921356 
	C928.959167,152.320023 928.830322,152.462463 929.975159,165.522720 
	C933.073364,200.867416 937.141785,236.154694 939.168030,271.559601 
	C942.569519,330.995026 942.728882,390.525299 936.997559,449.838226 
	C934.168091,479.119659 928.960266,508.171234 924.754883,537.745300 
M173.360199,251.941666 
	C172.440659,280.415253 171.069534,308.882904 170.694763,337.363678 
	C169.892319,398.343597 174.316757,458.961090 187.384171,518.618347 
	C199.872635,575.632629 221.582993,629.147400 251.478546,679.350525 
	C291.519440,746.590576 341.998108,804.389404 405.684875,850.209839 
	C434.938751,871.256958 465.812500,889.524048 499.105530,903.675598 
	C509.413635,908.057190 518.464233,907.903076 528.595642,903.480957 
	C582.886353,879.784485 631.294678,847.240967 674.527161,806.956665 
	C721.382202,763.296875 759.011536,712.555054 788.909241,655.996521 
	C811.223389,613.784180 828.436279,569.599976 839.009888,523.022034 
	C850.882812,470.720764 855.969849,417.565308 856.784790,364.008301 
	C857.467041,319.172028 856.137817,274.388763 852.039490,229.702072 
	C851.666626,225.637146 850.507996,223.553894 846.746460,222.074356 
	C829.259399,215.196075 811.887451,208.025085 794.415527,201.107513 
	C792.545410,200.367065 790.210693,200.113785 788.230713,200.451370 
	C777.427185,202.293457 768.954895,198.274536 763.471069,189.365845 
	C761.158508,185.609039 758.417419,184.278671 754.860352,182.950912 
	C679.252258,154.727676 601.412292,134.504745 522.546326,117.917198 
	C516.407715,116.626106 510.532227,116.438431 504.389221,118.002396 
	C493.760315,120.708420 483.006439,122.925262 472.299744,125.323792 
	C403.422668,140.753708 335.661377,160.019333 269.413025,184.456985 
	C267.930939,185.003693 266.513611,186.489517 265.677094,187.899704 
	C259.886536,197.661316 249.856003,202.267197 238.515305,200.286880 
	C237.106934,200.040955 235.441284,199.996735 234.155594,200.510956 
	C215.625305,207.922089 197.117554,215.391632 178.687653,223.047562 
	C177.293411,223.626740 175.774796,225.632111 175.597458,227.126801 
	C174.655838,235.062256 174.124252,243.046356 173.360199,251.941666 
M901.594299,498.085968 
	C901.816345,496.270874 902.084595,494.460022 902.253540,492.640015 
	C905.145935,461.485443 909.267822,430.385010 910.657166,399.163086 
	C913.802612,328.477936 910.707703,257.951508 902.145813,187.665680 
	C901.171204,179.665161 898.097717,175.386917 890.975647,171.784775 
	C820.007935,135.891541 744.917175,111.775749 667.930664,93.025116 
	C624.093811,82.348335 579.795288,74.042931 535.032349,68.334671 
	C526.137634,67.200394 517.038574,65.542854 508.228638,66.324265 
	C491.345337,67.821785 474.562439,70.652458 457.807678,73.361458 
	C405.886230,81.756386 354.755981,93.721535 304.175415,108.065514 
	C243.710190,125.212631 185.081375,147.109650 129.282501,176.227158 
	C127.842651,176.978500 126.207985,178.864609 126.059845,180.359787 
	C123.284698,208.369690 119.931305,236.353928 118.273109,264.436462 
	C114.507553,328.208527 114.465897,391.958862 120.709625,455.667358 
	C126.130356,510.978302 137.114777,564.921021 156.786728,616.992310 
	C184.968460,691.588928 226.748550,757.797424 279.815399,817.104004 
	C323.406647,865.820801 373.460327,906.474487 430.655334,938.185242 
	C441.802673,944.365601 453.492065,949.568359 465.129059,955.319763 
	C469.101868,947.805786 472.646484,941.101685 476.258362,934.270325 
	C475.510956,933.741882 475.010590,933.323792 474.453949,933.003601 
	C455.272461,921.974121 435.837311,911.360962 416.954498,899.842285 
	C384.002808,879.741516 353.708679,856.032654 326.075592,829.119263 
	C280.089691,784.331116 241.325577,733.977844 210.801804,677.368164 
	C181.863464,623.698853 161.049881,567.132996 149.914673,507.150238 
	C141.177567,460.085449 136.661606,412.590271 135.817795,364.693848 
	C134.809692,307.472565 138.131836,250.449326 142.167435,193.430618 
	C142.499237,188.742691 144.354187,186.428192 148.698868,185.018539 
	C169.740921,178.191330 190.736816,171.218567 211.676331,164.083923 
	C213.688751,163.398224 215.960464,161.588181 216.819809,159.709198 
	C222.454636,147.388412 234.768631,141.143661 248.027237,143.837479 
	C251.086655,144.459076 254.638306,144.298416 257.621552,143.383224 
	C274.633575,138.164230 291.483032,132.415237 308.496429,127.200851 
	C370.568787,108.176468 433.358490,91.929871 497.037445,79.222260 
	C504.613464,77.710411 512.106323,75.365211 520.161011,77.148361 
	C533.966553,80.204636 547.975281,82.354874 561.757263,85.504364 
	C632.374695,101.641975 702.391968,119.967712 770.941650,143.578934 
	C772.990173,144.284500 775.507202,144.390839 777.642151,143.962021 
	C792.473083,140.983246 804.314453,146.802780 810.998047,160.393204 
	C811.696106,161.812698 813.208374,163.305481 814.670410,163.804489 
	C836.711609,171.326675 858.793152,178.732300 880.911133,186.025879 
	C883.414185,186.851288 884.178223,188.168335 884.340698,190.620789 
	C885.563110,209.073242 886.889587,227.518829 888.198059,245.965546 
	C893.051880,314.391724 894.062378,382.748077 886.113037,451.076660 
	C881.059387,494.515869 872.998230,537.189819 859.259399,578.809387 
	C831.273865,663.586853 786.789795,738.557556 726.517273,804.255188 
	C688.161804,846.063110 643.732422,880.367004 595.169312,909.414673 
	C580.780762,918.021118 565.891968,925.791321 550.787903,934.191956 
	C554.118103,940.824829 557.588135,947.736267 561.126465,954.783691 
	C579.927307,947.937744 597.074463,939.089050 613.549744,929.033203 
	C677.054443,890.272339 731.599060,841.419128 777.174438,782.607239 
	C814.582520,734.334534 845.164429,682.118530 867.611877,625.234863 
	C883.714539,584.429138 895.091370,542.365051 901.594299,498.085968 
M502.711884,952.962341 
	C503.869598,953.607178 504.979675,954.364319 506.192657,954.878906 
	C515.700317,958.912537 526.767334,953.729797 530.367065,943.597046 
	C533.491577,934.802002 527.884949,924.632996 518.320618,921.747986 
	C510.827606,919.487732 502.354095,922.603271 498.286926,929.113831 
	C493.584564,936.641174 494.997314,945.338806 502.711884,952.962341 
M777.157837,186.558487 
	C787.085022,192.558731 801.398193,185.167145 802.094666,173.970551 
	C802.610291,165.680664 797.122314,158.378296 788.889099,156.369904 
	C781.665039,154.607697 773.251404,158.569321 769.991150,165.268143 
	C766.427979,172.589340 768.958984,180.616776 777.157837,186.558487 
M257.347443,164.500015 
	C253.703339,158.221634 248.053207,155.430252 241.045074,156.144943 
	C234.483047,156.814148 229.525726,160.405807 227.059128,166.691971 
	C224.234543,173.890457 226.370605,181.161987 232.239136,185.384369 
	C238.591690,189.954987 246.232971,189.726334 252.586365,184.775421 
	C258.856842,179.889160 260.692688,172.919739 257.347443,164.500015 
z"/>
<path fill="#0F0D0E" opacity="1.000000" stroke="none" 
	d="
M173.405426,251.477631 
	C174.124252,243.046356 174.655838,235.062256 175.597458,227.126801 
	C175.774796,225.632111 177.293411,223.626740 178.687653,223.047562 
	C197.117554,215.391632 215.625305,207.922089 234.155594,200.510956 
	C235.441284,199.996735 237.106934,200.040955 238.515305,200.286880 
	C249.856003,202.267197 259.886536,197.661316 265.677094,187.899704 
	C266.513611,186.489517 267.930939,185.003693 269.413025,184.456985 
	C335.661377,160.019333 403.422668,140.753708 472.299744,125.323792 
	C483.006439,122.925262 493.760315,120.708420 504.389221,118.002396 
	C510.532227,116.438431 516.407715,116.626106 522.546326,117.917198 
	C601.412292,134.504745 679.252258,154.727676 754.860352,182.950912 
	C758.417419,184.278671 761.158508,185.609039 763.471069,189.365845 
	C768.954895,198.274536 777.427185,202.293457 788.230713,200.451370 
	C790.210693,200.113785 792.545410,200.367065 794.415527,201.107513 
	C811.887451,208.025085 829.259399,215.196075 846.746460,222.074356 
	C850.507996,223.553894 851.666626,225.637146 852.039490,229.702072 
	C856.137817,274.388763 857.467041,319.172028 856.784790,364.008301 
	C855.969849,417.565308 850.882812,470.720764 839.009888,523.022034 
	C828.436279,569.599976 811.223389,613.784180 788.909241,655.996521 
	C759.011536,712.555054 721.382202,763.296875 674.527161,806.956665 
	C631.294678,847.240967 582.886353,879.784485 528.595642,903.480957 
	C518.464233,907.903076 509.413635,908.057190 499.105530,903.675598 
	C465.812500,889.524048 434.938751,871.256958 405.684875,850.209839 
	C341.998108,804.389404 291.519440,746.590576 251.478546,679.350525 
	C221.582993,629.147400 199.872635,575.632629 187.384171,518.618347 
	C174.316757,458.961090 169.892319,398.343597 170.694763,337.363678 
	C171.069534,308.882904 172.440659,280.415253 173.405426,251.477631 
M597.792786,390.979919 
	C624.566162,374.256866 651.339478,357.533783 678.229858,340.737610 
	C664.713379,331.579285 652.779968,319.735016 643.497192,305.709198 
	C636.492188,320.284241 630.199585,335.102753 622.415466,349.091278 
	C614.519226,363.281219 605.149963,376.651489 595.921448,390.730957 
	C595.731445,391.072266 595.541443,391.413574 595.351501,391.754913 
	C595.941589,391.546265 596.531616,391.337616 597.792786,390.979919 
M406.157623,795.291809 
	C478.079926,768.774658 549.994324,768.139526 622.792542,794.492554 
	C621.879761,792.699524 619.770752,792.124756 618.400269,790.791077 
	C602.171387,774.998291 589.698486,756.680786 582.078003,735.271851 
	C571.958801,706.843018 567.872131,677.138367 563.921326,647.425171 
	C558.709106,608.225220 556.783813,568.805969 556.245422,529.299622 
	C556.212341,526.869873 556.241150,524.439331 556.241150,521.711670 
	C593.270569,522.531799 629.353333,526.886414 664.668762,536.811035 
	C694.153992,545.097168 719.937439,559.569275 740.718079,582.396912 
	C744.586487,586.646423 748.572998,590.788330 752.505005,594.979919 
	C753.060486,594.894531 753.616028,594.809082 754.171509,594.723694 
	C729.058105,518.189575 728.894104,441.653503 753.355896,364.962830 
	C751.103027,366.249146 749.814697,367.704346 748.544250,369.175018 
	C728.192322,392.736389 703.729675,410.184570 673.900208,419.838562 
	C641.858582,430.208496 608.852661,435.215973 575.427856,437.985901 
	C569.217163,438.500549 562.982361,438.723358 556.424988,439.100037 
	C556.424988,437.022980 556.390564,435.709747 556.429932,434.398712 
	C557.649109,393.845428 562.252197,353.705994 571.426025,314.152313 
	C579.256531,280.390228 594.227478,250.674332 621.031555,227.775864 
	C621.419800,227.444199 621.570374,226.834229 622.240295,225.604340 
	C586.339844,237.471298 550.349548,244.675110 513.334473,244.819290 
	C476.378693,244.963242 440.738495,236.242508 405.330231,226.049301 
	C431.410156,248.104599 446.700378,276.312592 455.066895,308.643921 
	C463.644135,341.789551 467.807831,375.609772 469.981232,409.706238 
	C470.591766,419.284576 470.890747,428.882782 471.351837,438.888031 
	C469.803986,438.888031 469.007233,438.923065 468.214264,438.882965 
	C430.000427,436.952393 392.238647,432.165192 355.705566,420.230927 
	C328.347198,411.293732 303.887238,397.600677 284.800812,375.466949 
	C281.745117,371.923401 278.562744,368.489105 275.438965,365.004303 
	C284.738831,402.828491 292.660217,440.583221 292.693207,479.438507 
	C292.726257,518.372803 284.187256,556.132629 275.256348,593.923889 
	C277.107941,592.726624 278.443939,591.326721 279.691162,589.851685 
	C299.985779,565.849976 325.048981,549.092468 355.043610,539.514160 
	C384.073151,530.244141 413.913239,525.571045 444.146606,522.969849 
	C453.034485,522.205322 461.965210,521.938416 471.076935,521.432312 
	C471.150970,522.805908 471.214264,523.439331 471.215179,524.072876 
	C471.298920,582.147461 467.122620,639.855469 455.986115,696.932800 
	C451.020477,722.382874 443.768585,747.116882 428.114258,768.297852 
	C421.142822,777.730408 412.692291,786.069763 404.251038,794.908081 
	C403.925018,795.151001 403.598999,795.393860 403.272980,795.636780 
	C404.010773,795.610840 404.748535,795.584900 406.157623,795.291809 
M622.600525,588.949951 
	C613.945618,583.545776 605.878113,577.139465 596.340271,573.095825 
	C614.271729,600.979065 629.384399,629.992310 640.721313,661.721924 
	C651.212952,645.503845 663.245056,631.713684 677.923218,620.878784 
	C659.529541,610.251221 641.384766,599.767517 622.600525,588.949951 
M379.730896,651.811218 
	C381.891815,654.862000 384.052734,657.912842 386.475098,661.332703 
	C397.911224,629.561462 413.775024,600.585571 431.473938,572.804199 
	C404.029602,589.064453 376.832703,605.178101 349.853455,621.162781 
	C361.004028,628.889282 370.646088,639.577332 379.730896,651.811218 
M397.770813,335.697571 
	C393.272339,325.784668 388.773834,315.871765 384.054565,305.472290 
	C373.909973,319.308716 362.934235,331.837891 348.647095,340.735626 
	C375.699097,356.957245 402.268219,372.889343 428.655334,388.712280 
	C418.457581,371.271759 408.258484,353.828979 397.770813,335.697571 
M493.541870,787.952087 
	C490.312988,787.952087 487.084137,787.952087 483.649200,787.952087 
	C493.942902,809.448730 503.878265,830.197083 513.554382,850.404053 
	C523.368469,830.086365 533.469727,809.174194 543.722290,787.948730 
	C527.110046,787.948730 510.819183,787.948730 493.541870,787.952087 
M505.133514,188.618484 
	C497.975128,202.971130 490.816772,217.323792 483.496552,232.000916 
	C503.486664,232.000916 523.293335,232.000916 543.271790,232.000916 
	C533.175964,211.431656 523.337769,191.387344 513.397583,171.135269 
	C510.709656,176.848099 508.097534,182.399796 505.133514,188.618484 
M261.628571,499.848083 
	C267.478882,503.130188 273.329193,506.412262 279.570679,509.913788 
	C279.570679,489.895752 279.570679,470.417938 279.570679,451.278809 
	C260.292145,461.442047 241.335617,471.435547 222.739990,481.238800 
	C235.499695,487.311035 248.251602,493.379578 261.628571,499.848083 
M776.047974,494.521698 
	C785.590271,490.190826 795.132568,485.859955 804.819275,481.463531 
	C785.668823,471.416565 766.786987,461.510529 747.927002,451.615936 
	C747.927002,470.680878 747.927002,489.906433 747.927002,509.390747 
	C757.277466,504.442322 766.327209,499.653015 776.047974,494.521698 
M256.203705,228.446655 
	C253.309341,221.606155 247.801697,218.579712 241.702698,220.478394 
	C236.497116,222.098953 233.114685,227.921387 234.405899,233.038910 
	C236.032623,239.486130 241.090485,243.131790 247.194260,242.256729 
	C253.456573,241.358902 256.954041,236.409729 256.203705,228.446655 
M770.828857,228.905045 
	C771.149841,231.157516 771.063538,233.569183 771.869690,235.632065 
	C774.115601,241.379044 780.567078,243.862366 786.277039,241.498672 
	C791.945007,239.152390 794.546082,232.804077 792.095398,227.085495 
	C790.236877,222.748688 786.956787,220.234741 782.162231,220.100693 
	C776.473938,219.941681 772.862488,222.850174 770.828857,228.905045 
M616.122131,659.380005 
	C621.425476,677.399353 628.099792,694.871460 637.121826,711.416321 
	C632.757446,690.111511 625.729675,669.804321 615.552185,650.671265 
	C615.055298,650.838013 614.558350,651.004761 614.061401,651.171570 
	C614.695007,653.640503 615.328613,656.109436 616.122131,659.380005 
M402.985657,683.555176 
	C406.786285,673.307251 410.654816,663.076843 411.393036,652.017029 
	C401.689545,670.068359 394.792206,689.092834 390.669067,709.193726 
	C396.201538,701.615295 399.063965,692.745239 402.985657,683.555176 
M314.724976,618.382263 
	C314.292908,618.626343 313.847626,618.851135 313.439209,619.129883 
	C313.351257,619.189941 313.396332,619.444885 313.275330,620.678894 
	C330.806641,614.687012 346.387543,606.193420 360.667145,595.174561 
	C344.098785,599.881287 329.424255,608.339783 314.724976,618.382263 
M674.509277,597.033020 
	C671.524780,595.857544 668.540283,594.682068 665.555725,593.506592 
	C679.554382,604.941406 694.845947,613.784851 711.964722,619.349670 
	C700.982788,609.924255 688.177002,603.488098 674.509277,597.033020 
M635.303223,273.728760 
	C629.969299,287.980438 624.635376,302.232117 619.301453,316.483795 
	C619.996277,316.737762 620.691101,316.991760 621.385986,317.245728 
	C630.506958,302.180023 635.564880,285.608521 639.284668,268.541077 
	C638.860352,268.350281 638.436035,268.159454 638.011780,267.968658 
	C637.230408,269.664703 636.449097,271.360748 635.303223,273.728760 
M675.813416,363.264984 
	C689.661926,357.091766 702.960327,349.990112 714.657654,340.163849 
	C697.261780,345.748871 681.867981,355.036438 667.512085,366.486420 
	C670.054504,365.534241 672.596924,364.582092 675.813416,363.264984 
M403.221313,303.181122 
	C398.649292,291.040466 394.077271,278.899811 389.505219,266.759186 
	C388.957123,266.970337 388.409027,267.181519 387.860901,267.392670 
	C391.401703,284.645325 397.135986,301.114990 406.676331,316.306580 
	C405.605530,312.188751 404.534698,308.070892 403.221313,303.181122 
M352.320740,363.132874 
	C354.056183,363.789368 355.791656,364.445862 357.527100,365.102356 
	C357.687500,364.722351 357.847900,364.342346 358.008301,363.962341 
	C344.682831,354.065613 330.474091,345.865540 314.741272,340.593048 
	C314.379700,341.275818 314.018127,341.958588 313.656586,342.641357 
	C326.303101,349.395844 338.949646,356.150360 352.320740,363.132874 
z"/>
<path fill="#121011" opacity="1.000000" stroke="none" 
	d="
M901.475159,498.509491 
	C895.091370,542.365051 883.714539,584.429138 867.611877,625.234863 
	C845.164429,682.118530 814.582520,734.334534 777.174438,782.607239 
	C731.599060,841.419128 677.054443,890.272339 613.549744,929.033203 
	C597.074463,939.089050 579.927307,947.937744 561.126465,954.783691 
	C557.588135,947.736267 554.118103,940.824829 550.787903,934.191956 
	C565.891968,925.791321 580.780762,918.021118 595.169312,909.414673 
	C643.732422,880.367004 688.161804,846.063110 726.517273,804.255188 
	C786.789795,738.557556 831.273865,663.586853 859.259399,578.809387 
	C872.998230,537.189819 881.059387,494.515869 886.113037,451.076660 
	C894.062378,382.748077 893.051880,314.391724 888.198059,245.965546 
	C886.889587,227.518829 885.563110,209.073242 884.340698,190.620789 
	C884.178223,188.168335 883.414185,186.851288 880.911133,186.025879 
	C858.793152,178.732300 836.711609,171.326675 814.670410,163.804489 
	C813.208374,163.305481 811.696106,161.812698 810.998047,160.393204 
	C804.314453,146.802780 792.473083,140.983246 777.642151,143.962021 
	C775.507202,144.390839 772.990173,144.284500 770.941650,143.578934 
	C702.391968,119.967712 632.374695,101.641975 561.757263,85.504364 
	C547.975281,82.354874 533.966553,80.204636 520.161011,77.148361 
	C512.106323,75.365211 504.613464,77.710411 497.037445,79.222260 
	C433.358490,91.929871 370.568787,108.176468 308.496429,127.200851 
	C291.483032,132.415237 274.633575,138.164230 257.621552,143.383224 
	C254.638306,144.298416 251.086655,144.459076 248.027237,143.837479 
	C234.768631,141.143661 222.454636,147.388412 216.819809,159.709198 
	C215.960464,161.588181 213.688751,163.398224 211.676331,164.083923 
	C190.736816,171.218567 169.740921,178.191330 148.698868,185.018539 
	C144.354187,186.428192 142.499237,188.742691 142.167435,193.430618 
	C138.131836,250.449326 134.809692,307.472565 135.817795,364.693848 
	C136.661606,412.590271 141.177567,460.085449 149.914673,507.150238 
	C161.049881,567.132996 181.863464,623.698853 210.801804,677.368164 
	C241.325577,733.977844 280.089691,784.331116 326.075592,829.119263 
	C353.708679,856.032654 384.002808,879.741516 416.954498,899.842285 
	C435.837311,911.360962 455.272461,921.974121 474.453949,933.003601 
	C475.010590,933.323792 475.510956,933.741882 476.258362,934.270325 
	C472.646484,941.101685 469.101868,947.805786 465.129059,955.319763 
	C453.492065,949.568359 441.802673,944.365601 430.655334,938.185242 
	C373.460327,906.474487 323.406647,865.820801 279.815399,817.104004 
	C226.748550,757.797424 184.968460,691.588928 156.786728,616.992310 
	C137.114777,564.921021 126.130356,510.978302 120.709625,455.667358 
	C114.465897,391.958862 114.507553,328.208527 118.273109,264.436462 
	C119.931305,236.353928 123.284698,208.369690 126.059845,180.359787 
	C126.207985,178.864609 127.842651,176.978500 129.282501,176.227158 
	C185.081375,147.109650 243.710190,125.212631 304.175415,108.065514 
	C354.755981,93.721535 405.886230,81.756386 457.807678,73.361458 
	C474.562439,70.652458 491.345337,67.821785 508.228638,66.324265 
	C517.038574,65.542854 526.137634,67.200394 535.032349,68.334671 
	C579.795288,74.042931 624.093811,82.348335 667.930664,93.025116 
	C744.917175,111.775749 820.007935,135.891541 890.975647,171.784775 
	C898.097717,175.386917 901.171204,179.665161 902.145813,187.665680 
	C910.707703,257.951508 913.802612,328.477936 910.657166,399.163086 
	C909.267822,430.385010 905.145935,461.485443 902.253540,492.640015 
	C902.084595,494.460022 901.816345,496.270874 901.475159,498.509491 
z"/>
<path fill="#121011" opacity="1.000000" stroke="none" 
	d="
M502.402832,952.756531 
	C494.997314,945.338806 493.584564,936.641174 498.286926,929.113831 
	C502.354095,922.603271 510.827606,919.487732 518.320618,921.747986 
	C527.884949,924.632996 533.491577,934.802002 530.367065,943.597046 
	C526.767334,953.729797 515.700317,958.912537 506.192657,954.878906 
	C504.979675,954.364319 503.869598,953.607178 502.402832,952.756531 
z"/>
<path fill="#121011" opacity="1.000000" stroke="none" 
	d="
M776.860046,186.333801 
	C768.958984,180.616776 766.427979,172.589340 769.991150,165.268143 
	C773.251404,158.569321 781.665039,154.607697 788.889099,156.369904 
	C797.122314,158.378296 802.610291,165.680664 802.094666,173.970551 
	C801.398193,185.167145 787.085022,192.558731 776.860046,186.333801 
z"/>
<path fill="#121112" opacity="1.000000" stroke="none" 
	d="
M257.548828,164.836029 
	C260.692688,172.919739 258.856842,179.889160 252.586365,184.775421 
	C246.232971,189.726334 238.591690,189.954987 232.239136,185.384369 
	C226.370605,181.161987 224.234543,173.890457 227.059128,166.691971 
	C229.525726,160.405807 234.483047,156.814148 241.045074,156.144943 
	C248.053207,155.430252 253.703339,158.221634 257.548828,164.836029 
z"/>
<path fill="#FCFCFC" opacity="1.000000" stroke="none" 
	d="
M404.913086,794.905334 
	C412.692291,786.069763 421.142822,777.730408 428.114258,768.297852 
	C443.768585,747.116882 451.020477,722.382874 455.986115,696.932800 
	C467.122620,639.855469 471.298920,582.147461 471.215179,524.072876 
	C471.214264,523.439331 471.150970,522.805908 471.076935,521.432312 
	C461.965210,521.938416 453.034485,522.205322 444.146606,522.969849 
	C413.913239,525.571045 384.073151,530.244141 355.043610,539.514160 
	C325.048981,549.092468 299.985779,565.849976 279.691162,589.851685 
	C278.443939,591.326721 277.107941,592.726624 275.256348,593.923889 
	C284.187256,556.132629 292.726257,518.372803 292.693207,479.438507 
	C292.660217,440.583221 284.738831,402.828491 275.438965,365.004303 
	C278.562744,368.489105 281.745117,371.923401 284.800812,375.466949 
	C303.887238,397.600677 328.347198,411.293732 355.705566,420.230927 
	C392.238647,432.165192 430.000427,436.952393 468.214264,438.882965 
	C469.007233,438.923065 469.803986,438.888031 471.351837,438.888031 
	C470.890747,428.882782 470.591766,419.284576 469.981232,409.706238 
	C467.807831,375.609772 463.644135,341.789551 455.066895,308.643921 
	C446.700378,276.312592 431.410156,248.104599 405.330231,226.049301 
	C440.738495,236.242508 476.378693,244.963242 513.334473,244.819290 
	C550.349548,244.675110 586.339844,237.471298 622.240295,225.604340 
	C621.570374,226.834229 621.419800,227.444199 621.031555,227.775864 
	C594.227478,250.674332 579.256531,280.390228 571.426025,314.152313 
	C562.252197,353.705994 557.649109,393.845428 556.429932,434.398712 
	C556.390564,435.709747 556.424988,437.022980 556.424988,439.100037 
	C562.982361,438.723358 569.217163,438.500549 575.427856,437.985901 
	C608.852661,435.215973 641.858582,430.208496 673.900208,419.838562 
	C703.729675,410.184570 728.192322,392.736389 748.544250,369.175018 
	C749.814697,367.704346 751.103027,366.249146 753.355896,364.962830 
	C728.894104,441.653503 729.058105,518.189575 754.171509,594.723694 
	C753.616028,594.809082 753.060486,594.894531 752.505005,594.979919 
	C748.572998,590.788330 744.586487,586.646423 740.718079,582.396912 
	C719.937439,559.569275 694.153992,545.097168 664.668762,536.811035 
	C629.353333,526.886414 593.270569,522.531799 556.241150,521.711670 
	C556.241150,524.439331 556.212341,526.869873 556.245422,529.299622 
	C556.783813,568.805969 558.709106,608.225220 563.921326,647.425171 
	C567.872131,677.138367 571.958801,706.843018 582.078003,735.271851 
	C589.698486,756.680786 602.171387,774.998291 618.400269,790.791077 
	C619.770752,792.124756 621.879761,792.699524 622.792542,794.492554 
	C549.994324,768.139526 478.079926,768.774658 405.683228,795.257996 
	C405.208832,795.224182 404.913086,794.905334 404.913086,794.905334 
z"/>
<path fill="#F9F8F8" opacity="1.000000" stroke="none" 
	d="
M622.920288,589.116882 
	C641.384766,599.767517 659.529541,610.251221 677.923218,620.878784 
	C663.245056,631.713684 651.212952,645.503845 640.721313,661.721924 
	C629.384399,629.992310 614.271729,600.979065 596.340271,573.095825 
	C605.878113,577.139465 613.945618,583.545776 622.920288,589.116882 
z"/>
<path fill="#F8F8F8" opacity="1.000000" stroke="none" 
	d="
M379.518219,651.519653 
	C370.646088,639.577332 361.004028,628.889282 349.853455,621.162781 
	C376.832703,605.178101 404.029602,589.064453 431.473938,572.804199 
	C413.775024,600.585571 397.911224,629.561462 386.475098,661.332703 
	C384.052734,657.912842 381.891815,654.862000 379.518219,651.519653 
z"/>
<path fill="#F8F8F8" opacity="1.000000" stroke="none" 
	d="
M596.425903,390.380768 
	C605.149963,376.651489 614.519226,363.281219 622.415466,349.091278 
	C630.199585,335.102753 636.492188,320.284241 643.497192,305.709198 
	C652.779968,319.735016 664.713379,331.579285 678.229858,340.737610 
	C651.339478,357.533783 624.566162,374.256866 597.285217,390.865601 
	C596.660461,390.627808 596.543213,390.504303 596.425903,390.380768 
z"/>
<path fill="#F8F7F8" opacity="1.000000" stroke="none" 
	d="
M397.915100,336.041901 
	C408.258484,353.828979 418.457581,371.271759 428.655334,388.712280 
	C402.268219,372.889343 375.699097,356.957245 348.647095,340.735626 
	C362.934235,331.837891 373.909973,319.308716 384.054565,305.472290 
	C388.773834,315.871765 393.272339,325.784668 397.915100,336.041901 
z"/>
<path fill="#F9F9F9" opacity="1.000000" stroke="none" 
	d="
M494.035095,787.950439 
	C510.819183,787.948730 527.110046,787.948730 543.722290,787.948730 
	C533.469727,809.174194 523.368469,830.086365 513.554382,850.404053 
	C503.878265,830.197083 493.942902,809.448730 483.649200,787.952087 
	C487.084137,787.952087 490.312988,787.952087 494.035095,787.950439 
z"/>
<path fill="#F8F7F8" opacity="1.000000" stroke="none" 
	d="
M505.309479,188.284988 
	C508.097534,182.399796 510.709656,176.848099 513.397583,171.135269 
	C523.337769,191.387344 533.175964,211.431656 543.271790,232.000916 
	C523.293335,232.000916 503.486664,232.000916 483.496552,232.000916 
	C490.816772,217.323792 497.975128,202.971130 505.309479,188.284988 
z"/>
<path fill="#F8F8F8" opacity="1.000000" stroke="none" 
	d="
M261.316040,499.648071 
	C248.251602,493.379578 235.499695,487.311035 222.739990,481.238800 
	C241.335617,471.435547 260.292145,461.442047 279.570679,451.278809 
	C279.570679,470.417938 279.570679,489.895752 279.570679,509.913788 
	C273.329193,506.412262 267.478882,503.130188 261.316040,499.648071 
z"/>
<path fill="#F9F9F9" opacity="1.000000" stroke="none" 
	d="
M775.712463,494.692688 
	C766.327209,499.653015 757.277466,504.442322 747.927002,509.390747 
	C747.927002,489.906433 747.927002,470.680878 747.927002,451.615936 
	C766.786987,461.510529 785.668823,471.416565 804.819275,481.463531 
	C795.132568,485.859955 785.590271,490.190826 775.712463,494.692688 
z"/>
<path fill="#F6F6F6" opacity="1.000000" stroke="none" 
	d="
M256.317780,228.815750 
	C256.954041,236.409729 253.456573,241.358902 247.194260,242.256729 
	C241.090485,243.131790 236.032623,239.486130 234.405899,233.038910 
	C233.114685,227.921387 236.497116,222.098953 241.702698,220.478394 
	C247.801697,218.579712 253.309341,221.606155 256.317780,228.815750 
z"/>
<path fill="#F6F6F6" opacity="1.000000" stroke="none" 
	d="
M770.897339,228.495605 
	C772.862488,222.850174 776.473938,219.941681 782.162231,220.100693 
	C786.956787,220.234741 790.236877,222.748688 792.095398,227.085495 
	C794.546082,232.804077 791.945007,239.152390 786.277039,241.498672 
	C780.567078,243.862366 774.115601,241.379044 771.869690,235.632065 
	C771.063538,233.569183 771.149841,231.157516 770.897339,228.495605 
z"/>
<path fill="#ECEAEB" opacity="1.000000" stroke="none" 
	d="
M616.042114,658.979187 
	C615.328613,656.109436 614.695007,653.640503 614.061401,651.171570 
	C614.558350,651.004761 615.055298,650.838013 615.552185,650.671265 
	C625.729675,669.804321 632.757446,690.111511 637.121826,711.416321 
	C628.099792,694.871460 621.425476,677.399353 616.042114,658.979187 
z"/>
<path fill="#E9E7E8" opacity="1.000000" stroke="none" 
	d="
M402.882172,683.927612 
	C399.063965,692.745239 396.201538,701.615295 390.669067,709.193726 
	C394.792206,689.092834 401.689545,670.068359 411.393036,652.017029 
	C410.654816,663.076843 406.786285,673.307251 402.882172,683.927612 
z"/>
<path fill="#E9E7E8" opacity="1.000000" stroke="none" 
	d="
M315.038757,618.188599 
	C329.424255,608.339783 344.098785,599.881287 360.667145,595.174561 
	C346.387543,606.193420 330.806641,614.687012 313.275330,620.678894 
	C313.396332,619.444885 313.351257,619.189941 313.439209,619.129883 
	C313.847626,618.851135 314.292908,618.626343 315.038757,618.188599 
z"/>
<path fill="#ECEAEB" opacity="1.000000" stroke="none" 
	d="
M674.860352,597.172791 
	C688.177002,603.488098 700.982788,609.924255 711.964722,619.349670 
	C694.845947,613.784851 679.554382,604.941406 665.555725,593.506592 
	C668.540283,594.682068 671.524780,595.857544 674.860352,597.172791 
z"/>
<path fill="#E6E4E5" opacity="1.000000" stroke="none" 
	d="
M635.485474,273.392761 
	C636.449097,271.360748 637.230408,269.664703 638.011780,267.968658 
	C638.436035,268.159454 638.860352,268.350281 639.284668,268.541077 
	C635.564880,285.608521 630.506958,302.180023 621.385986,317.245728 
	C620.691101,316.991760 619.996277,316.737762 619.301453,316.483795 
	C624.635376,302.232117 629.969299,287.980438 635.485474,273.392761 
z"/>
<path fill="#E9E7E8" opacity="1.000000" stroke="none" 
	d="
M675.476379,363.447449 
	C672.596924,364.582092 670.054504,365.534241 667.512085,366.486420 
	C681.867981,355.036438 697.261780,345.748871 714.657654,340.163849 
	C702.960327,349.990112 689.661926,357.091766 675.476379,363.447449 
z"/>
<path fill="#E6E4E5" opacity="1.000000" stroke="none" 
	d="
M403.342590,303.567078 
	C404.534698,308.070892 405.605530,312.188751 406.676331,316.306580 
	C397.135986,301.114990 391.401703,284.645325 387.860901,267.392670 
	C388.409027,267.181519 388.957123,266.970337 389.505219,266.759186 
	C394.077271,278.899811 398.649292,291.040466 403.342590,303.567078 
z"/>
<path fill="#E9E7E8" opacity="1.000000" stroke="none" 
	d="
M351.958466,363.018860 
	C338.949646,356.150360 326.303101,349.395844 313.656586,342.641357 
	C314.018127,341.958588 314.379700,341.275818 314.741272,340.593048 
	C330.474091,345.865540 344.682831,354.065613 358.008301,363.962341 
	C357.847900,364.342346 357.687500,364.722351 357.527100,365.102356 
	C355.791656,364.445862 354.056183,363.789368 351.958466,363.018860 
z"/>
<path fill="#FCFCFC" opacity="1.000000" stroke="none" 
	d="
M405.347595,795.391602 
	C404.748535,795.584900 404.010773,795.610840 403.272980,795.636780 
	C403.598999,795.393860 403.925018,795.151001 404.582062,794.906738 
	C404.913086,794.905334 405.208832,795.224182 405.347595,795.391602 
z"/>
<path fill="#F8F8F8" opacity="1.000000" stroke="none" 
	d="
M596.949646,390.940125 
	C596.531616,391.337616 595.941589,391.546265 595.351440,391.754883 
	C595.541443,391.413574 595.731445,391.072266 596.173706,390.555847 
	C596.543213,390.504303 596.660461,390.627808 596.949646,390.940125 
z"/>
</svg>