<svg version="1.1" id="Layer_1" xmlns="http://www.w3.org/2000/svg" xmlns:xlink="http://www.w3.org/1999/xlink" x="0px" y="0px"
	 width="100%" viewBox="0 0 1024 1024" enable-background="new 0 0 1024 1024" xml:space="preserve">
<path fill="#050304" opacity="1.000000" stroke="none" 
	d="
M569.000000,1025.000000 
	C379.333344,1025.000000 190.166672,1025.000000 1.000000,1025.000000 
	C1.000000,683.666687 1.000000,342.333344 1.000000,1.000000 
	C342.333344,1.000000 683.666687,1.000000 1025.000000,1.000000 
	C1025.000000,342.333344 1025.000000,683.666687 1025.000000,1025.000000 
	C873.166687,1025.000000 721.333313,1025.000000 569.000000,1025.000000 
M817.807739,405.500092 
	C817.807739,353.405151 817.807739,301.310242 817.807739,249.079666 
	C763.061096,244.860428 710.451111,233.879684 659.989685,213.654907 
	C609.541931,193.435562 562.990295,166.768616 523.339783,129.191254 
	C439.596985,204.420395 339.980835,239.900467 229.779221,249.068848 
	C229.607651,249.624573 229.424835,249.939941 229.425034,250.255203 
	C229.465042,313.905060 229.522415,377.554932 229.568619,441.204803 
	C229.590988,472.049377 231.342590,502.777679 236.281708,533.251160 
	C242.425995,571.160522 253.715256,607.555176 268.963867,642.770569 
	C292.247772,696.542847 324.665344,744.104797 365.840912,785.744751 
	C394.026031,814.247620 425.005920,839.441467 457.896881,862.224121 
	C478.257477,876.327393 499.378815,889.330322 520.080261,902.946411 
	C522.730347,904.689453 524.650574,904.372070 527.146301,902.741699 
	C544.005249,891.727905 561.080139,881.040894 577.839966,869.879883 
	C622.360107,840.232422 663.462524,806.513428 699.308167,766.652649 
	C729.001709,733.632996 752.973694,696.789551 772.288269,656.855164 
	C796.459656,606.878967 810.957825,554.170898 814.881226,498.871887 
	C817.059753,468.166656 816.908691,437.296143 817.807739,405.500092 
M195.655701,645.024109 
	C204.425217,642.002563 213.213638,639.034424 221.956619,635.937988 
	C226.599792,634.293518 228.537064,631.007812 227.036484,627.272705 
	C225.402756,623.206116 222.153915,621.878662 218.121735,623.272888 
	C205.110260,627.772034 192.136475,632.382141 179.184006,637.048889 
	C175.192596,638.486938 173.934357,641.843628 175.163910,645.518982 
	C176.356949,649.085266 179.470505,650.507324 183.197647,649.350037 
	C187.143555,648.124817 190.997910,646.604797 195.655701,645.024109 
M271.835876,808.693115 
	C274.410461,807.397583 277.441040,806.593506 279.470642,804.710510 
	C284.710815,799.848938 289.492249,794.494507 294.488678,789.367920 
	C298.441223,785.312439 302.551392,781.404480 306.380432,777.237000 
	C308.909607,774.484375 309.371735,771.230835 306.669403,768.266357 
	C304.002502,765.340637 300.837769,765.295959 297.746521,767.637085 
	C296.030823,768.936523 294.445679,770.433655 292.931610,771.969727 
	C284.980194,780.036926 277.099213,788.173706 269.134857,796.228027 
	C264.468933,800.946716 265.075439,804.948730 271.835876,808.693115 
M851.030090,645.292236 
	C854.609558,646.600403 858.153992,648.016602 861.777100,649.190002 
	C866.566101,650.741028 870.519775,649.233215 871.745850,645.593872 
	C872.899780,642.168884 870.751953,638.678345 866.133240,636.972412 
	C853.836548,632.430664 841.530396,627.909180 829.146790,623.613953 
	C827.307190,622.975952 824.600281,622.902832 823.065308,623.836060 
	C821.335571,624.887512 819.207581,627.646973 819.535645,629.172485 
	C820.041809,631.526123 822.054688,634.494568 824.190125,635.393921 
	C832.729858,638.990601 841.563538,641.889465 851.030090,645.292236 
M780.912659,800.992737 
	C770.354126,789.741638 759.932007,778.356995 749.142090,767.332275 
	C746.413696,764.544556 742.742371,765.794373 740.275330,768.535706 
	C737.541748,771.573181 738.479797,774.820435 741.042908,777.455444 
	C750.440308,787.116638 759.832458,796.790344 769.533203,806.141357 
	C771.106140,807.657654 774.700684,808.674316 776.517029,807.911865 
	C778.515442,807.072937 779.539307,803.912354 780.912659,800.992737 
M224.120407,707.541992 
	C233.150620,702.627808 242.235260,697.809875 251.183731,692.751099 
	C254.659897,690.785767 256.628967,687.764343 254.670303,683.591431 
	C252.952972,679.932556 249.213257,678.850342 244.893600,681.100403 
	C236.507523,685.468628 228.240082,690.066223 219.956528,694.628784 
	C217.495804,695.984192 215.043747,697.399353 212.772415,699.042419 
	C210.387512,700.767639 209.410339,703.097534 210.913101,705.994263 
	C212.411606,708.882629 214.508575,710.920410 218.001099,710.125610 
	C219.896912,709.694153 221.656311,708.663147 224.120407,707.541992 
M791.832581,683.407349 
	C789.844360,687.767212 792.253418,690.432800 795.617371,692.391296 
	C805.239990,697.993408 814.919189,703.501648 824.657104,708.900757 
	C829.363892,711.510376 833.078003,710.827515 835.050903,707.247620 
	C837.544189,702.723267 834.882935,699.812012 831.397461,697.785095 
	C821.477722,692.016602 811.417786,686.487610 801.374146,680.934631 
	C797.890747,679.008789 794.666626,679.263123 791.832581,683.407349 
M205.911133,568.533875 
	C203.306168,567.953308 200.555313,566.522461 198.121597,566.940002 
	C187.814301,568.708435 177.593597,570.990051 167.357117,573.159058 
	C162.394989,574.210510 159.971786,577.398376 160.822174,581.479309 
	C161.628677,585.349609 165.472214,587.452332 170.201050,586.441223 
	C180.412170,584.257935 190.621719,582.062317 200.800644,579.734985 
	C206.763992,578.371521 208.573166,574.756897 205.911133,568.533875 
M175.502380,508.207367 
	C170.842957,508.213348 166.177567,508.073944 161.525681,508.264130 
	C156.345276,508.475952 153.954971,510.749451 154.001465,514.954407 
	C154.046982,519.070007 156.572845,521.108215 161.826874,521.110107 
	C172.976273,521.114197 184.125793,521.079529 195.275101,521.026978 
	C200.374588,521.002991 203.555191,518.395264 203.445557,514.428955 
	C203.335632,510.452423 200.159454,508.012024 194.971298,508.029541 
	C188.814575,508.050323 182.658081,508.145477 175.502380,508.207367 
M885.194031,521.163513 
	C889.485474,521.272583 892.921082,520.088196 893.180359,515.084900 
	C893.403259,510.780060 890.144165,508.137085 884.715393,508.106964 
	C873.721497,508.045929 862.727173,508.051147 851.733093,508.080994 
	C846.543396,508.095062 843.887024,510.249023 843.826477,514.319092 
	C843.761963,518.654053 846.491394,521.026367 851.776062,521.056091 
	C862.604553,521.117065 873.433411,521.112793 885.194031,521.163513 
M841.552734,567.976807 
	C837.765259,573.279724 839.196838,577.851929 845.680786,579.450806 
	C855.800293,581.946106 866.037354,583.966370 876.231079,586.157776 
	C881.782959,587.351318 885.234192,585.741211 886.090393,581.635925 
	C886.970154,577.417664 884.392090,574.383667 879.021851,573.247131 
	C869.462463,571.223938 859.935059,569.033569 850.334717,567.230103 
	C847.710510,566.737122 844.874023,567.373779 841.552734,567.976807 
M864.610107,398.989380 
	C869.628235,397.296783 874.721191,395.793365 879.638855,393.846924 
	C883.078491,392.485443 885.399597,389.293030 883.754883,385.951141 
	C882.647583,383.701294 878.614380,380.838348 876.744751,381.353210 
	C865.415955,384.472687 854.221680,388.199280 843.270935,392.463745 
	C841.307434,393.228394 839.380371,397.652039 839.752869,400.022278 
	C840.325378,403.665588 843.592590,405.681122 847.770264,404.346954 
	C853.130310,402.635223 858.481018,400.894379 864.610107,398.989380 
M171.269958,395.162048 
	C180.079041,398.135376 188.869171,401.166656 197.704773,404.058960 
	C202.547485,405.644196 205.961075,404.313690 207.135651,400.660980 
	C208.299133,397.042847 206.373093,393.392639 201.968872,391.763123 
	C192.146805,388.129089 182.280243,384.607483 172.364395,381.238464 
	C168.374557,379.882843 164.753860,381.187073 163.300797,385.169891 
	C161.850586,389.144897 163.751266,392.276031 167.728378,393.934448 
	C168.644196,394.316345 169.588898,394.629028 171.269958,395.162048 
M338.359436,822.810791 
	C333.825897,829.544983 329.241608,836.245789 324.779724,843.027161 
	C322.466614,846.542786 323.088806,850.464478 326.361816,852.503662 
	C329.897705,854.706665 333.188446,853.795654 335.465179,850.514709 
	C341.794922,841.393127 347.986267,832.174011 354.124542,822.921936 
	C356.120087,819.914001 355.840607,816.774597 353.010132,814.451904 
	C350.019379,811.997803 346.684937,812.317871 344.065887,815.042786 
	C342.024109,817.167053 340.525238,819.813171 338.359436,822.810791 
M716.165894,853.280029 
	C722.377686,853.321167 725.755615,849.380859 722.878296,844.790405 
	C716.613708,834.796021 709.969238,825.026794 703.145935,815.402405 
	C700.634460,811.859802 695.866638,812.084595 693.216919,815.163757 
	C690.857727,817.905151 691.367981,820.709290 693.208069,823.402954 
	C699.207886,832.186401 705.213379,840.967163 711.358704,849.648560 
	C712.356506,851.058167 714.075500,851.957214 716.165894,853.280029 
M171.199631,458.103058 
	C177.883041,459.269653 184.551743,460.531769 191.255707,461.565063 
	C194.942657,462.133331 197.995010,460.698334 198.986633,456.978973 
	C199.960022,453.328003 198.377869,449.862732 194.734970,449.102264 
	C183.871292,446.834442 172.915009,444.937988 161.925980,443.383636 
	C158.247253,442.863281 155.551651,445.527344 155.140381,449.254303 
	C154.761719,452.685883 156.323700,455.404236 160.108353,456.137054 
	C163.511093,456.795898 166.926636,457.388794 171.199631,458.103058 
M871.837036,445.489868 
	C865.462341,446.572083 859.076416,447.592651 852.717102,448.758667 
	C848.628967,449.508240 846.687805,452.228271 847.121948,456.252197 
	C847.489502,459.659698 851.681213,462.398438 855.392212,461.792084 
	C865.028320,460.217590 874.654419,458.573914 884.259460,456.820404 
	C889.004761,455.954041 891.479919,452.769775 890.731689,448.968109 
	C889.984375,445.171021 886.533447,442.993469 881.980408,443.628601 
	C878.860229,444.063873 875.771667,444.725311 871.837036,445.489868 
z"/>
<path fill="#FBFBFA" opacity="1.000000" stroke="none" 
	d="
M817.807617,406.000122 
	C816.908691,437.296143 817.059753,468.166656 814.881226,498.871887 
	C810.957825,554.170898 796.459656,606.878967 772.288269,656.855164 
	C752.973694,696.789551 729.001709,733.632996 699.308167,766.652649 
	C663.462524,806.513428 622.360107,840.232422 577.839966,869.879883 
	C561.080139,881.040894 544.005249,891.727905 527.146301,902.741699 
	C524.650574,904.372070 522.730347,904.689453 520.080261,902.946411 
	C499.378815,889.330322 478.257477,876.327393 457.896881,862.224121 
	C425.005920,839.441467 394.026031,814.247620 365.840912,785.744751 
	C324.665344,744.104797 292.247772,696.542847 268.963867,642.770569 
	C253.715256,607.555176 242.425995,571.160522 236.281708,533.251160 
	C231.342590,502.777679 229.590988,472.049377 229.568619,441.204803 
	C229.522415,377.554932 229.465042,313.905060 229.425034,250.255203 
	C229.424835,249.939941 229.607651,249.624573 229.779221,249.068848 
	C339.980835,239.900467 439.596985,204.420395 523.339783,129.191254 
	C562.990295,166.768616 609.541931,193.435562 659.989685,213.654907 
	C710.451111,233.879684 763.061096,244.860428 817.807739,249.079666 
	C817.807739,301.310242 817.807739,353.405151 817.807617,406.000122 
M726.426331,278.025696 
	C651.783813,262.207489 583.811279,231.618011 523.063110,185.884613 
	C447.908936,242.681671 363.645874,275.523010 270.882507,286.486603 
	C270.882507,338.170319 270.262177,389.501099 271.149445,440.805817 
	C271.580139,465.710297 273.750885,490.709076 277.016998,515.416260 
	C285.951874,583.005554 311.419861,644.385559 349.963623,700.352417 
	C379.326752,742.988708 415.684723,779.073181 457.027130,809.990845 
	C477.398071,825.225220 498.925812,838.913513 519.947571,853.275757 
	C521.880371,854.596252 523.562866,855.356018 526.181641,853.721436 
	C555.733093,835.274841 584.173462,815.281555 610.947754,792.986023 
	C661.186768,751.150696 701.941162,701.761536 731.037659,642.911438 
	C760.408386,583.506592 774.626343,520.472046 775.806213,454.581573 
	C776.772766,400.606384 776.017517,346.600372 776.025635,292.608002 
	C776.025940,290.508240 776.025696,288.408447 776.025696,286.851227 
	C759.307068,283.889771 743.277344,281.050354 726.426331,278.025696 
z"/>
<path fill="#F6F6F6" opacity="1.000000" stroke="none" 
	d="
M195.273987,645.118835 
	C190.997910,646.604797 187.143555,648.124817 183.197647,649.350037 
	C179.470505,650.507324 176.356949,649.085266 175.163910,645.518982 
	C173.934357,641.843628 175.192596,638.486938 179.184006,637.048889 
	C192.136475,632.382141 205.110260,627.772034 218.121735,623.272888 
	C222.153915,621.878662 225.402756,623.206116 227.036484,627.272705 
	C228.537064,631.007812 226.599792,634.293518 221.956619,635.937988 
	C213.213638,639.034424 204.425217,642.002563 195.273987,645.118835 
z"/>
<path fill="#F6F6F6" opacity="1.000000" stroke="none" 
	d="
M271.479248,808.569214 
	C265.075439,804.948730 264.468933,800.946716 269.134857,796.228027 
	C277.099213,788.173706 284.980194,780.036926 292.931610,771.969727 
	C294.445679,770.433655 296.030823,768.936523 297.746521,767.637085 
	C300.837769,765.295959 304.002502,765.340637 306.669403,768.266357 
	C309.371735,771.230835 308.909607,774.484375 306.380432,777.237000 
	C302.551392,781.404480 298.441223,785.312439 294.488678,789.367920 
	C289.492249,794.494507 284.710815,799.848938 279.470642,804.710510 
	C277.441040,806.593506 274.410461,807.397583 271.479248,808.569214 
z"/>
<path fill="#F5F4F5" opacity="1.000000" stroke="none" 
	d="
M850.659302,645.169373 
	C841.563538,641.889465 832.729858,638.990601 824.190125,635.393921 
	C822.054688,634.494568 820.041809,631.526123 819.535645,629.172485 
	C819.207581,627.646973 821.335571,624.887512 823.065308,623.836060 
	C824.600281,622.902832 827.307190,622.975952 829.146790,623.613953 
	C841.530396,627.909180 853.836548,632.430664 866.133240,636.972412 
	C870.751953,638.678345 872.899780,642.168884 871.745850,645.593872 
	C870.519775,649.233215 866.566101,650.741028 861.777100,649.190002 
	C858.153992,648.016602 854.609558,646.600403 850.659302,645.169373 
z"/>
<path fill="#F4F3F4" opacity="1.000000" stroke="none" 
	d="
M780.950195,801.378052 
	C779.539307,803.912354 778.515442,807.072937 776.517029,807.911865 
	C774.700684,808.674316 771.106140,807.657654 769.533203,806.141357 
	C759.832458,796.790344 750.440308,787.116638 741.042908,777.455444 
	C738.479797,774.820435 737.541748,771.573181 740.275330,768.535706 
	C742.742371,765.794373 746.413696,764.544556 749.142090,767.332275 
	C759.932007,778.356995 770.354126,789.741638 780.950195,801.378052 
z"/>
<path fill="#F6F5F6" opacity="1.000000" stroke="none" 
	d="
M223.798828,707.722290 
	C221.656311,708.663147 219.896912,709.694153 218.001099,710.125610 
	C214.508575,710.920410 212.411606,708.882629 210.913101,705.994263 
	C209.410339,703.097534 210.387512,700.767639 212.772415,699.042419 
	C215.043747,697.399353 217.495804,695.984192 219.956528,694.628784 
	C228.240082,690.066223 236.507523,685.468628 244.893600,681.100403 
	C249.213257,678.850342 252.952972,679.932556 254.670303,683.591431 
	C256.628967,687.764343 254.659897,690.785767 251.183731,692.751099 
	C242.235260,697.809875 233.150620,702.627808 223.798828,707.722290 
z"/>
<path fill="#F4F3F4" opacity="1.000000" stroke="none" 
	d="
M791.970459,683.038818 
	C794.666626,679.263123 797.890747,679.008789 801.374146,680.934631 
	C811.417786,686.487610 821.477722,692.016602 831.397461,697.785095 
	C834.882935,699.812012 837.544189,702.723267 835.050903,707.247620 
	C833.078003,710.827515 829.363892,711.510376 824.657104,708.900757 
	C814.919189,703.501648 805.239990,697.993408 795.617371,692.391296 
	C792.253418,690.432800 789.844360,687.767212 791.970459,683.038818 
z"/>
<path fill="#F6F5F6" opacity="1.000000" stroke="none" 
	d="
M206.159973,568.814514 
	C208.573166,574.756897 206.763992,578.371521 200.800644,579.734985 
	C190.621719,582.062317 180.412170,584.257935 170.201050,586.441223 
	C165.472214,587.452332 161.628677,585.349609 160.822174,581.479309 
	C159.971786,577.398376 162.394989,574.210510 167.357117,573.159058 
	C177.593597,570.990051 187.814301,568.708435 198.121597,566.940002 
	C200.555313,566.522461 203.306168,567.953308 206.159973,568.814514 
z"/>
<path fill="#F6F6F6" opacity="1.000000" stroke="none" 
	d="
M176.001938,508.207886 
	C182.658081,508.145477 188.814575,508.050323 194.971298,508.029541 
	C200.159454,508.012024 203.335632,510.452423 203.445557,514.428955 
	C203.555191,518.395264 200.374588,521.002991 195.275101,521.026978 
	C184.125793,521.079529 172.976273,521.114197 161.826874,521.110107 
	C156.572845,521.108215 154.046982,519.070007 154.001465,514.954407 
	C153.954971,510.749451 156.345276,508.475952 161.525681,508.264130 
	C166.177567,508.073944 170.842957,508.213348 176.001938,508.207886 
z"/>
<path fill="#F6F6F6" opacity="1.000000" stroke="none" 
	d="
M884.728027,521.149414 
	C873.433411,521.112793 862.604553,521.117065 851.776062,521.056091 
	C846.491394,521.026367 843.761963,518.654053 843.826477,514.319092 
	C843.887024,510.249023 846.543396,508.095062 851.733093,508.080994 
	C862.727173,508.051147 873.721497,508.045929 884.715393,508.106964 
	C890.144165,508.137085 893.403259,510.780060 893.180359,515.084900 
	C892.921082,520.088196 889.485474,521.272583 884.728027,521.149414 
z"/>
<path fill="#F5F4F5" opacity="1.000000" stroke="none" 
	d="
M841.843872,567.734436 
	C844.874023,567.373779 847.710510,566.737122 850.334717,567.230103 
	C859.935059,569.033569 869.462463,571.223938 879.021851,573.247131 
	C884.392090,574.383667 886.970154,577.417664 886.090393,581.635925 
	C885.234192,585.741211 881.782959,587.351318 876.231079,586.157776 
	C866.037354,583.966370 855.800293,581.946106 845.680786,579.450806 
	C839.196838,577.851929 837.765259,573.279724 841.843872,567.734436 
z"/>
<path fill="#F6F5F6" opacity="1.000000" stroke="none" 
	d="
M864.222961,399.077759 
	C858.481018,400.894379 853.130310,402.635223 847.770264,404.346954 
	C843.592590,405.681122 840.325378,403.665588 839.752869,400.022278 
	C839.380371,397.652039 841.307434,393.228394 843.270935,392.463745 
	C854.221680,388.199280 865.415955,384.472687 876.744751,381.353210 
	C878.614380,380.838348 882.647583,383.701294 883.754883,385.951141 
	C885.399597,389.293030 883.078491,392.485443 879.638855,393.846924 
	C874.721191,395.793365 869.628235,397.296783 864.222961,399.077759 
z"/>
<path fill="#F5F4F5" opacity="1.000000" stroke="none" 
	d="
M170.895142,395.067810 
	C169.588898,394.629028 168.644196,394.316345 167.728378,393.934448 
	C163.751266,392.276031 161.850586,389.144897 163.300797,385.169891 
	C164.753860,381.187073 168.374557,379.882843 172.364395,381.238464 
	C182.280243,384.607483 192.146805,388.129089 201.968872,391.763123 
	C206.373093,393.392639 208.299133,397.042847 207.135651,400.660980 
	C205.961075,404.313690 202.547485,405.644196 197.704773,404.058960 
	C188.869171,401.166656 180.079041,398.135376 170.895142,395.067810 
z"/>
<path fill="#F5F4F5" opacity="1.000000" stroke="none" 
	d="
M338.572266,822.519043 
	C340.525238,819.813171 342.024109,817.167053 344.065887,815.042786 
	C346.684937,812.317871 350.019379,811.997803 353.010132,814.451904 
	C355.840607,816.774597 356.120087,819.914001 354.124542,822.921936 
	C347.986267,832.174011 341.794922,841.393127 335.465179,850.514709 
	C333.188446,853.795654 329.897705,854.706665 326.361816,852.503662 
	C323.088806,850.464478 322.466614,846.542786 324.779724,843.027161 
	C329.241608,836.245789 333.825897,829.544983 338.572266,822.519043 
z"/>
<path fill="#F5F4F5" opacity="1.000000" stroke="none" 
	d="
M715.813477,853.186157 
	C714.075500,851.957214 712.356506,851.058167 711.358704,849.648560 
	C705.213379,840.967163 699.207886,832.186401 693.208069,823.402954 
	C691.367981,820.709290 690.857727,817.905151 693.216919,815.163757 
	C695.866638,812.084595 700.634460,811.859802 703.145935,815.402405 
	C709.969238,825.026794 716.613708,834.796021 722.878296,844.790405 
	C725.755615,849.380859 722.377686,853.321167 715.813477,853.186157 
z"/>
<path fill="#F6F5F6" opacity="1.000000" stroke="none" 
	d="
M170.768082,458.056946 
	C166.926636,457.388794 163.511093,456.795898 160.108353,456.137054 
	C156.323700,455.404236 154.761719,452.685883 155.140381,449.254303 
	C155.551651,445.527344 158.247253,442.863281 161.925980,443.383636 
	C172.915009,444.937988 183.871292,446.834442 194.734970,449.102264 
	C198.377869,449.862732 199.960022,453.328003 198.986633,456.978973 
	C197.995010,460.698334 194.942657,462.133331 191.255707,461.565063 
	C184.551743,460.531769 177.883041,459.269653 170.768082,458.056946 
z"/>
<path fill="#F6F5F6" opacity="1.000000" stroke="none" 
	d="
M872.252991,445.387756 
	C875.771667,444.725311 878.860229,444.063873 881.980408,443.628601 
	C886.533447,442.993469 889.984375,445.171021 890.731689,448.968109 
	C891.479919,452.769775 889.004761,455.954041 884.259460,456.820404 
	C874.654419,458.573914 865.028320,460.217590 855.392212,461.792084 
	C851.681213,462.398438 847.489502,459.659698 847.121948,456.252197 
	C846.687805,452.228271 848.628967,449.508240 852.717102,448.758667 
	C859.076416,447.592651 865.462341,446.572083 872.252991,445.387756 
z"/>
<path fill="#060405" opacity="1.000000" stroke="none" 
	d="
M726.836975,278.118286 
	C743.277344,281.050354 759.307068,283.889771 776.025696,286.851227 
	C776.025696,288.408447 776.025940,290.508240 776.025635,292.608002 
	C776.017517,346.600372 776.772766,400.606384 775.806213,454.581573 
	C774.626343,520.472046 760.408386,583.506592 731.037659,642.911438 
	C701.941162,701.761536 661.186768,751.150696 610.947754,792.986023 
	C584.173462,815.281555 555.733093,835.274841 526.181641,853.721436 
	C523.562866,855.356018 521.880371,854.596252 519.947571,853.275757 
	C498.925812,838.913513 477.398071,825.225220 457.027130,809.990845 
	C415.684723,779.073181 379.326752,742.988708 349.963623,700.352417 
	C311.419861,644.385559 285.951874,583.005554 277.016998,515.416260 
	C273.750885,490.709076 271.580139,465.710297 271.149445,440.805817 
	C270.262177,389.501099 270.882507,338.170319 270.882507,286.486603 
	C363.645874,275.523010 447.908936,242.681671 523.063110,185.884613 
	C583.811279,231.618011 651.783813,262.207489 726.836975,278.118286 
M596.500000,448.891968 
	C585.400391,448.891968 574.300720,448.891968 563.153809,448.891968 
	C563.043701,447.684265 562.933716,447.035919 562.932800,446.387421 
	C562.886902,413.389374 562.832825,380.391266 562.867188,347.393311 
	C562.868835,345.825500 563.415649,344.133545 564.129944,342.710876 
	C570.123230,330.773682 579.199585,321.704834 590.459961,314.689667 
	C592.161377,313.629700 593.736938,312.367706 595.705688,310.959595 
	C558.644836,296.098267 538.399597,266.742371 522.804260,231.896927 
	C507.989319,267.738098 486.331543,295.859375 449.524841,310.708344 
	C451.862427,312.157440 453.215912,313.054626 454.622467,313.859070 
	C464.474121,319.493561 472.528717,327.058624 478.972260,336.380493 
	C482.247406,341.118652 484.113098,346.037720 484.063354,352.100006 
	C483.813080,382.596313 483.987366,413.096069 484.012299,443.594635 
	C484.013702,445.332855 484.012451,447.071075 484.012451,448.876526 
	C462.829010,448.876526 442.498047,448.877625 422.167053,448.875366 
	C419.000580,448.875031 415.824066,449.013153 412.670532,448.806702 
	C409.693451,448.611847 406.675934,448.310669 403.787689,447.601898 
	C386.625854,443.390656 373.920807,432.756134 363.302124,419.182922 
	C362.243896,417.830231 361.178589,416.483093 359.851532,414.796539 
	C350.553162,452.050293 343.183868,461.112732 299.757385,488.923035 
	C331.999023,503.351501 353.877075,526.253540 360.165680,562.543213 
	C362.601074,558.970764 364.327301,556.124878 366.355499,553.513611 
	C380.780853,534.941956 398.564728,523.234314 423.279419,524.035095 
	C441.757263,524.633850 460.273254,524.056458 478.772247,524.003967 
	C480.389221,523.999390 482.006195,524.003296 483.755280,524.003296 
	C483.896149,525.143066 484.042450,525.773560 484.042236,526.404053 
	C484.025421,578.234558 484.005310,630.065063 483.931915,681.895508 
	C483.929657,683.506042 483.737396,685.310669 483.007446,686.694458 
	C477.986755,696.212830 471.567047,704.649902 462.899017,711.167114 
	C458.696594,714.326843 454.300720,717.229187 449.722534,720.437195 
	C485.974548,738.699036 508.287445,768.649841 523.160339,805.778381 
	C538.103394,769.082153 559.571228,738.535278 596.151428,720.363708 
	C594.654297,719.333923 593.765015,718.637939 592.799744,718.071350 
	C582.547668,712.053772 574.429260,703.832031 567.771667,694.058899 
	C564.510681,689.271851 562.760681,684.268433 562.781189,678.257812 
	C562.943665,630.594055 562.843018,582.929321 562.823486,535.264893 
	C562.822021,531.650940 562.823242,528.036987 562.823242,524.280945 
	C587.560791,524.280945 612.023560,524.249817 636.485901,524.331848 
	C638.778931,524.339539 641.171692,524.760681 643.344360,525.500366 
	C655.056824,529.487732 665.353149,535.869690 673.687805,545.015015 
	C678.342957,550.122925 682.311035,555.857056 686.794189,561.570862 
	C693.714417,526.630005 714.772522,503.372803 747.638000,488.779907 
	C715.051086,473.432983 693.371643,450.444946 687.410950,414.939301 
	C686.597656,415.326508 686.397034,415.357086 686.310852,415.472870 
	C684.923828,417.335968 683.624512,419.269165 682.164124,421.072083 
	C667.952637,438.615936 650.669861,449.956146 626.995972,448.984985 
	C617.179260,448.582306 607.332886,448.901306 596.500000,448.891968 
M398.518768,369.014526 
	C407.309479,364.045441 416.100189,359.076355 425.266968,353.894684 
	C404.760620,350.195587 390.972992,338.226532 385.889893,316.877869 
	C382.828125,326.584473 380.414154,336.427277 372.693451,342.234833 
	C365.255615,347.829620 356.099670,351.140350 346.706055,355.964294 
	C368.861298,359.617889 381.476196,372.833069 385.160706,393.841919 
	C389.585968,385.486328 393.808655,377.513123 398.518768,369.014526 
M666.570862,381.188507 
	C671.708923,364.997101 685.755737,360.067139 700.368347,354.763397 
	C679.168579,350.434723 666.098877,338.250366 661.533813,316.814026 
	C657.470886,339.257233 642.621582,349.711548 621.970581,355.011383 
	C644.273193,359.481018 657.014221,372.598480 661.402283,395.424622 
	C663.375732,389.865784 664.794800,385.868500 666.570862,381.188507 
M382.131866,624.752136 
	C378.154846,626.181274 374.177795,627.610413 370.200745,629.039551 
	C370.053192,629.427002 369.905640,629.814392 369.758087,630.201843 
	C391.798157,634.140869 404.907166,646.968933 409.224548,669.309448 
	C413.334656,646.807800 427.213043,634.514038 448.640747,628.885132 
	C427.287994,625.285522 414.585114,613.152222 409.199768,591.826965 
	C401.281250,614.106079 397.452332,618.698364 382.131866,624.752136 
M655.465088,639.895020 
	C662.886780,636.252808 670.308411,632.610535 678.962402,628.363525 
	C658.053040,624.512573 643.955017,613.849915 638.951904,592.580017 
	C634.391602,614.445984 620.036072,624.949219 599.469238,629.477539 
	C621.757935,633.832458 634.145874,647.066772 638.323364,669.626831 
	C640.887512,663.243591 642.403137,657.930969 645.065918,653.274353 
	C647.735168,648.606384 651.549194,644.593018 655.465088,639.895020 
M624.717285,405.695404 
	C624.825500,404.377014 625.099365,403.047546 625.012329,401.742188 
	C624.689087,396.895844 621.112610,393.251404 616.515442,392.934723 
	C611.451050,392.585815 607.979614,395.133911 606.714050,400.129120 
	C605.597046,404.537964 607.928345,409.176849 612.224915,411.094788 
	C616.819031,413.145538 620.683411,411.636139 624.717285,405.695404 
M440.124237,401.612732 
	C439.927032,397.519836 437.754120,394.204803 434.063599,393.453979 
	C431.214386,392.874268 427.380402,393.652679 424.954315,395.276581 
	C421.138428,397.830750 420.654755,402.297516 422.558289,406.414429 
	C424.371338,410.335724 427.785370,412.664307 432.210083,411.798157 
	C437.079865,410.844818 439.979919,407.656525 440.124237,401.612732 
M422.765930,574.274658 
	C423.228424,574.957275 423.608215,575.718018 424.167084,576.309631 
	C427.295044,579.621033 432.258972,580.333496 435.888214,578.045044 
	C439.871552,575.533325 441.373718,570.752197 439.582550,566.286316 
	C437.879608,562.040405 433.827179,559.940674 429.064056,560.836304 
	C423.641815,561.855896 421.283142,566.310608 422.765930,574.274658 
M617.786072,579.231201 
	C621.709534,578.311218 624.332458,575.972717 625.060486,571.969971 
	C626.099548,566.257324 622.563843,561.369080 617.157471,560.749756 
	C611.554077,560.107849 607.275085,563.537354 606.853333,569.008362 
	C606.353027,575.496582 610.064636,579.282837 617.786072,579.231201 
M417.426788,288.738373 
	C409.965149,294.662262 413.727173,303.161469 418.857910,304.918701 
	C423.210358,306.409363 427.172424,305.675171 429.874054,301.691925 
	C432.362579,298.022919 432.244781,294.093964 429.585052,290.551971 
	C426.506958,286.452698 422.489471,286.081543 417.426788,288.738373 
M632.978088,294.109100 
	C629.399292,286.814850 622.990295,284.736481 618.048584,289.267578 
	C614.754333,292.288116 613.854553,297.193024 616.175842,300.982178 
	C618.463806,304.717041 621.852783,306.391754 626.277222,305.346558 
	C631.142944,304.197205 633.211365,300.990417 632.978088,294.109100 
M414.636200,692.494385 
	C415.211945,693.297974 415.679596,694.214661 416.381805,694.885925 
	C419.700439,698.058411 424.519043,697.944153 427.457825,694.696228 
	C430.319458,691.533569 430.204468,686.049744 427.220886,683.402161 
	C423.951599,680.500916 418.681305,680.466492 416.173431,684.048584 
	C414.734680,686.103638 414.793793,689.207397 414.636200,692.494385 
M621.424255,696.449097 
	C628.478882,697.759949 633.465088,693.908020 632.407166,687.994385 
	C631.686279,683.964539 628.906677,681.445068 625.269043,681.648804 
	C622.589661,681.798889 618.941406,683.550293 617.669617,685.725342 
	C615.487854,689.456604 616.918213,693.411682 621.424255,696.449097 
M324.777649,400.404358 
	C329.266235,400.481323 332.077087,398.497925 332.397186,393.846497 
	C332.658569,390.047485 329.648682,386.422852 326.028351,386.329193 
	C322.339417,386.233795 319.565308,387.990295 318.744263,391.743591 
	C317.780487,396.149475 319.700043,399.023102 324.777649,400.404358 
M725.452271,388.048187 
	C719.194580,385.225220 714.606628,386.829285 713.867554,392.153564 
	C713.382751,395.645752 714.572021,399.022095 717.925415,399.705261 
	C720.529968,400.235901 724.213440,399.424927 726.269226,397.777557 
	C729.438354,395.238037 728.648376,391.597321 725.452271,388.048187 
M346.967010,583.764526 
	C347.313019,589.608215 350.925629,593.422791 355.024628,591.487366 
	C357.418884,590.356873 360.089813,587.201294 360.261902,584.787537 
	C360.403961,582.794922 357.462097,579.684631 355.167175,578.617981 
	C351.332642,576.835754 348.615204,579.323669 346.967010,583.764526 
M696.824463,590.313354 
	C700.033691,586.009583 699.971497,582.009277 696.489685,579.467651 
	C693.109497,577.000244 689.953003,577.586548 687.242004,580.657898 
	C684.918457,583.290405 685.089539,586.146118 687.016541,588.835449 
	C689.417664,592.186401 692.597412,592.664856 696.824463,590.313354 
M724.680725,351.210815 
	C728.335754,347.067780 728.452393,342.138885 724.387878,340.545410 
	C722.058899,339.632355 718.027527,339.743225 716.439758,341.209381 
	C714.912231,342.619934 714.581726,346.736786 715.446960,349.008972 
	C716.859863,352.719543 720.359558,353.516418 724.680725,351.210815 
M326.371735,339.094116 
	C322.203613,339.201813 319.290161,341.565552 319.565460,345.435730 
	C319.730682,347.758881 322.136047,350.736633 324.339355,351.913177 
	C327.786377,353.753845 330.773804,351.704193 332.388184,348.269318 
	C334.009064,344.820587 332.021332,341.521393 326.371735,339.094116 
z"/>
<path fill="#FBFAFA" opacity="1.000000" stroke="none" 
	d="
M597.000000,448.892059 
	C607.332886,448.901306 617.179260,448.582306 626.995972,448.984985 
	C650.669861,449.956146 667.952637,438.615936 682.164124,421.072083 
	C683.624512,419.269165 684.923828,417.335968 686.310852,415.472870 
	C686.397034,415.357086 686.597656,415.326508 687.410950,414.939301 
	C693.371643,450.444946 715.051086,473.432983 747.638000,488.779907 
	C714.772522,503.372803 693.714417,526.630005 686.794189,561.570862 
	C682.311035,555.857056 678.342957,550.122925 673.687805,545.015015 
	C665.353149,535.869690 655.056824,529.487732 643.344360,525.500366 
	C641.171692,524.760681 638.778931,524.339539 636.485901,524.331848 
	C612.023560,524.249817 587.560791,524.280945 562.823242,524.280945 
	C562.823242,528.036987 562.822021,531.650940 562.823486,535.264893 
	C562.843018,582.929321 562.943665,630.594055 562.781189,678.257812 
	C562.760681,684.268433 564.510681,689.271851 567.771667,694.058899 
	C574.429260,703.832031 582.547668,712.053772 592.799744,718.071350 
	C593.765015,718.637939 594.654297,719.333923 596.151428,720.363708 
	C559.571228,738.535278 538.103394,769.082153 523.160339,805.778381 
	C508.287445,768.649841 485.974548,738.699036 449.722534,720.437195 
	C454.300720,717.229187 458.696594,714.326843 462.899017,711.167114 
	C471.567047,704.649902 477.986755,696.212830 483.007446,686.694458 
	C483.737396,685.310669 483.929657,683.506042 483.931915,681.895508 
	C484.005310,630.065063 484.025421,578.234558 484.042236,526.404053 
	C484.042450,525.773560 483.896149,525.143066 483.755280,524.003296 
	C482.006195,524.003296 480.389221,523.999390 478.772247,524.003967 
	C460.273254,524.056458 441.757263,524.633850 423.279419,524.035095 
	C398.564728,523.234314 380.780853,534.941956 366.355499,553.513611 
	C364.327301,556.124878 362.601074,558.970764 360.165680,562.543213 
	C353.877075,526.253540 331.999023,503.351501 299.757385,488.923035 
	C343.183868,461.112732 350.553162,452.050293 359.851532,414.796539 
	C361.178589,416.483093 362.243896,417.830231 363.302124,419.182922 
	C373.920807,432.756134 386.625854,443.390656 403.787689,447.601898 
	C406.675934,448.310669 409.693451,448.611847 412.670532,448.806702 
	C415.824066,449.013153 419.000580,448.875031 422.167053,448.875366 
	C442.498047,448.877625 462.829010,448.876526 484.012451,448.876526 
	C484.012451,447.071075 484.013702,445.332855 484.012299,443.594635 
	C483.987366,413.096069 483.813080,382.596313 484.063354,352.100006 
	C484.113098,346.037720 482.247406,341.118652 478.972260,336.380493 
	C472.528717,327.058624 464.474121,319.493561 454.622467,313.859070 
	C453.215912,313.054626 451.862427,312.157440 449.524841,310.708344 
	C486.331543,295.859375 507.989319,267.738098 522.804260,231.896927 
	C538.399597,266.742371 558.644836,296.098267 595.705688,310.959595 
	C593.736938,312.367706 592.161377,313.629700 590.459961,314.689667 
	C579.199585,321.704834 570.123230,330.773682 564.129944,342.710876 
	C563.415649,344.133545 562.868835,345.825500 562.867188,347.393311 
	C562.832825,380.391266 562.886902,413.389374 562.932800,446.387421 
	C562.933716,447.035919 563.043701,447.684265 563.153809,448.891968 
	C574.300720,448.891968 585.400391,448.891968 597.000000,448.892059 
M517.475769,523.498779 
	C517.540955,537.157166 517.719238,550.816528 517.607422,564.473450 
	C517.570557,568.982300 519.578064,569.961243 523.667542,570.041382 
	C528.501221,570.135986 528.008362,567.166382 528.007629,564.135132 
	C528.001953,541.644470 528.005920,519.153870 528.006897,496.663208 
	C528.006958,495.083374 528.006897,493.503540 528.006897,491.912933 
	C542.371399,491.912933 556.038208,491.654266 569.687012,492.036377 
	C575.386169,492.195984 575.036987,489.109985 575.246094,485.207977 
	C575.490967,480.638062 573.070374,479.907166 569.432312,479.965118 
	C563.769165,480.055359 558.104187,480.035553 552.439941,480.042694 
	C544.350952,480.052917 536.261963,480.045288 528.046936,480.045288 
	C528.046936,464.763611 527.931824,450.118988 528.122864,435.478333 
	C528.174683,431.503601 527.022034,428.573242 522.982239,428.459503 
	C518.796265,428.341644 517.515198,431.519287 517.642700,435.321411 
	C517.681763,436.485840 517.618774,437.653381 517.618591,438.819519 
	C517.616333,452.432495 517.617126,466.045441 517.617126,480.037140 
	C515.842529,480.037140 514.548340,480.037689 513.254211,480.037079 
	C494.761932,480.028351 476.269623,480.018646 457.777344,480.010925 
	C447.448334,480.006592 437.119293,480.021393 426.790344,479.993774 
	C423.425018,479.984802 420.758636,481.779327 421.134583,484.845795 
	C421.430481,487.259399 423.762024,489.639374 425.682922,491.533813 
	C426.474670,492.314636 428.558502,491.840363 430.054810,491.843018 
	C444.381805,491.868347 458.708771,491.877991 473.035767,491.883392 
	C487.659088,491.888885 502.282410,491.884583 517.472046,491.884583 
	C517.472046,502.290527 517.472046,512.394592 517.475769,523.498779 
M520.010193,758.628479 
	C521.088440,760.033325 522.166748,761.438232 523.614319,763.324219 
	C533.908569,745.713745 546.963440,731.223450 562.402710,718.545471 
	C559.453491,715.760376 556.744751,713.202332 553.822021,710.442200 
	C547.944641,715.690430 542.331482,720.172302 537.366821,725.283997 
	C532.327515,730.472595 527.928284,736.282837 523.232849,741.839600 
	C514.456909,730.186218 504.289581,719.619263 491.884125,710.567627 
	C489.311707,713.503784 486.960907,716.187073 484.314209,719.208008 
	C497.855255,730.348206 510.057220,742.988770 520.010193,758.628479 
M506.084045,294.581299 
	C499.152649,300.908295 492.221222,307.235291 485.514618,313.357117 
	C487.990417,315.895203 490.507080,318.475189 494.026703,322.083374 
	C504.008301,312.767059 513.889343,303.544586 523.284363,294.775757 
	C530.099365,301.305420 537.124939,308.600677 544.755188,315.196381 
	C553.171753,322.471802 553.415588,322.194244 561.058899,314.211365 
	C561.240967,314.021210 561.227600,313.643951 561.379272,313.078552 
	C546.085083,302.393463 533.552734,288.869934 523.637207,273.141083 
	C517.668274,280.467773 512.124939,287.271973 506.084045,294.581299 
M366.134369,520.440491 
	C367.209839,521.784424 368.285309,523.128357 369.427460,524.555542 
	C372.553589,521.811462 375.254791,519.440430 379.081970,516.080994 
	C370.681396,506.582153 362.405487,497.224243 353.868103,487.570709 
	C363.673615,479.816315 372.071350,469.753510 377.860840,457.438477 
	C374.917572,455.136444 372.121429,452.949493 369.074707,450.566559 
	C359.951874,465.923218 348.227814,478.129150 333.910034,488.237915 
	C346.631927,497.339203 357.421326,507.353973 366.134369,520.440491 
M681.678833,476.812378 
	C685.385986,480.803833 689.093140,484.795288 692.787537,488.773041 
	C683.501526,496.336212 675.076477,505.343353 668.817505,516.692444 
	C671.988159,519.296875 674.990356,521.762939 678.313416,524.492493 
	C687.320557,509.973694 698.423401,498.104218 712.757141,488.752899 
	C698.210022,478.005829 686.523987,465.738464 678.159241,450.600220 
	C674.745361,453.165771 671.984070,455.240936 668.356812,457.966919 
	C672.699646,464.168243 676.946045,470.231842 681.678833,476.812378 
M633.641479,480.165314 
	C621.352356,480.126312 609.062988,480.126099 596.774353,480.025818 
	C592.837708,479.993713 590.054871,481.660797 590.014221,485.613617 
	C589.972168,489.701141 592.690125,491.860992 596.834839,491.872437 
	C608.133118,491.903564 619.440002,492.125519 630.722534,491.706604 
	C632.955017,491.623749 635.770203,489.470856 637.113220,487.466248 
	C639.003967,484.644257 637.103271,482.166748 633.641479,480.165314 
M517.562195,655.422302 
	C517.574280,658.415466 517.565857,661.408875 517.603882,664.401733 
	C517.648804,667.941833 518.820312,670.831177 522.879211,670.818481 
	C526.875061,670.805969 528.078247,668.163025 528.045105,664.459900 
	C527.942383,652.987000 527.846191,641.510376 528.048401,630.040466 
	C528.117859,626.099060 526.419067,624.557129 522.848694,624.453064 
	C519.070496,624.342834 517.618408,626.288208 517.660706,630.006775 
	C517.753357,638.152649 517.609070,646.301270 517.562195,655.422302 
M517.600281,353.548492 
	C517.682556,362.028503 517.750793,370.508698 517.853760,378.988434 
	C517.896057,382.473999 519.733337,384.219421 523.196838,384.033386 
	C526.385925,383.862061 527.968384,382.011414 527.973022,378.852631 
	C527.989075,367.872681 528.202026,356.883545 527.749939,345.922272 
	C527.679321,344.209961 524.671204,341.560150 522.774231,341.323273 
	C521.307373,341.140106 518.794250,343.762360 517.955200,345.669312 
	C517.090271,347.635101 517.688110,350.244537 517.600281,353.548492 
M517.933105,605.534607 
	C519.927917,608.479370 522.661621,610.512451 525.655884,607.642700 
	C527.186096,606.176147 528.134399,602.707642 527.471985,600.791809 
	C526.947144,599.273804 523.391174,597.689697 521.496887,598.008850 
	C518.300659,598.547302 516.766602,601.318787 517.933105,605.534607 
z"/>
<path fill="#F8F7F7" opacity="1.000000" stroke="none" 
	d="
M398.275085,369.277222 
	C393.808655,377.513123 389.585968,385.486328 385.160706,393.841919 
	C381.476196,372.833069 368.861298,359.617889 346.706055,355.964294 
	C356.099670,351.140350 365.255615,347.829620 372.693451,342.234833 
	C380.414154,336.427277 382.828125,326.584473 385.889893,316.877869 
	C390.972992,338.226532 404.760620,350.195587 425.266968,353.894684 
	C416.100189,359.076355 407.309479,364.045441 398.275085,369.277222 
z"/>
<path fill="#F8F7F7" opacity="1.000000" stroke="none" 
	d="
M666.392395,381.529846 
	C664.794800,385.868500 663.375732,389.865784 661.402283,395.424622 
	C657.014221,372.598480 644.273193,359.481018 621.970581,355.011383 
	C642.621582,349.711548 657.470886,339.257233 661.533813,316.814026 
	C666.098877,338.250366 679.168579,350.434723 700.368347,354.763397 
	C685.755737,360.067139 671.708923,364.997101 666.392395,381.529846 
z"/>
<path fill="#F7F7F6" opacity="1.000000" stroke="none" 
	d="
M382.482971,624.592346 
	C397.452332,618.698364 401.281250,614.106079 409.199768,591.826965 
	C414.585114,613.152222 427.287994,625.285522 448.640747,628.885132 
	C427.213043,634.514038 413.334656,646.807800 409.224548,669.309448 
	C404.907166,646.968933 391.798157,634.140869 369.758087,630.201843 
	C369.905640,629.814392 370.053192,629.427002 370.200745,629.039551 
	C374.177795,627.610413 378.154846,626.181274 382.482971,624.592346 
z"/>
<path fill="#F8F7F7" opacity="1.000000" stroke="none" 
	d="
M655.163269,640.093872 
	C651.549194,644.593018 647.735168,648.606384 645.065918,653.274353 
	C642.403137,657.930969 640.887512,663.243591 638.323364,669.626831 
	C634.145874,647.066772 621.757935,633.832458 599.469238,629.477539 
	C620.036072,624.949219 634.391602,614.445984 638.951904,592.580017 
	C643.955017,613.849915 658.053040,624.512573 678.962402,628.363525 
	C670.308411,632.610535 662.886780,636.252808 655.163269,640.093872 
z"/>
<path fill="#F4F3F4" opacity="1.000000" stroke="none" 
	d="
M624.511597,406.035736 
	C620.683411,411.636139 616.819031,413.145538 612.224915,411.094788 
	C607.928345,409.176849 605.597046,404.537964 606.714050,400.129120 
	C607.979614,395.133911 611.451050,392.585815 616.515442,392.934723 
	C621.112610,393.251404 624.689087,396.895844 625.012329,401.742188 
	C625.099365,403.047546 624.825500,404.377014 624.511597,406.035736 
z"/>
<path fill="#F5F4F5" opacity="1.000000" stroke="none" 
	d="
M440.143524,402.025970 
	C439.979919,407.656525 437.079865,410.844818 432.210083,411.798157 
	C427.785370,412.664307 424.371338,410.335724 422.558289,406.414429 
	C420.654755,402.297516 421.138428,397.830750 424.954315,395.276581 
	C427.380402,393.652679 431.214386,392.874268 434.063599,393.453979 
	C437.754120,394.204803 439.927032,397.519836 440.143524,402.025970 
z"/>
<path fill="#F6F5F6" opacity="1.000000" stroke="none" 
	d="
M422.527832,573.952576 
	C421.283142,566.310608 423.641815,561.855896 429.064056,560.836304 
	C433.827179,559.940674 437.879608,562.040405 439.582550,566.286316 
	C441.373718,570.752197 439.871552,575.533325 435.888214,578.045044 
	C432.258972,580.333496 427.295044,579.621033 424.167084,576.309631 
	C423.608215,575.718018 423.228424,574.957275 422.527832,573.952576 
z"/>
<path fill="#F4F3F4" opacity="1.000000" stroke="none" 
	d="
M617.421997,579.324707 
	C610.064636,579.282837 606.353027,575.496582 606.853333,569.008362 
	C607.275085,563.537354 611.554077,560.107849 617.157471,560.749756 
	C622.563843,561.369080 626.099548,566.257324 625.060486,571.969971 
	C624.332458,575.972717 621.709534,578.311218 617.421997,579.324707 
z"/>
<path fill="#F3F2F2" opacity="1.000000" stroke="none" 
	d="
M417.749390,288.528687 
	C422.489471,286.081543 426.506958,286.452698 429.585052,290.551971 
	C432.244781,294.093964 432.362579,298.022919 429.874054,301.691925 
	C427.172424,305.675171 423.210358,306.409363 418.857910,304.918701 
	C413.727173,303.161469 409.965149,294.662262 417.749390,288.528687 
z"/>
<path fill="#F3F2F2" opacity="1.000000" stroke="none" 
	d="
M633.035400,294.513428 
	C633.211365,300.990417 631.142944,304.197205 626.277222,305.346558 
	C621.852783,306.391754 618.463806,304.717041 616.175842,300.982178 
	C613.854553,297.193024 614.754333,292.288116 618.048584,289.267578 
	C622.990295,284.736481 629.399292,286.814850 633.035400,294.513428 
z"/>
<path fill="#F3F2F2" opacity="1.000000" stroke="none" 
	d="
M414.407410,692.166687 
	C414.793793,689.207397 414.734680,686.103638 416.173431,684.048584 
	C418.681305,680.466492 423.951599,680.500916 427.220886,683.402161 
	C430.204468,686.049744 430.319458,691.533569 427.457825,694.696228 
	C424.519043,697.944153 419.700439,698.058411 416.381805,694.885925 
	C415.679596,694.214661 415.211945,693.297974 414.407410,692.166687 
z"/>
<path fill="#F0EEEF" opacity="1.000000" stroke="none" 
	d="
M621.084045,696.239868 
	C616.918213,693.411682 615.487854,689.456604 617.669617,685.725342 
	C618.941406,683.550293 622.589661,681.798889 625.269043,681.648804 
	C628.906677,681.445068 631.686279,683.964539 632.407166,687.994385 
	C633.465088,693.908020 628.478882,697.759949 621.084045,696.239868 
z"/>
<path fill="#F3F2F2" opacity="1.000000" stroke="none" 
	d="
M324.420868,400.315887 
	C319.700043,399.023102 317.780487,396.149475 318.744263,391.743591 
	C319.565308,387.990295 322.339417,386.233795 326.028351,386.329193 
	C329.648682,386.422852 332.658569,390.047485 332.397186,393.846497 
	C332.077087,398.497925 329.266235,400.481323 324.420868,400.315887 
z"/>
<path fill="#F0EEEF" opacity="1.000000" stroke="none" 
	d="
M725.738586,388.309509 
	C728.648376,391.597321 729.438354,395.238037 726.269226,397.777557 
	C724.213440,399.424927 720.529968,400.235901 717.925415,399.705261 
	C714.572021,399.022095 713.382751,395.645752 713.867554,392.153564 
	C714.606628,386.829285 719.194580,385.225220 725.738586,388.309509 
z"/>
<path fill="#EBEDED" opacity="1.000000" stroke="none" 
	d="
M347.023804,583.372375 
	C348.615204,579.323669 351.332642,576.835754 355.167175,578.617981 
	C357.462097,579.684631 360.403961,582.794922 360.261902,584.787537 
	C360.089813,587.201294 357.418884,590.356873 355.024628,591.487366 
	C350.925629,593.422791 347.313019,589.608215 347.023804,583.372375 
z"/>
<path fill="#F0EEEF" opacity="1.000000" stroke="none" 
	d="
M696.509033,590.545471 
	C692.597412,592.664856 689.417664,592.186401 687.016541,588.835449 
	C685.089539,586.146118 684.918457,583.290405 687.242004,580.657898 
	C689.953003,577.586548 693.109497,577.000244 696.489685,579.467651 
	C699.971497,582.009277 700.033691,586.009583 696.509033,590.545471 
z"/>
<path fill="#EBEDED" opacity="1.000000" stroke="none" 
	d="
M724.391479,351.434662 
	C720.359558,353.516418 716.859863,352.719543 715.446960,349.008972 
	C714.581726,346.736786 714.912231,342.619934 716.439758,341.209381 
	C718.027527,339.743225 722.058899,339.632355 724.387878,340.545410 
	C728.452393,342.138885 728.335754,347.067780 724.391479,351.434662 
z"/>
<path fill="#F0EEEF" opacity="1.000000" stroke="none" 
	d="
M326.752869,339.132568 
	C332.021332,341.521393 334.009064,344.820587 332.388184,348.269318 
	C330.773804,351.704193 327.786377,353.753845 324.339355,351.913177 
	C322.136047,350.736633 319.730682,347.758881 319.565460,345.435730 
	C319.290161,341.565552 322.203613,339.201813 326.752869,339.132568 
z"/>
<path fill="#090809" opacity="1.000000" stroke="none" 
	d="
M517.473877,522.998718 
	C517.472046,512.394592 517.472046,502.290527 517.472046,491.884583 
	C502.282410,491.884583 487.659088,491.888885 473.035767,491.883392 
	C458.708771,491.877991 444.381805,491.868347 430.054810,491.843018 
	C428.558502,491.840363 426.474670,492.314636 425.682922,491.533813 
	C423.762024,489.639374 421.430481,487.259399 421.134583,484.845795 
	C420.758636,481.779327 423.425018,479.984802 426.790344,479.993774 
	C437.119293,480.021393 447.448334,480.006592 457.777344,480.010925 
	C476.269623,480.018646 494.761932,480.028351 513.254211,480.037079 
	C514.548340,480.037689 515.842529,480.037140 517.617126,480.037140 
	C517.617126,466.045441 517.616333,452.432495 517.618591,438.819519 
	C517.618774,437.653381 517.681763,436.485840 517.642700,435.321411 
	C517.515198,431.519287 518.796265,428.341644 522.982239,428.459503 
	C527.022034,428.573242 528.174683,431.503601 528.122864,435.478333 
	C527.931824,450.118988 528.046936,464.763611 528.046936,480.045288 
	C536.261963,480.045288 544.350952,480.052917 552.439941,480.042694 
	C558.104187,480.035553 563.769165,480.055359 569.432312,479.965118 
	C573.070374,479.907166 575.490967,480.638062 575.246094,485.207977 
	C575.036987,489.109985 575.386169,492.195984 569.687012,492.036377 
	C556.038208,491.654266 542.371399,491.912933 528.006897,491.912933 
	C528.006897,493.503540 528.006958,495.083374 528.006897,496.663208 
	C528.005920,519.153870 528.001953,541.644470 528.007629,564.135132 
	C528.008362,567.166382 528.501221,570.135986 523.667542,570.041382 
	C519.578064,569.961243 517.570557,568.982300 517.607422,564.473450 
	C517.719238,550.816528 517.540955,537.157166 517.473877,522.998718 
z"/>
<path fill="#0B0A0B" opacity="1.000000" stroke="none" 
	d="
M519.807007,758.316528 
	C510.057220,742.988770 497.855255,730.348206 484.314209,719.208008 
	C486.960907,716.187073 489.311707,713.503784 491.884125,710.567627 
	C504.289581,719.619263 514.456909,730.186218 523.232849,741.839600 
	C527.928284,736.282837 532.327515,730.472595 537.366821,725.283997 
	C542.331482,720.172302 547.944641,715.690430 553.822021,710.442200 
	C556.744751,713.202332 559.453491,715.760376 562.402710,718.545471 
	C546.963440,731.223450 533.908569,745.713745 523.614319,763.324219 
	C522.166748,761.438232 521.088440,760.033325 519.807007,758.316528 
z"/>
<path fill="#0C0B0C" opacity="1.000000" stroke="none" 
	d="
M506.332825,294.328735 
	C512.124939,287.271973 517.668274,280.467773 523.637207,273.141083 
	C533.552734,288.869934 546.085083,302.393463 561.379272,313.078552 
	C561.227600,313.643951 561.240967,314.021210 561.058899,314.211365 
	C553.415588,322.194244 553.171753,322.471802 544.755188,315.196381 
	C537.124939,308.600677 530.099365,301.305420 523.284363,294.775757 
	C513.889343,303.544586 504.008301,312.767059 494.026703,322.083374 
	C490.507080,318.475189 487.990417,315.895203 485.514618,313.357117 
	C492.221222,307.235291 499.152649,300.908295 506.332825,294.328735 
z"/>
<path fill="#0B0A0B" opacity="1.000000" stroke="none" 
	d="
M365.927673,520.143799 
	C357.421326,507.353973 346.631927,497.339203 333.910034,488.237915 
	C348.227814,478.129150 359.951874,465.923218 369.074707,450.566559 
	C372.121429,452.949493 374.917572,455.136444 377.860840,457.438477 
	C372.071350,469.753510 363.673615,479.816315 353.868103,487.570709 
	C362.405487,497.224243 370.681396,506.582153 379.081970,516.080994 
	C375.254791,519.440430 372.553589,521.811462 369.427460,524.555542 
	C368.285309,523.128357 367.209839,521.784424 365.927673,520.143799 
z"/>
<path fill="#0D0C0C" opacity="1.000000" stroke="none" 
	d="
M681.435669,476.553894 
	C676.946045,470.231842 672.699646,464.168243 668.356812,457.966919 
	C671.984070,455.240936 674.745361,453.165771 678.159241,450.600220 
	C686.523987,465.738464 698.210022,478.005829 712.757141,488.752899 
	C698.423401,498.104218 687.320557,509.973694 678.313416,524.492493 
	C674.990356,521.762939 671.988159,519.296875 668.817505,516.692444 
	C675.076477,505.343353 683.501526,496.336212 692.787537,488.773041 
	C689.093140,484.795288 685.385986,480.803833 681.435669,476.553894 
z"/>
<path fill="#0B0A0B" opacity="1.000000" stroke="none" 
	d="
M634.013062,480.355194 
	C637.103271,482.166748 639.003967,484.644257 637.113220,487.466248 
	C635.770203,489.470856 632.955017,491.623749 630.722534,491.706604 
	C619.440002,492.125519 608.133118,491.903564 596.834839,491.872437 
	C592.690125,491.860992 589.972168,489.701141 590.014221,485.613617 
	C590.054871,481.660797 592.837708,479.993713 596.774353,480.025818 
	C609.062988,480.126099 621.352356,480.126312 634.013062,480.355194 
z"/>
<path fill="#060606" opacity="1.000000" stroke="none" 
	d="
M517.561890,654.935547 
	C517.609070,646.301270 517.753357,638.152649 517.660706,630.006775 
	C517.618408,626.288208 519.070496,624.342834 522.848694,624.453064 
	C526.419067,624.557129 528.117859,626.099060 528.048401,630.040466 
	C527.846191,641.510376 527.942383,652.987000 528.045105,664.459900 
	C528.078247,668.163025 526.875061,670.805969 522.879211,670.818481 
	C518.820312,670.831177 517.648804,667.941833 517.603882,664.401733 
	C517.565857,661.408875 517.574280,658.415466 517.561890,654.935547 
z"/>
<path fill="#060405" opacity="1.000000" stroke="none" 
	d="
M517.623108,353.060425 
	C517.688110,350.244537 517.090271,347.635101 517.955200,345.669312 
	C518.794250,343.762360 521.307373,341.140106 522.774231,341.323273 
	C524.671204,341.560150 527.679321,344.209961 527.749939,345.922272 
	C528.202026,356.883545 527.989075,367.872681 527.973022,378.852631 
	C527.968384,382.011414 526.385925,383.862061 523.196838,384.033386 
	C519.733337,384.219421 517.896057,382.473999 517.853760,378.988434 
	C517.750793,370.508698 517.682556,362.028503 517.623108,353.060425 
z"/>
<path fill="#0D0C0C" opacity="1.000000" stroke="none" 
	d="
M517.821167,605.185425 
	C516.766602,601.318787 518.300659,598.547302 521.496887,598.008850 
	C523.391174,597.689697 526.947144,599.273804 527.471985,600.791809 
	C528.134399,602.707642 527.186096,606.176147 525.655884,607.642700 
	C522.661621,610.512451 519.927917,608.479370 517.821167,605.185425 
z"/>
</svg>