<svg version="1.1" id="Layer_1" xmlns="http://www.w3.org/2000/svg" xmlns:xlink="http://www.w3.org/1999/xlink" x="0px" y="0px"
	 width="100%" viewBox="0 0 1024 1024" enable-background="new 0 0 1024 1024" xml:space="preserve">
<path fill="#03070A" opacity="1.000000" stroke="none" 
	d="
M546.000000,1025.000000 
	C364.000000,1025.000000 182.500000,1025.000000 1.000000,1025.000000 
	C1.000000,683.666687 1.000000,342.333344 1.000000,1.000000 
	C342.333344,1.000000 683.666687,1.000000 1025.000000,1.000000 
	C1025.000000,342.333344 1025.000000,683.666687 1025.000000,1025.000000 
	C865.500000,1025.000000 706.000000,1025.000000 546.000000,1025.000000 
M828.998169,432.500000 
	C828.998169,359.038666 828.998169,285.577332 828.998169,211.751877 
	C712.591431,207.243332 605.142395,176.716293 510.993958,106.847336 
	C481.135773,128.673141 450.014771,146.847977 417.129486,162.037964 
	C354.534027,190.951355 288.242065,204.626511 219.940262,210.079285 
	C211.212906,210.776016 202.481232,211.418640 193.863037,212.077805 
	C193.727478,212.879578 193.625854,213.199493 193.626053,213.519348 
	C193.670135,285.178925 193.700806,356.838501 193.781219,428.498047 
	C193.820099,463.131439 193.170868,497.740265 197.770187,532.262573 
	C204.359879,581.724365 217.698074,629.102844 238.654617,674.359497 
	C266.298645,734.058105 305.914490,784.701355 355.256195,827.887512 
	C401.530853,868.389282 453.952209,899.544067 508.405243,927.493835 
	C510.347717,928.490906 513.914673,927.774658 516.094604,926.643188 
	C560.015137,903.847778 602.761536,879.110046 642.032288,848.801147 
	C690.639526,811.286316 731.645325,766.917664 763.222351,714.048035 
	C786.838379,674.507446 803.958557,632.318298 814.849731,587.625977 
	C821.749634,559.312073 826.847412,530.628662 828.019470,501.466156 
	C828.929138,478.834229 828.712769,456.157074 828.998169,432.500000 
z"/>
<path fill="#FCFBF7" opacity="1.000000" stroke="none" 
	d="
M828.997559,433.000000 
	C828.712769,456.157074 828.929138,478.834229 828.019470,501.466156 
	C826.847412,530.628662 821.749634,559.312073 814.849731,587.625977 
	C803.958557,632.318298 786.838379,674.507446 763.222351,714.048035 
	C731.645325,766.917664 690.639526,811.286316 642.032288,848.801147 
	C602.761536,879.110046 560.015137,903.847778 516.094604,926.643188 
	C513.914673,927.774658 510.347717,928.490906 508.405243,927.493835 
	C453.952209,899.544067 401.530853,868.389282 355.256195,827.887512 
	C305.914490,784.701355 266.298645,734.058105 238.654617,674.359497 
	C217.698074,629.102844 204.359879,581.724365 197.770187,532.262573 
	C193.170868,497.740265 193.820099,463.131439 193.781219,428.498047 
	C193.700806,356.838501 193.670135,285.178925 193.626053,213.519348 
	C193.625854,213.199493 193.727478,212.879578 193.863037,212.077805 
	C202.481232,211.418640 211.212906,210.776016 219.940262,210.079285 
	C288.242065,204.626511 354.534027,190.951355 417.129486,162.037964 
	C450.014771,146.847977 481.135773,128.673141 510.993958,106.847336 
	C605.142395,176.716293 712.591431,207.243332 828.998169,211.751877 
	C828.998169,285.577332 828.998169,359.038666 828.997559,433.000000 
M579.400391,835.928833 
	C581.178589,834.700928 582.945129,833.455933 584.736633,832.247681 
	C620.666687,808.015198 653.557190,780.245483 681.545166,747.072571 
	C715.442688,706.895142 741.017090,661.931335 757.227295,611.782166 
	C771.718994,566.949768 780.830566,521.177368 780.934692,473.904846 
	C781.091858,402.575500 781.016541,331.245636 781.023926,259.915985 
	C781.024048,258.660767 780.822021,257.405548 780.726624,256.293762 
	C777.317383,255.831558 774.356201,255.376556 771.381958,255.035172 
	C742.623657,251.734421 714.095642,247.110657 685.953003,240.252716 
	C625.231201,225.455719 568.042358,202.233856 515.305359,168.482376 
	C512.194275,166.491272 510.136688,166.477646 507.019318,168.508850 
	C472.732056,190.849884 436.170837,208.630264 397.637512,222.363281 
	C357.462189,236.681488 316.191864,246.472061 273.920929,252.081299 
	C263.108459,253.516098 252.295532,254.947388 241.761963,256.343292 
	C241.761963,324.852814 242.092148,393.016998 241.640289,461.176025 
	C241.361298,503.261292 246.701080,544.520020 257.178802,585.154297 
	C273.551941,648.651917 303.193329,705.207397 346.901398,754.210693 
	C392.349487,805.164673 447.607422,842.957397 508.104431,873.607178 
	C509.797333,874.464905 512.785461,874.412659 514.425781,873.478577 
	C535.954285,861.218567 557.348572,848.723022 579.400391,835.928833 
z"/>
<path fill="#05080B" opacity="1.000000" stroke="none" 
	d="
M579.088501,836.107727 
	C557.348572,848.723022 535.954285,861.218567 514.425781,873.478577 
	C512.785461,874.412659 509.797333,874.464905 508.104431,873.607178 
	C447.607422,842.957397 392.349487,805.164673 346.901398,754.210693 
	C303.193329,705.207397 273.551941,648.651917 257.178802,585.154297 
	C246.701080,544.520020 241.361298,503.261292 241.640289,461.176025 
	C242.092148,393.016998 241.761963,324.852814 241.761963,256.343292 
	C252.295532,254.947388 263.108459,253.516098 273.920929,252.081299 
	C316.191864,246.472061 357.462189,236.681488 397.637512,222.363281 
	C436.170837,208.630264 472.732056,190.849884 507.019318,168.508850 
	C510.136688,166.477646 512.194275,166.491272 515.305359,168.482376 
	C568.042358,202.233856 625.231201,225.455719 685.953003,240.252716 
	C714.095642,247.110657 742.623657,251.734421 771.381958,255.035172 
	C774.356201,255.376556 777.317383,255.831558 780.726624,256.293762 
	C780.822021,257.405548 781.024048,258.660767 781.023926,259.915985 
	C781.016541,331.245636 781.091858,402.575500 780.934692,473.904846 
	C780.830566,521.177368 771.718994,566.949768 757.227295,611.782166 
	C741.017090,661.931335 715.442688,706.895142 681.545166,747.072571 
	C653.557190,780.245483 620.666687,808.015198 584.736633,832.247681 
	C582.945129,833.455933 581.178589,834.700928 579.088501,836.107727 
M546.572021,269.169739 
	C542.348877,269.961273 538.125732,270.752808 533.721985,271.578217 
	C526.289307,253.385391 519.009094,235.565643 511.728912,217.745895 
	C511.270569,217.851074 510.812225,217.956268 510.353912,218.061462 
	C502.946228,235.777222 495.538513,253.492981 487.683228,272.279205 
	C474.467010,268.813354 461.365631,265.377655 447.978027,261.866882 
	C447.978027,316.217010 447.978027,370.814575 447.978027,425.473022 
	C427.948792,425.473022 408.298431,425.487152 388.648102,425.469421 
	C364.149902,425.447296 339.650085,425.544586 315.154602,425.266510 
	C308.457916,425.190521 301.774384,423.953705 294.805206,423.220154 
	C296.228821,433.458405 296.935425,443.633850 299.232391,453.436707 
	C301.047821,461.184326 298.628784,465.011047 291.987946,468.600403 
	C282.753632,473.591522 274.150085,479.749695 264.729248,485.757324 
	C273.267609,491.108063 280.972473,495.960571 288.701477,500.774384 
	C300.766876,508.289001 300.653381,508.258270 298.403015,522.051086 
	C296.995056,530.680542 296.016052,539.379944 295.006226,546.852051 
	C346.162048,542.973572 397.061920,546.248230 448.436340,544.776001 
	C448.436340,620.584290 448.436340,695.594177 448.436340,770.158630 
	C461.808258,766.800598 474.777405,763.543701 487.950256,760.235596 
	C495.739807,780.123901 503.141602,799.022034 511.073059,819.272644 
	C519.179077,798.934143 526.755249,779.925171 534.619324,760.193665 
	C547.574341,763.325623 560.109436,766.356079 573.057129,769.486267 
	C573.057129,694.965881 573.057129,620.114868 573.057129,545.139893 
	C617.893677,545.139893 662.209961,545.092163 706.525757,545.213440 
	C710.976013,545.225647 715.428162,546.228760 719.870605,546.836243 
	C722.427185,547.185852 724.966187,547.664673 727.824402,548.136780 
	C726.506409,539.085938 726.086426,530.339172 723.819397,522.100647 
	C720.909607,511.526367 724.782898,505.700897 733.898071,500.953888 
	C742.091797,496.686798 749.574646,491.054840 757.795837,485.750916 
	C747.684265,479.251678 738.337646,472.874634 728.607178,467.150055 
	C723.931824,464.399475 722.477173,461.468842 723.420837,456.061584 
	C725.320496,445.176788 726.412170,434.151001 727.716736,424.110443 
	C676.191833,427.162109 624.776550,424.476013 573.029053,425.766815 
	C573.029053,370.721924 573.029053,316.148468 573.029053,261.760895 
	C564.279480,264.234192 555.836914,266.620667 546.572021,269.169739 
M353.145782,320.470978 
	C353.145782,322.398407 353.145782,324.325836 353.145782,326.082001 
	C341.791779,326.082001 331.130737,326.059967 320.470062,326.111298 
	C319.209869,326.117340 317.614777,326.113953 316.752228,326.820099 
	C313.456909,329.517944 310.397705,332.504242 307.652039,335.015411 
	C312.562866,344.100250 318.873901,348.356018 328.411957,346.435333 
	C330.337524,346.047638 332.398926,346.316498 334.397736,346.313568 
	C340.636932,346.304504 346.876099,346.310242 353.177307,346.310242 
	C353.177307,356.962677 353.179626,366.772064 353.176178,376.581482 
	C353.174805,380.489136 359.267944,389.616760 362.724274,390.812836 
	C363.167480,390.966248 363.711975,391.008270 364.168945,390.910980 
	C366.915344,390.326263 373.934174,381.027252 373.930878,378.086761 
	C373.919189,367.643524 373.926331,357.200256 373.926331,346.364532 
	C383.472931,346.364532 392.539276,345.612976 401.420685,346.572693 
	C410.576813,347.562103 415.568176,342.929993 420.078064,336.022369 
	C415.441742,330.267456 411.264679,324.776093 402.004211,325.903320 
	C392.883667,327.013489 383.522369,326.145569 373.803711,326.145569 
	C373.803711,316.200623 373.850769,306.562927 373.755707,296.926666 
	C373.740509,295.387024 373.574768,293.394836 372.639496,292.403564 
	C369.841461,289.437958 366.627045,286.865173 363.534882,284.103058 
	C361.751129,285.662903 360.366608,287.145660 358.728790,288.254059 
	C354.148956,291.353516 352.561005,295.460083 353.002075,300.994324 
	C353.490326,307.120605 353.133606,313.314270 353.145782,320.470978 
M373.841064,669.148193 
	C373.841064,659.537720 373.841064,649.927246 373.841064,640.010620 
	C385.090454,640.010620 395.723358,640.179871 406.342926,639.878845 
	C408.686554,639.812378 411.341980,638.524292 413.215088,637.009094 
	C415.865784,634.864868 417.922943,631.987000 421.032593,628.536377 
	C419.200623,627.156006 417.227448,626.238037 416.088440,624.701599 
	C412.991730,620.524536 409.120026,619.471191 404.032684,619.690552 
	C394.119812,620.117920 384.175476,619.815796 373.844543,619.815796 
	C373.844543,611.504639 373.070984,603.596436 374.041077,595.908142 
	C375.242981,586.382629 371.685608,579.992004 363.995361,575.195129 
	C363.856293,575.108398 363.687439,575.069397 363.532501,575.008057 
	C353.419434,582.047791 353.050629,582.740723 353.138000,594.380310 
	C353.166748,598.212830 353.184204,602.045471 353.191833,605.878052 
	C353.200958,610.447754 353.193970,615.017456 353.193970,619.810913 
	C343.575439,619.810913 334.659821,620.638367 325.973572,619.581116 
	C317.067993,618.497131 312.619415,623.517090 307.773621,629.272583 
	C309.061554,630.848267 310.304443,632.183350 311.336426,633.665344 
	C314.723389,638.529358 319.026978,640.560181 325.210541,640.172852 
	C334.450409,639.594238 343.753357,640.022644 353.150208,640.022644 
	C353.150208,650.264771 353.049561,659.915466 353.232758,669.560791 
	C353.270630,671.554810 353.896942,673.881226 355.070068,675.437988 
	C357.449585,678.595520 360.388336,681.331665 363.613403,684.796814 
	C367.225433,679.349792 374.169891,677.424072 373.841064,669.148193 
M608.001099,343.661011 
	C610.103760,344.629272 612.170288,346.324127 614.315796,346.430725 
	C620.962341,346.761047 627.638855,346.477692 634.303833,346.451080 
	C638.708435,346.433472 643.113220,346.447723 647.725403,346.447723 
	C647.725403,356.205444 648.503113,365.102356 647.511475,373.797546 
	C646.473572,382.898682 652.479919,386.580994 657.573792,391.400299 
	C664.742432,386.233673 669.417969,380.837402 668.167786,371.382050 
	C667.096069,363.276489 667.945923,354.916901 667.945923,346.425201 
	C679.474731,346.425201 690.302124,346.476776 701.127747,346.366180 
	C702.644653,346.350677 704.571472,345.979218 705.586121,345.013519 
	C708.432678,342.304291 710.901367,339.198120 714.295654,335.373535 
	C712.263428,333.739471 710.253052,332.649323 708.978821,330.992859 
	C705.981812,327.096771 702.458679,325.763794 697.439148,326.026764 
	C687.829102,326.530243 678.173950,326.173096 667.928589,326.173096 
	C667.928589,316.228241 667.992981,306.439972 667.866943,296.654144 
	C667.845337,294.969452 667.505432,292.842896 666.459106,291.705750 
	C663.904602,288.929535 660.849854,286.613434 658.215088,284.303711 
	C650.104858,288.794891 646.381653,294.947327 647.502014,304.322693 
	C648.357483,311.481628 647.672058,318.824738 647.672058,326.096954 
	C636.640564,326.096954 626.339600,326.253601 616.047974,326.011810 
	C612.459229,325.927490 609.895081,326.666656 607.376404,329.482483 
	C601.166931,336.424683 600.993713,336.269745 608.001099,343.661011 
M629.498291,619.778076 
	C625.502319,619.791199 621.418335,620.342529 617.528687,619.705872 
	C609.313782,618.361328 605.997986,624.305237 601.436462,628.934570 
	C602.920715,630.794739 604.132202,632.160522 605.173340,633.645813 
	C608.674377,638.640442 613.125610,640.628174 619.472412,640.190735 
	C628.693542,639.555298 637.990967,640.027832 647.439575,640.027832 
	C647.439575,650.039368 647.192139,659.496094 647.590759,668.925537 
	C647.709900,671.743652 649.288330,674.699524 650.829773,677.203430 
	C652.457886,679.848022 654.839905,682.028625 656.914673,684.437500 
	C658.807251,682.850525 659.928833,681.862610 661.099487,680.936584 
	C666.200928,676.900452 668.803467,672.155396 668.142883,665.152954 
	C667.369324,656.953979 667.961914,648.626160 667.961914,639.973633 
	C679.053711,639.973633 689.673706,640.054382 700.290039,639.896057 
	C702.104431,639.869019 704.332520,639.299438 705.621948,638.145264 
	C708.438477,635.624146 710.774475,632.566101 713.419312,629.601379 
	C712.174683,628.038696 711.137512,626.763184 710.128967,625.465393 
	C706.796570,621.176941 702.991333,619.058777 697.006287,619.544312 
	C687.470459,620.317871 677.825928,619.751038 667.895996,619.751038 
	C667.895996,608.819885 667.938416,598.352966 667.850159,587.887146 
	C667.836914,586.319641 667.706177,584.312866 666.775574,583.276123 
	C664.028687,580.216003 660.853210,577.540527 658.146423,574.997498 
	C649.688293,579.599182 646.337036,586.247192 647.571655,595.393677 
	C648.079285,599.154846 647.657104,603.041687 647.657349,606.871338 
	C647.657654,611.122864 647.657410,615.374451 647.657410,619.777832 
	C641.470947,619.777832 635.983948,619.777832 629.498291,619.778076 
M739.298767,375.124634 
	C736.015808,375.124634 732.732788,375.124634 729.009277,375.124634 
	C729.009277,370.475342 729.009277,365.881287 729.009277,361.083862 
	C725.507751,361.083862 722.450500,361.083862 718.783508,361.083862 
	C718.783508,366.018280 718.783508,370.709961 718.783508,375.629944 
	C713.942322,375.629944 709.711121,375.629944 705.507690,375.629944 
	C705.507690,379.318237 705.507690,382.578857 705.507690,386.178406 
	C710.080872,386.178406 714.349976,386.178406 719.074768,386.178406 
	C719.074768,391.260132 719.074768,396.011444 719.074768,400.753845 
	C722.604309,400.753845 725.664612,400.753845 729.225830,400.753845 
	C729.225830,395.889008 729.225830,391.320709 729.225830,386.283295 
	C733.787842,386.283295 737.839600,386.283295 742.136414,386.283295 
	C742.136414,383.783783 742.377869,381.758667 742.062134,379.824463 
	C741.795959,378.193848 740.882751,376.668823 739.298767,375.124634 
M277.993164,378.731506 
	C277.993164,381.172455 277.993164,383.613403 277.993164,386.357117 
	C282.566010,386.357117 286.642639,386.357117 291.228943,386.357117 
	C291.228943,391.394928 291.228943,396.129639 291.228943,400.795593 
	C294.692139,400.795593 297.630676,400.795593 301.040283,400.795593 
	C301.040283,395.981110 301.040283,391.398956 301.040283,386.420959 
	C305.598175,386.420959 309.681213,386.420959 313.867462,386.420959 
	C313.867462,382.574921 313.867462,379.141479 313.867462,375.277222 
	C309.575287,375.277222 305.506714,375.277222 300.975006,375.277222 
	C300.975006,370.290344 300.975006,365.719757 300.975006,361.101685 
	C297.427094,361.101685 294.370422,361.101685 290.977539,361.101685 
	C290.977539,365.872528 290.977539,370.301544 290.977539,374.948120 
	C287.365326,375.121948 284.061035,375.104950 280.817413,375.540283 
	C279.794983,375.677521 278.935181,377.026703 277.993164,378.731506 
M311.453491,588.730774 
	C312.190186,582.845154 310.106567,578.214111 305.807709,576.182434 
	C300.462280,573.656128 294.064423,575.851379 291.382111,581.132202 
	C288.750275,586.313660 290.938568,592.825989 296.216187,595.518250 
	C301.948730,598.442627 307.969666,596.014709 311.453491,588.730774 
M713.535828,576.829773 
	C708.820190,581.196106 707.443604,585.856689 709.524353,590.411255 
	C711.453796,594.634766 715.960205,597.218872 720.417053,596.564331 
	C724.880432,595.908813 728.122375,593.652100 729.464844,589.178284 
	C730.803284,584.718018 729.302734,580.921875 726.126282,577.896851 
	C722.628784,574.566223 718.495789,574.267639 713.535828,576.829773 
M416.360748,682.495422 
	C414.593384,677.410706 410.693298,675.142578 405.645874,675.313293 
	C401.116608,675.466492 397.784058,678.197205 396.374573,682.459351 
	C394.907379,686.896057 396.054932,690.991455 399.735748,694.094482 
	C403.470001,697.242737 407.832428,697.388367 411.802673,695.188721 
	C416.321228,692.685364 417.750732,688.314819 416.360748,682.495422 
M604.955017,690.157837 
	C608.078491,697.761475 618.364624,697.638489 622.048218,693.667297 
	C625.469421,689.978943 626.197388,684.198059 623.384460,679.962219 
	C620.569885,675.723755 614.952881,674.108093 610.199341,676.169678 
	C605.314880,678.287903 603.290039,683.150635 604.955017,690.157837 
M622.102417,269.448334 
	C621.334656,268.819458 620.646118,268.040100 619.785645,267.587250 
	C615.594421,265.381287 611.511108,265.426819 607.801331,268.622101 
	C604.172791,271.747314 602.891296,275.791840 604.566467,280.237610 
	C606.276123,284.774567 609.685303,287.229797 614.839294,287.345795 
	C623.608337,287.543060 628.442932,276.703552 622.102417,269.448334 
M416.881531,274.139954 
	C416.558441,273.381683 416.281921,272.599304 415.904510,271.869110 
	C413.790771,267.779266 410.359406,265.765594 405.822449,266.103058 
	C401.283142,266.440704 398.220245,268.961609 396.628723,273.274689 
	C395.061554,277.521759 396.430573,280.988800 399.277496,284.157654 
	C402.508270,287.753845 406.675537,287.781555 410.729797,286.653381 
	C415.004639,285.463867 417.166992,280.898285 416.881531,274.139954 
M620.059387,594.690918 
	C625.067200,590.327087 626.095154,586.752686 623.819153,581.618103 
	C621.828735,577.128052 617.622314,574.695435 613.024902,575.305542 
	C608.582520,575.895020 605.608643,578.582642 604.313660,582.548889 
	C603.025757,586.493896 603.705017,590.462097 606.969666,593.558838 
	C610.743896,597.138977 614.962036,597.009460 620.059387,594.690918 
M612.913269,718.095398 
	C605.414062,720.628235 602.197327,726.040222 604.458984,732.319153 
	C606.394226,737.691528 611.394836,740.294434 617.261902,738.983398 
	C621.912781,737.944153 625.412598,733.030334 624.942749,728.199341 
	C624.333618,721.936401 620.407776,718.373047 612.913269,718.095398 
M415.940094,591.032715 
	C418.676178,584.092834 416.094116,577.697510 409.738831,575.673523 
	C403.822479,573.789307 398.165619,577.155823 396.450134,583.581848 
	C395.281097,587.960938 397.673431,593.194885 401.829102,595.349915 
	C406.275665,597.655762 411.291168,596.314148 415.940094,591.032715 
M400.636261,719.937866 
	C399.740784,720.908752 398.699005,721.782227 397.975586,722.867798 
	C395.158447,727.095215 395.519348,732.035583 398.796265,735.720032 
	C401.832306,739.133667 406.958893,740.155823 411.039978,738.161133 
	C415.681641,735.892456 417.869568,731.727600 417.038452,726.742676 
	C415.836578,719.534424 409.427002,716.574524 400.636261,719.937866 
M605.838440,387.442780 
	C608.752991,392.074799 613.210754,393.032776 617.979492,391.721069 
	C622.082458,390.592468 624.589539,387.401154 624.998108,383.028168 
	C625.439453,378.304443 623.655701,374.508392 619.314941,372.388855 
	C615.251160,370.404572 611.227234,370.871674 607.706787,373.803802 
	C604.027161,376.868500 603.283203,381.330475 605.838440,387.442780 
M410.238342,371.994720 
	C405.698517,370.334167 401.693817,371.154236 398.493530,374.815063 
	C395.766785,377.934174 395.089081,381.539001 396.674042,385.450226 
	C398.648529,390.322662 402.270538,392.461182 407.634766,392.127014 
	C412.680481,391.812714 415.465363,388.782959 416.778778,384.323029 
	C418.102997,379.826630 415.870514,375.548523 410.238342,371.994720 
z"/>
<path fill="#FBFAF7" opacity="1.000000" stroke="none" 
	d="
M546.983154,269.088440 
	C555.836914,266.620667 564.279480,264.234192 573.029053,261.760895 
	C573.029053,316.148468 573.029053,370.721924 573.029053,425.766815 
	C624.776550,424.476013 676.191833,427.162109 727.716736,424.110443 
	C726.412170,434.151001 725.320496,445.176788 723.420837,456.061584 
	C722.477173,461.468842 723.931824,464.399475 728.607178,467.150055 
	C738.337646,472.874634 747.684265,479.251678 757.795837,485.750916 
	C749.574646,491.054840 742.091797,496.686798 733.898071,500.953888 
	C724.782898,505.700897 720.909607,511.526367 723.819397,522.100647 
	C726.086426,530.339172 726.506409,539.085938 727.824402,548.136780 
	C724.966187,547.664673 722.427185,547.185852 719.870605,546.836243 
	C715.428162,546.228760 710.976013,545.225647 706.525757,545.213440 
	C662.209961,545.092163 617.893677,545.139893 573.057129,545.139893 
	C573.057129,620.114868 573.057129,694.965881 573.057129,769.486267 
	C560.109436,766.356079 547.574341,763.325623 534.619324,760.193665 
	C526.755249,779.925171 519.179077,798.934143 511.073059,819.272644 
	C503.141602,799.022034 495.739807,780.123901 487.950256,760.235596 
	C474.777405,763.543701 461.808258,766.800598 448.436340,770.158630 
	C448.436340,695.594177 448.436340,620.584290 448.436340,544.776001 
	C397.061920,546.248230 346.162048,542.973572 295.006226,546.852051 
	C296.016052,539.379944 296.995056,530.680542 298.403015,522.051086 
	C300.653381,508.258270 300.766876,508.289001 288.701477,500.774384 
	C280.972473,495.960571 273.267609,491.108063 264.729248,485.757324 
	C274.150085,479.749695 282.753632,473.591522 291.987946,468.600403 
	C298.628784,465.011047 301.047821,461.184326 299.232391,453.436707 
	C296.935425,443.633850 296.228821,433.458405 294.805206,423.220154 
	C301.774384,423.953705 308.457916,425.190521 315.154602,425.266510 
	C339.650085,425.544586 364.149902,425.447296 388.648102,425.469421 
	C408.298431,425.487152 427.948792,425.473022 447.978027,425.473022 
	C447.978027,370.814575 447.978027,316.217010 447.978027,261.866882 
	C461.365631,265.377655 474.467010,268.813354 487.683228,272.279205 
	C495.538513,253.492981 502.946228,235.777222 510.353912,218.061462 
	C510.812225,217.956268 511.270569,217.851074 511.728912,217.745895 
	C519.009094,235.565643 526.289307,253.385391 533.721985,271.578217 
	C538.125732,270.752808 542.348877,269.961273 546.983154,269.088440 
M548.081909,667.500000 
	C548.081909,618.737671 548.081909,569.975342 548.081909,520.944458 
	C598.051392,520.944458 647.320740,520.944458 696.820312,520.944458 
	C696.820312,513.275269 696.820312,505.877716 696.820312,498.321625 
	C639.520813,498.321625 582.461792,498.321625 525.498901,498.321625 
	C525.498901,577.692322 525.498901,656.750366 525.498901,735.708618 
	C533.234070,735.708618 540.502136,735.708618 548.082031,735.708618 
	C548.082031,713.102783 548.082031,690.801392 548.081909,667.500000 
M472.982452,610.500000 
	C472.982452,652.248840 472.982452,693.997681 472.982452,735.673950 
	C481.052643,735.673950 488.443665,735.673950 495.949707,735.673950 
	C495.949707,656.386902 495.949707,577.485718 495.949707,498.408081 
	C438.892822,498.408081 382.041046,498.408081 325.303040,498.408081 
	C325.303040,506.086792 325.303040,513.359436 325.303040,521.122375 
	C374.627960,521.122375 423.660126,521.122375 472.982452,521.122375 
	C472.982452,550.911804 472.982452,580.205872 472.982452,610.500000 
M648.499817,472.680054 
	C664.589905,472.680054 680.679932,472.680054 696.891235,472.680054 
	C696.891235,464.864471 696.891235,457.595612 696.891235,449.845612 
	C647.329773,449.845612 597.960022,449.845612 548.087769,449.845612 
	C548.087769,398.837555 548.087769,348.308777 548.087769,297.797424 
	C540.184265,297.797424 532.789307,297.797424 525.405273,297.797424 
	C525.405273,356.137665 525.405273,414.193237 525.405273,472.680054 
	C566.311096,472.680054 606.905457,472.680054 648.499817,472.680054 
M472.972534,377.500000 
	C472.972534,401.442169 472.972534,425.384308 472.972534,449.864502 
	C423.407776,449.864502 374.355377,449.864502 325.368958,449.864502 
	C325.368958,457.784668 325.368958,465.157043 325.368958,472.246613 
	C382.487976,472.246613 439.183594,472.246613 495.908112,472.246613 
	C495.908112,413.766632 495.908112,355.825500 495.908112,297.795532 
	C488.187866,297.795532 480.665344,297.795532 472.978912,297.795532 
	C472.978912,324.211761 472.978912,350.355896 472.972534,377.500000 
z"/>
<path fill="#F8F8F4" opacity="1.000000" stroke="none" 
	d="
M353.145325,319.974792 
	C353.133606,313.314270 353.490326,307.120605 353.002075,300.994324 
	C352.561005,295.460083 354.148956,291.353516 358.728790,288.254059 
	C360.366608,287.145660 361.751129,285.662903 363.534882,284.103058 
	C366.627045,286.865173 369.841461,289.437958 372.639496,292.403564 
	C373.574768,293.394836 373.740509,295.387024 373.755707,296.926666 
	C373.850769,306.562927 373.803711,316.200623 373.803711,326.145569 
	C383.522369,326.145569 392.883667,327.013489 402.004211,325.903320 
	C411.264679,324.776093 415.441742,330.267456 420.078064,336.022369 
	C415.568176,342.929993 410.576813,347.562103 401.420685,346.572693 
	C392.539276,345.612976 383.472931,346.364532 373.926331,346.364532 
	C373.926331,357.200256 373.919189,367.643524 373.930878,378.086761 
	C373.934174,381.027252 366.915344,390.326263 364.168945,390.910980 
	C363.711975,391.008270 363.167480,390.966248 362.724274,390.812836 
	C359.267944,389.616760 353.174805,380.489136 353.176178,376.581482 
	C353.179626,366.772064 353.177307,356.962677 353.177307,346.310242 
	C346.876099,346.310242 340.636932,346.304504 334.397736,346.313568 
	C332.398926,346.316498 330.337524,346.047638 328.411957,346.435333 
	C318.873901,348.356018 312.562866,344.100250 307.652039,335.015411 
	C310.397705,332.504242 313.456909,329.517944 316.752228,326.820099 
	C317.614777,326.113953 319.209869,326.117340 320.470062,326.111298 
	C331.130737,326.059967 341.791779,326.082001 353.145782,326.082001 
	C353.145782,324.325836 353.145782,322.398407 353.145325,319.974792 
z"/>
<path fill="#F9FAF6" opacity="1.000000" stroke="none" 
	d="
M373.841064,669.600220 
	C374.169891,677.424072 367.225433,679.349792 363.613403,684.796814 
	C360.388336,681.331665 357.449585,678.595520 355.070068,675.437988 
	C353.896942,673.881226 353.270630,671.554810 353.232758,669.560791 
	C353.049561,659.915466 353.150208,650.264771 353.150208,640.022644 
	C343.753357,640.022644 334.450409,639.594238 325.210541,640.172852 
	C319.026978,640.560181 314.723389,638.529358 311.336426,633.665344 
	C310.304443,632.183350 309.061554,630.848267 307.773621,629.272583 
	C312.619415,623.517090 317.067993,618.497131 325.973572,619.581116 
	C334.659821,620.638367 343.575439,619.810913 353.193970,619.810913 
	C353.193970,615.017456 353.200958,610.447754 353.191833,605.878052 
	C353.184204,602.045471 353.166748,598.212830 353.138000,594.380310 
	C353.050629,582.740723 353.419434,582.047791 363.532501,575.008057 
	C363.687439,575.069397 363.856293,575.108398 363.995361,575.195129 
	C371.685608,579.992004 375.242981,586.382629 374.041077,595.908142 
	C373.070984,603.596436 373.844543,611.504639 373.844543,619.815796 
	C384.175476,619.815796 394.119812,620.117920 404.032684,619.690552 
	C409.120026,619.471191 412.991730,620.524536 416.088440,624.701599 
	C417.227448,626.238037 419.200623,627.156006 421.032593,628.536377 
	C417.922943,631.987000 415.865784,634.864868 413.215088,637.009094 
	C411.341980,638.524292 408.686554,639.812378 406.342926,639.878845 
	C395.723358,640.179871 385.090454,640.010620 373.841064,640.010620 
	C373.841064,649.927246 373.841064,659.537720 373.841064,669.600220 
z"/>
<path fill="#F9F9F6" opacity="1.000000" stroke="none" 
	d="
M607.752808,343.387268 
	C600.993713,336.269745 601.166931,336.424683 607.376404,329.482483 
	C609.895081,326.666656 612.459229,325.927490 616.047974,326.011810 
	C626.339600,326.253601 636.640564,326.096954 647.672058,326.096954 
	C647.672058,318.824738 648.357483,311.481628 647.502014,304.322693 
	C646.381653,294.947327 650.104858,288.794891 658.215088,284.303711 
	C660.849854,286.613434 663.904602,288.929535 666.459106,291.705750 
	C667.505432,292.842896 667.845337,294.969452 667.866943,296.654144 
	C667.992981,306.439972 667.928589,316.228241 667.928589,326.173096 
	C678.173950,326.173096 687.829102,326.530243 697.439148,326.026764 
	C702.458679,325.763794 705.981812,327.096771 708.978821,330.992859 
	C710.253052,332.649323 712.263428,333.739471 714.295654,335.373535 
	C710.901367,339.198120 708.432678,342.304291 705.586121,345.013519 
	C704.571472,345.979218 702.644653,346.350677 701.127747,346.366180 
	C690.302124,346.476776 679.474731,346.425201 667.945923,346.425201 
	C667.945923,354.916901 667.096069,363.276489 668.167786,371.382050 
	C669.417969,380.837402 664.742432,386.233673 657.573792,391.400299 
	C652.479919,386.580994 646.473572,382.898682 647.511475,373.797546 
	C648.503113,365.102356 647.725403,356.205444 647.725403,346.447723 
	C643.113220,346.447723 638.708435,346.433472 634.303833,346.451080 
	C627.638855,346.477692 620.962341,346.761047 614.315796,346.430725 
	C612.170288,346.324127 610.103760,344.629272 607.752808,343.387268 
z"/>
<path fill="#FBFBF8" opacity="1.000000" stroke="none" 
	d="
M629.997620,619.777954 
	C635.983948,619.777832 641.470947,619.777832 647.657410,619.777832 
	C647.657410,615.374451 647.657654,611.122864 647.657349,606.871338 
	C647.657104,603.041687 648.079285,599.154846 647.571655,595.393677 
	C646.337036,586.247192 649.688293,579.599182 658.146423,574.997498 
	C660.853210,577.540527 664.028687,580.216003 666.775574,583.276123 
	C667.706177,584.312866 667.836914,586.319641 667.850159,587.887146 
	C667.938416,598.352966 667.895996,608.819885 667.895996,619.751038 
	C677.825928,619.751038 687.470459,620.317871 697.006287,619.544312 
	C702.991333,619.058777 706.796570,621.176941 710.128967,625.465393 
	C711.137512,626.763184 712.174683,628.038696 713.419312,629.601379 
	C710.774475,632.566101 708.438477,635.624146 705.621948,638.145264 
	C704.332520,639.299438 702.104431,639.869019 700.290039,639.896057 
	C689.673706,640.054382 679.053711,639.973633 667.961914,639.973633 
	C667.961914,648.626160 667.369324,656.953979 668.142883,665.152954 
	C668.803467,672.155396 666.200928,676.900452 661.099487,680.936584 
	C659.928833,681.862610 658.807251,682.850525 656.914673,684.437500 
	C654.839905,682.028625 652.457886,679.848022 650.829773,677.203430 
	C649.288330,674.699524 647.709900,671.743652 647.590759,668.925537 
	C647.192139,659.496094 647.439575,650.039368 647.439575,640.027832 
	C637.990967,640.027832 628.693542,639.555298 619.472412,640.190735 
	C613.125610,640.628174 608.674377,638.640442 605.173340,633.645813 
	C604.132202,632.160522 602.920715,630.794739 601.436462,628.934570 
	C605.997986,624.305237 609.313782,618.361328 617.528687,619.705872 
	C621.418335,620.342529 625.502319,619.791199 629.997620,619.777954 
z"/>
<path fill="#F7F7F8" opacity="1.000000" stroke="none" 
	d="
M739.777344,375.110840 
	C740.882751,376.668823 741.795959,378.193848 742.062134,379.824463 
	C742.377869,381.758667 742.136414,383.783783 742.136414,386.283295 
	C737.839600,386.283295 733.787842,386.283295 729.225830,386.283295 
	C729.225830,391.320709 729.225830,395.889008 729.225830,400.753845 
	C725.664612,400.753845 722.604309,400.753845 719.074768,400.753845 
	C719.074768,396.011444 719.074768,391.260132 719.074768,386.178406 
	C714.349976,386.178406 710.080872,386.178406 705.507690,386.178406 
	C705.507690,382.578857 705.507690,379.318237 705.507690,375.629944 
	C709.711121,375.629944 713.942322,375.629944 718.783508,375.629944 
	C718.783508,370.709961 718.783508,366.018280 718.783508,361.083862 
	C722.450500,361.083862 725.507751,361.083862 729.009277,361.083862 
	C729.009277,365.881287 729.009277,370.475342 729.009277,375.124634 
	C732.732788,375.124634 736.015808,375.124634 739.777344,375.110840 
z"/>
<path fill="#F8F7F7" opacity="1.000000" stroke="none" 
	d="
M277.997070,378.276367 
	C278.935181,377.026703 279.794983,375.677521 280.817413,375.540283 
	C284.061035,375.104950 287.365326,375.121948 290.977539,374.948120 
	C290.977539,370.301544 290.977539,365.872528 290.977539,361.101685 
	C294.370422,361.101685 297.427094,361.101685 300.975006,361.101685 
	C300.975006,365.719757 300.975006,370.290344 300.975006,375.277222 
	C305.506714,375.277222 309.575287,375.277222 313.867462,375.277222 
	C313.867462,379.141479 313.867462,382.574921 313.867462,386.420959 
	C309.681213,386.420959 305.598175,386.420959 301.040283,386.420959 
	C301.040283,391.398956 301.040283,395.981110 301.040283,400.795593 
	C297.630676,400.795593 294.692139,400.795593 291.228943,400.795593 
	C291.228943,396.129639 291.228943,391.394928 291.228943,386.357117 
	C286.642639,386.357117 282.566010,386.357117 277.993164,386.357117 
	C277.993164,383.613403 277.993164,381.172455 277.997070,378.276367 
z"/>
<path fill="#F5F5F4" opacity="1.000000" stroke="none" 
	d="
M311.329346,589.102417 
	C307.969666,596.014709 301.948730,598.442627 296.216187,595.518250 
	C290.938568,592.825989 288.750275,586.313660 291.382111,581.132202 
	C294.064423,575.851379 300.462280,573.656128 305.807709,576.182434 
	C310.106567,578.214111 312.190186,582.845154 311.329346,589.102417 
z"/>
<path fill="#F6F6F6" opacity="1.000000" stroke="none" 
	d="
M713.862915,576.630127 
	C718.495789,574.267639 722.628784,574.566223 726.126282,577.896851 
	C729.302734,580.921875 730.803284,584.718018 729.464844,589.178284 
	C728.122375,593.652100 724.880432,595.908813 720.417053,596.564331 
	C715.960205,597.218872 711.453796,594.634766 709.524353,590.411255 
	C707.443604,585.856689 708.820190,581.196106 713.862915,576.630127 
z"/>
<path fill="#F6F7F7" opacity="1.000000" stroke="none" 
	d="
M416.532776,682.859619 
	C417.750732,688.314819 416.321228,692.685364 411.802673,695.188721 
	C407.832428,697.388367 403.470001,697.242737 399.735748,694.094482 
	C396.054932,690.991455 394.907379,686.896057 396.374573,682.459351 
	C397.784058,678.197205 401.116608,675.466492 405.645874,675.313293 
	C410.693298,675.142578 414.593384,677.410706 416.532776,682.859619 
z"/>
<path fill="#F6F7F7" opacity="1.000000" stroke="none" 
	d="
M604.818176,689.789673 
	C603.290039,683.150635 605.314880,678.287903 610.199341,676.169678 
	C614.952881,674.108093 620.569885,675.723755 623.384460,679.962219 
	C626.197388,684.198059 625.469421,689.978943 622.048218,693.667297 
	C618.364624,697.638489 608.078491,697.761475 604.818176,689.789673 
z"/>
<path fill="#F6F7F5" opacity="1.000000" stroke="none" 
	d="
M622.364258,269.730316 
	C628.442932,276.703552 623.608337,287.543060 614.839294,287.345795 
	C609.685303,287.229797 606.276123,284.774567 604.566467,280.237610 
	C602.891296,275.791840 604.172791,271.747314 607.801331,268.622101 
	C611.511108,265.426819 615.594421,265.381287 619.785645,267.587250 
	C620.646118,268.040100 621.334656,268.819458 622.364258,269.730316 
z"/>
<path fill="#F6F7F7" opacity="1.000000" stroke="none" 
	d="
M416.953400,274.544250 
	C417.166992,280.898285 415.004639,285.463867 410.729797,286.653381 
	C406.675537,287.781555 402.508270,287.753845 399.277496,284.157654 
	C396.430573,280.988800 395.061554,277.521759 396.628723,273.274689 
	C398.220245,268.961609 401.283142,266.440704 405.822449,266.103058 
	C410.359406,265.765594 413.790771,267.779266 415.904510,271.869110 
	C416.281921,272.599304 416.558441,273.381683 416.953400,274.544250 
z"/>
<path fill="#F6F7F7" opacity="1.000000" stroke="none" 
	d="
M619.730225,594.873047 
	C614.962036,597.009460 610.743896,597.138977 606.969666,593.558838 
	C603.705017,590.462097 603.025757,586.493896 604.313660,582.548889 
	C605.608643,578.582642 608.582520,575.895020 613.024902,575.305542 
	C617.622314,574.695435 621.828735,577.128052 623.819153,581.618103 
	C626.095154,586.752686 625.067200,590.327087 619.730225,594.873047 
z"/>
<path fill="#F7F8F8" opacity="1.000000" stroke="none" 
	d="
M613.315125,718.052734 
	C620.407776,718.373047 624.333618,721.936401 624.942749,728.199341 
	C625.412598,733.030334 621.912781,737.944153 617.261902,738.983398 
	C611.394836,740.294434 606.394226,737.691528 604.458984,732.319153 
	C602.197327,726.040222 605.414062,720.628235 613.315125,718.052734 
z"/>
<path fill="#F5F6F6" opacity="1.000000" stroke="none" 
	d="
M415.726501,591.361084 
	C411.291168,596.314148 406.275665,597.655762 401.829102,595.349915 
	C397.673431,593.194885 395.281097,587.960938 396.450134,583.581848 
	C398.165619,577.155823 403.822479,573.789307 409.738831,575.673523 
	C416.094116,577.697510 418.676178,584.092834 415.726501,591.361084 
z"/>
<path fill="#F8F8F6" opacity="1.000000" stroke="none" 
	d="
M400.934113,719.690674 
	C409.427002,716.574524 415.836578,719.534424 417.038452,726.742676 
	C417.869568,731.727600 415.681641,735.892456 411.039978,738.161133 
	C406.958893,740.155823 401.832306,739.133667 398.796265,735.720032 
	C395.519348,732.035583 395.158447,727.095215 397.975586,722.867798 
	C398.699005,721.782227 399.740784,720.908752 400.934113,719.690674 
z"/>
<path fill="#F6F7F7" opacity="1.000000" stroke="none" 
	d="
M605.585754,387.148560 
	C603.283203,381.330475 604.027161,376.868500 607.706787,373.803802 
	C611.227234,370.871674 615.251160,370.404572 619.314941,372.388855 
	C623.655701,374.508392 625.439453,378.304443 624.998108,383.028168 
	C624.589539,387.401154 622.082458,390.592468 617.979492,391.721069 
	C613.210754,393.032776 608.752991,392.074799 605.585754,387.148560 
z"/>
<path fill="#F6F6F6" opacity="1.000000" stroke="none" 
	d="
M410.598969,372.132111 
	C415.870514,375.548523 418.102997,379.826630 416.778778,384.323029 
	C415.465363,388.782959 412.680481,391.812714 407.634766,392.127014 
	C402.270538,392.461182 398.648529,390.322662 396.674042,385.450226 
	C395.089081,381.539001 395.766785,377.934174 398.493530,374.815063 
	C401.693817,371.154236 405.698517,370.334167 410.598969,372.132111 
z"/>
<path fill="#070A0C" opacity="1.000000" stroke="none" 
	d="
M548.081970,668.000000 
	C548.082031,690.801392 548.082031,713.102783 548.082031,735.708618 
	C540.502136,735.708618 533.234070,735.708618 525.498901,735.708618 
	C525.498901,656.750366 525.498901,577.692322 525.498901,498.321625 
	C582.461792,498.321625 639.520813,498.321625 696.820312,498.321625 
	C696.820312,505.877716 696.820312,513.275269 696.820312,520.944458 
	C647.320740,520.944458 598.051392,520.944458 548.081909,520.944458 
	C548.081909,569.975342 548.081909,618.737671 548.081970,668.000000 
z"/>
<path fill="#05080B" opacity="1.000000" stroke="none" 
	d="
M472.982452,610.000000 
	C472.982452,580.205872 472.982452,550.911804 472.982452,521.122375 
	C423.660126,521.122375 374.627960,521.122375 325.303040,521.122375 
	C325.303040,513.359436 325.303040,506.086792 325.303040,498.408081 
	C382.041046,498.408081 438.892822,498.408081 495.949707,498.408081 
	C495.949707,577.485718 495.949707,656.386902 495.949707,735.673950 
	C488.443665,735.673950 481.052643,735.673950 472.982452,735.673950 
	C472.982452,693.997681 472.982452,652.248840 472.982452,610.000000 
z"/>
<path fill="#080B0D" opacity="1.000000" stroke="none" 
	d="
M647.999756,472.680054 
	C606.905457,472.680054 566.311096,472.680054 525.405273,472.680054 
	C525.405273,414.193237 525.405273,356.137665 525.405273,297.797424 
	C532.789307,297.797424 540.184265,297.797424 548.087769,297.797424 
	C548.087769,348.308777 548.087769,398.837555 548.087769,449.845612 
	C597.960022,449.845612 647.329773,449.845612 696.891235,449.845612 
	C696.891235,457.595612 696.891235,464.864471 696.891235,472.680054 
	C680.679932,472.680054 664.589905,472.680054 647.999756,472.680054 
z"/>
<path fill="#06090C" opacity="1.000000" stroke="none" 
	d="
M472.975708,377.000000 
	C472.978912,350.355896 472.978912,324.211761 472.978912,297.795532 
	C480.665344,297.795532 488.187866,297.795532 495.908112,297.795532 
	C495.908112,355.825500 495.908112,413.766632 495.908112,472.246613 
	C439.183594,472.246613 382.487976,472.246613 325.368958,472.246613 
	C325.368958,465.157043 325.368958,457.784668 325.368958,449.864502 
	C374.355377,449.864502 423.407776,449.864502 472.972534,449.864502 
	C472.972534,425.384308 472.972534,401.442169 472.975708,377.000000 
z"/>
</svg>