<svg version="1.1" id="Layer_1" xmlns="http://www.w3.org/2000/svg" xmlns:xlink="http://www.w3.org/1999/xlink" x="0px" y="0px"
	 width="100%" viewBox="0 0 1024 1024" enable-background="new 0 0 1024 1024" xml:space="preserve">
<path fill="#131212" opacity="1.000000" stroke="none" 
	d="
M188.753998,626.065979 
	C188.236618,624.299866 187.719269,622.533691 187.471344,620.342285 
	C187.950699,619.744568 188.160599,619.572021 188.370483,619.399475 
	C187.956757,619.268982 187.543045,619.138428 187.129349,619.007874 
	C186.546387,616.668762 185.963409,614.329590 185.799561,611.508301 
	C188.511093,608.111450 187.700653,605.326416 184.176880,604.009583 
	C184.049103,603.571472 183.921326,603.133301 184.178040,602.078979 
	C184.695679,598.990356 185.059235,596.505371 184.924805,594.047607 
	C184.011337,577.347961 182.865982,560.659912 182.091095,543.954407 
	C181.877869,539.357727 182.898865,534.717163 182.955338,530.091858 
	C183.094635,518.684814 183.003784,507.274872 183.003891,495.866089 
	C183.004059,478.293884 182.613754,460.710144 183.133286,443.153320 
	C183.506302,430.547577 181.476456,417.965302 183.732773,405.288879 
	C184.658875,400.085876 181.947250,394.339935 182.131454,388.882874 
	C183.120407,359.583862 179.700653,330.218048 183.826767,300.945496 
	C184.896881,293.353485 184.117050,285.479950 183.953537,277.740631 
	C183.781937,269.617584 183.213089,261.503021 183.035080,253.379974 
	C182.872742,245.971893 183.089127,238.556198 182.984711,231.146027 
	C182.703629,211.198441 182.296616,191.252518 182.060028,171.304520 
	C182.027054,168.524719 182.672318,165.736877 183.003601,162.952759 
	C194.464142,160.971390 205.907150,158.881149 217.388702,157.030167 
	C245.793350,152.450897 274.209198,147.940140 302.632507,143.477798 
	C338.115601,137.907089 373.615356,132.442169 409.098511,126.871727 
	C425.364105,124.318214 441.631287,121.756180 457.837463,118.860527 
	C460.598877,118.367134 463.237305,116.421829 465.624268,114.715950 
	C486.320312,99.925423 502.173676,80.883568 514.693420,58.294395 
	C515.497986,59.450279 516.268799,60.412128 516.884949,61.464588 
	C528.979065,82.122871 544.472473,99.627449 563.710938,114.042313 
	C570.243103,118.936661 577.425720,119.592163 584.663940,120.759499 
	C634.920166,128.864456 685.206299,136.784225 735.483826,144.757233 
	C771.803772,150.516876 808.125671,156.264420 844.444702,162.029892 
	C846.081787,162.289764 847.699219,162.673584 849.715271,163.077744 
	C849.715271,165.875916 849.715759,168.641403 849.715149,171.406906 
	C849.687927,296.545532 848.869019,421.691071 849.958496,546.820007 
	C850.525208,611.908752 832.831238,670.726257 798.629150,725.403320 
	C768.324768,773.849365 730.529236,815.657715 687.500122,852.979248 
	C645.620117,889.304321 600.051086,920.506104 553.226013,949.974243 
	C542.517639,956.713318 531.618042,963.157532 521.058105,970.119019 
	C516.716064,972.981445 513.493164,972.757141 509.072693,970.045410 
	C471.033936,946.710022 433.350555,922.852844 397.343018,896.439880 
	C355.331940,865.623108 315.671539,832.123291 281.421936,792.696655 
	C245.234680,751.039551 215.149918,705.536316 196.333725,653.225952 
	C195.094406,649.780579 194.070801,646.257568 193.317856,642.329407 
	C194.053131,641.312622 194.417419,640.737122 194.781677,640.161560 
	C193.877167,639.775879 192.972672,639.390137 192.068176,639.004395 
	C191.502792,637.323364 190.937408,635.642395 190.753555,633.505920 
	C193.018494,630.245239 192.397247,627.476257 189.103760,624.119629 
	C188.983688,624.787842 188.868835,625.426880 188.753998,626.065979 
M205.775894,580.225525 
	C206.124451,581.812317 206.473022,583.399048 207.040771,585.817078 
	C209.677551,615.119507 218.085403,642.890015 230.177399,669.517334 
	C250.914993,715.182800 280.702728,754.691406 314.866699,791.003296 
	C348.895355,827.171387 387.380249,858.193787 428.216583,886.253845 
	C456.719727,905.839355 485.846405,924.517395 514.363831,943.381958 
	C550.552124,921.609558 584.998779,899.560852 618.010559,875.294556 
	C671.416260,836.036804 720.446838,792.304382 759.740234,738.430054 
	C781.835632,708.135498 800.424255,676.004333 812.376404,640.288330 
	C819.560913,618.819153 822.932007,596.678406 824.994080,573.798279 
	C825.327393,572.743896 825.946899,571.690674 825.951111,570.634949 
	C826.015503,554.607605 826.037109,538.579773 825.927551,522.552917 
	C825.919128,521.316101 824.855286,520.086426 824.051270,517.962463 
	C824.038147,498.888550 823.986877,479.814545 824.024353,460.740723 
	C824.052368,446.487854 824.194946,432.235168 825.026123,417.731659 
	C825.349670,417.020203 825.949890,416.310669 825.954834,415.597015 
	C826.018494,406.431885 826.053833,397.265320 825.922607,388.101593 
	C825.906982,387.009491 824.865295,385.932068 824.062988,383.958496 
	C824.038757,339.943970 824.008423,295.929474 824.000732,251.914948 
	C824.000061,247.938278 824.145508,243.961578 824.975098,239.750031 
	C825.314758,239.054810 825.948120,238.360703 825.950745,237.664215 
	C826.007202,222.789825 826.028564,207.914917 825.917114,193.041138 
	C825.909180,191.978821 824.826477,190.924561 824.047485,189.178223 
	C824.390015,187.034821 823.789917,185.798767 821.330444,185.551834 
	C818.527161,185.270370 815.775330,184.511978 812.983887,184.070053 
	C770.256592,177.305984 727.527771,170.551270 684.796509,163.812134 
	C650.450317,158.395416 616.179749,152.396622 581.715088,147.881363 
	C566.806519,145.928192 553.602844,142.097198 542.908386,131.245575 
	C533.379944,121.577133 523.771545,111.987404 514.502441,102.668564 
	C507.583374,110.057587 500.611420,118.840958 492.282806,126.058914 
	C481.853546,135.097397 472.554688,145.091507 456.608185,146.822632 
	C424.053802,150.356689 391.774017,156.440033 359.393890,161.554428 
	C318.474976,168.017532 277.567474,174.552856 236.658203,181.076859 
	C226.525085,182.692841 216.404129,184.385086 206.073135,186.075729 
	C206.073135,195.557434 206.065933,204.538773 206.074219,213.520111 
	C206.186905,335.617249 206.301743,457.714386 205.775894,580.225525 
z"/>
<path fill="#060706" opacity="1.000000" stroke="none" 
	d="
M182.585419,162.893463 
	C182.672318,165.736877 182.027054,168.524719 182.060028,171.304520 
	C182.296616,191.252518 182.703629,211.198441 182.984711,231.146027 
	C183.089127,238.556198 182.872742,245.971893 183.035080,253.379974 
	C183.213089,261.503021 183.781937,269.617584 183.953537,277.740631 
	C184.117050,285.479950 184.896881,293.353485 183.826767,300.945496 
	C179.700653,330.218048 183.120407,359.583862 182.131454,388.882874 
	C181.947250,394.339935 184.658875,400.085876 183.732773,405.288879 
	C181.476456,417.965302 183.506302,430.547577 183.133286,443.153320 
	C182.613754,460.710144 183.004059,478.293884 183.003891,495.866089 
	C183.003784,507.274872 183.094635,518.684814 182.955338,530.091858 
	C182.898865,534.717163 181.877869,539.357727 182.091095,543.954407 
	C182.865982,560.659912 184.011337,577.347961 184.924805,594.047607 
	C185.059235,596.505371 184.695679,598.990356 184.257874,601.741760 
	C182.867050,589.621887 180.861282,577.224854 180.836487,564.823792 
	C180.579132,436.105713 180.642029,307.386993 180.607712,178.668427 
	C180.606598,174.506363 180.395599,170.339844 180.548492,166.185196 
	C180.590256,165.049881 181.601120,163.950211 182.585419,162.893463 
z"/>
<path fill="#060706" opacity="1.000000" stroke="none" 
	d="
M188.754059,626.283447 
	C188.868835,625.426880 188.983688,624.787842 189.103760,624.119629 
	C192.397247,627.476257 193.018494,630.245239 190.759216,633.121887 
	C189.840271,630.962524 189.297195,628.731689 188.754059,626.283447 
z"/>
<path fill="#060706" opacity="1.000000" stroke="none" 
	d="
M184.127136,604.376770 
	C187.700653,605.326416 188.511093,608.111450 185.829163,611.100830 
	C184.985580,609.031616 184.531479,606.887817 184.127136,604.376770 
z"/>
<path fill="#060706" opacity="1.000000" stroke="none" 
	d="
M192.046082,639.326416 
	C192.972672,639.390137 193.877167,639.775879 194.781677,640.161560 
	C194.417419,640.737122 194.053131,641.312622 193.348114,641.943726 
	C192.679581,641.215698 192.351791,640.432129 192.046082,639.326416 
z"/>
<path fill="#060706" opacity="1.000000" stroke="none" 
	d="
M187.084183,619.265991 
	C187.543045,619.138428 187.956757,619.268982 188.370483,619.399475 
	C188.160599,619.572021 187.950699,619.744568 187.515427,619.950684 
	C187.206375,619.830994 187.122696,619.677551 187.084183,619.265991 
z"/> 
<path fill="#040404" opacity="1.000000" stroke="none" 
	d="
M824.599121,239.867462 
	C824.180420,223.565506 824.137817,207.146133 824.169434,190.296661 
	C824.826477,190.924561 825.909180,191.978821 825.917114,193.041138 
	C826.028564,207.914917 826.007202,222.789825 825.950745,237.664215 
	C825.948120,238.360703 825.314758,239.054810 824.599121,239.867462 
z"/>
<path fill="#040404" opacity="1.000000" stroke="none" 
	d="
M824.550415,573.972046 
	C824.100586,556.027649 824.094482,537.909546 824.185181,519.322388 
	C824.855286,520.086426 825.919128,521.316101 825.927551,522.552917 
	C826.037109,538.579773 826.015503,554.607605 825.951111,570.634949 
	C825.946899,571.690674 825.327393,572.743896 824.550415,573.972046 
z"/>
<path fill="#040404" opacity="1.000000" stroke="none" 
	d="
M824.656311,417.857056 
	C824.224609,407.218414 824.162659,396.454437 824.199951,385.269104 
	C824.865295,385.932068 825.906982,387.009491 825.922607,388.101593 
	C826.053833,397.265320 826.018494,406.431885 825.954834,415.597015 
	C825.949890,416.310669 825.349670,417.020203 824.656311,417.857056 
z"/>
<path fill="#010101" opacity="1.000000" stroke="none" 
	d="
M206.095978,580.018555 
	C206.586563,581.287415 206.757080,582.763306 206.874588,584.612549 
	C206.473022,583.399048 206.124451,581.812317 206.095978,580.018555 
z"/>
<path fill="#121111" opacity="1.000000" stroke="none" 
	d="
M223.883148,584.993469 
	C223.760941,584.577698 223.638718,584.161926 223.968964,583.163574 
	C224.616318,580.455261 224.981277,578.329529 224.981750,576.203674 
	C225.009949,451.070465 225.008087,325.937256 225.009079,200.804016 
	C239.906433,198.227188 254.780762,195.507370 269.706085,193.104248 
	C297.944580,188.557617 326.211395,184.186844 354.468201,179.754059 
	C388.150696,174.470108 421.875122,169.433853 455.484955,163.722641 
	C462.262451,162.570938 466.649963,164.151001 471.139313,168.893280 
	C480.632233,178.921127 490.863556,188.260406 500.176178,198.445206 
	C508.006775,207.009186 512.428894,217.608185 515.017334,230.102875 
	C516.888428,224.347763 518.250671,219.700760 519.904175,215.159760 
	C524.378784,202.870758 533.338928,193.885208 542.458740,185.065918 
	C548.921448,178.816193 555.749573,172.925980 561.951721,166.433151 
	C565.013855,163.227509 568.112976,162.562424 572.127197,163.208466 
	C591.182861,166.275345 610.253052,169.251526 629.317749,172.261932 
	C660.369141,177.165039 691.428040,182.021301 722.469177,186.988083 
	C749.899170,191.377060 777.309814,195.887573 804.726074,200.362061 
	C805.371399,200.467377 805.982544,200.782211 806.807922,201.067978 
	C806.873962,202.003189 807.001587,202.965836 807.001526,203.928482 
	C806.998108,325.565491 806.887695,447.202637 807.026062,568.839478 
	C807.074036,610.967834 794.364258,649.406860 774.043396,685.617859 
	C744.255859,738.698303 704.140503,783.163574 657.911560,822.290100 
	C614.224121,859.265686 567.264160,891.672974 518.243774,921.154236 
	C515.846313,922.596069 514.336914,922.479126 512.075439,921.135010 
	C478.557159,901.212830 446.064667,879.749207 414.864624,856.362610 
	C379.756256,830.046509 346.188324,801.982422 317.005585,769.013245 
	C283.220734,730.844849 254.164276,689.694031 236.586273,641.332214 
	C234.372101,635.240417 232.660278,628.966003 230.984619,622.616333 
	C231.798019,622.309143 232.342499,622.161743 232.886993,622.014404 
	C231.985596,621.344971 231.084198,620.675476 230.182800,620.006042 
	C229.671188,618.149292 229.159576,616.292480 228.923950,614.311768 
	C229.763824,614.161438 230.327713,614.135132 230.891602,614.108765 
	C229.808365,612.402039 228.725098,610.695251 227.641846,608.988525 
	C226.968552,605.987671 226.295258,602.986755 225.948029,599.344849 
	C226.935928,593.879333 228.992981,588.811462 223.883148,584.993469 
M489.743744,603.275208 
	C489.963104,604.555969 490.182495,605.836670 490.685394,608.002319 
	C490.657867,632.498291 490.682465,656.994446 490.582336,681.490173 
	C490.526489,695.150146 490.915924,708.856262 489.936432,722.457520 
	C488.560242,741.567688 479.643433,756.610046 462.870575,766.557251 
	C462.138367,766.991455 461.505585,767.593445 460.264282,768.550903 
	C475.428467,770.420776 487.783508,776.054688 497.269012,787.333252 
	C506.558533,798.378967 511.645233,811.414978 515.371765,826.170410 
	C521.997986,795.481934 536.876282,773.790039 569.406738,768.395630 
	C566.009521,765.973083 563.077637,764.139771 560.435608,761.955811 
	C545.615051,749.704407 539.858215,733.687317 539.907410,714.730896 
	C540.088501,644.908081 539.926331,575.084473 539.905884,505.261108 
	C539.905457,503.840698 540.056824,502.420197 540.136841,501.009155 
	C566.366638,501.009155 592.198669,500.542999 617.997864,501.259705 
	C627.138306,501.513641 636.452515,503.856445 645.232605,506.666626 
	C656.718750,510.342834 664.099609,519.178162 669.288757,530.773315 
	C679.391235,503.054016 699.500977,488.060486 727.901306,481.320190 
	C705.269653,472.592407 685.777222,462.104767 682.204224,436.043304 
	C679.931824,437.807587 677.999390,439.651764 675.763306,440.987762 
	C662.223022,449.077820 647.620422,453.829224 631.763916,453.921326 
	C602.935669,454.088776 574.106323,454.044403 545.277405,454.087921 
	C543.660095,454.090363 542.042786,454.088226 540.575439,454.088226 
	C540.293518,453.411530 540.064331,453.118317 540.064514,452.825226 
	C540.082703,420.498627 539.871948,388.169037 540.268066,355.846863 
	C540.437195,342.044067 546.131226,330.287628 557.085022,321.551636 
	C560.763184,318.618195 564.971008,316.348816 569.112854,313.661621 
	C537.480469,303.426849 523.742981,278.411652 515.155212,248.624695 
	C506.379608,278.241821 492.481415,303.430695 462.095612,313.389282 
	C467.781982,317.932098 473.876831,321.775818 478.671997,326.848175 
	C488.275513,337.006866 490.468719,350.046631 490.543060,363.453308 
	C490.704773,392.614441 490.660950,421.776764 490.674591,450.938599 
	C490.675049,451.891113 490.386719,452.843750 490.233582,453.792908 
	C457.868408,453.792908 425.715485,454.199341 393.580933,453.607727 
	C379.240967,453.343719 365.915192,448.104797 353.642822,440.575073 
	C351.610260,439.328003 349.689606,437.898499 347.604858,436.476624 
	C344.292328,462.304626 324.839325,471.881775 303.649353,481.223724 
	C331.945374,488.148102 350.977020,504.362152 361.764252,530.845947 
	C365.728516,520.040100 372.575500,512.258911 382.653473,507.435638 
	C391.991180,502.966644 401.970612,501.138153 412.169373,501.036896 
	C437.330078,500.787079 462.494385,500.895813 487.657227,500.880249 
	C488.600800,500.879669 489.544495,501.085297 490.681976,501.217346 
	C490.681976,509.492859 490.708862,517.463379 490.676605,525.433594 
	C490.600433,544.249695 490.496094,563.065735 489.766785,582.244507 
	C489.988312,583.203064 490.209839,584.161560 490.706573,586.005127 
	C490.604675,591.628967 490.502808,597.252808 489.743744,603.275208 
M724.829407,298.339844 
	C708.988281,311.546997 693.107788,324.707336 677.321533,337.979706 
	C668.538025,345.364471 659.838257,352.853149 651.245056,360.458038 
	C646.934631,364.272766 646.875671,368.840973 650.656006,371.973022 
	C654.595764,375.237061 657.729248,373.011780 660.802734,370.491608 
	C700.286743,338.115540 739.765564,305.733154 779.247681,273.354797 
	C785.123840,268.535858 785.135620,268.469177 780.183105,262.508820 
	C779.757812,261.997009 779.271912,261.531250 778.883362,260.993988 
	C776.628235,257.875946 774.606750,257.425232 771.277283,260.217285 
	C756.111755,272.934753 740.692566,285.349792 724.829407,298.339844 
M329.630463,337.869843 
	C343.374542,348.902527 357.104767,359.952606 370.872040,370.956329 
	C374.524811,373.875824 378.114746,373.792755 380.540222,370.919586 
	C383.224091,367.740356 382.894165,363.933563 379.593201,360.748627 
	C378.397125,359.594604 377.103577,358.539154 375.828156,357.470154 
	C360.019958,344.220795 344.268707,330.902649 328.380524,317.749878 
	C305.187744,298.550049 281.849579,279.525513 258.699371,260.274811 
	C255.501785,257.615845 253.353043,257.740082 251.025772,260.956360 
	C250.248886,262.029999 249.257965,262.945984 248.418259,263.977478 
	C245.838608,267.146271 245.705856,269.453247 249.437241,272.458221 
	C276.118988,293.945892 302.577332,315.710907 329.630463,337.869843 
M306.491608,225.952515 
	C319.463837,223.959152 332.437958,221.978058 345.407928,219.969971 
	C377.263977,215.037781 409.121063,210.111771 440.970062,205.134186 
	C445.964417,204.353622 448.882721,200.895752 448.020081,196.729309 
	C446.958374,191.601624 443.067322,192.299225 439.328705,192.867340 
	C404.976929,198.087189 370.621033,203.280182 336.272919,208.523987 
	C315.728149,211.660477 295.193115,214.861008 274.658325,218.062424 
	C270.089233,218.774750 267.621613,221.537598 268.084290,225.232513 
	C268.594666,229.308212 271.739532,231.258606 276.543457,230.511475 
	C286.232666,229.004562 295.924225,227.512650 306.491608,225.952515 
M676.777954,218.748978 
	C690.123230,220.653381 703.474182,222.518677 716.812073,224.473495 
	C729.485596,226.330963 742.143188,228.296600 754.812561,230.183029 
	C758.585754,230.744858 761.619812,229.758224 762.148926,225.482117 
	C762.654663,221.394867 760.615967,218.826660 756.564087,217.973068 
	C754.935608,217.630005 753.285156,217.384720 751.638733,217.134216 
	C723.339905,212.828522 695.030884,208.588379 666.743286,204.210419 
	C641.252136,200.265274 615.782532,196.180420 590.307922,192.129196 
	C587.195862,191.634277 583.953918,192.054810 583.578979,195.410843 
	C583.299805,197.908920 584.666931,200.977509 586.209351,203.145782 
	C587.116455,204.421005 589.761414,204.665359 591.688843,204.978622 
	C619.760559,209.540955 647.843140,214.036514 676.777954,218.748978 
M333.708832,642.211548 
	C318.409882,655.274170 303.095520,668.318848 287.821472,681.410583 
	C283.273590,685.308655 283.271362,686.037354 287.131409,690.556396 
	C287.778442,691.313965 288.548401,691.972534 289.149963,692.761841 
	C292.093781,696.624451 294.742645,696.656311 298.532349,693.283447 
	C319.273193,674.824219 340.257904,656.639221 361.115295,638.310547 
	C368.234711,632.054260 375.304962,625.737366 382.251007,619.290161 
	C386.671936,615.186707 386.803131,611.711426 383.224792,608.190186 
	C379.529968,604.554260 376.267548,606.318176 373.128448,608.953003 
	C360.140778,619.854309 347.183899,630.792419 333.708832,642.211548 
M668.123352,637.381042 
	C688.640808,655.336426 709.182983,673.263672 729.662231,691.262634 
	C736.782715,697.520630 739.125488,697.280945 744.182678,689.259644 
	C744.875061,688.161499 745.391479,686.952332 746.313965,685.165833 
	C744.895691,684.005432 743.458435,682.878662 742.074402,681.689819 
	C723.278381,665.543396 704.516418,649.357056 685.688171,633.248352 
	C675.958252,624.923828 666.185791,616.645569 656.289917,608.520142 
	C651.529541,604.611389 647.900940,605.327576 645.158813,610.088440 
	C643.120667,613.627075 644.912659,616.183411 647.319031,618.416626 
	C654.023010,624.638245 660.834656,630.743835 668.123352,637.381042 
M387.350525,755.917419 
	C403.365540,725.072388 419.403107,694.238953 435.374298,663.371277 
	C438.170807,657.966431 437.470276,655.539917 432.889435,653.038208 
	C428.945587,650.884338 426.320831,651.987244 423.350525,657.107056 
	C422.517487,658.542969 421.801483,660.046448 421.019440,661.512329 
	C404.663544,692.170593 388.327332,722.839417 371.918243,753.469177 
	C370.102020,756.859436 369.075470,759.467712 373.207153,762.255249 
	C380.102081,766.907166 381.812531,766.725037 385.726013,759.281921 
	C386.190247,758.399109 386.602478,757.488831 387.350525,755.917419 
M655.612854,763.084106 
	C660.079041,760.893433 661.313416,757.942871 658.174927,753.585999 
	C656.830627,751.719727 656.023438,749.470764 654.935120,747.415283 
	C639.075378,717.461365 623.231750,687.498962 607.324768,657.570129 
	C604.361938,651.995605 601.175598,650.602295 597.082397,652.682312 
	C593.047302,654.732849 592.280640,657.918457 595.244568,663.662292 
	C611.990723,696.114624 628.821106,728.523743 645.734314,760.889404 
	C648.638367,766.446777 649.228149,766.411438 655.612854,763.084106 
M463.163361,616.416199 
	C425.760010,600.756104 399.544373,573.688965 383.140015,536.922302 
	C379.390106,538.805847 376.311554,540.352173 373.259521,541.885193 
	C377.346039,574.641968 431.998260,625.826721 468.810059,631.447815 
	C471.111298,621.250610 470.437347,619.249451 463.163361,616.416199 
M653.940125,551.348938 
	C655.172302,548.330261 656.404480,545.311523 657.690002,542.162109 
	C653.636719,540.195129 650.254089,538.553589 646.522217,536.742615 
	C645.194214,539.580505 644.002808,542.112610 642.822998,544.650085 
	C636.667786,557.887939 628.629639,569.898071 618.672546,580.537109 
	C603.544250,596.701477 585.507202,608.683350 565.038513,617.090942 
	C563.479248,617.731445 561.414246,619.259766 561.196472,620.631287 
	C560.645630,624.100159 561.013733,627.715027 561.013733,632.239990 
	C603.972961,618.293457 634.441223,591.710815 653.940125,551.348938 
M386.156860,413.790680 
	C401.298309,378.897247 427.206421,354.894989 462.736816,339.583191 
	C458.618835,337.616241 455.557587,336.315765 452.655762,334.724518 
	C449.458527,332.971344 446.689331,333.102661 443.305969,334.761353 
	C409.718933,351.227661 386.783478,377.267090 373.373108,411.952423 
	C370.496033,419.393982 370.921692,420.230316 378.258484,423.584015 
	C379.271362,424.046997 380.365570,424.332001 381.853821,424.849487 
	C383.265625,421.247681 384.584747,417.882294 386.156860,413.790680 
M649.432007,424.189880 
	C659.343872,420.513824 659.630798,420.209991 655.849976,410.327576 
	C643.150024,377.131409 620.404480,352.877106 589.215576,336.336823 
	C581.326721,332.153168 575.209656,333.503326 568.671509,340.114197 
	C568.752075,340.250122 568.799744,340.453339 568.918396,340.511353 
	C569.807495,340.946045 570.711731,341.349609 571.609131,341.767609 
	C606.408264,357.976685 632.244446,382.758728 645.853210,419.279358 
	C646.527283,421.088287 647.712830,422.706635 649.432007,424.189880 
M613.191040,385.313049 
	C598.863464,369.579224 582.235657,357.350525 561.372986,350.688904 
	C561.270874,352.690002 561.398621,354.044922 561.104736,355.301239 
	C559.539917,361.990295 562.641113,365.212982 568.622620,367.936707 
	C582.725525,374.358612 594.526245,384.053894 604.596802,395.840820 
	C613.453857,406.207397 619.644287,418.087036 624.787048,430.624176 
	C625.505554,432.375732 627.679993,434.778259 629.157776,434.762421 
	C637.200256,434.676453 638.861267,431.993652 636.059998,424.491486 
	C630.779541,410.349426 623.643433,397.267822 613.191040,385.313049 
M426.330261,394.844086 
	C437.408417,382.051514 450.933289,372.622223 466.241516,365.573944 
	C467.636230,364.931793 469.464905,363.319489 469.532898,362.072662 
	C469.724915,358.550476 469.105438,354.984039 468.783356,351.170563 
	C466.800201,351.569702 465.490173,351.767456 464.218323,352.107788 
	C462.937408,352.450562 461.647430,352.830536 460.441742,353.372772 
	C428.110107,367.912109 406.045502,391.984650 394.040710,425.264130 
	C391.824280,431.408447 392.376007,431.458099 398.610077,434.142639 
	C403.746948,436.354675 404.613983,432.980621 405.856140,429.633301 
	C410.526489,417.047943 417.168549,405.617706 426.330261,394.844086 
M621.934937,532.383606 
	C610.392761,555.500305 593.989380,574.278625 570.777100,585.913818 
	C562.528687,590.048340 559.510498,594.918640 561.018799,603.425049 
	C561.105164,603.912170 561.167847,604.403503 561.241150,604.889893 
	C584.829895,603.033203 630.230774,557.662537 636.558105,529.379333 
	C634.225403,528.341858 631.773621,527.367859 629.431213,526.178528 
	C626.828674,524.857056 625.067383,525.291077 623.986633,528.130493 
	C623.516541,529.365906 622.793396,530.504883 621.934937,532.383606 
M407.551666,557.944885 
	C423.189911,580.021545 443.309814,596.253906 469.474457,606.181030 
	C469.474457,602.341553 469.171997,599.511414 469.547729,596.774414 
	C470.067688,592.986572 468.457977,591.313354 465.118256,589.796692 
	C445.719849,580.987610 429.971527,567.680725 418.186066,549.945190 
	C413.692413,543.182861 409.865967,535.944641 406.139465,528.715027 
	C403.071747,522.763611 399.445099,526.970337 396.061340,527.745850 
	C392.021576,528.671631 393.631012,531.502991 394.679260,533.579651 
	C398.711426,541.567932 402.949341,549.452393 407.551666,557.944885 
M561.740051,846.534973 
	C559.130432,849.239380 558.998413,852.308228 561.285217,855.037781 
	C563.833618,858.079346 566.882263,857.182922 569.732361,855.124634 
	C571.348999,853.957275 573.009644,852.849548 574.605103,851.654419 
	C590.314697,839.885925 606.026733,828.120544 621.712769,816.320801 
	C630.087158,810.021179 638.443176,803.696228 646.742432,797.298340 
	C649.564575,795.122803 650.728760,792.134888 648.577698,789.008118 
	C646.412598,785.860718 643.283386,785.146240 639.851013,787.275940 
	C638.721252,787.976868 637.624573,788.740112 636.565186,789.544006 
	C611.786255,808.347351 587.014526,827.160217 561.740051,846.534973 
M433.422699,835.050903 
	C434.995758,836.273743 436.547485,837.525208 438.145538,838.714478 
	C445.740662,844.366638 453.311981,850.051941 460.969208,855.618896 
	C464.078339,857.879333 467.226776,857.834961 469.767548,854.646118 
	C472.314026,851.450012 470.976074,848.781372 468.301727,846.443420 
	C467.553284,845.789185 466.767853,845.174622 465.974701,844.574524 
	C452.320435,834.244751 438.645630,823.942017 425.009979,813.587646 
	C413.625946,804.943054 402.380432,796.110657 390.825806,787.701904 
	C389.113342,786.455750 385.702942,786.283020 383.699371,787.113159 
	C382.216736,787.727417 380.936157,790.826660 381.053802,792.726685 
	C381.164520,794.514099 382.891724,796.613342 384.478210,797.833801 
	C400.533997,810.185974 416.706970,822.385742 433.422699,835.050903 
M764.482178,396.017609 
	C745.422913,401.340546 726.353027,406.625732 707.311218,412.010223 
	C701.839233,413.557617 699.636353,416.775970 701.120911,420.951111 
	C702.831116,425.760620 706.579102,425.445312 710.602051,424.433563 
	C723.660950,421.149292 736.746094,417.969543 749.806091,414.689850 
	C759.157959,412.341370 768.525024,410.036774 777.806091,407.430695 
	C781.842712,406.297272 782.282959,402.833710 780.621826,396.517029 
	C779.516418,392.313660 777.042847,392.367554 773.876160,393.257263 
	C770.993896,394.067017 768.136658,394.966034 764.482178,396.017609 
M318.406555,424.064575 
	C318.891205,424.185638 319.377625,424.300140 319.860260,424.428772 
	C323.653381,425.439728 327.286835,425.807983 328.934204,421.137848 
	C330.334412,417.168365 328.256134,413.967926 323.054810,412.452911 
	C300.855011,405.986786 278.633881,399.592743 256.383575,393.303223 
	C254.810669,392.858582 252.333282,392.793091 251.310287,393.707703 
	C246.656403,397.868225 248.818054,406.520325 254.748093,408.034485 
	C275.677704,413.378601 296.626831,418.646210 318.406555,424.064575 
M262.957489,628.543823 
	C263.843262,630.513000 264.631866,632.533142 265.632904,634.441833 
	C268.714081,640.316956 271.790527,646.197754 275.042999,651.978394 
	C276.706512,654.934937 279.345490,655.465881 282.314758,653.872681 
	C285.414612,652.209473 285.719086,649.613220 284.483429,646.636353 
	C283.910614,645.256470 283.249542,643.908447 282.554382,642.584839 
	C274.011505,626.319641 267.644104,609.215759 263.052216,591.454712 
	C260.739044,582.507568 258.749207,573.476929 256.501129,564.012390 
	C253.009750,564.978271 250.031433,565.802307 246.519638,566.773865 
	C248.938232,588.133118 254.765244,608.249695 262.957489,628.543823 
M781.955139,580.469971 
	C782.493591,577.024048 783.251892,573.590637 783.450378,570.125244 
	C783.519348,568.922180 782.498352,567.018494 781.456238,566.520264 
	C779.152588,565.418945 776.519592,565.006348 774.273804,564.382996 
	C773.656860,565.131165 773.331848,565.354553 773.261536,565.640564 
	C772.983765,566.769897 772.761169,567.914429 772.562134,569.061035 
	C767.929321,595.748047 760.132812,621.369995 746.986206,645.198853 
	C746.511414,646.059448 745.777283,647.182190 745.996582,647.942749 
	C746.592957,650.011536 747.134583,652.810730 748.647766,653.694641 
	C750.091980,654.538391 753.192261,653.972717 754.730835,652.866760 
	C756.627441,651.503540 757.823975,649.032776 759.043457,646.882080 
	C770.642517,626.426575 777.949402,604.467041 781.955139,580.469971 
M355.588379,577.082092 
	C351.804535,573.149475 348.177307,575.674133 344.779663,577.581909 
	C331.610016,584.976746 318.515228,592.505554 305.421051,600.033936 
	C300.674835,602.762695 296.079285,605.759277 291.284760,608.396851 
	C286.937256,610.788391 287.853973,613.744934 289.813934,617.101257 
	C291.780914,620.469727 293.757843,623.462219 298.280029,620.499084 
	C300.637054,618.954834 303.118347,617.600342 305.541260,616.156433 
	C320.794189,607.065857 336.057037,597.991821 351.293762,588.874146 
	C357.266235,585.300232 358.096008,583.250916 355.588379,577.082092 
M688.244507,594.215271 
	C696.066345,598.927002 703.871704,603.666504 711.714905,608.342285 
	C718.560486,612.423340 725.428833,616.467041 732.326172,620.459778 
	C736.082581,622.634338 738.710632,621.024048 740.453613,617.576965 
	C742.010193,614.498474 744.138855,611.395752 739.477600,608.732300 
	C720.583252,597.936279 701.767883,587.002075 682.920898,576.123169 
	C679.388000,574.083923 676.052551,574.227722 673.833923,577.879211 
	C671.691895,581.404663 672.710876,584.698120 676.096069,586.940857 
	C679.826538,589.412292 683.744141,591.601074 688.244507,594.215271 
M509.982513,879.508118 
	C509.982513,883.255493 509.982513,887.002869 509.982513,890.532959 
	C513.770691,890.532959 516.839233,890.532959 520.246521,890.532959 
	C520.246521,884.047241 520.246521,877.947449 520.246521,871.407959 
	C527.480896,871.407959 534.372864,871.407959 541.563965,871.407959 
	C541.563965,867.569092 541.563965,864.177307 541.563965,860.383850 
	C534.423340,860.383850 527.391663,860.383850 519.896851,860.383850 
	C519.896851,854.596069 519.896851,849.196472 519.896851,843.947205 
	C516.346680,843.947205 513.287354,843.947205 509.852539,843.947205 
	C509.852539,849.762939 509.852539,855.197266 509.852539,860.771606 
	C502.384430,860.771606 495.312317,860.771606 488.268982,860.771606 
	C488.268982,864.430115 488.268982,867.834167 488.268982,871.666870 
	C495.597290,871.666870 502.649872,871.666870 509.983459,871.666870 
	C509.983459,874.242432 509.983459,876.381226 509.982513,879.508118 
M721.735352,545.776306 
	C715.901917,543.865234 710.049683,542.009216 704.241699,540.023621 
	C700.396240,538.708984 697.310181,539.170471 695.723877,543.334045 
	C694.158813,547.441895 696.009338,550.245789 699.744080,551.643372 
	C718.858765,558.796021 738.023193,565.815735 757.174988,572.869141 
	C760.630005,574.141602 763.220337,573.274597 763.730347,569.389221 
	C764.177551,565.982483 767.908752,561.802673 761.503418,559.645386 
	C748.449524,555.248962 735.491028,550.569153 721.735352,545.776306 
M652.211914,270.763184 
	C653.537842,268.267273 654.715088,265.676605 656.228638,263.300232 
	C657.985413,260.542236 657.587158,258.570892 655.073975,256.454193 
	C649.074341,251.401077 646.797363,251.774887 643.011292,258.879578 
	C634.486145,274.877106 625.944641,290.865997 617.470459,306.890472 
	C616.468994,308.784119 615.593628,310.818665 615.107727,312.892822 
	C614.427979,315.794373 615.359253,318.645081 618.423279,319.162811 
	C620.656555,319.540161 623.539856,318.920380 625.426025,317.674408 
	C627.198242,316.503723 628.146973,313.987000 629.278748,311.962311 
	C636.828186,298.456940 644.329590,284.924713 652.211914,270.763184 
M333.007050,542.517822 
	C330.524139,541.736938 327.629913,539.707642 325.622192,540.369080 
	C306.383789,546.707397 287.288239,553.480713 268.181030,560.212402 
	C267.061920,560.606628 265.249176,561.918274 265.364685,562.461731 
	C266.109131,565.963135 266.832642,569.648865 268.619537,572.643738 
	C269.185211,573.591858 273.190857,573.182861 275.268066,572.424744 
	C293.038605,565.938538 310.738678,559.258240 328.433258,552.565735 
	C332.710022,550.948120 334.959808,548.056702 333.007050,542.517822 
M373.137177,259.735779 
	C373.665039,261.109711 374.043182,262.565552 374.743408,263.845154 
	C383.747711,280.300018 392.763458,296.748840 401.854736,313.155701 
	C405.184570,319.164978 408.161041,320.553040 412.212524,318.350891 
	C415.869568,316.363098 416.018097,313.381104 412.683197,307.031952 
	C404.267334,291.009308 395.812103,275.007324 387.405243,258.979950 
	C383.745514,252.002777 382.084198,251.615555 375.785797,256.564392 
	C374.885254,257.271973 374.161652,258.204742 373.137177,259.735779 
M372.493378,689.159485 
	C383.531921,674.820740 394.619934,660.519531 405.570007,646.113525 
	C407.946655,642.986755 408.067841,639.632751 404.706665,636.858459 
	C400.989471,633.790405 397.832672,635.173706 395.298920,638.443359 
	C384.518646,652.354675 373.840088,666.344849 363.115082,680.299133 
	C361.136932,682.872864 360.820679,685.422363 363.228210,687.879700 
	C365.707458,690.410217 368.380493,692.265015 372.493378,689.159485 
M637.116394,641.378540 
	C636.282043,640.342590 635.468994,639.288635 634.609314,638.274109 
	C632.086182,635.296692 629.154541,633.690674 625.537170,636.342712 
	C621.798584,639.083618 622.008423,642.640198 624.533508,645.942871 
	C635.431396,660.196655 646.443420,674.363342 657.469421,688.518616 
	C659.681213,691.358154 662.342712,691.509827 665.345276,689.476990 
	C669.829407,686.441101 670.418945,684.095398 667.013550,679.680054 
	C657.267334,667.043091 647.398743,654.500488 637.116394,641.378540 
M427.943420,744.342896 
	C424.590668,755.630493 421.139008,766.890137 417.935150,778.219849 
	C416.704956,782.570068 418.721893,785.517517 423.200104,786.707947 
	C427.560883,787.867249 429.744324,785.621704 430.783081,781.691528 
	C431.292694,779.763306 431.786224,777.829834 432.348175,775.916687 
	C436.606354,761.420288 440.831482,746.913879 445.180298,732.444702 
	C446.346466,728.564575 444.929993,726.259888 441.293610,725.298950 
	C437.689667,724.346497 434.285797,724.324341 432.868439,728.892822 
	C431.345123,733.802917 429.703949,738.676575 427.943420,744.342896 
M600.045715,736.336426 
	C599.331848,734.118469 598.690430,731.873962 597.889038,729.688049 
	C596.185486,725.041687 593.415161,723.598328 589.016174,725.109314 
	C584.643738,726.611206 584.592102,729.646484 585.767700,733.548706 
	C590.604553,749.603882 595.289368,765.705627 599.915222,781.823181 
	C601.060913,785.814941 602.970703,787.969360 607.421509,786.590820 
	C612.439270,785.036621 613.886475,782.962891 612.509705,778.236816 
	C608.507874,764.499939 604.370667,750.802368 600.045715,736.336426 
M419.151978,261.375793 
	C422.082672,271.923248 424.989563,282.477386 427.954041,293.015350 
	C429.457916,298.361267 431.759430,300.076141 435.977600,298.913788 
	C440.651001,297.626007 440.988220,294.256866 439.950470,290.232117 
	C435.675110,273.650635 431.394135,257.070282 427.225800,240.461746 
	C426.168396,236.248566 423.637939,235.135986 419.793121,236.266373 
	C416.104828,237.350723 412.716919,238.625717 414.311218,243.780396 
	C416.027985,249.331284 417.446472,254.974457 419.151978,261.375793 
M603.910767,287.457886 
	C604.732605,284.407562 605.526062,281.349274 606.381226,278.308380 
	C609.485779,267.270142 612.695068,256.260162 615.647705,245.181671 
	C616.153687,243.283401 616.374695,239.948959 615.380127,239.279556 
	C612.919128,237.623108 609.645630,236.367844 606.763000,236.488495 
	C605.351135,236.547607 603.897827,239.932419 602.812439,241.995712 
	C602.059021,243.427856 601.886597,245.169617 601.479614,246.779404 
	C597.733215,261.598450 593.993408,276.419220 590.249329,291.238861 
	C589.351379,294.792908 590.297119,297.743469 593.887085,298.846527 
	C597.737976,300.029724 600.783630,298.644501 602.037109,294.492371 
	C602.660461,292.427704 603.186218,290.333527 603.910767,287.457886 
M725.459717,370.937164 
	C729.002502,368.779266 732.559265,366.643768 736.084167,364.457092 
	C739.559937,362.300873 740.185303,359.346710 738.037537,355.973907 
	C735.922668,352.652740 733.088318,351.040161 729.237549,353.379242 
	C714.907593,362.083527 700.539612,370.726959 686.295654,379.570068 
	C681.835022,382.339355 680.871277,385.839081 683.092041,389.118103 
	C685.808899,393.129547 689.127075,392.256134 692.619385,390.192535 
	C703.335205,383.860413 714.078796,377.575439 725.459717,370.937164 
M663.840881,298.335205 
	C663.303467,298.971466 662.756958,299.600342 662.229919,300.245087 
	C654.536255,309.656769 646.779846,319.018402 639.191101,328.513916 
	C636.741455,331.579041 636.241150,334.933472 639.887695,337.659973 
	C642.820251,339.852692 645.835205,339.914520 648.330017,337.022583 
	C659.203796,324.417450 669.961182,311.711731 680.856262,299.125183 
	C684.028870,295.460052 681.908081,293.267761 679.156738,290.967651 
	C676.340088,288.613037 673.624634,287.129059 670.615417,290.717896 
	C668.584595,293.139709 666.400879,295.433258 663.840881,298.335205 
M314.240845,376.205719 
	C321.625366,380.697357 328.996704,385.210968 336.400360,389.670837 
	C339.791138,391.713348 343.294983,392.860535 345.955048,388.712708 
	C348.622986,384.552551 346.091980,381.658997 342.840179,379.563965 
	C329.419586,370.917419 315.941833,362.356781 302.380249,353.933380 
	C297.625336,350.980042 295.444702,351.647858 292.948761,355.957703 
	C290.676331,359.881470 291.517700,362.482849 296.111481,365.302521 
	C301.915314,368.864990 307.762329,372.357086 314.240845,376.205719 
M383.620819,319.871704 
	C375.545166,310.174866 367.440582,300.501923 359.408905,290.768829 
	C356.416931,287.142975 353.717773,288.589020 350.923462,290.950043 
	C348.116302,293.321930 346.270447,295.730530 349.512451,299.220154 
	C351.879303,301.767700 353.987823,304.554474 356.226868,307.221710 
	C364.121368,316.625854 371.993958,326.048645 379.933777,335.414398 
	C383.552643,339.683197 386.365387,340.269592 389.645538,337.685669 
	C393.201752,334.884338 393.257660,332.112885 389.698669,327.400299 
	C387.898773,325.016998 385.934479,322.757812 383.620819,319.871704 
M579.004639,251.577713 
	C580.675720,243.288208 582.368530,235.003006 584.010010,226.707642 
	C585.042542,221.489212 580.681763,221.323196 577.617859,220.296616 
	C574.349670,219.201569 571.924561,220.720322 571.317444,224.064194 
	C568.739075,238.266602 566.289124,252.492828 563.885681,266.726135 
	C563.300781,270.190033 564.203125,273.185089 568.161865,273.915680 
	C572.356506,274.689880 574.786865,272.577881 575.623535,268.521118 
	C576.729370,263.159271 577.797852,257.789703 579.004639,251.577713 
M261.903595,335.500000 
	C261.949585,330.169525 261.178741,324.672119 262.226410,319.546387 
	C263.944641,311.140381 258.705353,307.639374 252.867172,303.448883 
	C252.480499,305.091644 251.969925,306.323639 251.930222,307.570587 
	C251.374176,325.037781 250.807190,342.505371 250.437729,359.976990 
	C250.362762,363.521484 252.276749,366.153717 256.211487,366.032227 
	C260.232178,365.908020 262.086182,363.545166 262.027466,359.488556 
	C261.916656,351.826721 261.935944,344.162964 261.903595,335.500000 
M449.086975,221.424011 
	C448.240479,223.293274 446.397034,225.348007 446.704865,227.002502 
	C449.218048,240.511200 452.178253,253.936020 454.897186,267.407623 
	C455.694733,271.359436 456.969299,274.560577 461.877075,273.879822 
	C465.933655,273.317108 467.507141,270.413757 466.551788,265.182983 
	C464.197784,252.294113 461.784790,239.416031 459.398285,226.533096 
	C458.150635,219.798035 456.646393,218.948425 449.086975,221.424011 
M780.098999,354.420502 
	C779.470581,337.587585 780.866516,320.634369 777.628845,303.483490 
	C770.957581,307.273071 766.737732,311.159088 767.880554,319.393890 
	C769.040955,327.756226 768.600403,336.345032 768.790100,344.836243 
	C768.905396,349.997314 768.767273,355.166046 768.970337,360.322388 
	C769.103516,363.702179 770.818909,366.090668 774.502869,366.008789 
	C777.988892,365.931335 780.075928,364.047424 780.166077,360.385529 
	C780.207031,358.721680 780.148987,357.055389 780.098999,354.420502 
M287.427826,522.938782 
	C289.711273,522.522949 292.065735,522.333374 294.263062,521.643433 
	C298.620209,520.275330 300.149902,515.140686 296.670288,512.307068 
	C294.694885,510.698395 291.266663,509.966766 288.634644,510.234619 
	C279.227203,511.192017 269.887909,512.802063 260.507233,514.047607 
	C256.404419,514.592407 254.027206,516.562378 254.297562,520.869019 
	C254.572403,525.246887 257.354980,527.632812 261.997742,526.992126 
	C270.214752,525.858215 278.381378,524.359192 287.427826,522.938782 
M774.893799,525.681702 
	C778.452942,519.290100 776.751343,515.138062 770.084045,514.128235 
	C760.735229,512.712280 751.373047,511.385437 742.021545,509.987091 
	C738.032471,509.390594 734.523621,509.721497 733.697571,514.599365 
	C732.920593,519.187927 735.485413,521.357666 739.665283,522.078674 
	C749.297180,523.740051 758.921204,525.456665 768.580933,526.939026 
	C770.417175,527.220886 772.403137,526.526672 774.893799,525.681702 
M264.992432,440.558655 
	C262.013336,440.853607 258.531006,440.331909 256.240204,441.743713 
	C254.820877,442.618378 254.245102,446.830963 255.066406,448.807281 
	C255.856049,450.707428 258.812317,452.574554 261.025177,452.864624 
	C270.243347,454.072968 279.550385,454.584198 288.803467,455.554810 
	C292.720703,455.965729 295.895386,455.464691 296.836761,451.042419 
	C297.612854,447.396362 295.104950,444.421844 290.593658,443.802856 
	C282.364502,442.673798 274.106781,441.752869 264.992432,440.558655 
M765.038147,440.678284 
	C756.981079,441.714447 748.920471,442.723999 740.868286,443.796844 
	C736.046143,444.439392 733.991638,446.792511 734.781921,450.903381 
	C735.619629,455.260986 738.672546,456.151123 742.624268,455.726959 
	C751.688660,454.753845 760.791077,454.085907 769.819092,452.859894 
	C771.895691,452.577850 774.993835,450.855347 775.386719,449.249115 
	C775.967957,446.872467 775.383240,443.087158 773.749878,441.609039 
	C772.122803,440.136536 768.589661,440.770142 765.038147,440.678284 
M335.742279,711.241577 
	C332.306061,715.082031 328.860504,718.914185 325.436584,722.765625 
	C322.626953,725.926086 324.071198,728.579956 326.540833,731.012756 
	C329.271210,733.702454 331.975342,733.125244 334.349060,730.554321 
	C340.671875,723.706604 346.920868,716.790649 353.182190,709.886353 
	C355.734924,707.071533 355.743073,704.176941 353.071045,701.486633 
	C350.083618,698.478760 347.048462,699.190002 344.350677,701.912781 
	C341.540680,704.748779 338.907990,707.760559 335.742279,711.241577 
M685.613220,718.886719 
	C689.104065,722.677368 692.627991,726.438232 696.074890,730.268372 
	C698.710938,733.197388 701.523132,733.246033 704.300903,730.713257 
	C707.073364,728.185303 707.320190,725.306458 704.736389,722.393799 
	C698.666931,715.551697 692.630310,708.679993 686.505127,701.888123 
	C683.877075,698.973999 680.872864,698.357788 677.846130,701.338562 
	C674.921631,704.218628 675.289368,707.263977 677.813110,710.188416 
	C680.203003,712.957947 682.683228,715.649658 685.613220,718.886719 
M700.398560,257.892792 
	C697.254883,261.314514 693.944824,264.600952 691.018188,268.199188 
	C688.502319,271.292389 689.276917,274.546234 692.083496,277.036865 
	C694.642395,279.307739 697.437439,278.633850 699.613403,276.300659 
	C706.180969,269.258636 712.694275,262.163300 719.095947,254.970566 
	C721.689270,252.056808 721.006348,249.240677 718.108704,246.778595 
	C715.366516,244.448532 712.727234,244.329880 710.228149,247.022125 
	C707.065247,250.429565 703.984497,253.913300 700.398560,257.892792 
M323.478210,268.040771 
	C326.040619,270.854156 328.240936,274.202301 331.303955,276.276367 
	C333.084381,277.481934 336.866364,277.616669 338.643188,276.490540 
	C341.166473,274.891327 342.114319,271.519196 339.606903,268.671082 
	C333.256500,261.457794 326.843506,254.297943 320.354645,247.209061 
	C317.900055,244.527466 315.008148,243.879593 312.109680,246.655731 
	C309.171936,249.469528 309.289215,252.378647 311.999451,255.343491 
	C315.689026,259.379547 319.320618,263.468567 323.478210,268.040771 
M444.853790,705.463379 
	C444.642792,708.515442 445.682526,710.630493 448.985016,711.174988 
	C452.463043,711.748413 454.872620,710.476013 455.931427,707.096375 
	C456.722961,704.569824 457.308929,701.976868 457.936981,699.401428 
	C458.755554,696.044739 456.545746,694.367920 454.035278,693.333923 
	C451.179016,692.157532 448.627350,693.207825 447.446136,696.070557 
	C446.319183,698.801697 445.730804,701.755066 444.853790,705.463379 
M574.168701,706.165527 
	C575.433167,709.872131 577.654175,712.356812 581.871460,710.909973 
	C586.410156,709.352905 585.516357,705.613281 584.666443,702.189392 
	C584.153503,700.122986 583.384583,698.100647 582.540833,696.140259 
	C581.182007,692.983032 578.742981,692.308472 575.629883,693.435669 
	C572.608521,694.529663 571.603210,696.625061 572.431396,699.675354 
	C572.949036,701.581970 573.469116,703.487854 574.168701,706.165527 
M770.822388,481.399933 
	C769.089233,485.281708 770.926758,488.384430 774.173096,489.468475 
	C776.206238,490.147400 779.775635,489.001617 781.431641,487.404999 
	C784.145752,484.788269 782.975525,481.380280 780.213989,479.202911 
	C776.901428,476.590973 773.736450,477.379028 770.822388,481.399933 
M255.934769,478.003998 
	C250.540863,477.507599 247.779709,479.548523 247.879730,483.957886 
	C247.964432,487.691650 251.067001,490.789307 254.704254,489.951324 
	C256.624298,489.508942 259.578857,487.390320 259.567566,486.049561 
	C259.545868,483.468903 257.747711,480.903198 255.934769,478.003998 
M278.112488,348.967957 
	C280.259827,350.041382 282.329926,351.599274 284.590912,351.959534 
	C285.550415,352.112427 287.566986,349.931885 287.956116,348.500122 
	C288.865540,345.153900 287.411804,342.356110 283.782440,342.012665 
	C279.658264,341.622375 277.829865,344.170166 278.112488,348.967957 
M751.125793,350.881287 
	C753.522217,348.353760 753.620361,345.460602 750.904724,343.565155 
	C749.394104,342.510803 746.075562,342.174652 744.817505,343.139374 
	C743.469727,344.172791 742.686707,347.403259 743.252563,349.161407 
	C744.363220,352.612244 747.353638,353.087402 751.125793,350.881287 
M489.460388,448.589386 
	C489.460388,448.589386 489.398376,448.476044 489.460388,448.589386 
M489.498077,504.407349 
	C489.498077,504.407349 489.558929,504.523773 489.498077,504.407349 
z"/>
<path fill="#131313" opacity="1.000000" stroke="none" 
	d="
M540.013672,146.985626 
	C544.029175,150.416000 547.767761,153.624771 550.788452,156.217377 
	C538.757874,168.529083 527.056702,180.503616 515.252686,192.583405 
	C503.426971,181.112915 491.320526,169.370117 478.904907,157.327438 
	C491.015625,146.213760 503.050537,135.169662 515.258606,123.966675 
	C523.079529,131.250580 531.408142,139.007294 540.013672,146.985626 
M504.401642,163.026108 
	C506.170685,163.026108 507.939728,163.026108 510.123840,163.026108 
	C510.123840,168.097458 510.123840,172.523453 510.123840,176.764496 
	C513.625427,176.764496 516.695129,176.764496 520.195862,176.764496 
	C520.195862,172.071472 520.195862,167.655243 520.195862,162.854370 
	C525.896912,162.854370 531.154602,162.854370 536.556519,162.854370 
	C536.556519,159.370651 536.556519,156.297745 536.556519,152.858093 
	C531.070251,152.858093 525.803833,152.858093 519.997437,152.858093 
	C519.997437,147.940231 519.997437,143.372421 519.997437,138.852448 
	C516.357910,138.852448 513.276489,138.852448 509.747009,138.852448 
	C509.747009,143.625885 509.747009,148.207565 509.747009,153.062073 
	C504.025818,153.062073 498.756897,153.062073 493.106537,153.062073 
	C493.306915,156.462433 493.488678,159.546890 493.693512,163.023071 
	C497.166565,163.023071 500.307465,163.023071 504.401642,163.026108 
z"/>
<path fill="#090909" opacity="1.000000" stroke="none" 
	d="
M224.553284,200.772156 
	C225.008087,325.937256 225.009949,451.070465 224.981750,576.203674 
	C224.981277,578.329529 224.616318,580.455261 224.080338,582.849976 
	C223.488220,578.653320 223.020111,574.187866 223.017807,569.722229 
	C222.954865,448.020233 222.935837,326.318237 222.965118,204.616257 
	C222.965424,203.324173 223.703720,202.032272 224.553284,200.772156 
z"/>
<path fill="#090909" opacity="1.000000" stroke="none" 
	d="
M223.817719,585.433899 
	C228.992981,588.811462 226.935928,593.879333 225.912384,598.952637 
	C224.951202,594.759033 224.351746,590.316650 223.817719,585.433899 
z"/>
<path fill="#090909" opacity="1.000000" stroke="none" 
	d="
M227.606659,609.295593 
	C228.725098,610.695251 229.808365,612.402039 230.891602,614.108765 
	C230.327713,614.135132 229.763824,614.161438 228.933990,613.893494 
	C228.302505,612.267029 227.936996,610.934875 227.606659,609.295593 
z"/>
<path fill="#090909" opacity="1.000000" stroke="none" 
	d="
M230.121704,620.192444 
	C231.084198,620.675476 231.985596,621.344971 232.886993,622.014404 
	C232.342499,622.161743 231.798019,622.309143 230.982056,622.214294 
	C230.493927,621.441040 230.277267,620.909912 230.121704,620.192444 
z"/> 
<path fill="#010101" opacity="1.000000" stroke="none" 
	d="
M490.072327,603.075928 
	C490.480499,604.014099 490.560089,605.151550 490.520752,606.703247 
	C490.182495,605.836670 489.963104,604.555969 490.072327,603.075928 
z"/>
<path fill="#010101" opacity="1.000000" stroke="none" 
	d="
M490.084961,582.063110 
	C490.486328,582.695801 490.569550,583.509827 490.542053,584.721985 
	C490.209839,584.161560 489.988312,583.203064 490.084961,582.063110 
z"/>
<path fill="#010101" opacity="1.000000" stroke="none" 
	d="
M489.429382,448.532715 
	C489.398376,448.476044 489.460388,448.589386 489.429382,448.532715 
z"/>
<path fill="#010101" opacity="1.000000" stroke="none" 
	d="
M489.528503,504.465576 
	C489.558929,504.523773 489.498077,504.407349 489.528503,504.465576 
z"/> 
<path fill="#101010" opacity="1.000000" stroke="none" 
	d="
M520.026062,468.002441 
	C520.105408,468.453522 520.184814,468.904633 519.883179,469.687225 
	C519.228333,470.165649 518.954346,470.312592 518.680420,470.459503 
	C519.099792,470.637878 519.519165,470.816284 519.938538,470.994659 
	C521.580261,471.463257 523.221252,472.337860 524.863892,472.341125 
	C567.172058,472.424988 609.480469,472.418091 651.788818,472.426697 
	C655.724365,472.427521 659.659912,472.426819 664.363220,472.426819 
	C662.355530,470.175476 660.661621,468.276031 658.924316,466.327881 
	C660.736938,464.225098 662.551941,462.119629 663.510559,461.007568 
	C672.250000,467.297974 680.893250,473.519135 689.482849,479.701691 
	C680.649902,483.571228 671.100403,488.029236 664.169250,496.936432 
	C662.452576,495.025513 660.768433,493.150818 659.003723,491.186432 
	C660.625122,488.734314 662.255493,486.268585 664.213379,483.307587 
	C616.080200,483.307587 568.440918,483.307587 520.319885,483.307587 
	C520.319885,484.630676 520.319885,485.899323 519.835327,487.636353 
	C517.309143,489.786316 517.192993,491.141907 520.010315,492.000977 
	C520.144531,493.822052 520.395813,495.643127 520.395996,497.464203 
	C520.405518,580.451233 520.393066,663.438232 520.383179,746.425232 
	C520.382812,749.577271 520.383118,752.729309 520.383118,756.487122 
	C522.367859,754.107666 524.181641,751.933167 526.108215,749.623352 
	C528.766968,753.523987 530.895386,756.646606 533.124573,759.916992 
	C522.855957,766.190247 518.641968,776.669434 515.486206,788.305420 
	C513.044922,782.638977 511.329224,777.233765 508.501617,772.491516 
	C505.645508,767.701599 501.687256,763.568848 498.119263,759.030457 
	C499.796051,756.531921 501.866608,753.446594 504.090637,750.132690 
	C505.853821,752.129700 507.574158,754.078186 509.646362,756.425171 
	C509.646362,665.202332 509.646362,574.393555 509.646362,483.280212 
	C461.740662,483.280212 414.073792,483.280212 365.676025,483.280212 
	C368.004700,486.236420 369.909760,488.654816 371.618195,490.823669 
	C369.849609,493.012939 368.226990,495.021484 367.204285,496.287445 
	C358.019958,490.375122 348.836334,484.463287 340.656189,479.197418 
	C348.709747,473.787018 357.817566,467.668365 367.168762,461.386230 
	C367.986053,462.297852 369.708374,464.218994 371.616028,466.346893 
	C369.711456,467.872772 367.729126,469.460938 365.746826,471.049103 
	C366.072540,471.464722 366.398285,471.880341 366.724030,472.295959 
	C414.221710,472.295959 461.719421,472.295959 509.576416,472.295959 
	C509.576416,421.567108 509.576416,371.302460 509.576416,319.896667 
	C507.511261,322.569458 505.852814,324.715912 504.048859,327.050659 
	C501.456329,323.892670 499.395294,321.382111 496.954468,318.408905 
	C506.821808,310.673065 511.963654,299.958771 515.157410,287.781799 
	C518.870422,299.645630 523.442749,310.681305 533.952698,318.049408 
	C531.504517,320.931946 529.241638,323.596344 526.829529,326.436401 
	C524.876709,324.578369 522.976318,322.770172 520.322266,320.244904 
	C520.322266,369.442322 520.322266,417.767853 519.928345,466.558044 
	C519.294922,467.138062 519.055420,467.253418 518.815979,467.368774 
	C519.219360,467.579987 519.622681,467.791199 520.026062,468.002441 
M517.593384,465.515106 
	C517.593384,465.515106 517.481079,465.581604 517.593384,465.515106 
z"/>
<path fill="#010101" opacity="1.000000" stroke="none" 
	d="
M520.106445,491.608185 
	C517.192993,491.141907 517.309143,489.786316 519.703003,488.049500 
	C520.104370,489.067993 520.153442,490.141693 520.106445,491.608185 
z"/>
<path fill="#010101" opacity="1.000000" stroke="none" 
	d="
M520.032593,470.751038 
	C519.519165,470.816284 519.099792,470.637878 518.680420,470.459503 
	C518.954346,470.312592 519.228333,470.165649 519.753235,470.009186 
	C520.045044,470.168884 520.085815,470.338135 520.032593,470.751038 
z"/>
<path fill="#010101" opacity="1.000000" stroke="none" 
	d="
M520.126709,467.752686 
	C519.622681,467.791199 519.219360,467.579987 518.815979,467.368774 
	C519.055420,467.253418 519.294922,467.138062 519.790894,467.009033 
	C520.107483,467.164581 520.167419,467.333771 520.126709,467.752686 
z"/>
<path fill="#010101" opacity="1.000000" stroke="none" 
	d="
M517.537231,465.548340 
	C517.481079,465.581604 517.593384,465.515106 517.537231,465.548340 
z"/>
</svg>