<svg version="1.1" id="Layer_1" xmlns="http://www.w3.org/2000/svg" xmlns:xlink="http://www.w3.org/1999/xlink" x="0px" y="0px"
	 width="100%" viewBox="0 0 1024 1024" enable-background="new 0 0 1024 1024" xml:space="preserve">
<path fill="orange" opacity="1.000000" stroke="none" 
	d="
M197.874695,494.229279 
	C197.136688,475.304840 195.881577,456.834167 195.843658,438.360992 
	C195.686691,361.866425 195.897308,285.371124 195.979095,208.876068 
	C195.980148,207.885651 196.062027,206.895309 196.122345,205.542679 
	C206.575790,204.694748 216.977966,203.851990 227.379990,203.007050 
	C287.586700,198.116516 346.982239,188.753052 404.967712,171.330505 
	C447.549255,158.536285 487.581421,140.562759 523.288574,114.255569 
	C534.012085,120.995300 544.393921,127.859650 555.095337,134.183044 
	C588.599731,153.980637 624.779663,167.085480 662.266541,177.064911 
	C695.453430,185.899628 729.131287,192.100128 763.120667,196.539352 
	C786.717651,199.621277 810.456543,201.622192 834.138489,204.043579 
	C840.237488,204.667175 846.360596,205.054886 852.652283,205.565536 
	C852.797119,206.656815 852.992676,207.442612 852.992859,208.228455 
	C853.014832,289.889740 853.891541,371.562561 852.811279,453.209442 
	C851.445984,556.396606 821.427612,650.629944 761.276550,735.091736 
	C714.921204,800.182007 657.015442,852.880615 590.738342,896.740112 
	C569.788452,910.603760 547.955017,923.136658 526.414246,936.092834 
	C524.986755,936.951538 522.195251,936.957336 520.728027,936.132568 
	C438.836609,890.101624 364.945282,834.260620 306.241821,760.013733 
	C256.387756,696.959351 221.301422,626.797119 205.685852,547.566345 
	C202.244614,530.106079 200.463104,512.318665 197.874695,494.229279 
M388.795990,208.363464 
	C335.175934,222.232895 280.524170,229.893555 225.170029,234.937500 
	C225.170029,239.140182 225.191040,242.790207 225.166870,246.439957 
	C224.825867,297.927673 224.618210,349.416779 224.088562,400.902588 
	C223.671722,441.422974 224.195419,481.844421 230.960266,521.966309 
	C236.954819,557.519531 245.941757,592.233582 259.688324,625.579590 
	C285.823792,688.978210 324.873138,743.725464 373.016541,792.133118 
	C417.245178,836.604431 468.454102,871.904114 522.108032,903.859131 
	C523.145874,904.477173 525.300476,904.330322 526.355225,903.646973 
	C550.796814,887.812561 575.726440,872.651001 599.415894,855.752991 
	C648.640442,820.640198 692.420959,779.658264 728.768799,731.063110 
	C757.776306,692.281494 781.388000,650.622192 797.137146,604.655457 
	C815.728699,550.392456 824.350586,494.474365 824.410645,437.274933 
	C824.472717,378.122803 823.712952,318.969818 823.329712,259.817108 
	C823.277100,251.696014 823.322510,243.574280 823.322510,235.284668 
	C819.596008,234.829910 816.328796,234.349838 813.045410,234.042923 
	C772.219482,230.226593 731.700684,224.397675 691.568481,215.902267 
	C633.814026,203.676559 577.711121,186.879623 526.148376,157.185043 
	C524.642944,156.318054 521.711182,156.769119 519.974731,157.650467 
	C508.995087,163.223389 498.364441,169.511612 487.247986,174.781937 
	C455.981812,189.605225 422.996674,199.530975 388.795990,208.363464 
z"/>
<path fill="orange" opacity="1.000000" stroke="none" 
	d="
M170.376251,527.786804 
	C162.733841,528.052002 158.860550,525.836853 156.896698,520.380981 
	C154.780777,514.502625 157.238785,507.868469 162.423035,505.465332 
	C168.289108,502.746216 175.568024,504.967834 178.470245,510.363190 
	C181.602310,516.185852 179.747055,522.790405 173.944519,526.284607 
	C172.959671,526.877686 171.838013,527.243530 170.376251,527.786804 
z"/>
<path fill="orange" opacity="1.000000" stroke="none" 
	d="
M179.354431,246.945953 
	C180.421906,254.131104 177.790482,259.180237 172.114944,261.482513 
	C167.275604,263.445587 161.467438,262.108643 158.483124,258.344696 
	C155.061035,254.028610 155.015488,247.579193 158.256073,242.972855 
	C163.183029,235.969421 176.692001,237.275467 179.354431,246.945953 
z"/>
<path fill="orange" opacity="1.000000" stroke="none" 
	d="
M890.936157,509.276733 
	C894.162231,515.912109 893.469299,521.264832 889.135620,525.036438 
	C885.173706,528.484497 878.954895,529.054199 874.732178,526.355896 
	C870.298462,523.522827 868.324951,517.713745 869.944763,512.264343 
	C872.614014,503.284332 883.367310,501.568024 890.936157,509.276733 
z"/>
<path fill="orange" opacity="1.000000" stroke="none" 
	d="
M884.821655,239.055649 
	C891.265381,242.161850 893.697144,245.870865 893.120178,251.561844 
	C892.592712,256.764679 889.563354,260.140015 884.714600,261.648956 
	C880.333862,263.012299 876.063477,262.536102 872.725464,258.984528 
	C869.182373,255.214676 868.591553,250.607758 870.220215,245.938309 
	C871.765869,241.506790 875.112671,238.865952 879.997986,238.686279 
	C881.477234,238.631882 882.967102,238.866135 884.821655,239.055649 
z"/>
<path fill="orange" opacity="1.000000" stroke="none" 
	d="
M162.042725,421.059326 
	C158.255096,418.853790 157.269333,415.573181 159.245071,412.446808 
	C160.411865,410.600525 163.273956,409.068451 165.525253,408.830719 
	C169.550400,408.405701 172.373657,412.047119 171.854752,415.944275 
	C171.286545,420.211884 167.835373,422.119080 162.042725,421.059326 
z"/>
<path fill="orange" opacity="1.000000" stroke="none" 
	d="
M889.522949,356.481171 
	C892.122192,360.935486 890.968018,364.332336 887.061646,366.500702 
	C883.971436,368.215973 880.762451,367.481567 878.624329,364.560883 
	C876.346313,361.449188 876.673767,358.098328 879.530334,355.574646 
	C882.769592,352.712921 886.201355,353.185333 889.522949,356.481171 
z"/>
<path fill="orange" opacity="1.000000" stroke="none" 
	d="
M170.017578,365.052917 
	C166.547791,367.915283 162.888245,368.244385 160.537949,365.009766 
	C159.115295,363.051849 158.786331,359.409546 159.518417,356.994629 
	C160.494064,353.776337 163.858917,353.183472 167.051147,354.034180 
	C171.599396,355.246307 172.974579,359.927948 170.017578,365.052917 
z"/>
<path fill="orange" opacity="1.000000" stroke="none" 
	d="
M888.037842,327.124817 
	C883.929626,329.995361 880.691467,328.893280 878.339722,325.416046 
	C876.319580,322.428955 876.885864,319.120392 879.602173,316.899292 
	C882.480347,314.545837 885.906372,314.662659 888.671936,317.318359 
	C891.975281,320.490448 891.352661,323.799927 888.037842,327.124817 
z"/>
<path fill="orange" opacity="1.000000" stroke="none" 
	d="
M160.438721,443.491516 
	C157.148270,437.937225 158.839691,432.389526 163.924637,432.261871 
	C166.289642,432.202515 169.817902,433.756561 170.792572,435.632233 
	C171.764801,437.503082 170.970963,441.246429 169.576569,443.174652 
	C167.333344,446.276703 163.830719,445.889648 160.438721,443.491516 
z"/>
<path fill="orange" opacity="1.000000" stroke="none" 
	d="
M890.055725,441.759399 
	C887.325989,445.475342 884.096313,446.518890 880.426575,444.202881 
	C877.425476,442.308838 876.443176,439.400024 878.045776,436.055817 
	C879.586060,432.841614 882.261169,431.487915 885.773621,432.206482 
	C889.815918,433.033508 891.428101,436.479706 890.055725,441.759399 
z"/>
<path fill="orange" opacity="1.000000" stroke="none" 
	d="
M167.240967,328.327759 
	C162.567993,329.392334 159.686707,327.492676 158.672821,323.466583 
	C157.767975,319.873566 159.201355,316.923584 163.039581,315.788391 
	C166.718399,314.700317 169.705994,316.001740 171.300461,319.365906 
	C173.225525,323.427582 171.311523,326.288147 167.240967,328.327759 
z"/>
<path fill="orange" opacity="1.000000" stroke="none" 
	d="
M878.349609,418.596985 
	C876.680908,414.465485 877.553345,410.793671 881.187622,409.451355 
	C883.423401,408.625549 887.203247,409.492859 889.171631,411.031006 
	C891.916504,413.175873 891.716187,416.687439 889.149841,419.433411 
	C886.448181,422.324219 882.480530,422.062561 878.349609,418.596985 
z"/> 
<path fill="orange" opacity="1.000000" stroke="none" 
	d="
M515.020508,490.953674 
	C515.094543,507.111725 515.228699,523.269775 515.232300,539.427856 
	C515.248718,613.081116 515.228394,686.734375 515.221252,760.387634 
	C515.221191,761.051270 515.221252,761.714844 515.221252,762.213684 
	C504.838104,754.455688 494.434998,746.682800 483.406708,738.442688 
	C493.182434,664.465698 494.538452,588.744141 494.590546,512.755920 
	C449.738129,512.755920 404.900787,512.755920 359.562805,512.755920 
	C352.916779,506.973175 349.259552,496.196899 336.677246,494.550903 
	C347.840240,510.477844 363.248932,522.615234 364.791626,542.279175 
	C355.310455,546.315125 346.646240,550.003296 337.458862,553.914185 
	C322.947937,525.473206 299.762512,504.044281 275.646484,482.771027 
	C296.713989,461.152222 317.580872,439.739288 338.546753,418.224762 
	C345.679260,421.660675 353.876160,425.609344 363.139801,430.071899 
	C361.508270,433.458221 360.163116,437.755920 357.639954,441.187469 
	C351.550873,449.468933 344.911255,457.345581 338.493591,465.385468 
	C338.702209,465.796448 338.910797,466.207428 339.119415,466.618408 
	C341.922882,465.335999 345.187439,464.587402 347.427521,462.652710 
	C351.303345,459.305237 354.391815,455.061401 358.127960,451.529327 
	C359.563049,450.172546 361.864441,448.993469 363.775299,448.987061 
	C406.766541,448.842560 449.758423,448.873322 492.750153,448.860504 
	C493.071350,448.860413 493.392487,448.714661 494.261169,448.504395 
	C494.261169,412.915710 494.261169,377.193695 494.261169,340.920471 
	C485.499969,340.920471 476.435333,340.920471 466.754852,340.920471 
	C473.003815,326.649231 462.802917,317.280396 458.019989,306.426300 
	C457.701019,305.702423 457.144928,305.083008 456.604034,304.272522 
	C462.502686,299.686493 468.197693,295.154449 474.043152,290.825562 
	C474.929382,290.169281 476.513977,290.337891 477.777069,290.328644 
	C483.889221,290.283722 490.001862,290.308380 497.025299,290.308380 
	C494.619141,284.560089 492.481903,279.454254 490.505371,274.732422 
	C501.758057,262.501495 513.006531,250.275177 524.282593,238.018875 
	C535.334778,249.999268 546.769287,262.394104 558.490479,275.099731 
	C556.375183,279.580048 553.947998,284.720886 551.354675,290.213745 
	C558.407654,290.213745 564.673645,290.118683 570.933289,290.276581 
	C572.623474,290.319214 574.597961,290.707184 575.920654,291.660156 
	C581.308777,295.542267 586.494568,299.705200 591.831970,303.824127 
	C588.788513,309.762024 585.785095,315.818512 582.601318,321.778625 
	C579.394470,327.782013 578.415894,333.885406 582.061523,340.734131 
	C572.232910,340.734131 563.341003,340.734131 554.218262,340.734131 
	C554.218262,376.893860 554.218262,412.643494 554.218262,448.941711 
	C556.436523,448.941711 558.545044,448.943085 560.653564,448.941528 
	C602.479065,448.910187 644.304565,448.851562 686.129761,448.946136 
	C687.782898,448.949860 689.770447,450.059845 691.021973,451.259674 
	C695.095459,455.164825 698.709595,459.562134 702.896484,463.330048 
	C704.678467,464.933716 707.441772,465.446899 710.051819,465.984833 
	C703.312012,452.849579 689.311768,444.639771 686.423889,429.741699 
	C695.152527,425.599426 703.185669,421.787231 710.136658,418.488556 
	C731.252686,440.074036 752.045715,461.329376 773.116821,482.868958 
	C748.827576,503.978302 725.966248,525.652893 711.154480,554.060913 
	C702.373291,550.234070 693.904724,546.543396 685.079590,542.697388 
	C684.312988,537.845032 684.418152,532.792480 687.970032,528.106567 
	C694.789673,519.109619 701.340454,509.909149 708.036987,500.818359 
	C709.282837,499.126953 710.689331,497.553894 712.021667,495.926208 
	C711.742737,495.461823 711.463867,494.997437 711.184937,494.533051 
	C708.371704,495.829742 705.289490,496.751587 702.818115,498.524719 
	C700.148193,500.440277 697.319885,502.770996 695.848389,505.592255 
	C692.468872,512.071533 687.517578,512.509705 680.864319,512.435059 
	C640.043030,511.976990 599.215027,512.117004 558.389221,512.058105 
	C557.095154,512.056274 555.801086,512.057922 553.986511,512.057922 
	C554.407349,588.305664 554.516968,664.020264 565.648682,739.478882 
	C553.662292,744.956726 543.604065,753.601196 533.573486,762.600281 
	C533.156921,762.271179 533.098816,762.109558 533.040710,761.947998 
	C533.040710,761.947998 533.001587,761.960205 533.214478,761.594849 
	C533.487854,739.769897 533.613220,718.310303 533.583252,696.850830 
	C533.566528,684.889771 533.291260,672.929199 533.132507,660.968384 
	C533.220947,657.319214 533.383545,653.670166 533.386841,650.020935 
	C533.435242,597.295105 533.462097,544.569275 534.082092,491.343964 
	C596.925354,490.816040 659.180725,490.761810 721.436035,490.811768 
	C726.012573,490.815460 730.588440,491.570953 735.164673,491.976929 
	C735.210999,492.437775 735.257324,492.898621 735.303650,493.359497 
	C737.617126,491.258636 739.930542,489.157806 742.244019,487.056946 
	C744.294434,485.230103 746.344910,483.403229 748.960693,481.072632 
	C744.517090,477.257111 740.162170,473.502777 735.778564,469.782318 
	C735.425964,469.483093 734.870972,469.253845 734.417603,469.266449 
	C717.708191,469.730377 701.000977,470.587616 684.290771,470.649750 
	C637.975159,470.821960 591.658325,470.664734 545.341980,470.638184 
	C541.556213,470.636017 537.770447,470.637909 533.615112,470.637909 
	C533.615112,421.516815 533.615112,372.919495 533.615112,323.545441 
	C539.865234,323.545441 546.531982,322.856445 552.996033,323.707306 
	C562.630615,324.975525 569.394409,323.008942 571.222290,312.294617 
	C571.484009,310.760742 572.528625,309.360504 573.412720,307.466125 
	C559.877563,307.466125 546.830261,307.466125 532.970459,307.466125 
	C534.802917,297.176056 529.145508,286.246094 538.381348,277.206665 
	C533.699097,272.129883 529.116699,267.161407 524.905640,262.595581 
	C520.010193,267.141693 515.153381,271.651978 509.901031,276.529510 
	C519.294189,285.673553 513.529358,296.800018 515.576660,307.532715 
	C501.968567,307.532715 489.087952,307.532715 475.817108,307.532715 
	C477.813324,312.593414 479.341827,317.128387 481.451935,321.374359 
	C482.010437,322.498260 484.350403,323.261169 485.888367,323.288483 
	C495.516602,323.459290 505.149384,323.374756 515.032227,323.374756 
	C515.032227,372.737915 515.032227,421.444458 515.032227,470.115112 
	C500.809875,472.057281 318.338989,471.138885 314.085663,468.988251 
	C309.545441,472.876831 304.905853,476.850555 299.918793,481.121857 
	C304.957336,485.432983 309.687927,489.480591 314.515167,493.610901 
	C315.218567,492.974030 315.950836,492.311066 317.367126,491.353394 
	C319.716309,490.997864 321.381439,490.883453 323.046600,490.883881 
	C387.037933,490.900604 451.029236,490.927856 515.020508,490.953674 
z"/>
<path fill="orange" opacity="1.000000" stroke="none" 
	d="
M533.098633,774.045654 
	C542.875000,762.797363 553.759827,752.915283 567.393738,746.070923 
	C572.747437,755.573486 578.028137,764.946655 583.577271,774.796143 
	C558.693237,788.602112 541.695862,810.775085 524.295593,833.467346 
	C506.840851,811.518921 489.884277,789.272278 465.363525,775.066223 
	C470.495453,765.581238 475.454773,756.415222 480.773193,746.585510 
	C482.803528,747.577209 485.245911,748.467163 487.354523,749.861755 
	C492.058563,752.972839 496.801422,756.083984 501.164093,759.641968 
	C516.234070,771.932312 517.948364,776.785767 515.007751,795.910217 
	C514.797852,797.275085 515.282593,799.126221 516.135986,800.203125 
	C518.601501,803.314697 521.420654,806.145996 524.328796,809.337463 
	C527.231323,806.159424 530.152954,803.263489 532.656067,800.042297 
	C533.447876,799.023376 533.121033,797.135254 533.245239,794.860474 
	C533.155762,787.399231 533.127197,780.722412 533.098633,774.045654 
z"/> 
</svg>