<svg version="1.1" id="Layer_1" xmlns="http://www.w3.org/2000/svg" xmlns:xlink="http://www.w3.org/1999/xlink" x="0px" y="0px"
	 width="100%" viewBox="0 0 1024 1024" enable-background="new 0 0 1024 1024" xml:space="preserve">
<path fill="#050305" opacity="1.000000" stroke="none" 
	d="
M568.000000,1025.000000 
	C378.666656,1025.000000 189.833328,1025.000000 1.000000,1025.000000 
	C1.000000,683.666687 1.000000,342.333344 1.000000,1.000000 
	C342.333344,1.000000 683.666687,1.000000 1025.000000,1.000000 
	C1025.000000,342.333344 1025.000000,683.666687 1025.000000,1025.000000 
	C872.833313,1025.000000 720.666687,1025.000000 568.000000,1025.000000 
M179.836258,486.500549 
	C180.419647,536.123352 187.589508,584.557190 204.755569,631.385681 
	C225.321243,687.488342 254.857880,738.343689 293.601898,783.694641 
	C354.295990,854.738647 430.267609,904.190674 516.114319,939.462219 
	C521.105591,941.513000 525.386230,941.464294 530.322571,939.445374 
	C582.396179,918.148315 630.844360,890.637085 675.337097,856.112549 
	C737.017517,808.251343 785.387817,749.592773 820.234436,679.685669 
	C848.686340,622.607239 864.577698,562.332642 865.005005,498.560089 
	C865.706238,393.905792 865.372742,289.244568 865.475342,184.586258 
	C865.477722,182.133011 865.475708,179.679764 865.475708,176.794998 
	C862.533691,177.083862 860.239258,177.314758 857.943665,177.533707 
	C828.267456,180.364166 798.623840,183.617508 768.906433,185.915680 
	C730.908936,188.854202 693.351013,185.580673 656.437927,175.771759 
	C610.368408,163.529678 568.462952,142.387512 529.181213,115.812035 
	C524.347168,112.541649 521.460449,113.056778 516.720642,115.914948 
	C496.072968,128.365707 475.652466,141.425568 454.040344,151.996780 
	C408.008331,174.512604 359.281616,187.912628 307.663361,186.615005 
	C274.724762,185.786987 241.839279,182.616333 208.949371,180.228821 
	C199.377869,179.534027 189.873230,177.918625 179.833115,176.662018 
	C179.833115,279.944855 179.833115,382.722656 179.836258,486.500549 
z"/>
<path fill="#F9F9F8" opacity="1.000000" stroke="none" 
	d="
M179.834686,486.000488 
	C179.833115,382.722656 179.833115,279.944855 179.833115,176.662018 
	C189.873230,177.918625 199.377869,179.534027 208.949371,180.228821 
	C241.839279,182.616333 274.724762,185.786987 307.663361,186.615005 
	C359.281616,187.912628 408.008331,174.512604 454.040344,151.996780 
	C475.652466,141.425568 496.072968,128.365707 516.720642,115.914948 
	C521.460449,113.056778 524.347168,112.541649 529.181213,115.812035 
	C568.462952,142.387512 610.368408,163.529678 656.437927,175.771759 
	C693.351013,185.580673 730.908936,188.854202 768.906433,185.915680 
	C798.623840,183.617508 828.267456,180.364166 857.943665,177.533707 
	C860.239258,177.314758 862.533691,177.083862 865.475708,176.794998 
	C865.475708,179.679764 865.477722,182.133011 865.475342,184.586258 
	C865.372742,289.244568 865.706238,393.905792 865.005005,498.560089 
	C864.577698,562.332642 848.686340,622.607239 820.234436,679.685669 
	C785.387817,749.592773 737.017517,808.251343 675.337097,856.112549 
	C630.844360,890.637085 582.396179,918.148315 530.322571,939.445374 
	C525.386230,941.464294 521.105591,941.513000 516.114319,939.462219 
	C430.267609,904.190674 354.295990,854.738647 293.601898,783.694641 
	C254.857880,738.343689 225.321243,687.488342 204.755569,631.385681 
	C187.589508,584.557190 180.419647,536.123352 179.834686,486.000488 
M208.221237,548.133057 
	C209.622574,556.507629 210.676636,564.957825 212.479721,573.244995 
	C228.179016,645.400024 261.220795,709.039917 308.768585,765.069397 
	C365.882233,832.371094 437.070648,880.144409 518.675293,912.854919 
	C520.998474,913.786072 524.313171,913.809387 526.648315,912.911316 
	C564.100708,898.507080 599.196899,879.591187 632.375671,857.071655 
	C697.751221,812.699097 751.024841,757.217957 789.533875,687.773438 
	C823.473999,626.567993 841.309814,561.341064 841.321289,491.308990 
	C841.335205,406.482300 841.324280,321.655640 841.324097,236.828964 
	C841.324097,226.554337 841.324097,216.279724 841.324097,205.581665 
	C838.914185,205.861252 836.962158,206.022675 835.031433,206.321640 
	C811.683533,209.936859 788.402954,214.068985 764.979126,217.093323 
	C723.504456,222.448273 682.516113,218.861954 642.146667,208.284744 
	C601.115601,197.534210 562.663818,180.728058 526.751221,158.147049 
	C524.577393,156.780151 522.999390,155.788635 520.191040,157.676392 
	C494.643555,174.848999 467.101288,188.051376 438.113556,198.329483 
	C400.647034,211.613922 362.249023,219.952530 322.321014,219.518646 
	C297.139954,219.245041 272.122681,216.710449 247.293472,212.393951 
	C232.926392,209.896240 218.526932,207.584885 203.918488,205.152451 
	C203.798126,206.236069 203.665298,206.873215 203.665390,207.510330 
	C203.678787,294.171875 203.828995,380.833710 203.648651,467.494843 
	C203.593094,494.192566 204.222168,520.801758 208.221237,548.133057 
z"/>
<path fill="#070506" opacity="1.000000" stroke="none" 
	d="
M208.152420,547.695374 
	C204.222168,520.801758 203.593094,494.192566 203.648651,467.494843 
	C203.828995,380.833710 203.678787,294.171875 203.665390,207.510330 
	C203.665298,206.873215 203.798126,206.236069 203.918488,205.152451 
	C218.526932,207.584885 232.926392,209.896240 247.293472,212.393951 
	C272.122681,216.710449 297.139954,219.245041 322.321014,219.518646 
	C362.249023,219.952530 400.647034,211.613922 438.113556,198.329483 
	C467.101288,188.051376 494.643555,174.848999 520.191040,157.676392 
	C522.999390,155.788635 524.577393,156.780151 526.751221,158.147049 
	C562.663818,180.728058 601.115601,197.534210 642.146667,208.284744 
	C682.516113,218.861954 723.504456,222.448273 764.979126,217.093323 
	C788.402954,214.068985 811.683533,209.936859 835.031433,206.321640 
	C836.962158,206.022675 838.914185,205.861252 841.324097,205.581665 
	C841.324097,216.279724 841.324097,226.554337 841.324097,236.828964 
	C841.324280,321.655640 841.335205,406.482300 841.321289,491.308990 
	C841.309814,561.341064 823.473999,626.567993 789.533875,687.773438 
	C751.024841,757.217957 697.751221,812.699097 632.375671,857.071655 
	C599.196899,879.591187 564.100708,898.507080 526.648315,912.911316 
	C524.313171,913.809387 520.998474,913.786072 518.675293,912.854919 
	C437.070648,880.144409 365.882233,832.371094 308.768585,765.069397 
	C261.220795,709.039917 228.179016,645.400024 212.479721,573.244995 
	C210.676636,564.957825 209.622574,556.507629 208.152420,547.695374 
M742.269409,370.602905 
	C730.547058,372.766357 718.824707,374.929810 706.375183,377.227448 
	C704.565491,373.883942 702.239441,369.586517 699.942627,365.343079 
	C716.158325,349.876770 736.136841,338.836212 748.936890,318.341125 
	C736.730835,321.303925 727.348877,326.851593 718.417908,333.196503 
	C709.525818,339.513702 700.845398,346.128845 691.778748,352.830292 
	C689.539307,349.687927 687.498901,346.452789 685.071655,343.540039 
	C683.229736,341.329834 683.806519,340.047394 685.538391,338.096619 
	C691.477051,331.407379 697.166565,324.496887 702.951050,317.670715 
	C702.742310,317.362488 702.533630,317.054291 702.324890,316.746063 
	C692.618469,320.792389 682.912048,324.838715 674.229736,328.458130 
	C669.717285,324.401672 665.422119,320.540588 661.509644,317.023499 
	C667.306335,307.309052 672.864197,297.994873 678.422058,288.680725 
	C677.989807,288.270782 677.557556,287.860840 677.125366,287.450897 
	C667.925049,293.809509 658.724792,300.168121 649.419250,306.599457 
	C645.410034,303.548187 641.209778,300.351593 636.897766,297.069855 
	C641.055359,288.405945 645.158691,279.855011 649.262085,271.304108 
	C648.978760,271.098694 648.695496,270.893280 648.412170,270.687866 
	C640.058228,276.632568 631.704224,282.577301 623.080627,288.713928 
	C619.011536,286.235626 614.649048,283.578583 610.472168,281.034607 
	C614.379211,270.322601 618.173035,259.920959 621.966919,249.519302 
	C621.232117,249.111389 620.497375,248.703476 619.762573,248.295547 
	C611.646362,257.110992 603.530090,265.926392 595.238220,274.932587 
	C591.265320,273.420135 586.956299,271.779724 582.557861,270.105255 
	C583.515686,261.083832 584.460510,252.184326 585.405396,243.284805 
	C584.816895,243.097336 584.228394,242.909882 583.639954,242.722427 
	C578.113220,250.509552 572.586548,258.296661 566.890747,266.322052 
	C563.040405,265.403656 558.917664,264.420319 555.338623,263.566650 
	C554.459595,253.141617 553.621399,243.200790 552.783264,233.259964 
	C552.322083,233.181793 551.860901,233.103638 551.399719,233.025467 
	C547.604736,242.524948 543.809753,252.024414 540.011292,261.532745 
	C536.627502,261.274017 533.179382,261.010406 529.579529,260.735168 
	C528.030823,233.031921 532.700134,204.957092 523.082153,176.945419 
	C513.033752,204.958313 517.949341,233.024933 516.287476,260.752014 
	C512.551697,261.053375 508.978333,261.341644 505.860565,261.593140 
	C501.803741,251.756226 497.913849,242.324081 494.023956,232.891922 
	C493.649597,232.959305 493.275208,233.026672 492.900818,233.094055 
	C492.135986,243.277039 491.371185,253.460037 490.612061,263.567383 
	C486.524231,264.523865 482.538757,265.456390 478.880768,266.312317 
	C472.789062,257.497681 466.932861,249.023895 461.298645,240.683502 
	C461.298645,240.683502 461.080475,240.831161 461.080475,240.831161 
	C461.080475,240.831161 461.294861,240.575027 460.815796,241.432678 
	C461.698273,251.131226 462.580719,260.829773 463.456238,270.451996 
	C458.912262,272.027924 454.578339,273.531006 450.594025,274.912842 
	C441.654236,265.229187 432.952850,255.803757 424.251434,246.378342 
	C423.862610,246.727051 423.473755,247.075775 423.084930,247.424500 
	C427.367676,258.618988 431.650391,269.813477 435.953461,281.061035 
	C431.095886,283.744171 426.370209,286.354462 421.892426,288.827820 
	C417.713867,285.536682 414.022369,282.429382 410.120239,279.614044 
	C406.501862,277.003448 402.658386,274.704742 398.914032,272.268677 
	C398.630798,272.708008 398.347595,273.147339 398.064392,273.586639 
	C401.688019,281.335785 405.311646,289.084930 408.873108,296.701080 
	C404.500702,300.111603 400.342926,303.354767 396.527344,306.330963 
	C387.284973,300.064667 378.240906,293.932861 368.980804,287.207581 
	C368.790466,287.636261 368.600128,288.064911 368.765778,289.109589 
	C373.931274,298.330322 379.096771,307.551086 384.424347,317.061188 
	C380.435516,320.729797 376.191559,324.633057 372.249390,328.258789 
	C362.986084,324.656067 353.419250,320.935333 343.852417,317.214569 
	C343.682770,317.629303 343.513092,318.044037 343.343414,318.458771 
	C349.723816,325.823151 356.104218,333.187531 362.478485,340.544830 
	C359.607178,344.701538 356.730103,348.866608 353.942932,352.901520 
	C335.279114,340.668915 319.636017,324.541199 297.542175,318.993927 
	C309.215942,339.179169 330.170258,349.609192 346.045776,364.957367 
	C343.432800,369.609039 341.096466,373.768188 339.060608,377.392487 
	C326.335571,374.805084 314.165894,372.330627 301.996216,369.856140 
	C301.820404,370.221191 301.644623,370.586273 301.468811,370.951355 
	C311.967621,377.791290 322.466400,384.631195 333.078583,391.545013 
	C331.565521,395.625305 329.978912,399.903839 328.577576,403.682739 
	C315.251099,403.080780 302.577271,402.508301 289.903442,401.935822 
	C289.805847,402.336487 289.708252,402.737183 289.610657,403.137848 
	C301.053009,408.183105 312.495361,413.228363 324.340118,418.451050 
	C323.476959,422.894562 322.507202,427.886810 321.621490,432.446289 
	C307.955231,433.024536 294.772705,433.582306 281.590149,434.140076 
	C281.516174,434.605286 281.442200,435.070496 281.368225,435.535706 
	C293.863281,439.477264 306.358337,443.418823 318.914368,447.379608 
	C318.604340,453.334534 318.294922,459.278107 317.965973,465.596558 
	C296.598969,465.596558 275.539062,465.596558 253.994293,465.596558 
	C253.994293,384.650879 253.994293,303.904175 253.994293,222.874847 
	C244.931305,221.360931 236.293427,219.918045 227.133881,218.388000 
	C227.133881,220.736786 227.133469,222.377762 227.133957,224.018738 
	C227.157944,303.678436 227.357788,383.338684 227.122986,462.997620 
	C227.023544,496.730286 228.748581,530.256653 235.327148,563.388916 
	C246.010132,617.192505 267.983521,666.281677 298.515808,711.592163 
	C331.618164,760.716675 374.022217,800.601624 422.641907,834.006287 
	C452.901825,854.796814 484.913452,872.477722 519.374817,885.416931 
	C521.572144,886.241943 524.647095,886.143188 526.862854,885.295471 
	C566.123169,870.275574 602.349365,849.720642 636.129517,824.790283 
	C686.792542,787.400024 729.875854,743.100525 761.840454,688.379700 
	C799.041870,624.693848 818.285034,556.376526 817.938416,482.423401 
	C817.533813,396.099304 817.871033,309.771759 817.886353,223.445709 
	C817.886597,222.004532 817.886414,220.563370 817.886414,218.590073 
	C808.616211,220.129196 799.967163,221.565186 791.016602,223.051239 
	C791.016602,304.290497 791.016602,385.049957 791.016602,465.424194 
	C769.735596,465.424194 748.848694,465.424194 727.750122,465.424194 
	C727.432983,458.846649 727.147888,452.934204 726.894287,447.673615 
	C739.655029,443.491028 751.746033,439.528015 763.836975,435.564972 
	C763.727661,435.119720 763.618286,434.674500 763.508972,434.229248 
	C750.457581,433.713867 737.406189,433.198486 724.247437,432.678864 
	C723.256531,427.886932 722.259949,423.067902 721.416199,418.987610 
	C733.103088,413.670654 744.365906,408.546600 755.628723,403.422577 
	C755.446838,403.005920 755.264954,402.589294 755.083130,402.172638 
	C742.644592,402.773834 730.206116,403.375031 717.359253,403.995972 
	C715.849670,400.263306 714.067383,395.856567 712.188171,391.209961 
	C713.789978,390.325348 715.127686,389.708191 716.337097,388.899231 
	C725.233765,382.948364 734.104797,376.959137 743.541016,371.090210 
	C743.812866,370.912994 744.084778,370.735809 744.356628,370.558594 
	C744.119995,370.442627 743.769897,370.168823 743.668762,370.241455 
	C743.407104,370.429443 743.255188,370.770203 742.269409,370.602905 
z"/>
<path fill="#F9F8F8" opacity="1.000000" stroke="none" 
	d="
M742.983887,370.981964 
	C734.104797,376.959137 725.233765,382.948364 716.337097,388.899231 
	C715.127686,389.708191 713.789978,390.325348 712.188171,391.209961 
	C714.067383,395.856567 715.849670,400.263306 717.359253,403.995972 
	C730.206116,403.375031 742.644592,402.773834 755.083130,402.172638 
	C755.264954,402.589294 755.446838,403.005920 755.628723,403.422577 
	C744.365906,408.546600 733.103088,413.670654 721.416199,418.987610 
	C722.259949,423.067902 723.256531,427.886932 724.247437,432.678864 
	C737.406189,433.198486 750.457581,433.713867 763.508972,434.229248 
	C763.618286,434.674500 763.727661,435.119720 763.836975,435.564972 
	C751.746033,439.528015 739.655029,443.491028 726.894287,447.673615 
	C727.147888,452.934204 727.432983,458.846649 727.750122,465.424194 
	C748.848694,465.424194 769.735596,465.424194 791.016602,465.424194 
	C791.016602,385.049957 791.016602,304.290497 791.016602,223.051239 
	C799.967163,221.565186 808.616211,220.129196 817.886414,218.590073 
	C817.886414,220.563370 817.886597,222.004532 817.886353,223.445709 
	C817.871033,309.771759 817.533813,396.099304 817.938416,482.423401 
	C818.285034,556.376526 799.041870,624.693848 761.840454,688.379700 
	C729.875854,743.100525 686.792542,787.400024 636.129517,824.790283 
	C602.349365,849.720642 566.123169,870.275574 526.862854,885.295471 
	C524.647095,886.143188 521.572144,886.241943 519.374817,885.416931 
	C484.913452,872.477722 452.901825,854.796814 422.641907,834.006287 
	C374.022217,800.601624 331.618164,760.716675 298.515808,711.592163 
	C267.983521,666.281677 246.010132,617.192505 235.327148,563.388916 
	C228.748581,530.256653 227.023544,496.730286 227.122986,462.997620 
	C227.357788,383.338684 227.157944,303.678436 227.133957,224.018738 
	C227.133469,222.377762 227.133881,220.736786 227.133881,218.388000 
	C236.293427,219.918045 244.931305,221.360931 253.994293,222.874847 
	C253.994293,303.904175 253.994293,384.650879 253.994293,465.596558 
	C275.539062,465.596558 296.598969,465.596558 317.965973,465.596558 
	C318.294922,459.278107 318.604340,453.334534 318.914368,447.379608 
	C306.358337,443.418823 293.863281,439.477264 281.368225,435.535706 
	C281.442200,435.070496 281.516174,434.605286 281.590149,434.140076 
	C294.772705,433.582306 307.955231,433.024536 321.621490,432.446289 
	C322.507202,427.886810 323.476959,422.894562 324.340118,418.451050 
	C312.495361,413.228363 301.053009,408.183105 289.610657,403.137848 
	C289.708252,402.737183 289.805847,402.336487 289.903442,401.935822 
	C302.577271,402.508301 315.251099,403.080780 328.577576,403.682739 
	C329.978912,399.903839 331.565521,395.625305 333.078583,391.545013 
	C322.466400,384.631195 311.967621,377.791290 301.468811,370.951355 
	C301.644623,370.586273 301.820404,370.221191 301.996216,369.856140 
	C314.165894,372.330627 326.335571,374.805084 339.060608,377.392487 
	C341.096466,373.768188 343.432800,369.609039 346.045776,364.957367 
	C330.170258,349.609192 309.215942,339.179169 297.542175,318.993927 
	C319.636017,324.541199 335.279114,340.668915 353.942932,352.901520 
	C356.730103,348.866608 359.607178,344.701538 362.478485,340.544830 
	C356.104218,333.187531 349.723816,325.823151 343.343414,318.458771 
	C343.513092,318.044037 343.682770,317.629303 343.852417,317.214569 
	C353.419250,320.935333 362.986084,324.656067 372.249390,328.258789 
	C376.191559,324.633057 380.435516,320.729797 384.424347,317.061188 
	C379.096771,307.551086 373.931274,298.330322 368.788635,288.633118 
	C368.939972,288.038147 369.068390,287.919617 369.196838,287.801056 
	C378.240906,293.932861 387.284973,300.064667 396.527344,306.330963 
	C400.342926,303.354767 404.500702,300.111603 408.873108,296.701080 
	C405.311646,289.084930 401.688019,281.335785 398.064392,273.586639 
	C398.347595,273.147339 398.630798,272.708008 398.914032,272.268677 
	C402.658386,274.704742 406.501862,277.003448 410.120239,279.614044 
	C414.022369,282.429382 417.713867,285.536682 421.892426,288.827820 
	C426.370209,286.354462 431.095886,283.744171 435.953461,281.061035 
	C431.650391,269.813477 427.367676,258.618988 423.084930,247.424500 
	C423.473755,247.075775 423.862610,246.727051 424.251434,246.378342 
	C432.952850,255.803757 441.654236,265.229187 450.594025,274.912842 
	C454.578339,273.531006 458.912262,272.027924 463.456238,270.451996 
	C462.580719,260.829773 461.698273,251.131226 460.995911,241.040192 
	C461.176025,240.647690 461.076660,240.550079 461.076660,240.550079 
	C466.932861,249.023895 472.789062,257.497681 478.880768,266.312317 
	C482.538757,265.456390 486.524231,264.523865 490.612061,263.567383 
	C491.371185,253.460037 492.135986,243.277039 492.900818,233.094055 
	C493.275208,233.026672 493.649597,232.959305 494.023956,232.891922 
	C497.913849,242.324081 501.803741,251.756226 505.860565,261.593140 
	C508.978333,261.341644 512.551697,261.053375 516.287476,260.752014 
	C517.949341,233.024933 513.033752,204.958313 523.082153,176.945419 
	C532.700134,204.957092 528.030823,233.031921 529.579529,260.735168 
	C533.179382,261.010406 536.627502,261.274017 540.011292,261.532745 
	C543.809753,252.024414 547.604736,242.524948 551.399719,233.025467 
	C551.860901,233.103638 552.322083,233.181793 552.783264,233.259964 
	C553.621399,243.200790 554.459595,253.141617 555.338623,263.566650 
	C558.917664,264.420319 563.040405,265.403656 566.890747,266.322052 
	C572.586548,258.296661 578.113220,250.509552 583.639954,242.722427 
	C584.228394,242.909882 584.816895,243.097336 585.405396,243.284805 
	C584.460510,252.184326 583.515686,261.083832 582.557861,270.105255 
	C586.956299,271.779724 591.265320,273.420135 595.238220,274.932587 
	C603.530090,265.926392 611.646362,257.110992 619.762573,248.295547 
	C620.497375,248.703476 621.232117,249.111389 621.966919,249.519302 
	C618.173035,259.920959 614.379211,270.322601 610.472168,281.034607 
	C614.649048,283.578583 619.011536,286.235626 623.080627,288.713928 
	C631.704224,282.577301 640.058228,276.632568 648.412170,270.687866 
	C648.695496,270.893280 648.978760,271.098694 649.262085,271.304108 
	C645.158691,279.855011 641.055359,288.405945 636.897766,297.069855 
	C641.209778,300.351593 645.410034,303.548187 649.419250,306.599457 
	C658.724792,300.168121 667.925049,293.809509 677.125366,287.450897 
	C677.557556,287.860840 677.989807,288.270782 678.422058,288.680725 
	C672.864197,297.994873 667.306335,307.309052 661.509644,317.023499 
	C665.422119,320.540588 669.717285,324.401672 674.229736,328.458130 
	C682.912048,324.838715 692.618469,320.792389 702.324890,316.746063 
	C702.533630,317.054291 702.742310,317.362488 702.951050,317.670715 
	C697.166565,324.496887 691.477051,331.407379 685.538391,338.096619 
	C683.806519,340.047394 683.229736,341.329834 685.071655,343.540039 
	C687.498901,346.452789 689.539307,349.687927 691.778748,352.830292 
	C700.845398,346.128845 709.525818,339.513702 718.417908,333.196503 
	C727.348877,326.851593 736.730835,321.303925 748.936890,318.341125 
	C736.136841,338.836212 716.158325,349.876770 699.942627,365.343079 
	C702.239441,369.586517 704.565491,373.883942 706.375183,377.227448 
	C718.824707,374.929810 730.547058,372.766357 742.644653,370.810425 
	C743.019897,371.017944 742.983887,370.981964 742.983887,370.981964 
M744.680542,567.515564 
	C736.437927,566.373230 728.216309,565.026672 719.943665,564.176392 
	C715.925781,563.763428 714.130737,562.285889 713.879395,558.129517 
	C713.075623,544.840149 711.986816,531.567932 710.992065,518.290283 
	C710.599609,513.052002 709.207397,507.682800 709.918701,502.604065 
	C712.709290,482.680695 713.743835,462.721344 710.723328,442.845673 
	C702.912170,391.445587 678.926147,349.041473 638.090637,316.683685 
	C597.991089,284.909149 552.280945,270.933563 501.320465,277.186188 
	C460.683105,282.172150 425.042175,298.981232 395.270050,327.291504 
	C349.831451,370.498962 330.201599,423.913025 333.646515,486.142822 
	C334.031799,493.102600 336.249786,500.096130 335.757721,506.940308 
	C334.818237,520.008362 332.537994,532.980042 330.550140,545.966187 
	C330.373505,545.945557 330.196838,545.945374 329.464844,545.384216 
	C327.945496,541.711121 326.426178,538.037964 324.891602,534.327942 
	C312.624756,535.061096 300.370819,535.793518 288.116852,536.525940 
	C288.013641,536.012268 287.910400,535.498657 287.807190,534.984985 
	C299.336090,529.706909 310.864960,524.428833 322.688995,519.015625 
	C322.026794,516.110474 321.235107,512.637207 320.250122,508.316040 
	C307.326233,508.316040 294.488495,508.316040 281.650787,508.316040 
	C281.541504,507.653015 281.432220,506.989960 281.322937,506.326935 
	C293.689819,502.472778 306.056732,498.618622 318.921661,494.609222 
	C318.608917,489.983459 318.245728,484.611725 317.888550,479.329224 
	C296.394592,479.329224 275.310699,479.329224 253.730499,479.329224 
	C254.828766,492.448883 255.487793,505.263000 257.038055,517.968445 
	C263.130310,567.898865 277.243530,615.397217 301.846954,659.429504 
	C351.877350,748.968018 426.613342,810.679199 519.618958,851.554932 
	C521.552795,852.404846 524.524475,852.292847 526.500916,851.442200 
	C578.244812,829.172058 624.552185,798.569214 665.655762,760.080933 
	C703.913818,724.257019 733.592468,682.244751 755.765198,634.838867 
	C772.730164,598.567078 783.171692,560.373535 788.567810,520.818604 
	C790.441040,507.087708 790.737915,493.141754 791.750793,479.347198 
	C769.667847,479.347198 748.741211,479.347198 727.484802,479.347198 
	C727.163025,484.908295 726.860168,490.142426 726.601013,494.620911 
	C739.290222,498.620789 751.610596,502.504425 763.930908,506.388062 
	C763.804443,507.101440 763.677979,507.814819 763.551514,508.528198 
	C750.673401,508.528198 737.795349,508.528198 724.750671,508.528198 
	C723.964417,512.916138 723.334106,516.433655 722.840942,519.185730 
	C734.836182,524.788391 746.294312,530.140198 757.752502,535.491943 
	C757.665222,535.836548 757.577942,536.181152 757.490601,536.525757 
	C745.278687,535.906128 733.066772,535.286499 720.708923,534.659424 
	C719.171082,538.602417 717.620361,542.578369 716.205872,546.205200 
	C726.249512,553.148132 736.181702,560.013977 745.800781,567.254700 
	C745.800781,567.254700 745.512451,567.649048 744.680542,567.515564 
z"/>
<path fill="#F9F8F8" opacity="1.000000" stroke="none" 
	d="
M743.039673,371.033936 
	C743.255188,370.770203 743.407104,370.429443 743.668762,370.241455 
	C743.769897,370.168823 744.119995,370.442627 744.356628,370.558594 
	C744.084778,370.735809 743.812866,370.912994 743.262451,371.036072 
	C742.983887,370.981964 743.019897,371.017944 743.039673,371.033936 
z"/>
<path fill="#F9F8F8" opacity="1.000000" stroke="none" 
	d="
M461.235443,240.611359 
	C461.294861,240.575027 461.080475,240.831161 461.080475,240.831161 
	C461.080475,240.831161 461.298645,240.683502 461.187653,240.616791 
	C461.076660,240.550079 461.176025,240.647690 461.235443,240.611359 
z"/>
<path fill="#F9F8F8" opacity="1.000000" stroke="none" 
	d="
M368.610657,288.325134 
	C368.600128,288.064911 368.790466,287.636261 369.088806,287.504333 
	C369.068390,287.919617 368.939972,288.038147 368.610657,288.325134 
z"/>
<path fill="#070607" opacity="1.000000" stroke="none" 
	d="
M330.814270,545.991699 
	C332.537994,532.980042 334.818237,520.008362 335.757721,506.940308 
	C336.249786,500.096130 334.031799,493.102600 333.646515,486.142822 
	C330.201599,423.913025 349.831451,370.498962 395.270050,327.291504 
	C425.042175,298.981232 460.683105,282.172150 501.320465,277.186188 
	C552.280945,270.933563 597.991089,284.909149 638.090637,316.683685 
	C678.926147,349.041473 702.912170,391.445587 710.723328,442.845673 
	C713.743835,462.721344 712.709290,482.680695 709.918701,502.604065 
	C709.207397,507.682800 710.599609,513.052002 710.992065,518.290283 
	C711.986816,531.567932 713.075623,544.840149 713.879395,558.129517 
	C714.130737,562.285889 715.925781,563.763428 719.943665,564.176392 
	C728.216309,565.026672 736.437927,566.373230 745.329346,567.680420 
	C746.451965,567.761353 746.925842,567.677368 747.776245,567.526672 
	C746.987488,567.219788 746.550720,567.049805 746.113892,566.879822 
	C736.181702,560.013977 726.249512,553.148132 716.205872,546.205200 
	C717.620361,542.578369 719.171082,538.602417 720.708923,534.659424 
	C733.066772,535.286499 745.278687,535.906128 757.490601,536.525757 
	C757.577942,536.181152 757.665222,535.836548 757.752502,535.491943 
	C746.294312,530.140198 734.836182,524.788391 722.840942,519.185730 
	C723.334106,516.433655 723.964417,512.916138 724.750671,508.528198 
	C737.795349,508.528198 750.673401,508.528198 763.551514,508.528198 
	C763.677979,507.814819 763.804443,507.101440 763.930908,506.388062 
	C751.610596,502.504425 739.290222,498.620789 726.601013,494.620911 
	C726.860168,490.142426 727.163025,484.908295 727.484802,479.347198 
	C748.741211,479.347198 769.667847,479.347198 791.750793,479.347198 
	C790.737915,493.141754 790.441040,507.087708 788.567810,520.818604 
	C783.171692,560.373535 772.730164,598.567078 755.765198,634.838867 
	C733.592468,682.244751 703.913818,724.257019 665.655762,760.080933 
	C624.552185,798.569214 578.244812,829.172058 526.500916,851.442200 
	C524.524475,852.292847 521.552795,852.404846 519.618958,851.554932 
	C426.613342,810.679199 351.877350,748.968018 301.846954,659.429504 
	C277.243530,615.397217 263.130310,567.898865 257.038055,517.968445 
	C255.487793,505.263000 254.828766,492.448883 253.730499,479.329224 
	C275.310699,479.329224 296.394592,479.329224 317.888550,479.329224 
	C318.245728,484.611725 318.608917,489.983459 318.921661,494.609222 
	C306.056732,498.618622 293.689819,502.472778 281.322937,506.326935 
	C281.432220,506.989960 281.541504,507.653015 281.650787,508.316040 
	C294.488495,508.316040 307.326233,508.316040 320.250122,508.316040 
	C321.235107,512.637207 322.026794,516.110474 322.688995,519.015625 
	C310.864960,524.428833 299.336090,529.706909 287.807190,534.984985 
	C287.910400,535.498657 288.013641,536.012268 288.116852,536.525940 
	C300.370819,535.793518 312.624756,535.061096 324.891602,534.327942 
	C326.426178,538.037964 327.945496,541.711121 329.644592,546.080139 
	C318.976227,553.396851 308.128113,560.017578 297.279999,566.638367 
	C297.511353,567.013306 297.742706,567.388306 297.974060,567.763306 
	C306.987701,566.506042 315.990051,565.157410 325.021698,564.046326 
	C327.785278,563.706360 329.082886,562.711304 329.277222,559.804932 
	C329.585999,555.186951 330.282043,550.594788 330.814270,545.991699 
M487.635193,623.970825 
	C495.008362,618.945374 502.381531,613.919922 509.802795,608.861694 
	C507.579926,604.994751 505.434570,604.256409 502.353699,606.932617 
	C498.853241,609.973389 494.808472,612.459961 491.659393,615.807495 
	C489.559998,618.039124 488.612762,621.354736 487.056274,624.272705 
	C487.056274,624.272705 486.983612,624.041992 486.983612,624.041992 
	C486.983612,624.041992 486.987549,624.262695 487.635193,623.970825 
M613.590027,656.859314 
	C621.627380,644.615845 626.010498,628.936523 623.581299,621.127808 
	C621.666809,625.149902 619.075134,628.997559 617.984009,633.231873 
	C615.950256,641.124451 614.789368,649.242065 613.133423,657.307922 
	C613.133423,657.307922 613.104065,657.076294 613.104065,657.076294 
	C613.104065,657.076294 613.079895,657.336487 613.590027,656.859314 
M377.716797,523.980225 
	C392.681763,511.038757 402.749603,489.946106 398.844604,478.213409 
	C393.103699,489.862061 387.588928,500.890411 382.237061,511.997253 
	C380.323547,515.968323 378.804016,520.129333 376.822540,523.792297 
	C376.668610,523.988342 376.514679,524.184387 376.360687,524.380371 
	C376.586121,524.273743 376.811523,524.167053 377.716797,523.980225 
M533.442017,346.621429 
	C548.448120,339.109253 574.870239,340.813873 578.515930,348.719147 
	C570.681885,349.340515 562.476135,349.518402 554.434448,350.759155 
	C546.007751,352.059357 538.999878,356.338654 534.146973,363.909485 
	C544.007812,359.278839 554.067749,356.191742 565.672852,358.171875 
	C557.113342,360.355713 550.862244,364.623474 547.246155,370.477722 
	C563.164612,368.479523 571.673645,369.289215 577.756653,373.372131 
	C571.391785,373.878235 564.861023,373.666809 558.707886,375.089111 
	C552.362183,376.556000 545.883911,378.805237 540.389160,382.207062 
	C535.151550,385.449707 531.107422,390.619965 526.538574,394.942810 
	C567.314819,378.194672 600.715332,386.770752 627.931519,420.876984 
	C621.585205,397.160858 604.096130,384.539154 582.011475,375.205292 
	C595.370972,371.342377 606.224670,375.169464 616.952393,380.793579 
	C611.288452,370.146881 603.081848,362.473785 592.372070,357.338470 
	C611.665405,357.412842 625.529419,367.567474 637.747620,381.276001 
	C636.342163,375.742340 634.997009,370.347717 632.507874,365.546051 
	C620.854431,343.066132 601.614990,329.352722 578.615906,320.414062 
	C568.730896,316.572235 558.368530,314.748230 547.742676,317.009399 
	C542.460571,318.133423 537.658936,320.357300 533.501648,324.997894 
	C563.621643,324.071899 571.969543,325.238861 574.572205,330.153412 
	C570.591003,330.153412 566.319885,329.721924 562.165710,330.235626 
	C550.462219,331.682953 539.899109,335.526123 532.460083,346.169922 
	C532.539368,346.378937 532.618591,346.587921 532.697876,346.796936 
	C532.822632,346.744873 533.058472,346.680328 533.054199,346.642731 
	C533.027222,346.402222 532.947510,346.167603 533.442017,346.621429 
M556.797791,613.984985 
	C568.745178,619.332764 573.475464,630.476440 578.341370,641.244629 
	C587.173462,622.205078 599.134888,604.220215 596.158875,584.044922 
	C602.340271,578.838013 607.793701,575.293701 611.888672,570.571472 
	C619.840088,561.401978 627.017700,551.562439 634.538269,542.018066 
	C637.496826,538.263306 637.686584,534.261230 636.320557,529.781128 
	C629.187195,506.386688 622.065491,482.987152 615.184021,459.517792 
	C610.052307,442.016052 599.207458,429.511383 583.180359,421.160431 
	C568.600769,413.563721 552.657776,411.100281 536.782654,408.020905 
	C527.735413,406.265991 519.271912,405.707825 510.064148,407.850891 
	C496.148285,411.089691 481.841461,412.631805 468.653351,418.659851 
	C456.991913,423.990021 449.387878,432.631500 446.935608,445.394531 
	C445.806549,451.270386 444.531860,457.160431 444.022675,463.103973 
	C443.135498,473.458313 440.093262,482.621429 431.881500,489.528870 
	C431.262482,490.049561 430.857056,490.824127 429.981079,491.938110 
	C430.020264,492.185699 430.059448,492.433319 430.098602,492.680908 
	C430.429657,492.486237 430.760742,492.291565 431.794830,492.032654 
	C438.155365,489.281036 444.288116,485.605927 450.923676,483.969330 
	C464.893951,480.523743 479.108093,482.276276 493.142181,484.321716 
	C509.478088,486.702637 512.329712,489.368622 512.938721,506.109497 
	C513.791931,529.566711 513.763733,553.058960 513.903564,576.537537 
	C513.959045,585.863342 520.487732,591.067078 529.553101,588.308594 
	C532.071045,587.542480 534.499573,586.300293 536.771545,584.945312 
	C541.671387,582.023132 543.064880,586.991455 545.642517,588.891663 
	C548.399658,590.924255 545.968506,592.762268 544.498352,594.130371 
	C540.440063,597.906860 536.217285,601.506592 531.891724,605.324280 
	C541.369690,612.324341 550.565308,619.115906 560.120667,625.453735 
	C560.240906,625.352539 560.361206,625.251282 560.481445,625.150085 
	C560.398743,625.069519 560.316101,624.989014 560.233337,624.908447 
	C560.085144,625.249329 559.936890,625.590210 560.418335,625.246704 
	C558.701416,621.698059 556.984497,618.149414 555.681519,614.275635 
	C555.810913,614.157227 555.940308,614.038757 556.797791,613.984985 
M475.674652,667.832947 
	C475.379669,666.110901 475.084656,664.388916 474.756256,662.471802 
	C462.255768,678.296204 459.691864,698.444458 472.187225,710.839233 
	C470.473663,701.643372 471.605255,693.102600 474.790741,683.332275 
	C477.560883,692.517029 479.662231,700.333313 482.292450,707.967529 
	C484.947510,715.673645 488.984009,722.618225 495.909515,728.706238 
	C493.371582,717.386047 495.662811,707.854431 501.407623,699.241394 
	C508.302155,688.904602 515.605408,678.840393 522.884827,668.439209 
	C529.929626,678.500427 537.104553,688.439087 543.941589,698.605042 
	C549.900269,707.464966 553.020386,717.094788 550.682434,728.666443 
	C552.767090,727.395386 553.900940,725.380737 555.301880,723.573120 
	C564.327942,711.926880 566.987305,697.834229 570.666504,682.745239 
	C574.837158,692.730591 575.569214,701.749695 573.063721,711.608887 
	C585.363892,697.803223 583.709473,674.145996 570.063599,661.820984 
	C569.179932,665.730713 568.461731,669.662292 567.376709,673.489929 
	C566.364136,677.062256 564.961975,680.524292 563.731323,684.034851 
	C563.005737,683.886108 562.280151,683.737305 561.554565,683.588562 
	C561.554565,671.329468 561.435547,659.068481 561.629395,646.812439 
	C561.685181,643.286133 560.225525,641.532898 557.331604,639.819092 
	C544.113281,631.991028 529.817871,630.054626 514.931274,632.043213 
	C510.721954,632.605469 506.738220,634.856140 502.247681,636.478149 
	C505.438843,641.372681 509.058105,643.052063 513.457397,643.077454 
	C524.240295,643.139709 535.023865,643.097778 545.337952,643.097778 
	C542.717102,646.492554 539.352783,650.016418 537.033325,654.129456 
	C535.306458,657.191711 533.711975,658.336853 531.031250,656.086426 
	C525.100525,651.107666 520.016663,653.043396 514.944092,657.441162 
	C512.557129,659.510559 509.891113,661.255737 507.472748,663.291748 
	C498.751373,670.634094 490.081573,678.037598 480.909454,685.828125 
	C479.108246,679.727356 477.468658,674.174072 475.674652,667.832947 
M431.589233,380.060883 
	C441.204987,374.173340 451.385559,372.035614 462.046234,374.363190 
	C452.807800,380.357727 443.447601,385.708679 434.921265,392.161438 
	C425.900848,398.988129 417.891937,413.401062 418.747131,420.092926 
	C430.713470,404.557892 444.670227,392.744751 463.811066,388.787415 
	C482.656738,384.891022 500.785492,387.142212 518.150269,395.746857 
	C506.157532,377.521942 488.311829,372.519379 467.767029,373.177399 
	C477.847412,368.657532 488.206787,368.766327 499.977966,370.664307 
	C494.059875,363.850372 487.932861,360.119629 480.576843,358.113953 
	C491.612122,356.658447 502.033783,358.410461 512.132690,363.599976 
	C510.392914,360.895233 508.507233,358.456909 506.093964,356.776062 
	C493.597778,348.072449 479.443359,348.120422 464.753601,349.879456 
	C470.934570,341.618256 492.524902,340.177612 513.665466,346.471313 
	C502.316040,332.633667 487.852783,328.713806 471.321594,329.858643 
	C484.212982,322.684021 497.811584,323.283020 512.669556,325.335541 
	C504.758911,317.558044 496.157562,315.389008 487.017334,316.432343 
	C456.375946,319.929962 432.448181,334.771149 415.844055,360.739929 
	C411.982391,366.779572 409.958557,373.994324 407.089111,380.668427 
	C407.560272,380.902161 408.031403,381.135895 408.502533,381.369629 
	C420.489288,367.946503 433.692932,356.804535 453.166290,357.294952 
	C441.922882,362.612579 433.633179,370.781067 428.555756,382.179749 
	C429.373993,381.628174 430.192230,381.076630 431.589233,380.060883 
M431.787933,563.702515 
	C436.972870,567.860107 441.894684,572.414856 447.412262,576.070435 
	C453.697357,580.234497 456.555023,585.860718 457.046783,593.077698 
	C457.362701,597.713745 457.728485,602.346375 458.072266,606.984924 
	C467.724518,605.811035 478.262909,597.049255 482.873993,585.888000 
	C489.766052,569.205444 491.251343,551.713196 489.569244,533.924133 
	C489.288452,530.954529 487.681488,527.978699 486.170135,525.297241 
	C484.872894,522.995483 482.964844,522.678528 480.407654,524.473511 
	C467.513214,533.524292 453.931885,537.183411 438.733948,529.842957 
	C433.438416,527.285278 427.863007,528.094971 423.467316,532.433167 
	C418.887390,536.953186 418.245209,542.717285 420.997253,548.080444 
	C423.760498,553.465576 427.795746,558.197876 431.787933,563.702515 
M366.438141,451.878754 
	C356.273346,477.819580 349.502777,504.461395 350.399841,532.572754 
	C351.209656,557.949219 345.914276,582.072632 336.973572,605.698914 
	C333.840790,613.977478 332.664215,622.996277 330.594360,631.677124 
	C331.169098,631.855896 331.743835,632.034668 332.318573,632.213440 
	C350.399048,602.702271 361.676270,570.083740 374.030853,537.759705 
	C370.480835,541.820618 366.930847,545.881470 363.377045,549.946716 
	C360.986053,523.861572 363.815674,498.341949 372.275208,473.451538 
	C379.240021,452.958984 385.579224,432.296661 388.524567,410.757202 
	C388.952850,407.625366 389.489868,404.508575 389.949188,401.380798 
	C390.377228,398.465485 390.768829,395.544830 391.176453,392.626495 
	C390.544800,392.466278 389.913116,392.306061 389.281433,392.145813 
	C381.772858,411.817627 374.264282,431.489410 366.438141,451.878754 
M709.172546,626.356323 
	C710.198853,628.502930 711.225098,630.649536 712.251404,632.796082 
	C712.851135,632.626404 713.450867,632.456787 714.050537,632.287109 
	C712.179382,623.819824 711.403992,614.916260 708.237793,606.964661 
	C697.397339,579.739502 693.095459,551.734436 693.692688,522.465942 
	C693.960754,509.331024 691.916748,495.734436 688.428589,483.032013 
	C682.843689,462.694244 675.425110,442.839783 668.304932,422.951721 
	C664.297913,411.759277 659.335327,400.908936 654.803223,389.904510 
	C654.800415,396.553131 655.028564,403.089417 656.580688,409.294556 
	C662.301086,432.163025 667.980164,455.061981 674.586670,477.683167 
	C681.383728,500.956879 683.288635,524.491516 681.523804,548.578125 
	C678.009583,545.220581 674.671204,542.031067 671.483276,538.985291 
	C677.010925,553.701233 681.987366,568.643250 688.211975,583.045837 
	C694.469788,597.525330 701.970093,611.467896 709.172546,626.356323 
M678.107422,606.370056 
	C671.700989,597.167542 665.294556,587.965027 658.955444,578.859253 
	C659.607178,591.777588 664.571838,603.778320 670.408813,615.531677 
	C670.063843,615.869263 669.718933,616.206909 669.374023,616.544556 
	C666.186035,614.508728 662.998047,612.472839 659.810120,610.437012 
	C668.365173,624.861572 677.862122,638.231140 686.284790,652.246399 
	C695.053345,666.837219 695.833679,683.456116 695.861084,700.481262 
	C697.061157,700.100830 697.271729,699.455383 697.582458,698.862427 
	C707.808167,679.351379 710.824890,659.149353 700.236328,639.117737 
	C694.224670,627.744690 685.860474,617.615173 678.107422,606.370056 
M340.045776,677.301331 
	C342.857086,685.629639 345.668427,693.957947 348.479736,702.286316 
	C348.919067,702.134827 349.358429,701.983398 349.797760,701.831970 
	C349.797760,700.202209 349.856079,698.569946 349.788788,696.942993 
	C349.079071,679.785156 351.990204,663.355774 360.959076,648.552612 
	C366.891144,638.761658 373.779785,629.552124 380.179169,620.041199 
	C382.034027,617.284424 383.677948,614.385681 385.418579,611.552063 
	C385.023254,611.228210 384.627960,610.904358 384.232635,610.580505 
	C380.766968,613.238831 377.301270,615.897217 373.835602,618.555542 
	C376.180939,611.414978 379.507538,605.267273 381.816315,598.758667 
	C384.146851,592.188660 385.467987,585.260620 387.374146,577.940918 
	C375.031219,594.838684 362.931763,610.879272 351.414032,627.327148 
	C341.110657,642.040771 336.361450,658.341064 340.045776,677.301331 
M521.177246,731.722290 
	C519.616699,737.112305 516.861084,742.471008 516.719238,747.898132 
	C516.289368,764.344849 516.333801,780.848572 517.264954,797.269287 
	C517.808289,806.849854 520.400940,816.314148 522.071533,825.830750 
	C522.776794,825.791443 523.482056,825.752136 524.187256,825.712830 
	C525.468994,819.408325 527.612122,813.139099 527.872681,806.792725 
	C528.690613,786.868774 529.297363,766.905640 528.896118,746.979675 
	C528.767212,740.577271 525.254822,734.243103 522.910400,726.646667 
	C522.080261,729.121033 521.764282,730.062927 521.177246,731.722290 
M362.650177,683.164856 
	C360.688599,702.921448 368.275146,719.226318 381.273376,733.744995 
	C371.321533,706.951538 369.063721,679.792847 376.783813,651.936829 
	C369.095306,660.922913 364.415833,670.922668 362.650177,683.164856 
M666.710144,725.020203 
	C665.327393,728.283875 663.944702,731.547546 662.605103,734.709473 
	C669.560059,732.920227 683.652954,706.923462 683.050720,689.547241 
	C682.550659,675.119873 673.918945,653.204712 667.421753,651.298035 
	C674.859985,675.633179 674.606445,699.961487 666.710144,725.020203 
M745.667480,600.823853 
	C738.185974,589.996887 727.638550,582.545044 716.832458,574.333862 
	C718.011353,580.367981 718.999268,585.736511 720.147583,591.070496 
	C720.415588,592.315552 720.905518,593.957581 721.840820,594.544617 
	C730.099854,599.728455 738.575500,604.490784 749.146973,606.205261 
	C747.850586,604.170166 746.967712,602.784119 745.667480,600.823853 
M320.162048,580.658325 
	C311.112915,587.814148 302.135193,595.035339 296.038177,606.865051 
	C300.347931,605.463379 303.418701,604.422729 306.515167,603.465210 
	C317.392914,600.101257 326.264221,595.037537 325.770813,581.601562 
	C325.708923,579.915894 326.437622,578.201233 326.922607,575.924561 
	C324.509491,577.606140 322.624695,578.919617 320.162048,580.658325 
M665.805969,519.211182 
	C659.755737,505.011627 653.144531,491.107513 644.473816,478.201294 
	C645.714600,486.142151 646.827820,494.181458 650.116821,501.201324 
	C653.423645,508.259308 658.828552,514.351440 663.465088,520.757507 
	C664.677063,522.432190 666.307373,523.298706 665.805969,519.211182 
M602.781921,657.490479 
	C602.781921,653.961426 602.781921,650.432312 602.781921,646.903259 
	C602.144592,646.803711 601.507202,646.704163 600.869873,646.604614 
	C598.336548,658.270325 595.803284,669.935974 593.269958,681.601685 
	C593.918640,681.771118 594.567322,681.940613 595.216003,682.110046 
	C601.899841,675.684937 603.165344,667.359863 602.781921,657.490479 
M429.092163,636.545166 
	C427.793884,633.860901 426.461792,631.192383 425.206940,628.487976 
	C423.979706,625.843079 422.831207,623.161621 421.648132,620.496216 
	C421.096924,633.490417 422.921417,645.660095 432.448669,655.605347 
	C431.426025,649.498352 430.403412,643.391357 429.092163,636.545166 
M450.940308,679.110046 
	C450.269653,664.422852 447.390808,652.739563 443.594849,649.300049 
	C440.843597,663.673218 443.724640,676.511475 450.980774,682.431824 
	C450.980774,681.649902 450.980774,680.818848 450.940308,679.110046 
M455.559662,525.189026 
	C465.009552,528.932678 473.325653,525.452026 482.093842,521.181274 
	C480.983856,519.460449 480.077393,518.055176 479.133575,516.591980 
	C469.544342,522.582581 460.301605,526.389771 450.165131,518.217346 
	C449.940582,518.750427 449.716003,519.283569 449.491455,519.816711 
	C451.267700,521.527832 453.043976,523.239014 455.559662,525.189026 
z"/>
<path fill="#F1EFF1" opacity="1.000000" stroke="none" 
	d="
M330.682220,545.978943 
	C330.282043,550.594788 329.585999,555.186951 329.277222,559.804932 
	C329.082886,562.711304 327.785278,563.706360 325.021698,564.046326 
	C315.990051,565.157410 306.987701,566.506042 297.974060,567.763306 
	C297.742706,567.388306 297.511353,567.013306 297.279999,566.638367 
	C308.128113,560.017578 318.976227,553.396851 329.922241,546.370789 
	C330.196838,545.945374 330.373505,545.945557 330.682220,545.978943 
z"/>
<path fill="#FBFBFA" opacity="1.000000" stroke="none" 
	d="
M430.352295,491.480682 
	C430.857056,490.824127 431.262482,490.049561 431.881500,489.528870 
	C440.093262,482.621429 443.135498,473.458313 444.022675,463.103973 
	C444.531860,457.160431 445.806549,451.270386 446.935608,445.394531 
	C449.387878,432.631500 456.991913,423.990021 468.653351,418.659851 
	C481.841461,412.631805 496.148285,411.089691 510.064148,407.850891 
	C519.271912,405.707825 527.735413,406.265991 536.782654,408.020905 
	C552.657776,411.100281 568.600769,413.563721 583.180359,421.160431 
	C599.207458,429.511383 610.052307,442.016052 615.184021,459.517792 
	C622.065491,482.987152 629.187195,506.386688 636.320557,529.781128 
	C637.686584,534.261230 637.496826,538.263306 634.538269,542.018066 
	C627.017700,551.562439 619.840088,561.401978 611.888672,570.571472 
	C607.793701,575.293701 602.340271,578.838013 596.158875,584.044922 
	C599.134888,604.220215 587.173462,622.205078 578.341370,641.244629 
	C573.475464,630.476440 568.745178,619.332764 556.328613,613.674194 
	C555.333984,613.253296 554.808472,613.143188 554.282898,613.033020 
	C554.054749,613.326721 553.826599,613.620361 553.598389,613.914001 
	C554.154785,614.142944 554.711121,614.371887 555.267578,614.600830 
	C556.984497,618.149414 558.701416,621.698059 560.113770,625.526978 
	C559.809143,625.807251 559.760925,625.907471 559.760925,625.907471 
	C550.565308,619.115906 541.369690,612.324341 531.891724,605.324280 
	C536.217285,601.506592 540.440063,597.906860 544.498352,594.130371 
	C545.968506,592.762268 548.399658,590.924255 545.642517,588.891663 
	C543.064880,586.991455 541.671387,582.023132 536.771545,584.945312 
	C534.499573,586.300293 532.071045,587.542480 529.553101,588.308594 
	C520.487732,591.067078 513.959045,585.863342 513.903564,576.537537 
	C513.763733,553.058960 513.791931,529.566711 512.938721,506.109497 
	C512.329712,489.368622 509.478088,486.702637 493.142181,484.321716 
	C479.108093,482.276276 464.893951,480.523743 450.923676,483.969330 
	C444.288116,485.605927 438.155365,489.281036 431.263214,491.904968 
	C430.731598,491.777283 430.352295,491.480682 430.352295,491.480682 
M598.413452,508.018982 
	C593.441345,505.448273 588.469177,502.877563 583.668701,500.395599 
	C595.261047,498.159088 606.674927,498.912872 617.991821,504.270447 
	C617.901245,502.081848 617.612671,500.186676 616.672668,498.704742 
	C611.819153,491.053558 604.943176,485.998444 596.091064,484.014984 
	C579.279114,480.248108 562.610840,482.758118 546.015198,485.718567 
	C538.583252,487.044342 535.438782,489.682190 535.015503,497.177155 
	C533.965454,515.767700 533.707458,534.403137 533.161560,553.021484 
	C533.149292,553.441406 533.496216,553.871948 533.675598,554.297607 
	C536.174194,541.603088 536.557007,528.736328 547.766235,518.906494 
	C548.176514,522.459106 548.434753,524.695374 548.794678,527.812073 
	C557.366882,523.749390 564.609192,527.533508 572.041504,530.335266 
	C578.908691,532.924011 585.797424,532.740051 592.366760,529.412842 
	C597.667419,526.728210 602.016235,521.674622 609.345947,524.368530 
	C609.468506,523.755676 609.591003,523.142761 609.713501,522.529907 
	C606.129456,517.848328 602.545349,513.166748 598.413452,508.018982 
z"/>
<path fill="#F7F6F6" opacity="1.000000" stroke="none" 
	d="
M475.751892,668.226868 
	C477.468658,674.174072 479.108246,679.727356 480.909454,685.828125 
	C490.081573,678.037598 498.751373,670.634094 507.472748,663.291748 
	C509.891113,661.255737 512.557129,659.510559 514.944092,657.441162 
	C520.016663,653.043396 525.100525,651.107666 531.031250,656.086426 
	C533.711975,658.336853 535.306458,657.191711 537.033325,654.129456 
	C539.352783,650.016418 542.717102,646.492554 545.337952,643.097778 
	C535.023865,643.097778 524.240295,643.139709 513.457397,643.077454 
	C509.058105,643.052063 505.438843,641.372681 502.247681,636.478149 
	C506.738220,634.856140 510.721954,632.605469 514.931274,632.043213 
	C529.817871,630.054626 544.113281,631.991028 557.331604,639.819092 
	C560.225525,641.532898 561.685181,643.286133 561.629395,646.812439 
	C561.435547,659.068481 561.554565,671.329468 561.554565,683.588562 
	C562.280151,683.737305 563.005737,683.886108 563.731323,684.034851 
	C564.961975,680.524292 566.364136,677.062256 567.376709,673.489929 
	C568.461731,669.662292 569.179932,665.730713 570.063599,661.820984 
	C583.709473,674.145996 585.363892,697.803223 573.063721,711.608887 
	C575.569214,701.749695 574.837158,692.730591 570.666504,682.745239 
	C566.987305,697.834229 564.327942,711.926880 555.301880,723.573120 
	C553.900940,725.380737 552.767090,727.395386 550.682434,728.666443 
	C553.020386,717.094788 549.900269,707.464966 543.941589,698.605042 
	C537.104553,688.439087 529.929626,678.500427 522.884827,668.439209 
	C515.605408,678.840393 508.302155,688.904602 501.407623,699.241394 
	C495.662811,707.854431 493.371582,717.386047 495.909515,728.706238 
	C488.984009,722.618225 484.947510,715.673645 482.292450,707.967529 
	C479.662231,700.333313 477.560883,692.517029 474.790741,683.332275 
	C471.605255,693.102600 470.473663,701.643372 472.187225,710.839233 
	C459.691864,698.444458 462.255768,678.296204 474.756256,662.471802 
	C475.084656,664.388916 475.379669,666.110901 475.751892,668.226868 
z"/>
<path fill="#F5F5F5" opacity="1.000000" stroke="none" 
	d="
M533.015015,346.011475 
	C539.899109,335.526123 550.462219,331.682953 562.165710,330.235626 
	C566.319885,329.721924 570.591003,330.153412 574.572205,330.153412 
	C571.969543,325.238861 563.621643,324.071899 533.501648,324.997894 
	C537.658936,320.357300 542.460571,318.133423 547.742676,317.009399 
	C558.368530,314.748230 568.730896,316.572235 578.615906,320.414062 
	C601.614990,329.352722 620.854431,343.066132 632.507874,365.546051 
	C634.997009,370.347717 636.342163,375.742340 637.747620,381.276001 
	C625.529419,367.567474 611.665405,357.412842 592.372070,357.338470 
	C603.081848,362.473785 611.288452,370.146881 616.952393,380.793579 
	C606.224670,375.169464 595.370972,371.342377 582.011475,375.205292 
	C604.096130,384.539154 621.585205,397.160858 627.931519,420.876984 
	C600.715332,386.770752 567.314819,378.194672 526.538574,394.942810 
	C531.107422,390.619965 535.151550,385.449707 540.389160,382.207062 
	C545.883911,378.805237 552.362183,376.556000 558.707886,375.089111 
	C564.861023,373.666809 571.391785,373.878235 577.757080,373.376648 
	C571.673645,369.289215 563.164612,368.479523 547.246155,370.477722 
	C550.862244,364.623474 557.113342,360.355713 565.672852,358.171875 
	C554.067749,356.191742 544.007812,359.278839 534.146973,363.909485 
	C538.999878,356.338654 546.007751,352.059357 554.434448,350.759155 
	C562.476135,349.518402 570.681885,349.340515 578.515930,348.719147 
	C574.870239,340.813873 548.448120,339.109253 533.197388,346.294189 
	C532.952698,345.966980 533.015015,346.011475 533.015015,346.011475 
z"/>
<path fill="#F6F5F5" opacity="1.000000" stroke="none" 
	d="
M431.299866,380.292969 
	C430.192230,381.076630 429.373993,381.628174 428.555756,382.179749 
	C433.633179,370.781067 441.922882,362.612579 453.166290,357.294952 
	C433.692932,356.804535 420.489288,367.946503 408.502533,381.369629 
	C408.031403,381.135895 407.560272,380.902161 407.089111,380.668427 
	C409.958557,373.994324 411.982391,366.779572 415.844055,360.739929 
	C432.448181,334.771149 456.375946,319.929962 487.017334,316.432343 
	C496.157562,315.389008 504.758911,317.558044 512.669556,325.335541 
	C497.811584,323.283020 484.212982,322.684021 471.321594,329.858643 
	C487.852783,328.713806 502.316040,332.633667 513.665466,346.471313 
	C492.524902,340.177612 470.934570,341.618256 464.753601,349.879456 
	C479.443359,348.120422 493.597778,348.072449 506.093964,356.776062 
	C508.507233,358.456909 510.392914,360.895233 512.132690,363.599976 
	C502.033783,358.410461 491.612122,356.658447 480.576843,358.113953 
	C487.932861,360.119629 494.059875,363.850372 499.977966,370.664307 
	C488.206787,368.766327 477.847412,368.657532 467.767029,373.177399 
	C488.311829,372.519379 506.157532,377.521942 518.150269,395.746857 
	C500.785492,387.142212 482.656738,384.891022 463.811066,388.787415 
	C444.670227,392.744751 430.713470,404.557892 418.747131,420.092926 
	C417.891937,413.401062 425.900848,398.988129 434.921265,392.161438 
	C443.447601,385.708679 452.807800,380.357727 462.046234,374.363190 
	C451.385559,372.035614 441.204987,374.173340 431.299866,380.292969 
z"/>
<path fill="#FAFAF9" opacity="1.000000" stroke="none" 
	d="
M431.530762,563.459412 
	C427.795746,558.197876 423.760498,553.465576 420.997253,548.080444 
	C418.245209,542.717285 418.887390,536.953186 423.467316,532.433167 
	C427.863007,528.094971 433.438416,527.285278 438.733948,529.842957 
	C453.931885,537.183411 467.513214,533.524292 480.407654,524.473511 
	C482.964844,522.678528 484.872894,522.995483 486.170135,525.297241 
	C487.681488,527.978699 489.288452,530.954529 489.569244,533.924133 
	C491.251343,551.713196 489.766052,569.205444 482.873993,585.888000 
	C478.262909,597.049255 467.724518,605.811035 458.072266,606.984924 
	C457.728485,602.346375 457.362701,597.713745 457.046783,593.077698 
	C456.555023,585.860718 453.697357,580.234497 447.412262,576.070435 
	C441.894684,572.414856 436.972870,567.860107 431.530762,563.459412 
z"/>
<path fill="#F5F4F5" opacity="1.000000" stroke="none" 
	d="
M366.596924,451.519958 
	C374.264282,431.489410 381.772858,411.817627 389.281433,392.145813 
	C389.913116,392.306061 390.544800,392.466278 391.176453,392.626495 
	C390.768829,395.544830 390.377228,398.465485 389.949188,401.380798 
	C389.489868,404.508575 388.952850,407.625366 388.524567,410.757202 
	C385.579224,432.296661 379.240021,452.958984 372.275208,473.451538 
	C363.815674,498.341949 360.986053,523.861572 363.377045,549.946716 
	C366.930847,545.881470 370.480835,541.820618 374.030853,537.759705 
	C361.676270,570.083740 350.399048,602.702271 332.318573,632.213440 
	C331.743835,632.034668 331.169098,631.855896 330.594360,631.677124 
	C332.664215,622.996277 333.840790,613.977478 336.973572,605.698914 
	C345.914276,582.072632 351.209656,557.949219 350.399841,532.572754 
	C349.502777,504.461395 356.273346,477.819580 366.596924,451.519958 
z"/>
<path fill="#F5F4F5" opacity="1.000000" stroke="none" 
	d="
M709.049255,626.001038 
	C701.970093,611.467896 694.469788,597.525330 688.211975,583.045837 
	C681.987366,568.643250 677.010925,553.701233 671.483276,538.985291 
	C674.671204,542.031067 678.009583,545.220581 681.523804,548.578125 
	C683.288635,524.491516 681.383728,500.956879 674.586670,477.683167 
	C667.980164,455.061981 662.301086,432.163025 656.580688,409.294556 
	C655.028564,403.089417 654.800415,396.553131 654.803223,389.904510 
	C659.335327,400.908936 664.297913,411.759277 668.304932,422.951721 
	C675.425110,442.839783 682.843689,462.694244 688.428589,483.032013 
	C691.916748,495.734436 693.960754,509.331024 693.692688,522.465942 
	C693.095459,551.734436 697.397339,579.739502 708.237793,606.964661 
	C711.403992,614.916260 712.179382,623.819824 714.050537,632.287109 
	C713.450867,632.456787 712.851135,632.626404 712.251404,632.796082 
	C711.225098,630.649536 710.198853,628.502930 709.049255,626.001038 
z"/>
<path fill="#F6F4F5" opacity="1.000000" stroke="none" 
	d="
M678.331543,606.647827 
	C685.860474,617.615173 694.224670,627.744690 700.236328,639.117737 
	C710.824890,659.149353 707.808167,679.351379 697.582458,698.862427 
	C697.271729,699.455383 697.061157,700.100830 695.861084,700.481262 
	C695.833679,683.456116 695.053345,666.837219 686.284790,652.246399 
	C677.862122,638.231140 668.365173,624.861572 659.810120,610.437012 
	C662.998047,612.472839 666.186035,614.508728 669.374023,616.544556 
	C669.718933,616.206909 670.063843,615.869263 670.408813,615.531677 
	C664.571838,603.778320 659.607178,591.777588 658.955444,578.859253 
	C665.294556,587.965027 671.700989,597.167542 678.331543,606.647827 
z"/>
<path fill="#F5F4F5" opacity="1.000000" stroke="none" 
	d="
M339.999908,676.870850 
	C336.361450,658.341064 341.110657,642.040771 351.414032,627.327148 
	C362.931763,610.879272 375.031219,594.838684 387.374146,577.940918 
	C385.467987,585.260620 384.146851,592.188660 381.816315,598.758667 
	C379.507538,605.267273 376.180939,611.414978 373.835602,618.555542 
	C377.301270,615.897217 380.766968,613.238831 384.232635,610.580505 
	C384.627960,610.904358 385.023254,611.228210 385.418579,611.552063 
	C383.677948,614.385681 382.034027,617.284424 380.179169,620.041199 
	C373.779785,629.552124 366.891144,638.761658 360.959076,648.552612 
	C351.990204,663.355774 349.079071,679.785156 349.788788,696.942993 
	C349.856079,698.569946 349.797760,700.202209 349.797760,701.831970 
	C349.358429,701.983398 348.919067,702.134827 348.479736,702.286316 
	C345.668427,693.957947 342.857086,685.629639 339.999908,676.870850 
z"/>
<path fill="#F6F4F5" opacity="1.000000" stroke="none" 
	d="
M521.312744,731.363525 
	C521.764282,730.062927 522.080261,729.121033 522.910400,726.646667 
	C525.254822,734.243103 528.767212,740.577271 528.896118,746.979675 
	C529.297363,766.905640 528.690613,786.868774 527.872681,806.792725 
	C527.612122,813.139099 525.468994,819.408325 524.187256,825.712830 
	C523.482056,825.752136 522.776794,825.791443 522.071533,825.830750 
	C520.400940,816.314148 517.808289,806.849854 517.264954,797.269287 
	C516.333801,780.848572 516.289368,764.344849 516.719238,747.898132 
	C516.861084,742.471008 519.616699,737.112305 521.312744,731.363525 
z"/>
<path fill="#F1EFF1" opacity="1.000000" stroke="none" 
	d="
M362.710693,682.728088 
	C364.415833,670.922668 369.095306,660.922913 376.783813,651.936829 
	C369.063721,679.792847 371.321533,706.951538 381.273376,733.744995 
	C368.275146,719.226318 360.688599,702.921448 362.710693,682.728088 
z"/>
<path fill="#F3F1F2" opacity="1.000000" stroke="none" 
	d="
M666.812988,724.635193 
	C674.606445,699.961487 674.859985,675.633179 667.421753,651.298035 
	C673.918945,653.204712 682.550659,675.119873 683.050720,689.547241 
	C683.652954,706.923462 669.560059,732.920227 662.605103,734.709473 
	C663.944702,731.547546 665.327393,728.283875 666.812988,724.635193 
z"/>
<path fill="#F1EFF1" opacity="1.000000" stroke="none" 
	d="
M745.876160,601.110962 
	C746.967712,602.784119 747.850586,604.170166 749.146973,606.205261 
	C738.575500,604.490784 730.099854,599.728455 721.840820,594.544617 
	C720.905518,593.957581 720.415588,592.315552 720.147583,591.070496 
	C718.999268,585.736511 718.011353,580.367981 716.832458,574.333862 
	C727.638550,582.545044 738.185974,589.996887 745.876160,601.110962 
z"/>
<path fill="#F3F1F2" opacity="1.000000" stroke="none" 
	d="
M320.450989,580.445679 
	C322.624695,578.919617 324.509491,577.606140 326.922607,575.924561 
	C326.437622,578.201233 325.708923,579.915894 325.770813,581.601562 
	C326.264221,595.037537 317.392914,600.101257 306.515167,603.465210 
	C303.418701,604.422729 300.347931,605.463379 296.038177,606.865051 
	C302.135193,595.035339 311.112915,587.814148 320.450989,580.445679 
z"/>
<path fill="#EAE9EA" opacity="1.000000" stroke="none" 
	d="
M377.104614,524.203613 
	C378.804016,520.129333 380.323547,515.968323 382.237061,511.997253 
	C387.588928,500.890411 393.103699,489.862061 398.844604,478.213409 
	C402.749603,489.946106 392.681763,511.038757 377.396057,524.055054 
	C377.075317,524.129822 377.104645,524.203613 377.104614,524.203613 
z"/>
<path fill="#ECEAEC" opacity="1.000000" stroke="none" 
	d="
M665.941711,519.528320 
	C666.307373,523.298706 664.677063,522.432190 663.465088,520.757507 
	C658.828552,514.351440 653.423645,508.259308 650.116821,501.201324 
	C646.827820,494.181458 645.714600,486.142151 644.473816,478.201294 
	C653.144531,491.107513 659.755737,505.011627 665.941711,519.528320 
z"/>
<path fill="#E3E1E2" opacity="1.000000" stroke="none" 
	d="
M602.785034,657.974609 
	C603.165344,667.359863 601.899841,675.684937 595.216003,682.110046 
	C594.567322,681.940613 593.918640,681.771118 593.269958,681.601685 
	C595.803284,669.935974 598.336548,658.270325 600.869873,646.604614 
	C601.507202,646.704163 602.144592,646.803711 602.781921,646.903259 
	C602.781921,650.432312 602.781921,653.961426 602.785034,657.974609 
z"/>
<path fill="#ECEAEC" opacity="1.000000" stroke="none" 
	d="
M613.265137,657.265991 
	C614.789368,649.242065 615.950256,641.124451 617.984009,633.231873 
	C619.075134,628.997559 621.666809,625.149902 623.580078,621.127197 
	C626.010498,628.936523 621.627380,644.615845 613.370483,657.051880 
	C613.150879,657.244446 613.265137,657.265991 613.265137,657.265991 
z"/>
<path fill="#E8E6E8" opacity="1.000000" stroke="none" 
	d="
M429.236481,636.914795 
	C430.403412,643.391357 431.426025,649.498352 432.448669,655.605347 
	C422.921417,645.660095 421.096924,633.490417 421.648132,620.496216 
	C422.831207,623.161621 423.979706,625.843079 425.206940,628.487976 
	C426.461792,631.192383 427.793884,633.860901 429.236481,636.914795 
z"/>
<path fill="#EAE9EA" opacity="1.000000" stroke="none" 
	d="
M450.960541,679.548950 
	C450.980774,680.818848 450.980774,681.649902 450.980774,682.431824 
	C443.724640,676.511475 440.843597,663.673218 443.594849,649.300049 
	C447.390808,652.739563 450.269653,664.422852 450.960541,679.548950 
z"/>
<path fill="#E3E1E2" opacity="1.000000" stroke="none" 
	d="
M455.189941,525.069580 
	C453.043976,523.239014 451.267700,521.527832 449.491455,519.816711 
	C449.716003,519.283569 449.940582,518.750427 450.165131,518.217346 
	C460.301605,526.389771 469.544342,522.582581 479.133575,516.591980 
	C480.077393,518.055176 480.983856,519.460449 482.093842,521.181274 
	C473.325653,525.452026 465.009552,528.932678 455.189941,525.069580 
z"/>
<path fill="#EAE9EA" opacity="1.000000" stroke="none" 
	d="
M487.149902,624.185181 
	C488.612762,621.354736 489.559998,618.039124 491.659393,615.807495 
	C494.808472,612.459961 498.853241,609.973389 502.353699,606.932617 
	C505.434570,604.256409 507.579926,604.994751 509.802795,608.861694 
	C502.381531,613.919922 495.008362,618.945374 487.343445,624.079590 
	C487.051727,624.188293 487.149902,624.185181 487.149902,624.185181 
z"/>
<path fill="#F9F8F8" opacity="1.000000" stroke="none" 
	d="
M745.957336,567.067261 
	C746.550720,567.049805 746.987488,567.219788 747.776245,567.526672 
	C746.925842,567.677368 746.451965,567.761353 745.745239,567.747192 
	C745.512451,567.649048 745.800781,567.254700 745.957336,567.067261 
z"/>
<path fill="#EAE9EA" opacity="1.000000" stroke="none" 
	d="
M487.019653,624.225464 
	C486.987549,624.262695 486.983612,624.041992 486.983612,624.041992 
	C486.983612,624.041992 487.056274,624.272705 487.103088,624.228943 
	C487.149902,624.185181 487.051727,624.188293 487.019653,624.225464 
z"/>
<path fill="#ECEAEC" opacity="1.000000" stroke="none" 
	d="
M613.115356,657.290466 
	C613.079895,657.336487 613.104065,657.076294 613.104065,657.076294 
	C613.104065,657.076294 613.133423,657.307922 613.199280,657.286987 
	C613.265137,657.265991 613.150879,657.244446 613.115356,657.290466 
z"/>
<path fill="#FBFBFA" opacity="1.000000" stroke="none" 
	d="
M430.911682,491.937073 
	C430.760742,492.291565 430.429657,492.486237 430.098633,492.680908 
	C430.059448,492.433319 430.020264,492.185699 430.166687,491.709412 
	C430.352295,491.480682 430.731598,491.777283 430.911682,491.937073 
z"/>
<path fill="#FBFBFA" opacity="1.000000" stroke="none" 
	d="
M559.798950,625.869141 
	C559.936890,625.590210 560.085144,625.249329 560.233398,624.908447 
	C560.316101,624.989014 560.398743,625.069519 560.481445,625.150085 
	C560.361206,625.251282 560.240906,625.352539 559.940796,625.680603 
	C559.760925,625.907471 559.809143,625.807251 559.798950,625.869141 
z"/>
<path fill="#EAE9EA" opacity="1.000000" stroke="none" 
	d="
M377.056122,524.095093 
	C376.811523,524.167053 376.586121,524.273743 376.360718,524.380371 
	C376.514679,524.184387 376.668610,523.988342 376.963593,523.997925 
	C377.104645,524.203613 377.075317,524.129822 377.056122,524.095093 
z"/>
<path fill="#F5F5F5" opacity="1.000000" stroke="none" 
	d="
M532.918945,345.949005 
	C532.947510,346.167603 533.027222,346.402222 533.054199,346.642731 
	C533.058472,346.680328 532.822632,346.744873 532.697876,346.796936 
	C532.618591,346.587921 532.539368,346.378937 532.737549,346.090698 
	C533.015015,346.011475 532.952698,345.966980 532.918945,345.949005 
z"/>
<path fill="#0A090A" opacity="1.000000" stroke="none" 
	d="
M598.687378,508.252075 
	C602.545349,513.166748 606.129456,517.848328 609.713501,522.529907 
	C609.591003,523.142761 609.468506,523.755676 609.345947,524.368530 
	C602.016235,521.674622 597.667419,526.728210 592.366760,529.412842 
	C585.797424,532.740051 578.908691,532.924011 572.041504,530.335266 
	C564.609192,527.533508 557.366882,523.749390 548.794678,527.812073 
	C548.434753,524.695374 548.176514,522.459106 547.766235,518.906494 
	C536.557007,528.736328 536.174194,541.603088 533.675598,554.297607 
	C533.496216,553.871948 533.149292,553.441406 533.161560,553.021484 
	C533.707458,534.403137 533.965454,515.767700 535.015503,497.177155 
	C535.438782,489.682190 538.583252,487.044342 546.015198,485.718567 
	C562.610840,482.758118 579.279114,480.248108 596.091064,484.014984 
	C604.943176,485.998444 611.819153,491.053558 616.672668,498.704742 
	C617.612671,500.186676 617.901245,502.081848 617.991821,504.270447 
	C606.674927,498.912872 595.261047,498.159088 583.668701,500.395599 
	C588.469177,502.877563 593.441345,505.448273 598.687378,508.252075 
M589.833984,519.600769 
	C580.136780,526.465454 571.408569,521.826416 562.315857,516.013062 
	C563.096863,523.136658 567.775330,524.587463 572.092896,525.811096 
	C580.818970,528.284241 589.029541,527.202454 596.181763,521.255310 
	C594.933838,517.499878 593.231140,516.384949 589.833984,519.600769 
z"/>
<path fill="#070607" opacity="1.000000" stroke="none" 
	d="
M555.474487,614.438232 
	C554.711121,614.371887 554.154785,614.142944 553.598389,613.914001 
	C553.826599,613.620361 554.054749,613.326721 554.282898,613.033020 
	C554.808472,613.143188 555.333984,613.253296 555.964600,613.641846 
	C555.940308,614.038757 555.810913,614.157227 555.474487,614.438232 
z"/>
<path fill="#E8E6E8" opacity="1.000000" stroke="none" 
	d="
M590.114258,519.374878 
	C593.231140,516.384949 594.933838,517.499878 596.181763,521.255310 
	C589.029541,527.202454 580.818970,528.284241 572.092896,525.811096 
	C567.775330,524.587463 563.096863,523.136658 562.315857,516.013062 
	C571.408569,521.826416 580.136780,526.465454 590.114258,519.374878 
z"/>
</svg>