<svg
      width="112"
      height="61"
      viewBox="0 0 112 61"
      fill="none"
      xmlns="http://www.w3.org/2000/svg"
    >
      <path d="M110.97 49.958H91.063V53.818H110.97V49.958Z" fill="black" />
      <path d="M91.1602 47.178H99.8092V24.111L91.1602 47.178Z" fill="black" />
      <path d="M110.97 47.1779L102.414 24.1119V47.1779H110.97Z" fill="black" />
      <path
        d="M102.415 46.9409H110.971V24.4139H102.415"
        stroke="black"
        stroke-width="0.532"
        stroke-miterlimit="10"
      />
      <path
        d="M99.8092 24.4139H91.1602V46.9409H99.8092"
        stroke="black"
        stroke-width="0.532"
        stroke-miterlimit="10"
      />
      <path
        d="M110.971 9.08899H102.415V21.527H110.971V9.08899Z"
        stroke="black"
        stroke-width="0.532"
        stroke-miterlimit="10"
      />
      <path
        d="M99.8092 9.08899H91.1602V21.527H99.8092V9.08899Z"
        stroke="black"
        stroke-width="0.532"
        stroke-miterlimit="10"
      />
      <path
        d="M4.1062 10.4785V28.0179H8.35905C11.3898 28.0179 13.5798 27.3335 14.929 25.9648C16.2977 24.596 16.9821 22.3572 16.9821 19.2482C16.9821 16.1392 16.2977 13.9003 14.929 12.5316C13.5798 11.1629 11.3898 10.4785 8.35905 10.4785H4.1062ZM2.11176 29.719V8.77737H9.35627C12.5044 8.77737 14.8899 9.66705 16.5128 11.4464C18.1553 13.2062 18.9765 15.8068 18.9765 19.2482C18.9765 22.6896 18.1553 25.2999 16.5128 27.0793C14.8899 28.8391 12.5044 29.719 9.35627 29.719H2.11176ZM21.0757 19.2482C21.0757 16.1979 21.8969 13.6657 23.5394 11.6517C25.3383 9.44219 27.8118 8.33742 30.9599 8.33742C34.0884 8.33742 36.5521 9.44219 38.351 11.6517C39.9935 13.6657 40.8148 16.1979 40.8148 19.2482C40.8148 22.2985 39.9935 24.8307 38.351 26.8447C36.5521 29.0542 34.0884 30.1589 30.9599 30.1589C27.8118 30.1589 25.3383 29.0542 23.5394 26.8447C21.8969 24.8307 21.0757 22.2985 21.0757 19.2482ZM23.0701 19.2482C23.0701 21.7706 23.6958 23.8725 24.9472 25.5541C26.3551 27.4899 28.3593 28.4578 30.9599 28.4578C33.5409 28.4578 35.5451 27.4899 36.9725 25.5541C38.2044 23.8725 38.8203 21.7706 38.8203 19.2482C38.8203 16.7258 38.2044 14.614 36.9725 12.9129C35.5451 10.9967 33.5409 10.0386 30.9599 10.0386C28.3593 10.0386 26.3551 10.9967 24.9472 12.9129C23.6958 14.614 23.0701 16.7258 23.0701 19.2482ZM52.2397 29.719V8.77737H54.2342V29.719H52.2397ZM56.3365 10.4785V8.77737H72.9373V10.4785H65.6341V29.719H63.6397V10.4785H56.3365ZM73.6607 24.6156V22.8264L83.1636 9.18799H84.8354V23.0611H87.9151V24.6156H84.8354V29.719H83.1343V24.6156H73.6607ZM75.3325 23.0611H83.1343V11.8864H83.0756L75.3325 23.0611Z"
        fill="black"
      />
      <path
        d="M11.3911 47.4904V33.4459H13.3561V48.3284C13.3561 50.4669 12.913 52.0177 12.0268 52.981C11.0828 54.002 9.52234 54.5126 7.34535 54.5126C3.47302 54.5126 1.55612 52.1622 1.59465 47.4615H3.55972C3.61751 49.0605 3.77163 50.1779 4.02208 50.8136C4.60004 52.1622 5.7656 52.8365 7.51874 52.8365C9.00217 52.8365 10.0329 52.4223 10.6108 51.5939C11.131 50.804 11.3911 49.4362 11.3911 47.4904ZM17.5174 54.0791V33.4459H31.7642V35.122H19.4825V42.5777H30.9839V44.2538H19.4825V52.403H31.9087V54.0791H17.5174ZM33.6071 47.2881H35.5722C35.4951 50.987 37.7395 52.8365 42.3054 52.8365C43.6154 52.8365 44.8002 52.509 45.8598 51.854C47.1314 51.0833 47.7671 50.0141 47.7671 48.6463C47.7671 46.8546 46.3511 45.612 43.5191 44.9184L38.9243 43.7914C35.8226 43.0401 34.2717 41.3832 34.2717 38.821C34.2717 37.4339 34.7341 36.2105 35.6588 35.1509C36.9111 33.7253 38.8184 33.0125 41.3807 33.0125C43.5384 33.0125 45.3204 33.5519 46.7268 34.6307C48.268 35.8059 49.029 37.405 49.0097 39.4278H47.0447C46.9869 37.9251 46.3993 36.7403 45.2819 35.8734C44.2416 35.0835 42.9508 34.6885 41.4095 34.6885C39.9069 34.6885 38.7124 34.9872 37.8262 35.5844C36.7666 36.2972 36.2368 37.3664 36.2368 38.7921C36.2368 40.3718 37.2771 41.4218 39.3578 41.9419L44.386 43.1846C47.9501 44.0708 49.7322 45.8817 49.7322 48.6174C49.7322 49.9467 49.3276 51.1026 48.5185 52.0851C47.2084 53.7034 44.9833 54.5126 41.843 54.5126C39.2615 54.5126 37.2482 53.9346 35.8033 52.7787C34.2236 51.5264 33.4915 49.6962 33.6071 47.2881ZM52.6475 46.6523V33.4459H54.6125V46.2188C54.6125 50.6306 56.6258 52.8365 60.6522 52.8365C64.698 52.8365 66.7208 50.6306 66.7208 46.2188V33.4459H68.6859V46.6523C68.6859 48.9642 68.0694 50.804 66.8364 52.1718C65.43 53.7323 63.3686 54.5126 60.6522 54.5126C57.9551 54.5126 55.9033 53.7323 54.497 52.1718C53.264 50.7847 52.6475 48.9449 52.6475 46.6523ZM71.5922 47.2881H73.5572C73.4802 50.987 75.7246 52.8365 80.2905 52.8365C81.6005 52.8365 82.7853 52.509 83.8449 51.854C85.1164 51.0833 85.7522 50.0141 85.7522 48.6463C85.7522 46.8546 84.3362 45.612 81.5042 44.9184L76.9094 43.7914C73.8077 43.0401 72.2568 41.3832 72.2568 38.821C72.2568 37.4339 72.7192 36.2105 73.6439 35.1509C74.8962 33.7253 76.8034 33.0125 79.3657 33.0125C81.5234 33.0125 83.3055 33.5519 84.7118 34.6307C86.2531 35.8059 87.0141 37.405 86.9948 39.4278H85.0297C84.9719 37.9251 84.3843 36.7403 83.2669 35.8734C82.2266 35.0835 80.9358 34.6885 79.3946 34.6885C77.8919 34.6885 76.6975 34.9872 75.8113 35.5844C74.7517 36.2972 74.2219 37.3664 74.2219 38.7921C74.2219 40.3718 75.2622 41.4218 77.3429 41.9419L82.3711 43.1846C85.9352 44.0708 87.7172 45.8817 87.7172 48.6174C87.7172 49.9467 87.3127 51.1026 86.5035 52.0851C85.1935 53.7034 82.9683 54.5126 79.8281 54.5126C77.2465 54.5126 75.2333 53.9346 73.7884 52.7787C72.2086 51.5264 71.4766 49.6962 71.5922 47.2881Z"
        fill="black"
      />
      <path
        d="M91.1099 33.4361C92.5315 33.7677 94.0154 33.7189 95.4123 33.2948C96.8091 32.8707 98.0696 32.0861 99.0669 31.0201C99.2652 30.8089 99.4522 30.5872 99.6269 30.3561"
        stroke="black"
        stroke-width="0.532"
        stroke-miterlimit="10"
      />
      <path
        d="M94.0132 24.4141C92.679 25.4383 91.6847 26.841 91.1602 28.4391"
        stroke="black"
        stroke-width="0.532"
        stroke-miterlimit="10"
      />
      <path
        d="M110.792 12.4001C109.37 12.0688 107.886 12.118 106.49 12.5427C105.093 12.9673 103.833 13.7525 102.836 14.8191C102.658 15.0091 102.491 15.2031 102.336 15.4051"
        stroke="black"
        stroke-width="0.532"
        stroke-miterlimit="10"
      />
      <path
        d="M107.757 21.527C108.171 21.2221 108.556 20.8797 108.908 20.504C109.991 19.3484 110.72 17.9059 111.008 16.348"
        stroke="black"
        stroke-width="0.532"
        stroke-miterlimit="10"
      />
      <path
        d="M99.8092 16.477C98.8931 15.0815 97.5783 13.994 96.0357 13.3561C94.4931 12.7181 92.7943 12.5592 91.1602 12.9"
        stroke="black"
        stroke-width="0.532"
        stroke-miterlimit="10"
      />
      <path
        d="M91.1592 18.813C91.5941 19.6439 92.1661 20.3954 92.8512 21.036C93.115 21.2824 93.3943 21.5119 93.6872 21.723"
        stroke="black"
        stroke-width="0.532"
        stroke-miterlimit="10"
      />
      <path
        d="M102.519 29.953C102.778 30.2823 103.063 30.5912 103.369 30.877C104.37 31.8154 105.589 32.491 106.915 32.8431C108.241 33.1953 109.634 33.2131 110.969 32.895"
        stroke="black"
        stroke-width="0.532"
        stroke-miterlimit="10"
      />
      <path
        d="M110.974 27.5091C110.521 26.4891 109.868 25.5709 109.052 24.8091C108.905 24.6717 108.755 24.5417 108.602 24.4191"
        stroke="black"
        stroke-width="0.532"
        stroke-miterlimit="10"
      />
      <path
        d="M99.3097 24.4141C98.6615 25.3231 98.3226 26.4165 98.3432 27.5329C98.3637 28.6492 98.7425 29.7294 99.4237 30.6141"
        stroke="black"
        stroke-width="0.532"
        stroke-miterlimit="10"
      />
      <path
        d="M102.6 30.4431C103.223 29.5607 103.556 28.5068 103.554 27.4268C103.552 26.3469 103.215 25.2942 102.589 24.4141"
        stroke="black"
        stroke-width="0.532"
        stroke-miterlimit="10"
      />
      <path
        d="M102.52 21.5271C103.204 20.6124 103.569 19.4982 103.559 18.3558C103.548 17.2134 103.163 16.1061 102.462 15.2041"
        stroke="black"
        stroke-width="0.532"
        stroke-miterlimit="10"
      />
      <path
        d="M99.8089 14.781C98.9474 15.6711 98.4312 16.8392 98.3531 18.0755C98.2751 19.3119 98.6402 20.5356 99.3829 21.527"
        stroke="black"
        stroke-width="0.532"
        stroke-miterlimit="10"
      />
      <path
        d="M99.7798 21.527C98.87 20.7663 97.728 20.3385 96.5424 20.3141C95.3567 20.2897 94.1981 20.6703 93.2578 21.393"
        stroke="black"
        stroke-width="0.532"
        stroke-miterlimit="10"
      />
      <path
        d="M93.2129 24.4141C94.1318 25.1358 95.2664 25.5282 96.4349 25.5282C97.6034 25.5282 98.738 25.1358 99.6569 24.4141"
        stroke="black"
        stroke-width="0.532"
        stroke-miterlimit="10"
      />
      <path
        d="M108.813 21.5271C107.923 20.7833 106.811 20.3571 105.652 20.316C104.493 20.2749 103.353 20.6212 102.413 21.3001"
        stroke="black"
        stroke-width="0.532"
        stroke-miterlimit="10"
      />
      <path
        d="M102.414 24.5401C103.332 25.2034 104.441 25.5498 105.573 25.5271C106.705 25.5044 107.8 25.1137 108.69 24.4141"
        stroke="black"
        stroke-width="0.532"
        stroke-miterlimit="10"
      />
      <path
        d="M99.0638 24.4141C98.302 25.2202 97.7093 26.1706 97.3205 27.2093C96.9317 28.2481 96.7547 29.3541 96.7999 30.4623C96.8451 31.5705 97.1116 32.6584 97.5837 33.662C98.0558 34.6656 98.7239 35.5646 99.5488 36.3061"
        stroke="black"
        stroke-width="0.532"
        stroke-miterlimit="10"
      />
      <path
        d="M102.884 35.7831C104.322 34.237 105.118 32.2014 105.11 30.0897C105.101 27.978 104.289 25.9487 102.839 24.4141"
        stroke="black"
        stroke-width="0.532"
        stroke-miterlimit="10"
      />
      <path
        d="M102.743 21.527C103.521 20.7305 104.132 19.7856 104.538 18.7486C104.944 17.7116 105.137 16.6036 105.107 15.4903C105.076 14.377 104.822 13.2812 104.36 12.268C103.898 11.2548 103.237 10.3448 102.416 9.59204"
        stroke="black"
        stroke-width="0.532"
        stroke-miterlimit="10"
      />
      <path
        d="M99.809 9.31506C98.9229 10.0472 98.1984 10.9552 97.6813 11.9817C97.1642 13.0082 96.8657 14.1309 96.8047 15.2786C96.7437 16.4264 96.9215 17.5744 97.3269 18.6499C97.7323 19.7254 98.3565 20.7051 99.16 21.5271"
        stroke="black"
        stroke-width="0.532"
        stroke-miterlimit="10"
      />
      <path
        d="M99.8091 21.3841C98.7461 20.2554 97.3892 19.4456 95.8911 19.0458C94.3931 18.6461 92.8132 18.6721 91.3291 19.1211"
        stroke="black"
        stroke-width="0.532"
        stroke-miterlimit="10"
      />
      <path
        d="M91.1602 26.6661C92.6627 27.159 94.2746 27.2129 95.8067 26.8214C97.3388 26.4299 98.7273 25.6093 99.8092 24.4561"
        stroke="black"
        stroke-width="0.532"
        stroke-miterlimit="10"
      />
      <path
        d="M102.414 24.78C103.531 25.8468 104.924 26.5811 106.435 26.9005C107.946 27.2199 109.517 27.1117 110.97 26.588"
        stroke="black"
        stroke-width="0.532"
        stroke-miterlimit="10"
      />
      <path
        d="M110.97 19.251C109.516 18.7312 107.947 18.6251 106.436 18.9445C104.925 19.2639 103.533 19.9962 102.414 21.06"
        stroke="black"
        stroke-width="0.532"
        stroke-miterlimit="10"
      />
      <path
        d="M91.1099 35.4141C92.5313 35.7456 94.0151 35.697 95.4118 35.2733C96.8086 34.8495 98.0692 34.0655 99.0669 33.0001C99.2652 32.7889 99.4522 32.5672 99.6269 32.3361"
        stroke="black"
        stroke-width="0.532"
        stroke-miterlimit="10"
      />
      <path
        d="M102.519 31.931C103.502 33.1745 104.819 34.1119 106.316 34.633C107.813 35.1541 109.427 35.2374 110.97 34.873"
        stroke="black"
        stroke-width="0.532"
        stroke-miterlimit="10"
      />
      <path
        d="M91.1099 37.5881C92.5315 37.9193 94.0153 37.8705 95.4121 37.4463C96.8089 37.0222 98.0694 36.2379 99.0669 35.1721C99.2647 34.9604 99.4517 34.7388 99.6269 34.5081"
        stroke="black"
        stroke-width="0.532"
        stroke-miterlimit="10"
      />
      <path
        d="M102.519 34.1001C102.778 34.4294 103.063 34.7383 103.369 35.0241C104.37 35.9625 105.589 36.638 106.915 36.9902C108.241 37.3424 109.634 37.3602 110.969 37.0421"
        stroke="black"
        stroke-width="0.532"
        stroke-miterlimit="10"
      />
      <path
        d="M91.1099 39.664C92.6753 40.0278 94.3126 39.9306 95.824 39.3841C97.3354 38.8375 98.6562 37.865 99.6269 36.584"
        stroke="black"
        stroke-width="0.532"
        stroke-miterlimit="10"
      />
      <path
        d="M102.519 36.181C102.779 36.5093 103.063 36.8178 103.369 37.104C104.371 38.042 105.589 38.7173 106.915 39.0696C108.241 39.422 109.634 39.4403 110.969 39.123"
        stroke="black"
        stroke-width="0.532"
        stroke-miterlimit="10"
      />
      <path
        d="M91.1099 41.6391C92.5314 41.9713 94.0154 41.923 95.4123 41.499C96.8093 41.075 98.0698 40.2903 99.0669 39.2241C99.2647 39.0124 99.4517 38.7908 99.6269 38.5601"
        stroke="black"
        stroke-width="0.532"
        stroke-miterlimit="10"
      />
      <path
        d="M102.519 38.1571C102.779 38.4857 103.063 38.7946 103.369 39.0811C104.371 40.019 105.589 40.6942 106.915 41.0463C108.241 41.3984 109.634 41.4166 110.969 41.0991"
        stroke="black"
        stroke-width="0.532"
        stroke-miterlimit="10"
      />
      <path
        d="M91.1099 43.7171C92.5316 44.0479 94.0154 43.9987 95.4121 43.5745C96.8089 43.1502 98.0693 42.3658 99.0669 41.3001C99.2669 41.0851 99.4539 40.8631 99.6269 40.6371"
        stroke="black"
        stroke-width="0.532"
        stroke-miterlimit="10"
      />
      <path
        d="M102.519 40.2321C102.778 40.5613 103.063 40.8702 103.369 41.1561C104.37 42.0946 105.588 42.7704 106.915 43.1227C108.241 43.4751 109.634 43.493 110.969 43.1751"
        stroke="black"
        stroke-width="0.532"
        stroke-miterlimit="10"
      />
    </svg>