<svg width="110" height="58" viewBox="0 0 110 58" fill="none" xmlns="http://www.w3.org/2000/svg">
<path d="M108.81 47.946H89.021V51.783H108.81V47.946Z" fill="white"/>
<path d="M89.1182 45.181H97.7178V22.254L89.1182 45.181Z" fill="white"/>
<path d="M108.81 45.181L100.31 22.254V45.181H108.81Z" fill="white"/>
<path d="M100.306 44.947H108.806V22.555H100.306" stroke="white" stroke-width="0.529" stroke-miterlimit="10"/>
<path d="M97.7158 22.555H89.1162V44.947H97.7158" stroke="white" stroke-width="0.529" stroke-miterlimit="10"/>
<path d="M108.81 7.32202H100.306V19.683H108.81V7.32202Z" stroke="white" stroke-width="0.529" stroke-miterlimit="10"/>
<path d="M97.7162 7.32202H89.1182V19.683H97.7162V7.32202Z" stroke="white" stroke-width="0.529" stroke-miterlimit="10"/>
<path d="M3.92 8.632V25.376H7.98C10.8733 25.376 12.964 24.7227 14.252 23.416C15.5587 22.1093 16.212 19.972 16.212 17.004C16.212 14.036 15.5587 11.8987 14.252 10.592C12.964 9.28533 10.8733 8.632 7.98 8.632H3.92ZM2.016 27V7.008H8.932C11.9373 7.008 14.2147 7.85733 15.764 9.556C17.332 11.236 18.116 13.7187 18.116 17.004C18.116 20.2893 17.332 22.7813 15.764 24.48C14.2147 26.16 11.9373 27 8.932 27H2.016ZM20.12 17.004C20.12 14.092 20.904 11.6747 22.472 9.752C24.1893 7.64267 26.5506 6.588 29.556 6.588C32.5426 6.588 34.8946 7.64267 36.612 9.752C38.18 11.6747 38.964 14.092 38.964 17.004C38.964 19.916 38.18 22.3333 36.612 24.256C34.8946 26.3653 32.5426 27.42 29.556 27.42C26.5506 27.42 24.1893 26.3653 22.472 24.256C20.904 22.3333 20.12 19.916 20.12 17.004ZM22.024 17.004C22.024 19.412 22.6213 21.4187 23.816 23.024C25.16 24.872 27.0733 25.796 29.556 25.796C32.02 25.796 33.9333 24.872 35.296 23.024C36.472 21.4187 37.06 19.412 37.06 17.004C37.06 14.596 36.472 12.58 35.296 10.956C33.9333 9.12667 32.02 8.212 29.556 8.212C27.0733 8.212 25.16 9.12667 23.816 10.956C22.6213 12.58 22.024 14.596 22.024 17.004ZM49.8708 27V7.008H51.7748V27H49.8708ZM53.7819 8.632V7.008H69.6299V8.632H62.6579V27H60.7539V8.632H53.7819ZM70.3205 22.128V20.42L79.3925 7.4H80.9885V20.644H83.9285V22.128H80.9885V27H79.3645V22.128H70.3205ZM71.9165 20.644H79.3645V9.976H79.3085L71.9165 20.644Z" fill="white"/>
<path d="M11.0624 44.835V31.227H12.9664V45.647C12.9664 47.719 12.5371 49.2217 11.6784 50.155C10.7638 51.1443 9.25176 51.639 7.14242 51.639C3.39042 51.639 1.53309 49.3617 1.57042 44.807H3.47442C3.53042 46.3563 3.67976 47.439 3.92242 48.055C4.48242 49.3617 5.61176 50.015 7.31042 50.015C8.74776 50.015 9.74642 49.6137 10.3064 48.811C10.8104 48.0457 11.0624 46.7203 11.0624 44.835ZM16.9984 51.219V31.227H30.8024V32.851H18.9024V40.075H30.0464V41.699H18.9024V49.595H30.9424V51.219H16.9984ZM32.5881 44.639H34.4921C34.4174 48.223 36.5921 50.015 41.0161 50.015C42.2854 50.015 43.4334 49.6977 44.4601 49.063C45.6921 48.3163 46.3081 47.2803 46.3081 45.955C46.3081 44.219 44.9361 43.015 42.1921 42.343L37.7401 41.251C34.7347 40.523 33.2321 38.9177 33.2321 36.435C33.2321 35.091 33.6801 33.9057 34.5761 32.879C35.7894 31.4977 37.6374 30.807 40.1201 30.807C42.2107 30.807 43.9374 31.3297 45.3001 32.375C46.7934 33.5137 47.5307 35.063 47.5121 37.023H45.6081C45.5521 35.567 44.9827 34.419 43.9001 33.579C42.8921 32.8137 41.6414 32.431 40.1481 32.431C38.6921 32.431 37.5347 32.7203 36.6761 33.299C35.6494 33.9897 35.1361 35.0257 35.1361 36.407C35.1361 37.9377 36.1441 38.955 38.1601 39.459L43.0321 40.663C46.4854 41.5217 48.2121 43.2763 48.2121 45.927C48.2121 47.215 47.8201 48.335 47.0361 49.287C45.7667 50.855 43.6107 51.639 40.5681 51.639C38.0667 51.639 36.1161 51.079 34.7161 49.959C33.1854 48.7457 32.4761 46.9723 32.5881 44.639ZM51.0368 44.023V31.227H52.9408V43.603C52.9408 47.8777 54.8915 50.015 58.7928 50.015C62.7128 50.015 64.6728 47.8777 64.6728 43.603V31.227H66.5768V44.023C66.5768 46.263 65.9795 48.0457 64.7848 49.371C63.4221 50.883 61.4248 51.639 58.7928 51.639C56.1795 51.639 54.1915 50.883 52.8288 49.371C51.6341 48.027 51.0368 46.2443 51.0368 44.023ZM69.3928 44.639H71.2968C71.2221 48.223 73.3968 50.015 77.8208 50.015C79.0901 50.015 80.2381 49.6977 81.2648 49.063C82.4968 48.3163 83.1128 47.2803 83.1128 45.955C83.1128 44.219 81.7408 43.015 78.9968 42.343L74.5448 41.251C71.5394 40.523 70.0368 38.9177 70.0368 36.435C70.0368 35.091 70.4848 33.9057 71.3808 32.879C72.5941 31.4977 74.4421 30.807 76.9248 30.807C79.0154 30.807 80.7421 31.3297 82.1048 32.375C83.5981 33.5137 84.3354 35.063 84.3168 37.023H82.4128C82.3568 35.567 81.7874 34.419 80.7048 33.579C79.6968 32.8137 78.4461 32.431 76.9528 32.431C75.4968 32.431 74.3394 32.7203 73.4808 33.299C72.4541 33.9897 71.9408 35.0257 71.9408 36.407C71.9408 37.9377 72.9488 38.955 74.9648 39.459L79.8368 40.663C83.2901 41.5217 85.0168 43.2763 85.0168 45.927C85.0168 47.215 84.6248 48.335 83.8408 49.287C82.5714 50.855 80.4154 51.639 77.3728 51.639C74.8714 51.639 72.9208 51.079 71.5208 49.959C69.9901 48.7457 69.2808 46.9723 69.3928 44.639Z" fill="white"/>
<path d="M89.0688 31.524C90.4818 31.8535 91.9569 31.8052 93.3452 31.3839C94.7336 30.9626 95.9865 30.1832 96.978 29.124C97.178 28.9106 97.3638 28.691 97.5352 28.465" stroke="white" stroke-width="0.529" stroke-miterlimit="10"/>
<path d="M91.9551 22.555C91.5921 22.8318 91.253 23.1389 90.9419 23.473C90.1147 24.3534 89.4922 25.4053 89.1182 26.554" stroke="white" stroke-width="0.529" stroke-miterlimit="10"/>
<path d="M108.633 10.616C107.22 10.2864 105.745 10.3348 104.357 10.7561C102.969 11.1774 101.716 11.9568 100.724 13.016C100.547 13.204 100.382 13.399 100.224 13.599" stroke="white" stroke-width="0.529" stroke-miterlimit="10"/>
<path d="M105.615 19.681C106.028 19.3789 106.411 19.0384 106.76 18.664C107.838 17.5159 108.564 16.0825 108.851 14.534" stroke="white" stroke-width="0.529" stroke-miterlimit="10"/>
<path d="M97.7158 14.664C97.3539 14.1159 96.9291 13.6124 96.4492 13.164C95.4821 12.2579 94.3107 11.5981 93.0347 11.2404C91.7586 10.8827 90.4153 10.8376 89.1182 11.109" stroke="white" stroke-width="0.529" stroke-miterlimit="10"/>
<path d="M89.1182 16.981C89.7175 18.1306 90.5776 19.1238 91.6299 19.881" stroke="white" stroke-width="0.529" stroke-miterlimit="10"/>
<path d="M100.409 28.062C100.668 28.3882 100.95 28.695 101.253 28.98C102.249 29.9125 103.461 30.5838 104.779 30.9336C106.098 31.2835 107.483 31.3012 108.81 30.985" stroke="white" stroke-width="0.529" stroke-miterlimit="10"/>
<path d="M108.814 25.631C108.365 24.6151 107.714 23.7005 106.903 22.942C106.757 22.8087 106.608 22.6797 106.456 22.555" stroke="white" stroke-width="0.529" stroke-miterlimit="10"/>
<path d="M97.2191 22.555C96.5756 23.4588 96.2388 24.5453 96.2592 25.6546C96.2795 26.7639 96.6557 27.8374 97.3319 28.717" stroke="white" stroke-width="0.529" stroke-miterlimit="10"/>
<path d="M100.5 28.548C101.119 27.6708 101.45 26.6231 101.448 25.5496C101.446 24.4761 101.11 23.4297 100.488 22.555" stroke="white" stroke-width="0.529" stroke-miterlimit="10"/>
<path d="M100.411 19.681C101.091 18.7716 101.453 17.6644 101.442 16.5292C101.432 15.394 101.049 14.2936 100.353 13.397" stroke="white" stroke-width="0.529" stroke-miterlimit="10"/>
<path d="M97.7149 12.981C96.8591 13.8661 96.3466 15.027 96.2691 16.2556C96.1916 17.4843 96.5542 18.7004 97.292 19.686" stroke="white" stroke-width="0.529" stroke-miterlimit="10"/>
<path d="M97.687 19.681C96.7827 18.9248 95.6478 18.4993 94.4692 18.475C93.2906 18.4506 92.1389 18.8288 91.2041 19.547" stroke="white" stroke-width="0.529" stroke-miterlimit="10"/>
<path d="M91.1602 22.555C92.073 23.2712 93.1995 23.6605 94.3599 23.6605C95.5202 23.6605 96.6472 23.2712 97.5601 22.555" stroke="white" stroke-width="0.529" stroke-miterlimit="10"/>
<path d="M106.666 19.681C105.782 18.9415 104.676 18.5179 103.524 18.4772C102.373 18.4364 101.24 18.7809 100.306 19.456" stroke="white" stroke-width="0.529" stroke-miterlimit="10"/>
<path d="M100.306 22.681C101.218 23.3401 102.32 23.6844 103.445 23.6619C104.571 23.6393 105.658 23.2511 106.543 22.556" stroke="white" stroke-width="0.529" stroke-miterlimit="10"/>
<path d="M96.9751 22.555C96.2179 23.3559 95.6287 24.3004 95.2422 25.3326C94.8558 26.3649 94.6796 27.464 94.7247 28.5653C94.7697 29.6666 95.035 30.7478 95.5044 31.745C95.9739 32.7423 96.638 33.6355 97.4581 34.372" stroke="white" stroke-width="0.529" stroke-miterlimit="10"/>
<path d="M100.771 33.855C102.201 32.3184 102.992 30.2953 102.984 28.1965C102.976 26.0977 102.169 24.0807 100.728 22.555" stroke="white" stroke-width="0.529" stroke-miterlimit="10"/>
<path d="M100.632 19.681C101.405 18.8892 102.012 17.9502 102.416 16.9195C102.819 15.8888 103.011 14.7876 102.981 13.6812C102.951 12.5747 102.698 11.4857 102.239 10.4787C101.779 9.47163 101.123 8.56717 100.307 7.81897" stroke="white" stroke-width="0.529" stroke-miterlimit="10"/>
<path d="M97.7148 7.54401C96.8342 8.27202 96.1144 9.17477 95.6005 10.1952C95.0866 11.2157 94.79 12.3316 94.7294 13.4725C94.6688 14.6134 94.8456 15.7545 95.2484 16.8237C95.6513 17.8928 96.2713 18.8668 97.0697 19.684" stroke="white" stroke-width="0.529" stroke-miterlimit="10"/>
<path d="M97.7158 19.544C96.6603 18.4204 95.3121 17.6141 93.8228 17.2162C92.3334 16.8183 90.7624 16.8445 89.2871 17.292" stroke="white" stroke-width="0.529" stroke-miterlimit="10"/>
<path d="M89.1182 24.794C90.6126 25.2821 92.2147 25.3344 93.7378 24.9448C95.2608 24.5551 96.6413 23.7397 97.7178 22.594" stroke="white" stroke-width="0.529" stroke-miterlimit="10"/>
<path d="M100.306 22.918C101.417 23.9769 102.8 24.7061 104.301 25.024C105.802 25.3419 107.362 25.2359 108.806 24.718" stroke="white" stroke-width="0.529" stroke-miterlimit="10"/>
<path d="M108.81 17.423C107.366 16.9048 105.806 16.7988 104.305 17.1167C102.804 17.4345 101.42 18.1639 100.31 19.223" stroke="white" stroke-width="0.529" stroke-miterlimit="10"/>
<path d="M89.0688 33.487C90.4818 33.8173 91.9572 33.7694 93.3457 33.3481C94.7342 32.9267 95.987 32.1468 96.978 31.087C97.178 30.874 97.3622 30.653 97.5352 30.428" stroke="white" stroke-width="0.529" stroke-miterlimit="10"/>
<path d="M100.409 30.027C100.668 30.3527 100.95 30.6595 101.253 30.945C102.249 31.8767 103.461 32.5471 104.78 32.8961C106.099 33.2451 107.483 33.2619 108.81 32.945" stroke="white" stroke-width="0.529" stroke-miterlimit="10"/>
<path d="M89.0688 35.651C90.4818 35.98 91.9565 35.9315 93.3447 35.5102C94.733 35.0889 95.9862 34.3098 96.978 33.251C97.178 33.037 97.3622 32.819 97.5352 32.591" stroke="white" stroke-width="0.529" stroke-miterlimit="10"/>
<path d="M100.409 32.188C100.667 32.5141 100.949 32.8206 101.253 33.105C102.249 34.0379 103.46 34.7095 104.779 35.0595C106.098 35.4096 107.483 35.4273 108.81 35.111" stroke="white" stroke-width="0.529" stroke-miterlimit="10"/>
<path d="M89.0688 37.713C90.4818 38.0429 91.9568 37.9947 93.3452 37.5734C94.7336 37.1521 95.9867 36.3725 96.978 35.313C97.1747 35.1025 97.3607 34.8823 97.5352 34.653" stroke="white" stroke-width="0.529" stroke-miterlimit="10"/>
<path d="M100.409 34.25C101.385 35.4873 102.694 36.4199 104.182 36.9381C105.67 37.4563 107.276 37.5385 108.809 37.175" stroke="white" stroke-width="0.529" stroke-miterlimit="10"/>
<path d="M89.0688 39.681C90.4818 40.0103 91.9569 39.9619 93.3452 39.5406C94.7335 39.1193 95.9864 38.34 96.978 37.281C97.1747 37.0705 97.3607 36.8502 97.5352 36.621" stroke="white" stroke-width="0.529" stroke-miterlimit="10"/>
<path d="M100.409 36.216C100.668 36.5422 100.95 36.849 101.253 37.134C102.249 38.0668 103.46 38.7381 104.779 39.088C106.098 39.4379 107.483 39.4554 108.81 39.139" stroke="white" stroke-width="0.529" stroke-miterlimit="10"/>
<path d="M89.0688 41.74C90.4818 42.0698 91.9568 42.0217 93.3452 41.6003C94.7336 41.179 95.9867 40.3994 96.978 39.34C97.178 39.128 97.3622 38.907 97.5352 38.681" stroke="white" stroke-width="0.529" stroke-miterlimit="10"/>
<path d="M100.409 38.281C100.668 38.607 100.95 38.9138 101.253 39.199C102.249 40.1313 103.461 40.8025 104.779 41.1525C106.098 41.5026 107.483 41.5206 108.81 41.205" stroke="white" stroke-width="0.529" stroke-miterlimit="10"/>
</svg>
